<svg width="84" height="48" viewBox="0 0 84 48" fill="none" xmlns="http://www.w3.org/2000/svg">
<path fill-rule="evenodd" clip-rule="evenodd" d="M72.0571 21.4072C72.0571 20.6763 72.6343 20.0801 73.3257 20.0801C74.0376 20.0801 74.5957 20.6763 74.5957 21.4072C74.5957 22.1382 74.0376 22.7344 73.3257 22.7344C72.6343 22.7534 72.0571 22.1572 72.0571 21.4072ZM73.3257 22.4458C73.8647 22.4458 74.2881 21.9844 74.2881 21.4263C74.2881 20.8682 73.8457 20.4067 73.3257 20.4067C72.7881 20.4067 72.3647 20.8682 72.3647 21.4263C72.3647 21.9844 72.7881 22.4458 73.3257 22.4458ZM73.1528 22.0034H72.8833V20.8301H73.3652C73.4604 20.8301 73.5762 20.8301 73.6538 20.8872C73.749 20.9458 73.7886 21.0601 73.7886 21.1758C73.7886 21.3105 73.7109 21.4263 73.5952 21.4644L73.8076 21.9844H73.519L73.3462 21.5215H73.1528V22.0034ZM73.1528 21.3486H73.3066C73.3652 21.3486 73.4224 21.3486 73.4604 21.3296C73.4985 21.3105 73.519 21.2534 73.519 21.1948C73.519 21.1567 73.4985 21.0996 73.4604 21.0806C73.4224 21.0601 73.3462 21.0601 73.3066 21.0601H73.1719L73.1528 21.3486Z" fill="#FD0C15"/>
<path fill-rule="evenodd" clip-rule="evenodd" d="M53.8784 12.5391L53.5327 14.8096C52.7827 14.4053 52.2246 14.2515 51.6284 14.2515C50.0508 14.2515 48.9346 15.8672 48.9346 18.1567C48.9346 19.7329 49.6846 20.6953 50.9165 20.6953C51.4351 20.6953 52.0122 20.5225 52.7241 20.1562L52.3579 22.5425C51.5698 22.7725 51.0703 22.8501 50.4741 22.8501C48.1846 22.8501 46.7607 21.1187 46.7607 18.3486C46.7607 14.6162 48.7236 12 51.5508 12C51.9155 12 52.2437 12.0381 52.5132 12.1157L53.3979 12.3472C53.6279 12.4424 53.6865 12.4614 53.8784 12.5391Z" fill="#FD0C15"/>
<path fill-rule="evenodd" clip-rule="evenodd" d="M46.8193 14.0977C46.7607 14.0786 46.6846 14.0786 46.6069 14.0786C45.9141 14.0786 45.5112 14.4434 44.8564 15.4629L45.0483 14.1738H43.125L41.8169 22.6567H43.9526C44.7217 17.4639 44.9136 16.5791 45.9331 16.5791C45.9917 16.5791 46.0107 16.5791 46.0869 16.5791C46.2803 15.5596 46.5293 14.8096 46.8955 14.1167L46.8193 14.0977Z" fill="#FD0C15"/>
<path fill-rule="evenodd" clip-rule="evenodd" d="M34.103 22.5425C33.5259 22.7344 33.0645 22.8296 32.584 22.8296C31.5073 22.8296 30.9111 22.1763 30.9111 20.9648C30.9111 20.7334 30.9302 20.4639 30.9683 20.1943L31.103 19.3682L31.1982 18.6943L32.1226 12.9038H34.2378L33.9888 14.1548H35.0845L34.7769 16.2129H33.6987L33.1421 19.752C33.123 19.9058 33.1025 20.0215 33.1025 20.0991C33.1025 20.5415 33.334 20.7334 33.835 20.7334C34.084 20.7334 34.2568 20.7144 34.4106 20.6572L34.103 22.5425Z" fill="#FD0C15"/>
<path fill-rule="evenodd" clip-rule="evenodd" d="M25.7168 16.8472C25.7168 17.9253 26.2163 18.6563 27.3325 19.2144C28.1792 19.6377 28.333 19.771 28.333 20.1562C28.333 20.6763 27.9478 20.9253 27.1201 20.9253C26.4858 20.9253 25.9087 20.8301 25.2158 20.5796L24.9272 22.5425L25.0239 22.5615L25.4092 22.6377C25.5439 22.6567 25.7168 22.6948 25.9658 22.7153C26.4668 22.7534 26.8711 22.7915 27.1392 22.7915C29.3716 22.7915 30.4102 21.8877 30.4102 19.9644C30.4102 18.8101 29.9868 18.1172 28.9102 17.5986C28.0254 17.1753 27.9287 17.0786 27.9287 16.6743C27.9287 16.2129 28.2744 15.9829 28.9673 15.9829C29.3906 15.9829 29.9487 16.04 30.4878 16.1162L30.7954 14.1548C30.2373 14.0581 29.4097 13.9819 28.9292 13.9819C26.5239 13.9819 25.6978 15.271 25.7168 16.8472Z" fill="#FD0C15"/>
<path fill-rule="evenodd" clip-rule="evenodd" d="M70.8252 22.6377H68.8052L68.9019 21.8115C68.3247 22.4648 67.7095 22.7534 66.9404 22.7534C65.3818 22.7534 64.3623 21.3486 64.3623 19.2334C64.3623 16.4048 65.9399 14.02 67.8252 14.02C68.6514 14.02 69.2681 14.3862 69.8643 15.1743L70.3257 12.1919H72.4219L70.8252 22.6377ZM67.6904 20.6572C68.6909 20.6572 69.3823 19.4839 69.3823 17.7905C69.3823 16.7139 68.9795 16.1162 68.2471 16.1162C67.2861 16.1162 66.5933 17.3101 66.5933 18.9639C66.5933 20.0801 66.9595 20.6572 67.6904 20.6572Z" fill="#FD0C15"/>
<path fill-rule="evenodd" clip-rule="evenodd" d="M40.8354 22.4648C40.1045 22.6948 39.4131 22.8105 38.644 22.8105C36.2769 22.8105 35.0273 21.5024 35.0273 19.002C35.0273 16.0781 36.6035 13.9438 38.7393 13.9438C40.4897 13.9438 41.606 15.1553 41.606 17.0405C41.606 17.6558 41.5283 18.271 41.3364 19.1367H37.1045C37.0854 19.2715 37.0854 19.3301 37.0854 19.4062C37.0854 20.4067 37.7197 20.9062 38.9517 20.9062C39.7017 20.9062 40.3945 20.7334 41.1636 20.3687L40.8354 22.4648ZM39.6431 17.4053C39.6636 17.2324 39.6636 17.0786 39.6636 16.9819C39.6636 16.2891 39.2974 15.8862 38.6631 15.8862C37.9893 15.8862 37.5088 16.4253 37.3154 17.4053H39.6431Z" fill="#FD0C15"/>
<path fill-rule="evenodd" clip-rule="evenodd" d="M17.1753 22.6377H15.0601L16.2715 14.6162L13.5396 22.6377H12.0967L11.9238 14.6748L10.6348 22.6377H8.6543L10.3081 12.2124H13.3667L13.4443 18.6753L15.5215 12.2124H18.8306L17.1753 22.6377Z" fill="#FD0C15"/>
<path fill-rule="evenodd" clip-rule="evenodd" d="M22.6582 18.8672C22.4268 18.8481 22.3315 18.8291 22.1777 18.8291C20.9648 18.8291 20.3687 19.2715 20.3687 20.1182C20.3687 20.6382 20.6763 20.9839 21.1377 20.9839C21.9844 20.9839 22.6201 20.1182 22.6582 18.8672ZM24.1963 22.6377H22.4268L22.4648 21.7529C21.9272 22.4648 21.2153 22.7725 20.2339 22.7725C19.0796 22.7725 18.2915 21.8306 18.2915 20.4639C18.2915 18.3867 19.6758 17.1943 22.0239 17.1943C22.2729 17.1943 22.5806 17.2134 22.8882 17.2515C22.9468 16.9629 22.9658 16.8472 22.9658 16.6934C22.9658 16.1367 22.6011 15.9243 21.6006 15.9243C21.0044 15.9243 20.3115 16.021 19.8296 16.1748L19.5615 16.27L19.3682 16.3286L19.6567 14.4243C20.7144 14.0977 21.4263 13.9629 22.1968 13.9629C24.0234 13.9629 24.9858 14.8286 24.9858 16.4443C24.9858 16.8677 24.9463 17.1753 24.8115 18.1362L24.3896 21.1567L24.312 21.6958L24.2549 22.1177L24.2168 22.4268L24.1963 22.6377Z" fill="#FD0C15"/>
<path fill-rule="evenodd" clip-rule="evenodd" d="M57.5522 18.8672C57.3413 18.8481 57.2256 18.8291 57.0718 18.8291C55.8604 18.8291 55.2437 19.2715 55.2437 20.1182C55.2437 20.6382 55.5527 20.9839 56.0142 20.9839C56.8799 20.9839 57.5142 20.1182 57.5522 18.8672ZM59.0918 22.6377H57.3223L57.3604 21.7529C56.8213 22.4648 56.1094 22.7725 55.1294 22.7725C53.9751 22.7725 53.1855 21.8306 53.1855 20.4639C53.1855 18.3867 54.5713 17.1943 56.918 17.1943C57.148 17.1943 57.4761 17.2134 57.7837 17.2515C57.8408 16.9629 57.8599 16.8472 57.8599 16.6934C57.8599 16.1367 57.4951 15.9243 56.4946 15.9243C55.8984 15.9243 55.2056 16.021 54.7251 16.1748L54.4175 16.251L54.2241 16.3096L54.5127 14.4053C55.5718 14.0786 56.2837 13.9438 57.0527 13.9438C58.8794 13.9438 59.8418 14.8096 59.8418 16.4253C59.8418 16.8472 59.8037 17.1562 59.6689 18.1172L59.2266 21.1187L59.168 21.6577L59.1108 22.0796L59.0728 22.3682L59.0918 22.6377Z" fill="#FD0C15"/>
<path fill-rule="evenodd" clip-rule="evenodd" d="M65.0361 14.0977C64.9775 14.0786 64.9014 14.0786 64.8237 14.0786C64.1309 14.0786 63.7266 14.4434 63.0732 15.4629L63.2666 14.1738H61.3418L60.0337 22.6567H62.1694C62.9385 17.4639 63.1304 16.5791 64.1499 16.5791C64.2085 16.5791 64.2085 16.5791 64.3052 16.5791C64.4971 15.5596 64.7666 14.8096 65.1123 14.1167L65.0361 14.0977Z" fill="#FD0C15"/>
<path fill-rule="evenodd" clip-rule="evenodd" d="M56.1094 30.8906C56.1094 32.814 55.5132 33.9492 54.5713 33.9492C53.8784 33.9683 53.4741 33.1992 53.4741 32.064C53.4741 30.7178 54.0894 29.1782 55.0518 29.1782C55.8398 29.1782 56.1094 30.0059 56.1094 30.8906ZM58.207 30.9097C58.207 28.7739 57.1479 27.1011 55.1675 27.1011C52.8779 27.1011 51.397 29.1211 51.397 32.1021C51.397 34.2378 52.2817 35.9883 54.4365 35.9883C56.6104 35.9883 58.207 34.4487 58.207 30.9097Z" fill="#F3AE12"/>
<path fill-rule="evenodd" clip-rule="evenodd" d="M52.0708 25.6201L51.7427 27.8892C51.0322 27.4863 50.5313 27.3311 49.9731 27.3311C48.4922 27.3311 47.4536 28.9482 47.4536 31.2363C47.4536 32.814 48.1465 33.7764 49.3008 33.7764C49.8003 33.7764 50.3394 33.6021 50.9927 33.2373L50.647 35.6221C49.916 35.8535 49.4341 35.9297 48.8774 35.9297C46.7417 35.9297 45.3955 34.1997 45.3955 31.4282C45.3955 27.6973 47.2412 25.0811 49.8779 25.0811C50.2236 25.0811 50.5122 25.1191 50.7627 25.1968L51.5698 25.4268C51.8394 25.5044 51.8965 25.5234 52.0708 25.6201Z" fill="#F3AE12"/>
<path fill-rule="evenodd" clip-rule="evenodd" d="M38.9312 27.1582C38.874 27.1392 38.7979 27.1392 38.7202 27.1392C38.0669 27.1392 37.7007 27.5054 37.0854 28.5234L37.2773 27.2358H35.4888L34.2759 35.7188H36.2578C36.9697 30.5244 37.1616 29.6396 38.105 29.6396C38.1621 29.6396 38.1621 29.6396 38.2588 29.6587C38.4316 28.6392 38.6821 27.8892 39.0088 27.1963L38.9312 27.1582Z" fill="#F3AE12"/>
<path fill-rule="evenodd" clip-rule="evenodd" d="M64.8618 35.6411H62.9766L63.0732 34.8149C62.5342 35.4683 61.957 35.7568 61.2261 35.7568C59.7832 35.7568 58.8223 34.3521 58.8223 32.2368C58.8223 29.4097 60.3032 27.0234 62.0537 27.0234C62.8228 27.0234 63.4189 27.3896 63.958 28.1968L64.4004 25.2158H66.3633L64.8618 35.6411ZM61.9189 33.6416C62.8623 33.6416 63.4966 32.4683 63.4966 30.7749C63.4966 29.6982 63.1304 29.1211 62.439 29.1211C61.5352 29.1211 60.8994 30.2944 60.8994 31.9673C60.8994 33.0835 61.2451 33.6416 61.9189 33.6416Z" fill="#F3AE12"/>
<path fill-rule="evenodd" clip-rule="evenodd" d="M20.3115 35.603C19.6377 35.8345 18.9844 35.9502 18.2725 35.9502C16.0605 35.9502 14.9062 34.6421 14.9062 32.1401C14.9062 29.2368 16.3872 27.082 18.3677 27.082C20.0039 27.082 21.0425 28.2744 21.0425 30.1787C21.0425 30.7939 20.9648 31.4092 20.792 32.2749H16.8486C16.8296 32.4097 16.8296 32.4683 16.8296 32.5444C16.8296 33.5259 17.4258 34.0254 18.5801 34.0254C19.292 34.0254 19.9263 33.8525 20.6382 33.4878L20.3115 35.603ZM19.1953 30.5435C19.1953 30.3706 19.2144 30.2168 19.2144 30.1216C19.2144 29.4287 18.8687 29.0244 18.2725 29.0244C17.6367 29.0244 17.1943 29.5635 17.0024 30.5435H19.1953Z" fill="#F3AE12"/>
<path fill-rule="evenodd" clip-rule="evenodd" d="M43.9336 35.603C43.2598 35.8345 42.6064 35.9502 41.8945 35.9502C39.6636 35.9502 38.5078 34.6421 38.5078 32.1401C38.5078 29.2368 39.9902 27.082 41.9707 27.082C43.6055 27.082 44.6646 28.2744 44.6646 30.1787C44.6646 30.7939 44.5869 31.4092 44.4141 32.2749H40.4707C40.4517 32.4097 40.4517 32.4683 40.4517 32.5444C40.4517 33.5259 41.0479 34.0254 42.2022 34.0254C42.9141 34.0254 43.5483 33.8525 44.2603 33.4878L43.9336 35.603ZM42.8174 30.5435C42.8364 30.3706 42.8364 30.2168 42.8364 30.1216C42.8364 29.4287 42.4907 29.0244 41.8945 29.0244C41.2588 29.0244 40.8164 29.5635 40.6245 30.5435H42.8174Z" fill="#F3AE12"/>
<path fill-rule="evenodd" clip-rule="evenodd" d="M71.6338 35.603C70.9409 35.8345 70.2876 35.9502 69.5947 35.9502C67.3828 35.9502 66.2095 34.6421 66.2095 32.1401C66.2095 29.2368 67.6904 27.082 69.6914 27.082C71.3262 27.082 72.3647 28.2744 72.3647 30.1787C72.3647 30.7939 72.2871 31.4092 72.1143 32.2749H68.1709C68.1519 32.4097 68.1519 32.4683 68.1519 32.5444C68.1519 33.5259 68.748 34.0254 69.9023 34.0254C70.6143 34.0254 71.2485 33.8525 71.9604 33.4878L71.6338 35.603ZM70.5176 30.5435C70.5176 30.3706 70.5366 30.2168 70.5366 30.1216C70.5366 29.4287 70.1909 29.0244 69.5947 29.0244C68.959 29.0244 68.5181 29.5635 68.3247 30.5435H70.5176Z" fill="#F3AE12"/>
<path fill-rule="evenodd" clip-rule="evenodd" d="M14.4243 27.5435C14.0405 27.2739 13.5015 27.063 12.7705 27.063C11.9619 27.063 11.3276 27.2358 11.3276 28.0811C11.3276 29.5825 14.2515 29.0244 14.2515 32.2559C14.2515 35.1987 12.3281 35.9692 10.5776 35.9692C9.80859 35.9692 8.90332 35.7187 8.25 35.4111L8.73047 33.2563C9.13477 33.6226 9.92432 33.8716 10.5967 33.8716C11.231 33.8716 12.1934 33.6987 12.1934 32.6016C12.1934 30.8906 9.26953 31.5249 9.26953 28.5234C9.26953 25.7739 10.9819 24.9653 12.6357 24.9653C13.5586 24.9653 14.4448 25.1001 14.9443 25.4458L14.4243 27.5435Z" fill="#F3AE12"/>
<path fill-rule="evenodd" clip-rule="evenodd" d="M26.1211 35.603C25.7168 35.7949 25.1587 35.9297 24.3501 35.9297C22.6201 35.9297 21.542 34.1997 21.542 32.083C21.542 29.313 23.1006 27.1201 25.3887 27.1201C25.8896 27.1201 26.6587 27.3311 27.2549 27.6782L26.814 29.6982C26.3892 29.4097 25.9468 29.2368 25.4854 29.2368C24.4277 29.2368 23.6587 30.2168 23.6587 31.9482C23.6587 32.9487 24.2168 33.7764 25.0825 33.7764C25.6011 33.7764 25.9658 33.6606 26.4097 33.4102L26.1211 35.603Z" fill="#F3AE12"/>
<path fill-rule="evenodd" clip-rule="evenodd" d="M33.5449 33.4673C33.4497 34.1997 33.353 34.9102 33.2959 35.6602H31.3916L31.5454 34.2949H31.5264C30.9302 35.2192 30.3149 35.8535 29.2178 35.8535C28.0254 35.8535 27.3706 34.5835 27.3706 32.9487C27.3706 32.3716 27.4087 32.064 27.5244 31.1792L28.0635 27.2549H30.1992L29.6221 31.1982C29.5635 31.6216 29.4873 32.0449 29.4873 32.4873C29.4873 32.9868 29.7173 33.4878 30.2944 33.4482C31.1602 33.4482 31.6802 32.3906 31.834 31.1411L32.4302 27.2549H34.4883L33.5449 33.4673Z" fill="#F3AE12"/>
<path fill-rule="evenodd" clip-rule="evenodd" d="M73.6143 35.5649H73.2876V34.1602H72.8262V33.8525H74.0757V34.1602H73.6143V35.5649Z" fill="#F3AE12"/>
<path fill-rule="evenodd" clip-rule="evenodd" d="M75.75 35.5649H75.4424V34.1411L75.1538 35.5649H74.8462L74.5576 34.1411V35.5649H74.25V33.8525H74.7305L75 35.1987H75.019L75.2886 33.8525H75.75V35.5649Z" fill="#F3AE12"/>
</svg>
