<svg width="84" height="48" viewBox="0 0 84 48" fill="none" xmlns="http://www.w3.org/2000/svg">
<path d="M53.3258 25.6307L53.9529 25.8189C53.9111 25.9966 53.8484 26.1429 53.7543 26.2579C53.6603 26.3729 53.5557 26.467 53.4198 26.5192C53.284 26.5819 53.1167 26.6133 52.9077 26.6133C52.6568 26.6133 52.4582 26.5819 52.2909 26.5088C52.1341 26.4356 51.9982 26.3102 51.8833 26.122C51.7683 25.9443 51.7056 25.7039 51.7056 25.4217C51.7056 25.0454 51.8101 24.7527 52.0087 24.5436C52.2073 24.3346 52.5 24.2405 52.8658 24.2405C53.1585 24.2405 53.378 24.3032 53.5453 24.4182C53.7125 24.5332 53.838 24.7109 53.9111 24.9617L53.284 25.0976C53.2631 25.0245 53.2421 24.9722 53.2108 24.9408C53.169 24.8886 53.1272 24.8468 53.0644 24.8154C53.0017 24.784 52.939 24.7736 52.8763 24.7736C52.7195 24.7736 52.5941 24.8363 52.5104 24.9722C52.4477 25.0663 52.4164 25.2231 52.4164 25.4217C52.4164 25.6725 52.4582 25.8502 52.5313 25.9443C52.6045 26.0384 52.7195 26.0907 52.8554 26.0907C52.9913 26.0907 53.0958 26.0488 53.1585 25.9757C53.2421 25.8816 53.2944 25.7771 53.3258 25.6307Z" fill="#225E63"/>
<path d="M54.2036 25.4216C54.2036 25.0453 54.3081 24.7526 54.5172 24.5436C54.7263 24.3345 55.0189 24.23 55.3952 24.23C55.782 24.23 56.0747 24.3345 56.2837 24.5331C56.4928 24.7422 56.5973 25.0244 56.5973 25.4007C56.5973 25.6725 56.5555 25.892 56.4614 26.0592C56.3674 26.2265 56.2419 26.3624 56.0642 26.4565C55.897 26.5505 55.6775 26.6028 55.4266 26.6028C55.1653 26.6028 54.9562 26.561 54.7785 26.4774C54.6113 26.3937 54.4754 26.2683 54.3604 26.0802C54.2454 25.892 54.2036 25.6934 54.2036 25.4216ZM54.9144 25.4216C54.9144 25.6516 54.9562 25.8188 55.0398 25.9234C55.1235 26.0279 55.2385 26.0802 55.3952 26.0802C55.552 26.0802 55.667 26.0279 55.7506 25.9338C55.8343 25.8293 55.8761 25.6516 55.8761 25.4007C55.8761 25.1812 55.8343 25.0244 55.7402 24.9303C55.6566 24.8258 55.5311 24.784 55.3848 24.784C55.2385 24.784 55.1235 24.8363 55.0398 24.9408C54.9562 25.0244 54.9144 25.1917 54.9144 25.4216Z" fill="#225E63"/>
<path d="M56.9633 24.2717H57.8936L58.249 25.6724L58.6044 24.2717H59.5347V26.5714H58.9493V24.8153L58.4999 26.5714H57.9772L57.5277 24.8153V26.5714H56.9424V24.2717H56.9633Z" fill="#225E63"/>
<path d="M59.9946 24.2717H61.1758C61.4371 24.2717 61.6253 24.3344 61.7507 24.4599C61.8762 24.5853 61.9389 24.7526 61.9389 24.9825C61.9389 25.2125 61.8657 25.4006 61.7298 25.5261C61.5939 25.662 61.3744 25.7247 61.0922 25.7247H60.7054V26.5818H59.9946V24.2717V24.2717ZM60.7054 25.2543H60.8831C61.019 25.2543 61.1131 25.2334 61.1758 25.1811C61.2281 25.1289 61.2594 25.0766 61.2594 25.0034C61.2594 24.9303 61.2385 24.8675 61.1863 24.8153C61.134 24.763 61.0504 24.7421 60.9145 24.7421H60.7159V25.2543H60.7054Z" fill="#225E63"/>
<path d="M62.3154 24.2717H63.0262V26.0069H64.1342V26.5714H62.3154V24.2717Z" fill="#225E63"/>
<path d="M64.4897 24.2717H65.2005V26.5714H64.4897V24.2717Z" fill="#225E63"/>
<path d="M67.1235 26.1847H66.3187L66.2037 26.561H65.4824L66.35 24.2614H67.1235L67.9911 26.561H67.249L67.1235 26.1847ZM66.9772 25.6934L66.7263 24.8676L66.4755 25.6934H66.9772Z" fill="#225E63"/>
<path d="M68.2109 24.2717H68.8695L69.7371 25.547V24.2717H70.4061V26.5714H69.7371L68.8799 25.3066V26.5714H68.2109V24.2717V24.2717Z" fill="#225E63"/>
<path d="M70.7197 24.2717H72.8835V24.8362H72.1622V26.5714H71.4514V24.8362H70.7302V24.2717H70.7197Z" fill="#225E63"/>
<path d="M44.7753 27.7735L46.8345 27.1254L46.1655 25.6411C45.6742 26.2578 45.1829 27.0523 44.7753 27.7735ZM44.0749 20.9895L40.0401 12L10.5 13.6725L18.6847 36L34.4373 31.0348C33.4338 29.5923 33.0679 27.8781 34.2282 27.0418C35.5244 26.101 37.4791 27.1882 38.723 28.7247C39.9251 26.7178 43.3014 22.0453 44.0749 20.9895Z" fill="#225E63"/>
<path d="M39.1197 18.4964C40.3532 18.4964 41.3567 17.5557 41.3567 16.3849C41.3567 15.2142 40.3532 14.2734 39.1197 14.2734C37.8863 14.2734 36.8828 15.2142 36.8828 16.3849C36.8828 17.5452 37.8863 18.4964 39.1197 18.4964ZM37.2905 19.4058H40.949V28.9703H37.2905V19.4058Z" fill="#FEFEFE"/>
<path d="M35.4824 22.1968C35.5138 22.2072 35.5347 22.1968 35.5347 22.1654V19.7403C35.5347 19.709 35.5138 19.6776 35.4824 19.6567C35.4824 19.6567 35.0016 19.3431 33.5381 19.2595C33.465 19.2177 32.1793 19.2072 31.8343 19.2595C26.5033 19.6881 26.3047 23.5452 26.3047 23.7125V24.6532C26.3047 24.7682 26.3047 28.709 31.8343 29.0539C32.3779 29.0957 33.4336 29.0539 33.5381 29.0539C34.8134 29.0539 35.6915 28.6672 35.6915 28.6672C35.7228 28.6567 35.7437 28.6254 35.7437 28.594V26.3257C35.7437 26.2944 35.7228 26.2839 35.7019 26.3048C35.7019 26.3048 35.3047 26.6184 33.5695 26.7961C33.0782 26.8484 32.8378 26.8275 32.6601 26.7961C30.1932 26.378 30.0782 24.5801 30.0782 24.5801C30.0782 24.5487 30.0678 24.4964 30.0678 24.4755V23.7856C30.0678 23.7543 30.0678 23.702 30.0782 23.6811C30.0782 23.6811 30.2455 21.7473 32.6601 21.5383H33.5695C34.6252 21.6741 35.4824 22.1968 35.4824 22.1968Z" fill="#FEFEFE"/>
<path d="M16.144 28.9391C16.144 28.9704 16.1649 28.9913 16.1963 28.9913H19.7608C19.7921 28.9913 19.813 28.9704 19.813 28.9391V26.1586C19.813 26.1272 19.8339 26.1063 19.8653 26.1063C19.8653 26.1063 25.5622 26.514 25.5622 22.6986C25.5622 19.6777 21.9872 19.3537 20.8165 19.406C20.7956 19.406 16.1963 19.406 16.1963 19.406C16.1649 19.406 16.144 19.4269 16.144 19.4582V28.9391ZM19.7503 23.9844V21.4861H20.6284C20.6284 21.4861 21.8932 21.5384 21.9977 22.406C22.0186 22.4687 22.0186 22.8973 21.9977 22.9182C21.8305 23.9321 20.7329 23.9844 20.7329 23.9844H19.7503Z" fill="#FEFEFE"/>
<path d="M39.2246 33.5854C39.5173 33.5854 39.7473 33.5854 40.1236 33.4182C41.4198 32.7387 45.7996 22.0453 50.4198 18.7526C50.4511 18.7317 50.4825 18.7004 50.5034 18.669C50.5348 18.6272 50.5348 18.5854 50.5348 18.5854C50.5348 18.5854 50.5348 18.3659 49.8553 18.3659C45.7473 18.2509 41.472 26.8746 39.2246 30.2823C39.1933 30.3241 39.0469 30.2823 39.0469 30.2823C39.0469 30.2823 37.5417 28.5053 36.2351 27.8258C36.2037 27.8154 36.0574 27.7631 35.9006 27.7736C35.7961 27.7736 35.1898 27.899 34.9076 28.1917C34.5731 28.5471 34.5835 28.7457 34.5835 29.1742C34.5835 29.2056 34.6044 29.3519 34.6463 29.4251C34.9703 29.9896 36.4233 31.9966 37.6253 33.1046C37.803 33.2405 38.0853 33.5854 39.2246 33.5854Z" fill="#2BBC5D"/>
<path d="M51.6323 15.5226H55.0504C55.7299 15.5226 56.2734 15.6167 56.6811 15.7944C57.0992 15.9825 57.4442 16.2438 57.7055 16.5783C57.9773 16.9233 58.1759 17.3205 58.2909 17.77C58.4163 18.2194 58.479 18.7003 58.479 19.2125C58.479 20.0069 58.3849 20.6236 58.2072 21.0627C58.0295 21.5017 57.7787 21.8675 57.4546 22.1707C57.1306 22.4634 56.7856 22.662 56.4198 22.7665C55.918 22.9024 55.4581 22.9651 55.0504 22.9651H51.6323V15.5226V15.5226ZM53.932 17.2055V21.2717H54.4964C54.9773 21.2717 55.3222 21.2194 55.5208 21.1149C55.7194 21.0104 55.8867 20.8222 56.0017 20.5609C56.1166 20.2996 56.1794 19.8606 56.1794 19.2647C56.1794 18.4703 56.0539 17.9372 55.7926 17.6445C55.5313 17.3519 55.1132 17.2055 54.5069 17.2055H53.932Z" fill="#225E63"/>
<path d="M59.1167 20.5087L61.3118 20.3728C61.3641 20.7282 61.4582 21 61.6045 21.1881C61.8449 21.4913 62.1794 21.6376 62.6185 21.6376C62.9425 21.6376 63.2038 21.5644 63.3815 21.4076C63.5592 21.2508 63.6533 21.0731 63.6533 20.8745C63.6533 20.6864 63.5697 20.5087 63.4024 20.3519C63.2352 20.1951 62.838 20.0592 62.2212 19.9233C61.2073 19.6933 60.4965 19.3902 60.0575 19.0139C59.6184 18.6376 59.4094 18.1568 59.4094 17.5714C59.4094 17.1846 59.5244 16.8292 59.7439 16.4843C59.9634 16.1393 60.2979 15.878 60.7474 15.6794C61.1968 15.4808 61.8031 15.3867 62.5766 15.3867C63.5279 15.3867 64.2596 15.5644 64.7509 15.9198C65.2526 16.2752 65.5453 16.8397 65.6394 17.6132L63.4651 17.7386C63.4024 17.4041 63.2874 17.1637 63.0993 17.0069C62.9111 16.8501 62.6603 16.777 62.3362 16.777C62.0644 16.777 61.8658 16.8292 61.7299 16.9442C61.5941 17.0592 61.5313 17.1951 61.5313 17.3623C61.5313 17.4773 61.5836 17.5923 61.6986 17.6864C61.8031 17.7804 62.0644 17.8745 62.4721 17.9581C63.4756 18.1777 64.1969 18.3972 64.6359 18.6167C65.0749 18.8362 65.3885 19.1184 65.5871 19.4425C65.7857 19.7665 65.8798 20.1428 65.8798 20.5505C65.8798 21.0313 65.7439 21.4703 65.4826 21.8676C65.2212 22.2752 64.8449 22.5784 64.3746 22.7874C63.9042 22.9965 63.2979 23.101 62.5766 23.101C61.3118 23.101 60.4338 22.8606 59.9425 22.3693C59.4616 21.878 59.1899 21.2613 59.1167 20.5087Z" fill="#225E63"/>
<path d="M66.4653 20.5087L68.6605 20.3728C68.7127 20.7282 68.8068 21 68.9531 21.1881C69.1936 21.4913 69.528 21.6376 69.9671 21.6376C70.2911 21.6376 70.5524 21.5644 70.7301 21.4076C70.9078 21.2508 71.0019 21.0731 71.0019 20.8745C71.0019 20.6864 70.9183 20.5087 70.751 20.3519C70.5838 20.1951 70.1866 20.0592 69.5699 19.9233C68.5559 19.6933 67.8451 19.3902 67.4061 19.0139C66.9775 18.6376 66.758 18.1568 66.758 17.5714C66.758 17.1846 66.873 16.8292 67.0925 16.4843C67.312 16.1393 67.6465 15.878 68.096 15.6794C68.5455 15.4808 69.1517 15.3867 69.9253 15.3867C70.8765 15.3867 71.6082 15.5644 72.0995 15.9198C72.6012 16.2752 72.8939 16.8397 72.988 17.6132L70.8138 17.7386C70.751 17.4041 70.6361 17.1637 70.4479 17.0069C70.2598 16.8501 70.0089 16.777 69.6848 16.777C69.4131 16.777 69.2145 16.8292 69.0786 16.9442C68.9427 17.0592 68.88 17.1951 68.88 17.3623C68.88 17.4773 68.9322 17.5923 69.0472 17.6864C69.1517 17.7804 69.4131 17.8745 69.8207 17.9581C70.8242 18.1777 71.5455 18.3972 71.9845 18.6167C72.4235 18.8362 72.7371 19.1184 72.9357 19.4425C73.1343 19.7665 73.2284 20.1428 73.2284 20.5505C73.2284 21.0313 73.0925 21.4703 72.8312 21.8676C72.5699 22.2752 72.1935 22.5784 71.7232 22.7874C71.2528 22.9965 70.6465 23.101 69.9253 23.101C68.6604 23.101 67.7824 22.8606 67.2911 22.3693C66.7998 21.878 66.528 21.2613 66.4653 20.5087Z" fill="#225E63"/>
</svg>
