<svg width="84" height="48" viewBox="0 0 84 48" fill="none" xmlns="http://www.w3.org/2000/svg">
<path d="M36.8121 24.8215L34.0248 32.3619L33.7314 30.8362C33.0272 28.9585 31.5309 26.9927 29.7705 26.2005L32.3231 35.8827H35.3451L39.8341 24.8509H36.8121V24.8215Z" fill="#025EA3"/>
<path d="M39.189 35.8827L40.9787 24.8215H43.8247L42.0643 35.8827H39.189Z" fill="#025EA3"/>
<path d="M52.4213 25.0855C51.8638 24.8508 50.9543 24.6161 49.8687 24.6161C47.0521 24.6161 45.0569 26.1124 45.0569 28.2542C45.0276 29.8386 46.4653 30.7188 47.5508 31.2469C48.6657 31.775 49.0472 32.1271 49.0472 32.6259C49.0472 33.3594 48.167 33.7114 47.3455 33.7114C46.2012 33.7114 45.5851 33.5354 44.6462 33.1246L44.2648 32.9486L43.854 35.4132C44.5288 35.7066 45.7611 36 47.0227 36C50.0154 36 51.9812 34.5036 51.9812 32.2151C51.9812 30.9535 51.2183 29.9853 49.5753 29.2224C48.5777 28.7237 47.9616 28.3716 47.9616 27.8435C47.9616 27.374 48.4897 26.9046 49.6046 26.9046C50.5435 26.8753 51.2183 27.11 51.7464 27.3154L52.0105 27.4327L52.4213 25.0855Z" fill="#025EA3"/>
<path d="M59.7269 24.8215H57.5264C56.8516 24.8215 56.3235 25.0269 56.0301 25.7311L51.8052 35.8533H54.7978C54.7978 35.8533 55.2966 34.5037 55.3846 34.1809C55.7074 34.1809 58.612 34.1809 59.0521 34.1809C59.1401 34.5624 59.4042 35.824 59.4042 35.824H62.0448L59.7269 24.8215ZM56.2062 31.9511C56.4409 31.3056 57.3504 28.8704 57.3504 28.8704C57.3211 28.8998 57.5851 28.225 57.7318 27.8142L57.9079 28.7531C57.9079 28.7531 58.4653 31.3937 58.5827 31.9511C58.1426 31.9511 56.7636 31.9511 56.2062 31.9511Z" fill="#025EA3"/>
<path d="M31.414 24.8215H26.8077L26.7783 24.9976C30.3578 25.9364 32.7343 28.1956 33.7025 30.8362L32.705 25.7604C32.5289 25.0563 32.0302 24.8509 31.414 24.8215Z" fill="#F1A535"/>
<path d="M18.1815 22.1516H16.3625L14.25 12.6748L16.2745 12.3521L17.7121 19.7457L21.3502 12.4401H23.2867L18.1815 22.1516Z" fill="#025EA3"/>
<path d="M27.629 19.0709H23.2867C23.1694 20.3912 23.7855 20.9486 24.8124 20.9486C25.6926 20.9486 26.4554 20.6259 27.277 20.0978V21.418C26.4848 21.9168 25.5459 22.2396 24.4603 22.2396C22.5826 22.2396 21.321 21.154 21.7024 18.7188C22.0545 16.5183 23.5508 15.198 25.3405 15.198C27.365 15.198 28.0398 16.7237 27.7464 18.6308C27.6877 18.8068 27.6584 18.9535 27.629 19.0709ZM25.0765 16.3716C24.4017 16.3716 23.7855 16.8997 23.4921 18.0146H26.1914C26.2207 16.9584 25.898 16.3716 25.0765 16.3716Z" fill="#025EA3"/>
<path d="M30.475 18.22L29.8882 22.0929H28.2158L29.2427 15.3154H30.6804V16.665C31.2378 15.8729 32.03 15.2274 33.0862 15.1687V16.8411C32.0007 16.9584 31.0618 17.5159 30.475 18.22Z" fill="#025EA3"/>
<path d="M33.0566 22.1222L34.0835 15.3447H35.7559L34.729 22.1222H33.0566ZM35.1104 14.2004C34.553 14.2004 34.1716 13.819 34.2596 13.2616C34.3476 12.6748 34.8464 12.2933 35.4332 12.2933C35.9613 12.2933 36.3427 12.6748 36.2547 13.2616C36.1667 13.819 35.6679 14.2004 35.1104 14.2004Z" fill="#025EA3"/>
<path d="M40.4209 13.4963C39.8341 13.4963 39.5114 13.7603 39.394 14.3471L39.2473 15.3447H40.5383V16.7237H39.042L38.2204 22.1222H36.5481L37.3696 16.7237H36.4014L36.6067 15.3447H37.575L37.751 14.1711C37.9857 12.6748 39.0126 12.1173 40.4209 12.1173C40.7143 12.1173 40.949 12.1466 41.0957 12.176V13.555C40.949 13.5256 40.7143 13.4963 40.4209 13.4963Z" fill="#025EA3"/>
<path d="M40.4507 22.1222L41.4776 15.3447H43.15L42.1231 22.1222H40.4507ZM42.5045 14.2004C41.947 14.2004 41.5656 13.819 41.6536 13.2616C41.7416 12.6748 42.2404 12.2933 42.8272 12.2933C43.3847 12.2933 43.7661 12.7041 43.6781 13.2616C43.5607 13.819 43.0619 14.2004 42.5045 14.2004Z" fill="#025EA3"/>
<path d="M49.6925 19.0709H45.3502C45.2329 20.3912 45.849 20.9486 46.8759 20.9486C47.7561 20.9486 48.5189 20.6259 49.3404 20.0978V21.418C48.5483 21.9168 47.6094 22.2396 46.5238 22.2396C44.6461 22.2396 43.3844 21.154 43.7659 18.7188C44.1179 16.5183 45.6143 15.198 47.404 15.198C49.4285 15.198 50.1033 16.7237 49.8099 18.6308C49.7512 18.8068 49.6925 18.9535 49.6925 19.0709ZM47.1399 16.3716C46.4651 16.3716 45.849 16.8997 45.5556 18.0146H48.2549C48.2842 16.9584 47.9321 16.3716 47.1399 16.3716Z" fill="#025EA3"/>
<path d="M54.6512 22.1222V21.1834C54.0937 21.7702 53.3602 22.2689 52.4213 22.2689C51.013 22.2689 50.0448 21.2127 50.3969 18.9242C50.7783 16.401 52.3333 15.2861 53.9177 15.2861C54.5631 15.2861 55.0619 15.4034 55.4433 15.5501L55.9421 12.2934L57.6732 12L56.1181 22.1222H54.6512ZM55.238 16.9291C54.8565 16.7237 54.5338 16.6357 53.9763 16.6357C53.0961 16.6357 52.3333 17.3399 52.0986 18.8362C51.8932 20.1565 52.3626 20.7726 53.0961 20.7726C53.7123 20.7726 54.2404 20.4205 54.7685 19.8337L55.238 16.9291Z" fill="#025EA3"/>
<path d="M61.2525 22.1809C60.4603 22.1809 59.8149 22.0635 59.1987 21.8288L60.3136 14.6406L61.6046 14.4352L61.1352 17.5745C61.5166 17.2225 62.0447 16.8997 62.6902 16.8997C63.7758 16.8997 64.5093 17.6919 64.2452 19.423C63.9518 21.3007 62.7782 22.1809 61.2525 22.1809ZM62.1914 18.0146C61.7806 18.0146 61.3405 18.308 60.9591 18.6895L60.607 21.0073C60.8711 21.0953 61.0178 21.154 61.3992 21.154C62.1914 21.154 62.7782 20.6552 62.9542 19.511C63.1009 18.4841 62.7782 18.0146 62.1914 18.0146Z" fill="#025EA3"/>
<path d="M67.2379 22.3863C66.5925 23.6479 65.947 24.0294 64.9494 24.0294C64.7147 24.0294 64.5973 24 64.48 23.9707V22.9145C64.656 22.9438 64.8321 23.0025 65.0668 23.0025C65.4482 23.0025 65.7709 22.8264 65.9763 22.4744L66.1524 22.1223L65.0668 17.0758L66.4164 16.8998L67.0325 20.5379L68.7343 16.9585H69.9959L67.2379 22.3863Z" fill="#025EA3"/>
</svg>
