<svg width="50" height="50" viewBox="0 0 50 50" fill="none" xmlns="http://www.w3.org/2000/svg">
<path fill-rule="evenodd" clip-rule="evenodd" d="M36 12H14C12.8954 12 12 12.8954 12 14V36C12 37.1046 12.8954 38 14 38H36C37.1046 38 38 37.1046 38 36V14C38 12.8954 37.1046 12 36 12ZM14 10C11.7909 10 10 11.7909 10 14V36C10 38.2091 11.7909 40 14 40H36C38.2091 40 40 38.2091 40 36V14C40 11.7909 38.2091 10 36 10H14Z" fill="url(#paint0_linear)"/>
<path fill-rule="evenodd" clip-rule="evenodd" d="M24 12V5H26V12H24Z" fill="url(#paint1_linear)"/>
<path fill-rule="evenodd" clip-rule="evenodd" d="M25 2C24.4477 2 24 2.44772 24 3C24 3.55228 24.4477 4 25 4C25.5523 4 26 3.55228 26 3C26 2.44772 25.5523 2 25 2ZM22 3C22 1.34315 23.3431 0 25 0C26.6569 0 28 1.34315 28 3C28 4.65685 26.6569 6 25 6C23.3431 6 22 4.65685 22 3Z" fill="url(#paint2_linear)"/>
<path fill-rule="evenodd" clip-rule="evenodd" d="M32 12V8H34V12H32Z" fill="url(#paint3_linear)"/>
<path fill-rule="evenodd" clip-rule="evenodd" d="M33 5C32.4477 5 32 5.44772 32 6C32 6.55228 32.4477 7 33 7C33.5523 7 34 6.55228 34 6C34 5.44772 33.5523 5 33 5ZM30 6C30 4.34315 31.3431 3 33 3C34.6569 3 36 4.34315 36 6C36 7.65685 34.6569 9 33 9C31.3431 9 30 7.65685 30 6Z" fill="url(#paint4_linear)"/>
<path fill-rule="evenodd" clip-rule="evenodd" d="M16 12V8H18V12H16Z" fill="url(#paint5_linear)"/>
<path fill-rule="evenodd" clip-rule="evenodd" d="M17 5C16.4477 5 16 5.44772 16 6C16 6.55228 16.4477 7 17 7C17.5523 7 18 6.55228 18 6C18 5.44772 17.5523 5 17 5ZM14 6C14 4.34315 15.3431 3 17 3C18.6569 3 20 4.34315 20 6C20 7.65685 18.6569 9 17 9C15.3431 9 14 7.65685 14 6Z" fill="url(#paint6_linear)"/>
<path fill-rule="evenodd" clip-rule="evenodd" d="M26 38V45H24V38H26Z" fill="url(#paint7_linear)"/>
<path fill-rule="evenodd" clip-rule="evenodd" d="M25 48C25.5523 48 26 47.5523 26 47C26 46.4477 25.5523 46 25 46C24.4477 46 24 46.4477 24 47C24 47.5523 24.4477 48 25 48ZM28 47C28 48.6569 26.6569 50 25 50C23.3431 50 22 48.6569 22 47C22 45.3431 23.3431 44 25 44C26.6569 44 28 45.3431 28 47Z" fill="url(#paint8_linear)"/>
<path fill-rule="evenodd" clip-rule="evenodd" d="M18 38V42H16V38H18Z" fill="url(#paint9_linear)"/>
<path fill-rule="evenodd" clip-rule="evenodd" d="M17 45C17.5523 45 18 44.5523 18 44C18 43.4477 17.5523 43 17 43C16.4477 43 16 43.4477 16 44C16 44.5523 16.4477 45 17 45ZM20 44C20 45.6569 18.6569 47 17 47C15.3431 47 14 45.6569 14 44C14 42.3431 15.3431 41 17 41C18.6569 41 20 42.3431 20 44Z" fill="url(#paint10_linear)"/>
<path fill-rule="evenodd" clip-rule="evenodd" d="M34 38V42H32V38H34Z" fill="url(#paint11_linear)"/>
<path fill-rule="evenodd" clip-rule="evenodd" d="M33 45C33.5523 45 34 44.5523 34 44C34 43.4477 33.5523 43 33 43C32.4477 43 32 43.4477 32 44C32 44.5523 32.4477 45 33 45ZM36 44C36 45.6569 34.6569 47 33 47C31.3431 47 30 45.6569 30 44C30 42.3431 31.3431 41 33 41C34.6569 41 36 42.3431 36 44Z" fill="url(#paint12_linear)"/>
<path fill-rule="evenodd" clip-rule="evenodd" d="M38 24H45V26H38V24Z" fill="url(#paint13_linear)"/>
<path fill-rule="evenodd" clip-rule="evenodd" d="M48 25C48 24.4477 47.5523 24 47 24C46.4477 24 46 24.4477 46 25C46 25.5523 46.4477 26 47 26C47.5523 26 48 25.5523 48 25ZM47 22C48.6569 22 50 23.3431 50 25C50 26.6569 48.6569 28 47 28C45.3431 28 44 26.6569 44 25C44 23.3431 45.3431 22 47 22Z" fill="url(#paint14_linear)"/>
<path fill-rule="evenodd" clip-rule="evenodd" d="M38 32H42V34H38V32Z" fill="url(#paint15_linear)"/>
<path fill-rule="evenodd" clip-rule="evenodd" d="M45 33C45 32.4477 44.5523 32 44 32C43.4477 32 43 32.4477 43 33C43 33.5523 43.4477 34 44 34C44.5523 34 45 33.5523 45 33ZM44 30C45.6569 30 47 31.3431 47 33C47 34.6569 45.6569 36 44 36C42.3431 36 41 34.6569 41 33C41 31.3431 42.3431 30 44 30Z" fill="url(#paint16_linear)"/>
<path fill-rule="evenodd" clip-rule="evenodd" d="M38 16L42 16V18H38V16Z" fill="url(#paint17_linear)"/>
<path fill-rule="evenodd" clip-rule="evenodd" d="M45 17C45 16.4477 44.5523 16 44 16C43.4477 16 43 16.4477 43 17C43 17.5523 43.4477 18 44 18C44.5523 18 45 17.5523 45 17ZM44 14C45.6569 14 47 15.3431 47 17C47 18.6569 45.6569 20 44 20C42.3431 20 41 18.6569 41 17C41 15.3431 42.3431 14 44 14Z" fill="url(#paint18_linear)"/>
<path fill-rule="evenodd" clip-rule="evenodd" d="M12 24H5V26H12V24Z" fill="url(#paint19_linear)"/>
<path fill-rule="evenodd" clip-rule="evenodd" d="M2 25C2 24.4477 2.44772 24 3 24C3.55228 24 4 24.4477 4 25C4 25.5523 3.55228 26 3 26C2.44772 26 2 25.5523 2 25ZM3 22C1.34315 22 -7.24233e-08 23.3431 0 25C7.24235e-08 26.6569 1.34315 28 3 28C4.65685 28 6 26.6569 6 25C6 23.3431 4.65685 22 3 22Z" fill="url(#paint20_linear)"/>
<path fill-rule="evenodd" clip-rule="evenodd" d="M12 32H8V34H12V32Z" fill="url(#paint21_linear)"/>
<path fill-rule="evenodd" clip-rule="evenodd" d="M5 33C5 32.4477 5.44772 32 6 32C6.55229 32 7 32.4477 7 33C7 33.5523 6.55229 34 6 34C5.44772 34 5 33.5523 5 33ZM6 30C4.34315 30 3 31.3431 3 33C3 34.6569 4.34315 36 6 36C7.65685 36 9 34.6569 9 33C9 31.3431 7.65685 30 6 30Z" fill="url(#paint22_linear)"/>
<path fill-rule="evenodd" clip-rule="evenodd" d="M12 16L8 16V18H12V16Z" fill="url(#paint23_linear)"/>
<path fill-rule="evenodd" clip-rule="evenodd" d="M5 17C5 16.4477 5.44771 16 6 16C6.55228 16 7 16.4477 7 17C7 17.5523 6.55228 18 6 18C5.44771 18 5 17.5523 5 17ZM6 14C4.34315 14 3 15.3431 3 17C3 18.6569 4.34315 20 6 20C7.65685 20 9 18.6569 9 17C9 15.3431 7.65685 14 6 14Z" fill="url(#paint24_linear)"/>
<path d="M24.768 27.4081H19.168L18.064 30H15.92L20.96 18.8H23.008L28.064 30H25.888L24.768 27.4081ZM24.08 25.7761L21.968 20.88L19.872 25.7761H24.08Z" fill="url(#paint25_linear)"/>
<path d="M29.4884 18.8H31.5684V30H29.4884V18.8Z" fill="url(#paint26_linear)"/>
<defs>
<linearGradient id="paint0_linear" x1="1.27737" y1="1.04133e-05" x2="52.9908" y2="4.15794" gradientUnits="userSpaceOnUse">
<stop stop-color="#FF1B2D"/>
<stop offset="1" stop-color="#DF006B"/>
</linearGradient>
<linearGradient id="paint1_linear" x1="1.27737" y1="1.04133e-05" x2="52.9908" y2="4.15794" gradientUnits="userSpaceOnUse">
<stop stop-color="#FF1B2D"/>
<stop offset="1" stop-color="#DF006B"/>
</linearGradient>
<linearGradient id="paint2_linear" x1="1.27737" y1="1.04133e-05" x2="52.9908" y2="4.15794" gradientUnits="userSpaceOnUse">
<stop stop-color="#FF1B2D"/>
<stop offset="1" stop-color="#DF006B"/>
</linearGradient>
<linearGradient id="paint3_linear" x1="1.27737" y1="1.04133e-05" x2="52.9908" y2="4.15794" gradientUnits="userSpaceOnUse">
<stop stop-color="#FF1B2D"/>
<stop offset="1" stop-color="#DF006B"/>
</linearGradient>
<linearGradient id="paint4_linear" x1="1.27737" y1="1.04133e-05" x2="52.9908" y2="4.15794" gradientUnits="userSpaceOnUse">
<stop stop-color="#FF1B2D"/>
<stop offset="1" stop-color="#DF006B"/>
</linearGradient>
<linearGradient id="paint5_linear" x1="1.27737" y1="1.04133e-05" x2="52.9908" y2="4.15794" gradientUnits="userSpaceOnUse">
<stop stop-color="#FF1B2D"/>
<stop offset="1" stop-color="#DF006B"/>
</linearGradient>
<linearGradient id="paint6_linear" x1="1.27737" y1="1.04133e-05" x2="52.9908" y2="4.15794" gradientUnits="userSpaceOnUse">
<stop stop-color="#FF1B2D"/>
<stop offset="1" stop-color="#DF006B"/>
</linearGradient>
<linearGradient id="paint7_linear" x1="1.27737" y1="1.04133e-05" x2="52.9908" y2="4.15794" gradientUnits="userSpaceOnUse">
<stop stop-color="#FF1B2D"/>
<stop offset="1" stop-color="#DF006B"/>
</linearGradient>
<linearGradient id="paint8_linear" x1="1.27737" y1="1.04133e-05" x2="52.9908" y2="4.15794" gradientUnits="userSpaceOnUse">
<stop stop-color="#FF1B2D"/>
<stop offset="1" stop-color="#DF006B"/>
</linearGradient>
<linearGradient id="paint9_linear" x1="1.27737" y1="1.04133e-05" x2="52.9908" y2="4.15794" gradientUnits="userSpaceOnUse">
<stop stop-color="#FF1B2D"/>
<stop offset="1" stop-color="#DF006B"/>
</linearGradient>
<linearGradient id="paint10_linear" x1="1.27737" y1="1.04133e-05" x2="52.9908" y2="4.15794" gradientUnits="userSpaceOnUse">
<stop stop-color="#FF1B2D"/>
<stop offset="1" stop-color="#DF006B"/>
</linearGradient>
<linearGradient id="paint11_linear" x1="1.27737" y1="1.04133e-05" x2="52.9908" y2="4.15794" gradientUnits="userSpaceOnUse">
<stop stop-color="#FF1B2D"/>
<stop offset="1" stop-color="#DF006B"/>
</linearGradient>
<linearGradient id="paint12_linear" x1="1.27737" y1="1.04133e-05" x2="52.9908" y2="4.15794" gradientUnits="userSpaceOnUse">
<stop stop-color="#FF1B2D"/>
<stop offset="1" stop-color="#DF006B"/>
</linearGradient>
<linearGradient id="paint13_linear" x1="1.27737" y1="1.04133e-05" x2="52.9908" y2="4.15794" gradientUnits="userSpaceOnUse">
<stop stop-color="#FF1B2D"/>
<stop offset="1" stop-color="#DF006B"/>
</linearGradient>
<linearGradient id="paint14_linear" x1="1.27737" y1="1.04133e-05" x2="52.9908" y2="4.15794" gradientUnits="userSpaceOnUse">
<stop stop-color="#FF1B2D"/>
<stop offset="1" stop-color="#DF006B"/>
</linearGradient>
<linearGradient id="paint15_linear" x1="1.27737" y1="1.04133e-05" x2="52.9908" y2="4.15794" gradientUnits="userSpaceOnUse">
<stop stop-color="#FF1B2D"/>
<stop offset="1" stop-color="#DF006B"/>
</linearGradient>
<linearGradient id="paint16_linear" x1="1.27737" y1="1.04133e-05" x2="52.9908" y2="4.15794" gradientUnits="userSpaceOnUse">
<stop stop-color="#FF1B2D"/>
<stop offset="1" stop-color="#DF006B"/>
</linearGradient>
<linearGradient id="paint17_linear" x1="1.27737" y1="1.04133e-05" x2="52.9908" y2="4.15794" gradientUnits="userSpaceOnUse">
<stop stop-color="#FF1B2D"/>
<stop offset="1" stop-color="#DF006B"/>
</linearGradient>
<linearGradient id="paint18_linear" x1="1.27737" y1="1.04133e-05" x2="52.9908" y2="4.15794" gradientUnits="userSpaceOnUse">
<stop stop-color="#FF1B2D"/>
<stop offset="1" stop-color="#DF006B"/>
</linearGradient>
<linearGradient id="paint19_linear" x1="1.27737" y1="1.04133e-05" x2="52.9908" y2="4.15794" gradientUnits="userSpaceOnUse">
<stop stop-color="#FF1B2D"/>
<stop offset="1" stop-color="#DF006B"/>
</linearGradient>
<linearGradient id="paint20_linear" x1="1.27737" y1="1.04133e-05" x2="52.9908" y2="4.15794" gradientUnits="userSpaceOnUse">
<stop stop-color="#FF1B2D"/>
<stop offset="1" stop-color="#DF006B"/>
</linearGradient>
<linearGradient id="paint21_linear" x1="1.27737" y1="1.04133e-05" x2="52.9908" y2="4.15794" gradientUnits="userSpaceOnUse">
<stop stop-color="#FF1B2D"/>
<stop offset="1" stop-color="#DF006B"/>
</linearGradient>
<linearGradient id="paint22_linear" x1="1.27737" y1="1.04133e-05" x2="52.9908" y2="4.15794" gradientUnits="userSpaceOnUse">
<stop stop-color="#FF1B2D"/>
<stop offset="1" stop-color="#DF006B"/>
</linearGradient>
<linearGradient id="paint23_linear" x1="1.27737" y1="1.04133e-05" x2="52.9908" y2="4.15794" gradientUnits="userSpaceOnUse">
<stop stop-color="#FF1B2D"/>
<stop offset="1" stop-color="#DF006B"/>
</linearGradient>
<linearGradient id="paint24_linear" x1="1.27737" y1="1.04133e-05" x2="52.9908" y2="4.15794" gradientUnits="userSpaceOnUse">
<stop stop-color="#FF1B2D"/>
<stop offset="1" stop-color="#DF006B"/>
</linearGradient>
<linearGradient id="paint25_linear" x1="1.27737" y1="1.04133e-05" x2="52.9908" y2="4.15794" gradientUnits="userSpaceOnUse">
<stop stop-color="#FF1B2D"/>
<stop offset="1" stop-color="#DF006B"/>
</linearGradient>
<linearGradient id="paint26_linear" x1="1.27737" y1="1.04133e-05" x2="52.9908" y2="4.15794" gradientUnits="userSpaceOnUse">
<stop stop-color="#FF1B2D"/>
<stop offset="1" stop-color="#DF006B"/>
</linearGradient>
</defs>
</svg>
