<svg width="98" height="33" viewBox="0 0 98 33" fill="none" xmlns="http://www.w3.org/2000/svg">
<path d="M15.6589 4.80615H7.53613C6.55984 4.80615 5.77881 5.57124 5.77881 6.52761V24.2013C5.77881 25.1576 6.55984 25.9227 7.53613 25.9227H15.6784C16.6547 25.9227 17.4357 25.1576 17.4357 24.2013V6.54674C17.4357 5.59037 16.6352 4.80615 15.6589 4.80615ZM11.5975 24.6603C10.9531 24.6603 10.4259 24.1439 10.4259 23.5127C10.4259 22.8815 10.9531 22.365 11.5975 22.365C12.2418 22.365 12.769 22.8815 12.769 23.5127C12.769 24.1439 12.2418 24.6603 11.5975 24.6603ZM16.0494 21.7912H7.14561V8.76551H16.0299V21.7912H16.0494Z" fill="white"/>
<path d="M24.0939 7.96184H25.7731L26.2808 9.43464H26.9447L25.324 4.76758H24.5821L22.9614 9.43464H23.6058L24.0939 7.96184ZM24.6797 6.12562C24.7773 5.83871 24.8554 5.5518 24.914 5.28402H24.9335C25.0116 5.5518 25.0702 5.83871 25.1678 6.12562L25.6365 7.46453H24.2111L24.6797 6.12562Z" fill="white"/>
<path d="M28.8193 9.41564L30.1666 6.06836H29.5222L28.8583 7.94284C28.7412 8.24887 28.6436 8.53578 28.5655 8.80357H28.5459C28.4678 8.53578 28.3897 8.24887 28.2726 7.94284L27.6087 6.06836H26.9253L28.2335 9.41564H28.8193Z" fill="white"/>
<path d="M30.3423 8.53563C30.3423 9.01382 30.6937 9.492 31.3967 9.492C31.8848 9.492 32.2558 9.26247 32.4511 8.99469H32.4706L32.5292 9.41549H33.0954C33.0564 9.18596 33.0369 8.89905 33.0369 8.61214V7.36887C33.0369 6.69941 32.783 5.9917 31.7286 5.9917C31.2991 5.9917 30.889 6.10646 30.5961 6.27861L30.7328 6.68028C30.9671 6.52726 31.2991 6.43163 31.631 6.43163C32.3339 6.43163 32.412 6.92894 32.412 7.19672V7.27323C31.0843 7.29236 30.3423 7.73229 30.3423 8.53563ZM32.412 7.71316V8.28698C32.412 8.34436 32.412 8.42087 32.3925 8.47825C32.2949 8.76516 32.002 9.03294 31.5529 9.03294C31.2405 9.03294 30.9671 8.8608 30.9671 8.45912C30.9671 7.80879 31.7286 7.69403 32.412 7.71316Z" fill="white"/>
<path d="M34.267 5.45659C34.5208 5.45659 34.677 5.28444 34.677 5.05491C34.677 4.84451 34.5208 4.67236 34.2865 4.67236C34.0522 4.67236 33.8765 4.84451 33.8765 5.05491C33.8765 5.28444 34.0327 5.45659 34.267 5.45659Z" fill="white"/>
<path d="M34.599 6.06836H33.9741V9.41564H34.599V6.06836Z" fill="white"/>
<path d="M36.2196 4.5H35.5947V9.41572H36.2196V4.5Z" fill="white"/>
<path d="M36.9419 8.53563C36.9419 9.01382 37.2934 9.492 37.9963 9.492C38.4844 9.492 38.8554 9.26247 39.0507 8.99469H39.0702L39.1288 9.41549H39.695C39.656 9.18596 39.6365 8.89905 39.6365 8.61214V7.36887C39.6365 6.69941 39.3826 5.9917 38.3282 5.9917C37.8987 5.9917 37.4886 6.10646 37.1957 6.27861L37.3324 6.68028C37.5667 6.52726 37.8987 6.43163 38.2306 6.43163C38.9335 6.43163 39.0116 6.92894 39.0116 7.19672V7.27323C37.6839 7.29236 36.9419 7.73229 36.9419 8.53563ZM39.0116 7.71316V8.28698C39.0116 8.34436 39.0116 8.42087 38.9921 8.47825C38.8945 8.76516 38.6016 9.03294 38.1525 9.03294C37.8401 9.03294 37.5667 8.8608 37.5667 8.45912C37.5667 7.80879 38.3282 7.69403 39.0116 7.71316Z" fill="white"/>
<path d="M42.3896 5.99193C41.8429 5.99193 41.4524 6.22146 41.2181 6.604H41.1986V4.5H40.5737V8.55499C40.5737 8.86103 40.5737 9.18619 40.5542 9.41572H41.0814L41.1204 8.86103H41.14C41.3938 9.30096 41.7843 9.49223 42.292 9.49223C43.0535 9.49223 43.8345 8.89928 43.8345 7.69426C43.815 6.68051 43.2292 5.99193 42.3896 5.99193ZM42.1553 9.01405C41.7062 9.01405 41.3352 8.72714 41.2181 8.30634C41.1985 8.22983 41.1986 8.15332 41.1986 8.07681V7.48386C41.1986 7.38822 41.2181 7.31172 41.2376 7.23521C41.3548 6.77615 41.7453 6.48924 42.1748 6.48924C42.8387 6.48924 43.1902 7.06306 43.1902 7.73252C43.1902 8.49761 42.8192 9.01405 42.1553 9.01405Z" fill="white"/>
<path d="M45.1819 4.5H44.5571V9.41572H45.1819V4.5Z" fill="white"/>
<path d="M47.6226 9.4924C48.1693 9.4924 48.5403 9.37764 48.7746 9.282L48.6574 8.8612C48.4231 8.95684 48.1498 9.03335 47.7202 9.03335C47.0954 9.03335 46.5682 8.68905 46.5487 7.86658H48.9503C48.9699 7.79007 48.9699 7.69443 48.9699 7.57967C48.9699 6.9676 48.677 6.01123 47.564 6.01123C46.5682 6.01123 45.9434 6.81458 45.9434 7.82833C45.9434 8.80382 46.5682 9.4924 47.6226 9.4924ZM47.5054 6.43203C48.1888 6.43203 48.3646 7.04411 48.3646 7.42665H46.5487C46.5877 6.98672 46.8611 6.43203 47.5054 6.43203Z" fill="white"/>
<path d="M52.6016 5.9917C51.6643 5.9917 50.9028 6.64203 50.9028 7.77054C50.9028 8.82254 51.6253 9.492 52.543 9.492C53.3631 9.492 54.2417 8.95643 54.2417 7.71316C54.2417 6.69941 53.5779 5.9917 52.6016 5.9917ZM52.5625 9.03294C51.9572 9.03294 51.5277 8.47825 51.5277 7.75141C51.5277 7.12021 51.8401 6.45076 52.5821 6.45076C53.324 6.45076 53.5974 7.15847 53.5974 7.73229C53.5974 8.49738 53.1483 9.03294 52.5625 9.03294Z" fill="white"/>
<path d="M57.2879 7.48363V9.41549H57.9127V7.42625C57.9127 6.27861 57.1708 5.9917 56.7021 5.9917C56.1359 5.9917 55.7454 6.29774 55.5697 6.6229H55.5501L55.5111 6.06821H54.9644C54.9839 6.33599 55.0034 6.6229 55.0034 6.96719V9.41549H55.6282V7.40712C55.6282 7.31148 55.6478 7.19672 55.6673 7.12021C55.7844 6.77592 56.0968 6.48901 56.5069 6.48901C57.0731 6.48901 57.2879 6.94806 57.2879 7.48363Z" fill="white"/>
<path d="M60.4706 8.36376C60.4706 8.76543 60.5487 9.05234 60.7049 9.24362C60.8611 9.39664 61.0954 9.49227 61.3687 9.49227C61.6031 9.49227 61.7983 9.45402 61.9155 9.41576L61.8959 8.95671C61.7983 8.97584 61.7007 8.99496 61.5445 8.99496C61.193 8.99496 61.0759 8.76543 61.0759 8.34463V6.54667H61.974V6.08761H61.0954V5.26514L60.4901 5.45641V6.06848H59.9629V6.52754H60.4901V8.36376H60.4706Z" fill="white"/>
<path d="M63.2628 7.40735C63.2628 7.29259 63.2628 7.19695 63.3018 7.12044C63.419 6.79528 63.7314 6.50837 64.1414 6.50837C64.7272 6.50837 64.942 6.96743 64.942 7.50299V9.43485H65.5668V7.42648C65.5668 6.27884 64.8248 5.99193 64.3757 5.99193C64.1414 5.99193 63.9266 6.04931 63.7314 6.16408C63.5361 6.25971 63.3799 6.41273 63.2823 6.58488H63.2628V4.5H62.6379V9.41572H63.2628V7.40735Z" fill="white"/>
<path d="M67.8904 5.9917C66.8946 5.9917 66.2893 6.79505 66.2893 7.80879C66.2893 8.80342 66.9337 9.492 67.9685 9.492C68.5153 9.492 68.8863 9.37723 69.1206 9.2816L69.0034 8.8608C68.7691 8.95643 68.4957 9.03294 68.0466 9.03294C67.4218 9.03294 66.8946 8.68865 66.8751 7.86618H69.2768C69.2963 7.78967 69.2963 7.69403 69.2963 7.57927C69.2963 6.94806 69.0034 5.9917 67.8904 5.9917ZM66.8946 7.40712C66.9337 6.98632 67.207 6.4125 67.8514 6.4125C68.5348 6.4125 68.7105 7.02457 68.7105 7.40712H66.8946Z" fill="white"/>
<path d="M72.108 6.06836H71.4832V9.41564H72.108V6.06836Z" fill="white"/>
<path d="M71.7955 5.45659C72.0494 5.45659 72.2056 5.28444 72.2056 5.05491C72.2056 4.84451 72.0494 4.67236 71.8151 4.67236C71.5808 4.67236 71.405 4.84451 71.405 5.05491C71.405 5.28444 71.5612 5.45659 71.7955 5.45659Z" fill="white"/>
<path d="M73.7481 7.56034C73.8848 7.59859 74.0605 7.59859 74.2363 7.59859C74.8416 7.59859 75.3688 7.42645 75.7007 7.08215C75.9545 6.8335 76.0717 6.50833 76.0717 6.08753C76.0717 5.66673 75.9155 5.34157 75.6421 5.11204C75.3688 4.86338 74.9197 4.72949 74.3144 4.72949C73.8262 4.72949 73.4357 4.76775 73.1428 4.82513V9.43482H73.7481V7.56034ZM73.7481 5.24593C73.8457 5.2268 74.0605 5.18855 74.3339 5.18855C75.0173 5.18855 75.4664 5.49459 75.4664 6.10666C75.4664 6.73786 75.0173 7.10128 74.2753 7.10128C74.0801 7.10128 73.9043 7.08215 73.7676 7.0439V5.24593H73.7481Z" fill="white"/>
<path d="M79.7035 9.41572V7.42648C79.7035 6.27884 78.9615 5.99193 78.5125 5.99193C78.2781 5.99193 78.0634 6.04931 77.8681 6.16408C77.6728 6.25971 77.5166 6.41273 77.419 6.58488H77.3995V4.5H76.7747V9.41572H77.3995V7.40735C77.3995 7.29259 77.3995 7.19695 77.4385 7.12044C77.5557 6.79528 77.8681 6.50837 78.2781 6.50837C78.8639 6.50837 79.0787 6.96743 79.0787 7.50299V9.43485H79.7035V9.41572Z" fill="white"/>
<path d="M82.0662 9.492C82.8863 9.492 83.7649 8.95643 83.7649 7.71316C83.7649 6.69941 83.101 5.9917 82.1248 5.9917C81.1875 5.9917 80.426 6.64203 80.426 7.77054C80.426 8.84167 81.1485 9.492 82.0662 9.492ZM82.1052 6.45076C82.8472 6.45076 83.1206 7.15847 83.1206 7.73229C83.1206 8.49738 82.6715 9.03294 82.0857 9.03294C81.4804 9.03294 81.0704 8.47825 81.0704 7.75141C81.0704 7.12021 81.3828 6.45076 82.1052 6.45076Z" fill="white"/>
<path d="M84.5264 9.41549H85.1512V7.40712C85.1512 7.31148 85.1707 7.19672 85.1902 7.12021C85.3074 6.77592 85.6198 6.48901 86.0298 6.48901C86.6156 6.48901 86.8304 6.94806 86.8304 7.48363V9.41549H87.4552V7.42625C87.4552 6.27861 86.7132 5.9917 86.2446 5.9917C85.6784 5.9917 85.2879 6.29774 85.1121 6.6229H85.0926L85.0536 6.06821H84.5068C84.5264 6.33599 84.5264 6.6229 84.5264 6.96719V9.41549Z" fill="white"/>
<path d="M89.8374 9.4924C90.3841 9.4924 90.7551 9.37764 90.9894 9.282L90.8722 8.8612C90.6379 8.95684 90.3646 9.03335 89.935 9.03335C89.3102 9.03335 88.783 8.68905 88.7635 7.86658H91.1651C91.1847 7.79007 91.1847 7.69443 91.1847 7.57967C91.1847 6.9676 90.8918 6.01123 89.7788 6.01123C88.783 6.01123 88.1777 6.81458 88.1777 7.82833C88.1582 8.80382 88.8025 9.4924 89.8374 9.4924ZM89.7202 6.43203C90.4036 6.43203 90.5794 7.04411 90.5794 7.42665H88.7635C88.822 6.98672 89.0954 6.43203 89.7202 6.43203Z" fill="white"/>
<path d="M27.023 12.5908L22.825 24.6602H24.7385L25.9881 20.9495H30.0495L31.3382 24.6602H33.3103L29.1123 12.5908H27.023ZM26.4177 19.4767L27.5307 16.2441C27.7064 15.7277 27.8626 15.1539 28.0188 14.5609C28.1555 15.0965 28.3117 15.6512 28.507 16.2633L29.6395 19.4575H26.4177V19.4767Z" fill="white"/>
<path d="M38.7384 15.7085C37.4692 15.7085 36.4539 16.1867 35.7705 17.1048L35.6924 15.8998H33.9937L34.0132 16.0528C34.0718 16.7988 34.0913 17.6212 34.0913 18.8071V28.1221H35.9658V23.7802C36.5515 24.4497 37.4692 24.8514 38.5236 24.8514C39.6171 24.8514 40.6129 24.4306 41.3549 23.6655C42.175 22.8239 42.6045 21.5997 42.6045 20.146C42.6045 18.8645 42.2335 17.7551 41.5111 16.9326C40.7886 16.1484 39.8123 15.7085 38.7384 15.7085ZM38.1917 23.3594C37.1568 23.3594 36.2391 22.6708 35.9853 21.6571C35.9462 21.5041 35.9267 21.2937 35.9267 21.0641V19.5913C35.9267 19.4575 35.9658 19.3044 35.9853 19.1323C35.9853 19.0749 36.0048 19.0366 36.0048 18.9793C36.2782 17.9273 37.2154 17.2004 38.2503 17.2004C39.91 17.2004 40.6519 18.7115 40.6519 20.2034C40.6715 22.1544 39.7342 23.3594 38.1917 23.3594Z" fill="white"/>
<path d="M48.3451 15.7085C47.0759 15.7085 46.0606 16.1867 45.3772 17.1048L45.2991 15.8998H43.6003V16.0528C43.6589 16.7988 43.6784 17.6212 43.6784 18.8071V28.1221H45.5529V23.7802C46.1387 24.4497 47.0564 24.8514 48.1108 24.8514C49.2042 24.8514 50.2001 24.4306 50.942 23.6655C51.7621 22.8239 52.1917 21.5997 52.1917 20.146C52.1917 18.8645 51.8207 17.7551 51.0982 16.9326C50.3953 16.1484 49.419 15.7085 48.3451 15.7085ZM47.7984 23.3594C46.7635 23.3594 45.8458 22.6708 45.592 21.6571C45.5529 21.5041 45.5334 21.2937 45.5334 21.0641V19.5913C45.5334 19.4575 45.5724 19.3044 45.592 19.1323C45.592 19.0749 45.6115 19.0366 45.6115 18.9793C45.8849 17.9273 46.8221 17.2004 47.857 17.2004C49.5167 17.2004 50.2586 18.7115 50.2586 20.2034C50.2782 22.1544 49.3409 23.3594 47.7984 23.3594Z" fill="white"/>
<path d="M60.373 17.6978C58.6352 17.0283 58.069 16.5119 58.069 15.5555C58.069 14.7522 58.7329 13.9297 60.1973 13.9297C61.4079 13.9297 62.1889 14.3505 62.3842 14.4652L62.5404 14.5609L63.0676 13.0307L62.97 12.9733C62.6575 12.8012 61.7594 12.3804 60.2559 12.3804C57.8737 12.3804 56.214 13.7575 56.214 15.7277C56.214 17.3152 57.2489 18.4246 59.4944 19.228C61.076 19.8018 61.6617 20.3947 61.6617 21.4276C61.6617 22.5752 60.744 23.3021 59.2991 23.3021C58.3423 23.3021 57.3661 23.0343 56.6045 22.5561L56.4483 22.4605L55.9407 24.0289L56.0383 24.0863C56.7412 24.5453 58.069 24.8896 59.182 24.8896C62.3842 24.8896 63.5167 22.9769 63.5167 21.332C63.5167 19.6105 62.6185 18.5585 60.373 17.6978Z" fill="white"/>
<path d="M66.8751 13.8149L65.0397 14.3696V15.8807H63.6924V17.3344H65.0397V21.8102C65.0397 22.9004 65.2545 23.6464 65.684 24.1246C66.0941 24.5645 66.7384 24.8131 67.4804 24.8131C68.1833 24.8131 68.691 24.6793 68.9253 24.6028L69.0229 24.5645L68.9253 23.1108L68.7496 23.1682C68.5153 23.2447 68.281 23.2638 67.8904 23.2638C67.168 23.2638 66.8556 22.8239 66.8556 21.7719V17.3726H69.101V15.9189H66.8556V13.8149H66.8751Z" fill="white"/>
<path d="M73.748 15.7085C71.1316 15.7085 69.3157 17.6212 69.3157 20.3564C69.3157 23.0151 71.073 24.8514 73.6114 24.8514H73.6309C75.7592 24.8514 78.0632 23.3977 78.0632 20.2034C78.0632 18.9028 77.6532 17.7934 76.8722 16.9709C76.0911 16.1484 75.0172 15.7085 73.748 15.7085ZM73.6699 23.4168C72.2445 23.4168 71.2097 22.1161 71.2097 20.2991C71.2097 18.7306 71.9907 17.1622 73.709 17.1622C75.3882 17.1622 76.1497 18.7689 76.1497 20.2608C76.1302 22.0779 75.0953 23.4168 73.6699 23.4168Z" fill="white"/>
<path d="M83.7648 15.804L83.6477 15.7849C83.4915 15.7467 83.3548 15.7275 83.179 15.7275C82.2027 15.7275 81.3241 16.2822 80.8359 17.2003L80.7774 15.9188H79.0981L79.1177 16.0718C79.1762 16.7987 79.1958 17.602 79.1958 18.7114L79.1762 24.6791H81.0507V19.9929C81.0507 19.7443 81.0702 19.4956 81.1093 19.2852C81.3241 18.1758 82.0856 17.449 83.0814 17.449C83.2767 17.449 83.4133 17.4681 83.5891 17.4873L83.7843 17.5064V15.804H83.7648Z" fill="white"/>
<path d="M87.9629 15.6895C85.4832 15.6895 83.7454 17.6404 83.7454 20.4139C83.7454 23.0917 85.4636 24.8323 88.1387 24.8323C89.5445 24.8323 90.5208 24.5263 91.0871 24.2776L91.2042 24.2202L90.8528 22.8622L90.6966 22.9196C90.1889 23.13 89.5055 23.3213 88.3535 23.3213C87.5334 23.3213 85.6784 23.0535 85.5613 20.6626L91.5752 20.6817L91.5947 20.5669C91.6338 20.3756 91.6533 20.127 91.6533 19.8018C91.6728 17.9273 90.6966 15.6895 87.9629 15.6895ZM85.6003 19.3045C85.776 18.2525 86.4399 17.0857 87.8458 17.0857C88.412 17.0857 88.8807 17.2579 89.2126 17.6022C89.7398 18.1377 89.8374 18.922 89.8569 19.3045H85.6003Z" fill="white"/>
<rect x="0.5" y="1" width="97" height="31" rx="3.5" stroke="white"/>
</svg>
