<svg width="98" height="33" viewBox="0 0 98 33" fill="none" xmlns="http://www.w3.org/2000/svg">
<path d="M33.434 9.6148C33.434 10.2269 33.2583 10.7051 32.8873 11.0685C32.4773 11.4893 31.9306 11.7188 31.2667 11.7188C30.6223 11.7188 30.0756 11.5084 29.6265 11.0685C29.1774 10.6285 28.9626 10.093 28.9626 9.44266C28.9626 8.79233 29.1774 8.25676 29.6265 7.81683C30.0756 7.3769 30.6223 7.1665 31.2667 7.1665C31.5791 7.1665 31.8915 7.22389 32.1844 7.35778C32.4773 7.47254 32.7116 7.64469 32.8873 7.83596L32.4968 8.21851C32.2039 7.87421 31.7939 7.70207 31.2862 7.70207C30.8176 7.70207 30.4076 7.85509 30.0756 8.18025C29.7437 8.50542 29.5679 8.92622 29.5679 9.44266C29.5679 9.95909 29.7437 10.3799 30.0756 10.7051C30.4076 11.0302 30.8176 11.1832 31.2862 11.1832C31.7744 11.1832 32.2039 11.0302 32.5163 10.7051C32.7311 10.4947 32.8483 10.2077 32.8873 9.8252H31.2862V9.30876H33.434C33.434 9.4044 33.434 9.51916 33.434 9.6148Z" fill="white"/>
<path d="M36.8511 7.81682H34.8399V9.19398H36.6558V9.71042H34.8399V11.0876H36.8511V11.6232H34.2542V7.28125H36.8511V7.81682Z" fill="white"/>
<path d="M39.2527 11.6232H38.6864V7.81682H37.4563V7.28125H40.5023V7.81682H39.2527V11.6232Z" fill="white"/>
<path d="M42.6892 11.6232V7.28125H43.2545V11.6232H42.6892Z" fill="white"/>
<path d="M45.7939 11.6232H45.2277V7.81682H43.9976V7.28125H47.0436V7.81682H45.8135V11.6232H45.7939Z" fill="white"/>
<path d="M52.8036 11.0493C52.374 11.4892 51.8273 11.6996 51.183 11.6996C50.5386 11.6996 49.9919 11.4892 49.5623 11.0493C49.1328 10.6093 48.918 10.0738 48.918 9.44257C48.918 8.81137 49.1328 8.2758 49.5623 7.83588C49.9919 7.39595 50.5386 7.18555 51.183 7.18555C51.8273 7.18555 52.374 7.41507 52.8036 7.855C53.2332 8.29493 53.4675 8.8305 53.4675 9.4617C53.448 10.0738 53.2332 10.6093 52.8036 11.0493ZM49.9724 10.6858C50.3043 11.011 50.6948 11.1832 51.183 11.1832C51.6516 11.1832 52.0616 11.011 52.3936 10.6858C52.7255 10.3607 52.8817 9.93988 52.8817 9.44257C52.8817 8.94526 52.7255 8.52446 52.3936 8.19929C52.0616 7.87413 51.6711 7.70198 51.183 7.70198C50.7143 7.70198 50.3043 7.87413 49.9724 8.19929C49.6404 8.52446 49.4842 8.94526 49.4842 9.44257C49.4842 9.93988 49.6404 10.3607 49.9724 10.6858Z" fill="white"/>
<path d="M54.2485 11.6232V7.28125H54.9515L57.0993 10.6668H57.1188L57.0993 9.82519V7.28125H57.6656V11.6232H57.0798L54.8343 8.0846H54.8148L54.8343 8.9262V11.6232H54.2485Z" fill="white"/>
<path d="M48.7617 17.9546C47.0239 17.9546 45.5986 19.2552 45.5986 21.034C45.5986 22.8129 47.0239 24.1135 48.7617 24.1135C50.4995 24.1135 51.9249 22.8129 51.9249 21.034C51.9054 19.2552 50.4995 17.9546 48.7617 17.9546ZM48.7617 22.9085C47.805 22.9085 46.9849 22.1434 46.9849 21.034C46.9849 19.9247 47.805 19.1596 48.7617 19.1596C49.7185 19.1596 50.5386 19.9247 50.5386 21.034C50.5191 22.1243 49.699 22.9085 48.7617 22.9085ZM41.8691 17.9546C40.1313 17.9546 38.706 19.2552 38.706 21.034C38.706 22.8129 40.1313 24.1135 41.8691 24.1135C43.6069 24.1135 45.0323 22.8129 45.0323 21.034C45.0323 19.2552 43.6069 17.9546 41.8691 17.9546ZM41.8691 22.9085C40.9124 22.9085 40.0923 22.1434 40.0923 21.034C40.0923 19.9247 40.9124 19.1596 41.8691 19.1596C42.8259 19.1596 43.646 19.9247 43.646 21.034C43.646 22.1243 42.8259 22.9085 41.8691 22.9085ZM33.6878 18.8918V20.1924H36.8705C36.7729 20.9193 36.5191 21.4549 36.1481 21.8374C35.6795 22.2965 34.957 22.7938 33.6878 22.7938C31.7157 22.7938 30.1927 21.2444 30.1927 19.3126C30.1927 17.3807 31.7352 15.8314 33.6878 15.8314C34.7422 15.8314 35.5232 16.2331 36.0895 16.7687L37.0267 15.8505C36.2262 15.1046 35.1718 14.5308 33.6878 14.5308C30.9933 14.5308 28.7283 16.673 28.7283 19.3126C28.7283 21.9522 30.9933 24.0944 33.6878 24.0944C35.1327 24.0944 36.2457 23.6354 37.0853 22.7555C37.964 21.8948 38.2373 20.6706 38.2373 19.6951C38.2373 19.3891 38.2178 19.1213 38.1592 18.8727H33.6878V18.8918ZM67.1746 19.9055C66.9207 19.217 66.1202 17.9546 64.48 17.9546C62.8594 17.9546 61.5121 19.1978 61.5121 21.034C61.5121 22.7555 62.8398 24.1135 64.6362 24.1135C66.0811 24.1135 66.9012 23.2528 67.2527 22.7555L66.1788 22.0478C65.8273 22.5642 65.3391 22.9085 64.6362 22.9085C63.9333 22.9085 63.4256 22.6025 63.1132 21.9713L67.3113 20.269L67.1746 19.9055ZM62.8789 20.9384C62.8398 19.7525 63.8161 19.1404 64.5191 19.1404C65.0658 19.1404 65.5344 19.4082 65.6906 19.7908L62.8789 20.9384ZM59.4619 23.9223H60.8482V14.8751H59.4619V23.9223ZM57.1969 18.6431H57.1578C56.8454 18.2797 56.2597 17.9546 55.4981 17.9546C53.9361 17.9546 52.4912 19.3126 52.4912 21.0532C52.4912 22.7746 53.9361 24.1135 55.4981 24.1135C56.2401 24.1135 56.8454 23.7884 57.1578 23.4058H57.1969V23.8458C57.1969 25.0317 56.5525 25.6629 55.5177 25.6629C54.6781 25.6629 54.1509 25.0699 53.9361 24.5726L52.7255 25.0699C53.0769 25.8924 53.9947 26.887 55.5177 26.887C57.1383 26.887 58.5051 25.9498 58.5051 23.6736V18.1458H57.1969V18.6431ZM55.6153 22.9085C54.6585 22.9085 53.858 22.1243 53.858 21.0532C53.858 19.9629 54.6585 19.1787 55.6153 19.1787C56.5525 19.1787 57.2945 19.9629 57.2945 21.0532C57.2945 22.1243 56.5525 22.9085 55.6153 22.9085ZM73.6376 14.8751H70.3378V23.9223H71.7241V20.4985H73.6571C75.1802 20.4985 76.6836 19.4082 76.6836 17.6868C76.6836 15.9653 75.1606 14.8751 73.6376 14.8751ZM73.6767 19.2361H71.7241V16.1375H73.6767C74.7115 16.1375 75.2973 16.9791 75.2973 17.6868C75.2973 18.3945 74.7115 19.2361 73.6767 19.2361ZM82.1899 17.9354C81.1941 17.9354 80.1592 18.3754 79.7297 19.3126L80.9598 19.8099C81.2136 19.3126 81.7018 19.1404 82.229 19.1404C82.9514 19.1404 83.6739 19.5612 83.6739 20.3072V20.4028C83.42 20.269 82.8928 20.0586 82.229 20.0586C80.9012 20.0586 79.5735 20.7663 79.5735 22.1052C79.5735 23.3102 80.6474 24.0944 81.858 24.0944C82.7757 24.0944 83.3029 23.6927 83.6153 23.2146H83.6543V23.9223H84.9821V20.4602C85.0016 18.8344 83.7715 17.9354 82.1899 17.9354ZM82.0337 22.9085C81.5846 22.9085 80.9598 22.679 80.9598 22.1434C80.9598 21.4357 81.7408 21.1679 82.4242 21.1679C83.0295 21.1679 83.3224 21.3018 83.6934 21.474C83.5567 22.2965 82.8343 22.9085 82.0337 22.9085ZM89.844 18.1458L88.2624 22.0669H88.2234L86.5832 18.1458H85.0993L87.5595 23.6354L86.1537 26.6957H87.5986L91.3866 18.1458H89.844ZM77.4256 23.9223H78.812V14.8751H77.4256V23.9223Z" fill="white"/>
<path fill-rule="evenodd" clip-rule="evenodd" d="M6.83632 7.69336L16.2187 16.8843L6.66932 26.2388C6.4424 26.0494 6.29224 25.7689 6.29224 25.4404V8.60836C6.29224 8.20365 6.52022 7.87174 6.83632 7.69336ZM9.90993 8.81868L19.1653 13.9978L17.1811 15.9415L9.90993 8.81868ZM20.3904 14.6833L18.1436 16.8843L20.5001 19.1927L22.8306 17.866C23.553 17.4643 23.553 16.4506 22.8306 16.0489L20.3904 14.6833ZM19.2827 19.8857L17.1811 17.8271L9.24786 25.5985L19.2827 19.8857Z" fill="white"/>
<rect x="0.5" y="1" width="97" height="31" rx="3.5" stroke="white"/>
</svg>
