<svg width="68" height="49" viewBox="0 0 68 49" fill="none" xmlns="http://www.w3.org/2000/svg">
<g clip-path="url(#clip0)">
<path d="M0.75 48.25H67.25V1.37886H0.75V48.25Z" stroke="#FCFEFF" stroke-width="1.5"/>
<path d="M11.8002 35.7793C11.6839 35.3563 11.4531 34.5365 10.2398 34.5365C9.53471 34.5365 8.46895 35.0388 8.46895 37.0156C8.46895 38.2708 9.00165 39.4339 10.2398 39.4339C11.0547 39.4339 11.6263 38.9441 11.8002 38.0856H13.2647C12.9745 39.6108 11.9759 40.6709 10.2131 40.6709C8.34421 40.6709 7.00623 39.4054 7.00623 36.9955C7.00623 34.5449 8.42162 33.3021 10.2314 33.3021C12.3354 33.3021 13.1847 34.748 13.2647 35.7793H11.8002Z" fill="#FCFEFF"/>
<path d="M15.057 37.2669L16.7788 35.2982H18.4557L16.6254 37.3035L18.5049 40.4883H16.8664L15.6246 38.2591L15.057 38.8491V40.4883H13.6904V35.2982H15.057V37.2669Z" fill="#FCFEFF"/>
<path d="M23.5046 37.8829C23.5046 39.7537 22.2444 40.6243 20.8492 40.6243C19.4561 40.6243 18.1857 39.7665 18.1857 37.895C18.1857 36.022 19.4561 35.1632 20.8492 35.1632C22.2444 35.1632 23.5046 36.0118 23.5046 37.8829ZM19.5908 37.8829C19.5908 38.5478 19.7933 39.4732 20.8492 39.4732C21.9054 39.4732 22.0991 38.558 22.0991 37.895C22.0991 37.2279 21.9054 36.3124 20.8492 36.3124C19.7933 36.3124 19.5908 37.2177 19.5908 37.8829Z" fill="#FCFEFF"/>
<path d="M28.6397 35.2975V40.4879H27.2731V36.3898H25.8107V37.9903C25.8107 39.9754 25.2105 40.6016 24.2504 40.6016C24.0116 40.6016 23.6212 40.5632 23.4191 40.4879V39.4731C23.4473 39.4932 23.6212 39.5118 23.8234 39.5118C24.2339 39.5118 24.4463 39.3102 24.4463 37.7298V35.2975H28.6397Z" fill="#FCFEFF"/>
<path d="M30.7041 37.2669L32.4259 35.2982H34.1028L32.2707 37.3035L34.152 40.4883H32.5136L31.2739 38.2591L30.7041 38.8491V40.4883H29.3375V35.2982H30.7041V37.2669Z" fill="#FCFEFF"/>
<path d="M39.1513 37.8829C39.1513 39.7537 37.8933 40.6243 36.4981 40.6243C35.1029 40.6243 33.8346 39.7665 33.8346 37.895C33.8346 36.022 35.1029 35.1632 36.4981 35.1632C37.8933 35.1632 39.1513 36.0118 39.1513 37.8829ZM35.2401 37.8829C35.2401 38.5478 35.4422 39.4732 36.4981 39.4732C37.5496 39.4732 37.7502 38.558 37.7502 37.895C37.7502 37.2279 37.5496 36.3124 36.4981 36.3124C35.4422 36.3124 35.2401 37.2177 35.2401 37.8829Z" fill="#FCFEFF"/>
<path d="M39.5945 35.2982H41.9476C43.1117 35.2982 43.9632 35.7724 43.9632 36.6389C43.9632 37.2366 43.5365 37.6209 42.9928 37.7572C43.5259 37.8839 44.118 38.223 44.118 39.0716C44.118 40.0331 43.3872 40.489 42.2066 40.489H39.5945V35.2982ZM40.9585 37.3995H41.8493C42.3027 37.3995 42.6238 37.2187 42.6238 36.8117C42.6238 36.3883 42.3148 36.2342 41.8596 36.2342H40.9585V37.3995ZM40.9585 39.5534H41.9634C42.4682 39.5534 42.7808 39.3989 42.7808 38.886C42.7808 38.4326 42.4517 38.223 41.9476 38.223H40.9585V39.5534Z" fill="#FCFEFF"/>
<path d="M49.5877 37.8829C49.5877 39.7537 48.3315 40.6243 46.9345 40.6243C45.5411 40.6243 44.2688 39.7665 44.2688 37.895C44.2688 36.022 45.5411 35.1632 46.9345 35.1632C48.3315 35.1632 49.5877 36.0118 49.5877 37.8829ZM45.6743 37.8829C45.6743 38.5478 45.8801 39.4732 46.9345 39.4732C47.9904 39.4732 48.1826 38.558 48.1826 37.895C48.1826 37.2279 47.9904 36.3124 46.9345 36.3124C45.8801 36.3124 45.6743 37.2177 45.6743 37.8829Z" fill="#FCFEFF"/>
<path d="M16.9397 32.1289C18.1041 32.1289 20.9716 31.9258 23.1145 30.3677V31.5495H27.4381L27.4425 26.3529L29.2479 24.492L33.1779 31.5495H38.3655L32.4118 21.4653L38.2106 15.1096H32.9001L27.4425 21.3455V9.36606H23.1145V11.2613C21.7967 9.85229 19.6604 8.78667 16.3292 8.78667C9.11866 8.78667 7.76489 13.1548 7.76489 15.5998C7.76489 18.9596 9.57871 20.8268 12.7382 21.5895L17.2178 22.6877C19.5804 23.2693 21.2699 23.6963 21.2699 25.4378C21.2699 27.7605 18.8129 28.3095 16.6029 28.3095C12.5522 28.3095 11.8783 25.958 11.8783 24.7057H7.42773C7.42773 27.455 8.8391 32.1289 16.9397 32.1289ZM19.8871 18.9008L14.4581 17.5846C13.5351 17.3712 12.0925 17.003 12.0925 15.2641C12.0925 13.2771 14.2109 12.6042 15.9902 12.6042C20.0405 12.6042 20.4103 14.959 20.5306 15.9659H23.1145V20.1009C22.1665 19.5496 21.0476 19.1916 19.8871 18.9008Z" fill="#FCFEFF"/>
</g>
<defs>
<clipPath id="clip0">
<rect width="68" height="48.3711" fill="white" transform="translate(0 0.628906)"/>
</clipPath>
</defs>
</svg>
