<svg width="96" height="96" viewBox="0 0 96 96" fill="none" xmlns="http://www.w3.org/2000/svg">
<path d="M63.8336 46.1235L43.8995 31.633C43.168 31.1027 42.1968 31.0228 41.395 31.4349C40.5868 31.8438 40.082 32.6744 40.082 33.5721V62.5436C40.082 63.4509 40.5868 64.2783 41.395 64.6872C41.7368 64.8597 42.1106 64.9459 42.4875 64.9459C42.9795 64.9459 43.4779 64.7894 43.8995 64.4795L63.8336 50.0017C64.463 49.5385 64.8304 48.8229 64.8304 48.0626C64.8335 47.2895 64.4566 46.5771 63.8336 46.1235Z" fill="white"/>
<path d="M48.0016 0.00683594C21.4867 0.00683594 0 21.4935 0 48.0084C0 74.5138 21.4867 95.994 48.0016 95.994C74.5101 95.994 96 74.5106 96 48.0084C96.0032 21.4935 74.5101 0.00683594 48.0016 0.00683594ZM48.0016 87.9853C25.9207 87.9853 8.01837 70.0925 8.01837 48.0084C8.01837 25.934 25.9207 8.01882 48.0016 8.01882C70.0793 8.01882 87.9784 25.9308 87.9784 48.0084C87.9816 70.0925 70.0793 87.9853 48.0016 87.9853Z" fill="white"/>
</svg>
