<svg width="22" height="13" viewBox="0 0 22 13" fill="none" xmlns="http://www.w3.org/2000/svg">
<path d="M10.0212 0C-0.0354261 0 0.160801 7.89811 0.357027 8.9283C0.553254 11.234 2.46646 13 4.82118 13C7.27401 13 9.28533 10.9887 9.28533 8.53585C9.28533 6.27925 7.6174 4.41509 5.40986 4.12075C7.81363 1.81509 10.0212 1.76604 10.0212 1.76604V0Z" fill="#6C89A9"/>
<path d="M21.6959 0C11.6393 0 11.8355 7.89811 11.9827 8.9283C12.1789 11.234 14.0921 13 16.4468 13C18.8997 13 20.911 10.9887 20.911 8.53585C20.911 6.27925 19.2431 4.41509 17.0355 4.12075C19.4393 1.81509 21.6468 1.76604 21.6468 1.76604V0H21.6959Z" fill="#6C89A9"/>
</svg>
