<svg width="20" height="20" viewBox="0 0 20 20" fill="none" xmlns="http://www.w3.org/2000/svg">
<path d="M17.8355 12.9192C16.6927 12.9192 15.5705 12.7405 14.5072 12.389C13.9861 12.2113 13.3456 12.3744 13.0275 12.701L10.9287 14.2854C8.49456 12.9861 6.9952 11.4872 5.71362 9.07138L7.25143 7.02719C7.65097 6.62819 7.79427 6.04534 7.62258 5.49847C7.26966 4.42951 7.09038 3.3079 7.09038 2.16457C7.09043 1.33862 6.41848 0.666667 5.59258 0.666667H2.16452C1.33862 0.666667 0.666667 1.33862 0.666667 2.16452C0.666667 11.6315 8.36851 19.3333 17.8355 19.3333C18.6614 19.3333 19.3334 18.6614 19.3334 17.8355V14.417C19.3333 13.5911 18.6614 12.9192 17.8355 12.9192Z" fill="#40C300"/>
</svg>
