<svg width="24" height="24" viewBox="0 0 24 24" fill="none" xmlns="http://www.w3.org/2000/svg">
<path d="M20.5714 0H3.42857C1.53502 0 0 1.53502 0 3.42857V20.5714C0 22.465 1.53502 24 3.42857 24H20.5714C22.465 24 24 22.465 24 20.5714V3.42857C24 1.53502 22.465 0 20.5714 0Z" fill="#E9A21A"/>
<path d="M3.42857 0H12V14.5714L15.2211 24H3.42857C2.51926 24 1.64719 23.6388 1.00421 22.9958C0.361224 22.3528 0 21.4807 0 20.5714V3.42857C0 2.51926 0.361224 1.64719 1.00421 1.00421C1.64719 0.361224 2.51926 0 3.42857 0V0Z" fill="#313E77"/>
<path d="M23.1428 3.60086H20.7883V3.318H20.6023V2.56371H20.3246V3.41229H20.046V3.22371H14.9486V3.03514H14.3914L13.2608 3.318L13.1683 2.75229L13.836 2.37514V1.41429L13.7426 1.22571L13.65 1.03714V0.754286C13.3894 0.377143 12.4628 0 11.9623 0C11.4428 0 10.9791 0.0565714 10.4606 0.848571C9.94113 1.64057 10.2746 2.56371 10.2746 2.56371V3.03514C10.0337 2.82771 9.51428 2.75229 9.51428 2.75229C8.14285 2.75229 7.53085 4.88314 7.53085 5.59971C7.53085 6.31543 7.62342 6.84343 7.62342 6.84343H6.86313C6.62228 6.84343 6.58456 7.35257 6.58456 7.88057C6.56656 8.40857 6.41828 9.23829 6.49199 9.408C6.54771 9.55886 7.15971 9.59657 7.15971 9.59657C7.15971 9.59657 6.99256 9.672 6.78856 9.97371C6.56571 10.2934 6.78856 11.1231 6.78856 11.1231V12.462L6.65913 12.5374L6.47399 12.726V13.0089L6.56656 13.1974L6.47399 13.4803V13.8574L6.65913 14.1403C6.65913 14.1403 6.58456 14.6297 6.47399 15.1774C6.36256 15.7431 6.38056 17.1746 6.38056 17.1746C6.12171 17.1943 6.10285 17.5517 6.10285 17.5517C6.10285 17.5517 6.04713 17.628 5.73171 18.1174C5.39742 18.6077 5.30571 19.098 5.26885 19.4563C5.21313 19.8146 4.97142 20.0786 4.71171 20.4934C4.43399 20.9083 4.89771 21.4363 4.89771 21.4363C4.41513 22.6234 4.30456 23.472 4.28571 23.9811H6.08399C5.98899 23.6757 5.93904 23.3581 5.93571 23.0383C5.93571 22.5103 6.39942 21.606 6.39942 21.606L6.77056 21.5117L6.86313 21.1346C6.93685 20.814 7.27113 20.1351 7.53085 19.6071C7.77085 19.0791 7.53085 18.7586 7.53085 18.7586L7.71599 18.2871L7.99371 18.0043L8.36485 17.5329L8.64342 17.1557L8.73599 16.6843C8.73599 16.6843 8.93999 16.0629 9.01371 15.648C9.08828 15.2143 9.68142 14.6109 9.68142 14.6109L9.77399 14.1394L10.2377 14.8937L10.794 14.988L12.018 16.9869H12.6848L12.8708 17.1754V18.024L12.5923 18.4011L12.7783 19.8334L12.8708 20.8706L13.056 21.0591L13.2411 22.4914L12.9634 22.68L12.8708 24H16.542V23.9246L16.4494 23.6417L16.0783 23.4531L15.6154 23.2646L14.6691 22.2274L14.7617 20.8894L14.9477 20.5123V19.8523L14.7617 19.4751L14.9477 18.5323L15.0403 16.7229L14.8543 16.6286V16.0629H14.6691C14.6691 16.0629 14.298 14.988 14.1128 14.4411C13.9088 13.8951 13.2231 12.9146 12.8888 12.6317C12.5554 12.3489 12.5374 11.8586 12.5186 11.6889C12.4997 11.5003 12.7037 11.3117 12.7037 11.3117C12.7037 11.3117 12.7963 11.3683 12.9823 11.406C13.1674 11.4437 13.1674 11.3117 13.1674 11.3117L13.3526 10.9346L13.5377 10.6517L13.6311 9.80314V8.56029C13.5754 8.08886 13.1674 7.90029 13.1674 7.90029L13.26 7.52314L13.6311 7.71171L14.094 7.90029L14.6511 8.18314L15.318 8.37171L15.7817 8.27743L16.2446 7.99457L16.7091 7.33457L16.8943 6.486L17.172 6.39171L17.2654 6.20314L17.172 5.826V4.97743L17.5431 4.69457L17.6357 4.506L17.9143 4.31743H20.0828V4.03543H23.106V3.60171H23.1428V3.60086ZM15.4114 5.78829L15.1328 5.22257L15.8931 5.31686L15.4106 5.78829H15.4114ZM16.0783 5.034H15.522L15.7071 4.65686H16.0783V5.034Z" fill="white"/>
</svg>
