<svg width="24" height="24" viewBox="0 0 24 24" fill="none" xmlns="http://www.w3.org/2000/svg">
<path d="M20.5714 0H3.42857C1.53502 0 0 1.53502 0 3.42857V20.5714C0 22.465 1.53502 24 3.42857 24H20.5714C22.465 24 24 22.465 24 20.5714V3.42857C24 1.53502 22.465 0 20.5714 0Z" fill="#A51C0F"/>
<path d="M17.3229 3.42854L18.7671 4.85911L18.15 8.19082L14.256 4.61397L17.3229 3.42854ZM5.43857 20.5714L3.42857 18.108L4.83771 13.9045L8.84228 18.8503L5.43942 20.5714H5.43857ZM19.2686 19.3902L16.44 19.6191L3.42857 4.40225L4.50857 3.42854H5.38285L20.5714 15.0171L19.2686 19.3902Z" fill="white"/>
</svg>
