<svg width="24" height="24" viewBox="0 0 24 24" fill="none" xmlns="http://www.w3.org/2000/svg">
<path d="M20.5714 0H3.42857C1.53502 0 0 1.53502 0 3.42857V20.5714C0 22.465 1.53502 24 3.42857 24H20.5714C22.465 24 24 22.465 24 20.5714V3.42857C24 1.53502 22.465 0 20.5714 0Z" fill="#2E1D0F"/>
<path d="M17.1223 17.1986L16.4563 15.1714C16.7049 14.82 16.9115 14.4386 17.0735 14.0331L20.5714 11.9443L17.0306 9.85714C16.8846 9.51187 16.7036 9.18245 16.4906 8.87399L17.0752 6.57257L14.8449 7.30456C14.5775 7.13937 14.2965 6.99742 14.0049 6.88028L11.9443 3.42857L9.91716 6.86656C9.58927 6.99649 9.27443 7.15721 8.97688 7.34656L6.44831 6.61971L7.20088 9.17914C7.05532 9.42384 6.92894 9.67947 6.82288 9.94371L3.42859 11.9443L6.78002 13.9457C6.89357 14.2459 7.03325 14.5356 7.19745 14.8114L6.49631 17.2457L8.83631 16.5583C9.17231 16.7871 9.53402 16.9783 9.91631 17.13L11.9443 20.5714L14.0066 17.1163C14.3269 16.9869 14.6342 16.8276 14.9246 16.6406L17.1223 17.1986Z" fill="#FF9C00"/>
<path d="M12 16.2858C14.3669 16.2858 16.2857 14.367 16.2857 12.0001C16.2857 9.63316 14.3669 7.71438 12 7.71438C9.63307 7.71438 7.71429 9.63316 7.71429 12.0001C7.71429 14.367 9.63307 16.2858 12 16.2858Z" fill="#2E1D0F"/>
<path d="M9.46799 14.8414C9.42171 14.778 9.35485 14.5508 9.35485 14.5508L9.22799 14.2851C9.22799 14.2851 9.11485 14.0966 9.35485 14.1343C9.59485 14.172 10.4657 14.5131 10.9457 14.526C11.4257 14.538 11.6777 14.286 11.766 14.2603C11.8543 14.2346 12.372 14.0331 12.5237 14.0083C12.6754 13.9826 13.6097 13.4108 13.7486 12.0368C13.8874 10.662 12.6497 9.85456 11.9426 9.84171C11.9426 9.84171 11.5011 9.82885 11.4 9.89228C11.2989 9.95571 10.6423 10.2583 10.3526 10.296C10.3526 10.296 10.1126 10.524 10.1503 10.8017C10.188 11.0794 10.188 12.0351 11.1977 12.0368C11.1977 12.0368 11.4394 11.9066 11.4137 10.9628C11.4137 10.9628 12.6703 10.8583 12.7029 12.0368C12.7363 13.2154 11.5766 13.3791 10.8583 13.3466C10.14 13.314 8.62114 12.318 8.73599 10.734L8.82428 10.17L9.07714 9.87942C9.07714 9.87942 9.65742 8.70514 10.9834 8.35199C10.9834 8.35199 11.0966 8.16256 11.2363 8.16256C11.3751 8.16256 11.4883 8.31428 11.6906 8.33914C11.892 8.36485 11.9683 8.15056 12.1577 8.16256C12.3463 8.17456 12.3591 8.31428 12.5614 8.35114C12.7637 8.38971 13.7486 8.50285 14.544 9.58885C14.544 9.58885 14.5817 9.86656 14.6948 9.91713C14.8089 9.96856 15.0737 10.0817 15.1123 10.17C15.15 10.2583 15.4149 11.2054 15.39 11.6091C15.3643 12.0128 15.2511 13.8943 14.0014 14.4754L13.9757 14.8157C13.9757 14.8157 13.0414 15.6497 11.6143 15.5486C10.188 15.4474 9.80399 15.2974 9.46799 14.8414Z" fill="#39CCFF"/>
</svg>
