<svg width="24" height="24" viewBox="0 0 24 24" fill="none" xmlns="http://www.w3.org/2000/svg">
<path d="M20.5714 0H3.42857C1.53502 0 0 1.53502 0 3.42857V20.5714C0 22.465 1.53502 24 3.42857 24H20.5714C22.465 24 24 22.465 24 20.5714V3.42857C24 1.53502 22.465 0 20.5714 0Z" fill="#0C2B4C"/>
<path d="M18.0026 12.2536C18.0026 9.10963 15.7594 6.50392 12.8571 6.08649V4.28564C16.7108 4.70906 19.7143 8.11535 19.7143 12.2536C19.7143 14.4136 18.6343 16.2856 18.6343 16.2856H16.5788C17.5038 15.1459 18.0064 13.7215 18.0017 12.2536H18.0026ZM5.99998 18.8571C4.41341 17.3236 3.42855 15.2005 3.42855 12.8571C3.42855 10.5136 4.41341 8.39392 5.99998 6.85706V10.1228C5.59506 10.9775 5.3843 11.9113 5.38284 12.8571C5.38284 13.8308 5.60741 14.7565 5.99998 15.5913V18.8571ZM5.99998 20.5713L7.42541 18.8425V5.16421L5.99998 3.42849H11.1737V17.7771H19.7143L17.8054 20.5679L5.99998 20.5713Z" fill="#F3AE25"/>
</svg>
