<svg width="24" height="24" viewBox="0 0 24 24" fill="none" xmlns="http://www.w3.org/2000/svg">
<path d="M20.5714 0H3.42857C1.53502 0 0 1.53502 0 3.42857V20.5714C0 22.465 1.53502 24 3.42857 24H20.5714C22.465 24 24 22.465 24 20.5714V3.42857C24 1.53502 22.465 0 20.5714 0Z" fill="#43484D"/>
<path d="M18.2337 6.67292L16.5863 8.45492C16.5863 8.45492 18.2337 10.2369 18.2337 12.1663C18.2337 13.8001 17.4846 15.1363 17.4846 15.1363L14.0389 12.0181L12.5406 8.90063V13.8001L15.7771 16.9775C15.7771 16.9775 14.5334 18.1946 12.2406 18.2546C9.94857 18.1946 8.70486 16.9775 8.70486 16.9775L11.9414 13.8001V8.90063L10.4431 12.0181L6.99743 15.1363C6.99743 15.1363 6.24743 13.8001 6.24743 12.1672C6.24743 10.2369 7.89571 8.45492 7.89571 8.45492L6.24743 6.67292C4.3 8.75149 4 10.9792 4 12.1672C4 13.3543 4.3 15.5821 6.09743 17.6606C7.89571 19.7392 10.1431 20.4815 12.2406 20.4815C14.338 20.4815 16.5863 19.7392 18.3837 17.6606C20.182 15.5821 20.4811 13.3543 20.4811 12.1663C20.4811 10.9792 20.1811 8.75149 18.2337 6.67292Z" fill="#F3F3F3"/>
<path d="M17.0354 5.50562C14.638 4.00562 12.7651 3.97648 12.2406 4.00562C11.716 3.97648 9.84312 4.00562 7.44569 5.50562L8.94484 7.28848C8.94484 7.28848 10.3677 6.44162 12.2406 6.39705C14.1134 6.44162 15.5371 7.28848 15.5371 7.28848L17.0354 5.50562Z" fill="#F99E19"/>
</svg>
