<svg width="19" height="14" viewBox="0 0 19 14" fill="none" xmlns="http://www.w3.org/2000/svg">
<path d="M18.3536 9.64645C18.5488 9.84171 18.5488 10.1583 18.3536 10.3536L15.1716 13.5355C14.9763 13.7308 14.6597 13.7308 14.4645 13.5355C14.2692 13.3403 14.2692 13.0237 14.4645 12.8284L17.2929 10L14.4645 7.17157C14.2692 6.97631 14.2692 6.65973 14.4645 6.46447C14.6597 6.2692 14.9763 6.2692 15.1716 6.46447L18.3536 9.64645ZM11 9.5H18V10.5H11V9.5ZM1.5 0C1.5 5.2467 5.7533 9.5 11 9.5V10.5C5.20101 10.5 0.5 5.79899 0.5 0H1.5Z" fill="#3B5C7B"/>
</svg>
