<svg width="231" height="31" viewBox="0 0 231 31" fill="none" xmlns="http://www.w3.org/2000/svg">
<path d="M230.854 27.3536C231.049 27.1583 231.049 26.8417 230.854 26.6464L227.672 23.4645C227.476 23.2692 227.16 23.2692 226.964 23.4645C226.769 23.6597 226.769 23.9763 226.964 24.1716L229.793 27L226.964 29.8284C226.769 30.0237 226.769 30.3403 226.964 30.5355C227.16 30.7308 227.476 30.7308 227.672 30.5355L230.854 27.3536ZM0.5 1.5H203.997V0.5H0.5V1.5ZM213.497 11V17H214.497V11H213.497ZM223.997 27.5H230.5V26.5H223.997V27.5ZM213.497 17C213.497 22.799 218.198 27.5 223.997 27.5V26.5C218.751 26.5 214.497 22.2467 214.497 17H213.497ZM203.997 1.5C209.244 1.5 213.497 5.7533 213.497 11H214.497C214.497 5.20101 209.796 0.5 203.997 0.5V1.5Z" fill="#3B5C7B"/>
</svg>
