<svg width="16" height="20" viewBox="0 0 16 20" fill="none" xmlns="http://www.w3.org/2000/svg">
<path fill-rule="evenodd" clip-rule="evenodd" d="M0.25 3C0.25 1.48079 1.48079 0.25 3 0.25H10H10.172C10.9011 0.25 11.6008 0.540176 12.1163 1.05567L14.9443 3.88367C15.4598 4.39916 15.75 5.09886 15.75 5.828V6V17C15.75 18.5192 14.5192 19.75 13 19.75H3C1.48079 19.75 0.25 18.5192 0.25 17V3ZM3 1.75H9.25V5C9.25 5.96621 10.0338 6.75 11 6.75H14.25V17C14.25 17.6908 13.6908 18.25 13 18.25H3C2.30921 18.25 1.75 17.6908 1.75 17V3C1.75 2.30921 2.30921 1.75 3 1.75ZM11 5.25H14.108C14.0497 5.13832 13.9744 5.03505 13.8837 4.94433L11.0557 2.11633C10.9649 2.02561 10.8617 1.95025 10.75 1.89195V5C10.75 5.13779 10.8622 5.25 11 5.25ZM4 8.25C3.58579 8.25 3.25 8.58579 3.25 9C3.25 9.41421 3.58579 9.75 4 9.75H10C10.4142 9.75 10.75 9.41421 10.75 9C10.75 8.58579 10.4142 8.25 10 8.25H4ZM3.25 12C3.25 11.5858 3.58579 11.25 4 11.25H10C10.4142 11.25 10.75 11.5858 10.75 12C10.75 12.4142 10.4142 12.75 10 12.75H4C3.58579 12.75 3.25 12.4142 3.25 12ZM4 14.25C3.58579 14.25 3.25 14.5858 3.25 15C3.25 15.4142 3.58579 15.75 4 15.75H8.33C8.74421 15.75 9.08 15.4142 9.08 15C9.08 14.5858 8.74421 14.25 8.33 14.25H4Z" fill="url(#paint0_linear_3907:1059)"/>
<defs>
<linearGradient id="paint0_linear_3907:1059" x1="14.7856" y1="0.250002" x2="-0.127879" y2="1.17565" gradientUnits="userSpaceOnUse">
<stop stop-color="#FF1B2D"/>
<stop offset="1" stop-color="#DF006B"/>
</linearGradient>
</defs>
</svg>
