<svg width="468" height="140" viewBox="0 0 468 140" fill="none" xmlns="http://www.w3.org/2000/svg">
<path d="M467.854 3.64645C468.049 3.84171 468.049 4.15829 467.854 4.35355L464.672 7.53553C464.476 7.7308 464.16 7.7308 463.964 7.53553C463.769 7.34027 463.769 7.02369 463.964 6.82843L466.793 4L463.964 1.17157C463.769 0.976312 463.769 0.659729 463.964 0.464467C464.16 0.269205 464.476 0.269205 464.672 0.464467L467.854 3.64645ZM0.5 138.5H322.091V139.5H0.5V138.5ZM331.591 129V14H332.591V129H331.591ZM342.091 3.5H467.5V4.5H342.091V3.5ZM331.591 14C331.591 8.20101 336.292 3.5 342.091 3.5V4.5C336.844 4.5 332.591 8.7533 332.591 14H331.591ZM322.091 138.5C327.338 138.5 331.591 134.247 331.591 129H332.591C332.591 134.799 327.89 139.5 322.091 139.5V138.5Z" fill="#00FFA3"/>
</svg>
