<svg width="468" height="140" viewBox="0 0 468 140" fill="none" xmlns="http://www.w3.org/2000/svg">
<path d="M467.354 136.354C467.549 136.158 467.549 135.842 467.354 135.646L464.172 132.464C463.976 132.269 463.66 132.269 463.464 132.464C463.269 132.66 463.269 132.976 463.464 133.172L466.293 136L463.464 138.828C463.269 139.024 463.269 139.34 463.464 139.536C463.66 139.731 463.976 139.731 464.172 139.536L467.354 136.354ZM330.946 11V126H331.946V11H330.946ZM341.446 136.5H467V135.5H341.446V136.5ZM0 1.5H265.723V0.5H0V1.5ZM265.723 1.5H321.446V0.5H265.723V1.5ZM330.946 126C330.946 131.799 335.647 136.5 341.446 136.5V135.5C336.199 135.5 331.946 131.247 331.946 126H330.946ZM331.946 11C331.946 5.20101 327.245 0.5 321.446 0.5V1.5C326.693 1.5 330.946 5.75329 330.946 11H331.946Z" fill="#3B5C7B"/>
</svg>
