<svg width="22" height="16" viewBox="0 0 22 16" fill="none" xmlns="http://www.w3.org/2000/svg">
<path d="M14.2083 0C9.86868 0 6.41666 3.50132 6.41666 7.79167C6.41666 12.1313 9.918 15.5833 14.2083 15.5833C18.4987 15.5833 22 12.082 22 7.79167C22 3.50132 18.4987 0 14.2083 0ZM14.2083 10.7012C12.6303 10.7012 11.2988 9.36973 11.2988 7.79167C11.2988 6.21361 12.6303 4.88212 14.2083 4.88212C15.7864 4.88212 17.1179 6.21361 17.1179 7.79167C17.0686 9.36973 15.7864 10.7012 14.2083 10.7012Z" fill="#8B3FFD"/>
<path d="M6.41667 1.83333V13.75H3.60938L0 1.83333H6.41667Z" fill="#8B3FFD"/>
</svg>
