<svg width="20" height="23" viewBox="0 0 20 23" fill="none" xmlns="http://www.w3.org/2000/svg">
<path d="M12.7035 1.31999H7.29556V11.0389H12.7035V1.31999Z" fill="#FF5F00"/>
<path d="M7.63892 6.18397C7.63818 5.24813 7.85033 4.32438 8.25931 3.48263C8.66828 2.64088 9.26337 1.90319 9.99954 1.32539C9.08776 0.608824 7.99278 0.163237 6.83974 0.0395508C5.68669 -0.0841353 4.52212 0.11907 3.4791 0.625941C2.43608 1.13281 1.55671 1.9229 0.941483 2.90591C0.326257 3.88891 0 5.02517 0 6.18483C0 7.34449 0.326257 8.48075 0.941483 9.46375C1.55671 10.4468 2.43608 11.2368 3.4791 11.7437C4.52212 12.2506 5.68669 12.4538 6.83974 12.3301C7.99278 12.2064 9.08776 11.7608 9.99954 11.0443C9.26314 10.4663 8.66792 9.72832 8.25893 8.88626C7.84994 8.04419 7.63792 7.1201 7.63892 6.18397Z" fill="#EB001B"/>
<path d="M20 6.18211C20 7.34185 19.6736 8.47819 19.0583 9.46123C18.443 10.4443 17.5635 11.2343 16.5203 11.7411C15.4772 12.2479 14.3125 12.451 13.1594 12.3272C12.0062 12.2033 10.9113 11.7575 9.99954 11.0407C10.7354 10.4624 11.3303 9.72448 11.7394 8.88269C12.1485 8.04089 12.3611 7.11718 12.3611 6.18125C12.3611 5.24532 12.1485 4.32161 11.7394 3.47982C11.3303 2.63802 10.7354 1.90013 9.99954 1.32181C10.9114 0.604932 12.0065 0.159108 13.1598 0.0353089C14.313 -0.0884904 15.4779 0.114732 16.5211 0.62174C17.5643 1.12875 18.4438 1.91908 19.059 2.90237C19.6742 3.88566 20.0003 5.02222 20 6.18211Z" fill="#F79E1B"/>
<path d="M19.406 10.0089V9.80978H19.4867V9.77029H19.2858V9.8115H19.3665V10.0106L19.406 10.0089ZM19.8026 10.0089V9.76857H19.7494L19.6772 9.94026L19.6051 9.76857H19.5416V10.0089H19.5777V9.82866L19.6446 9.98489H19.691L19.7579 9.82866V10.0106L19.8026 10.0089Z" fill="#F79E1B"/>
<path d="M8.66666 22.7961H7.04652L8.05987 16.4799H9.67992L8.66666 22.7961Z" fill="#00579F"/>
<path d="M14.5398 16.6343C14.2202 16.5065 13.7134 16.3654 13.0867 16.3654C11.4867 16.3654 10.3601 17.2254 10.3531 18.455C10.3399 19.3622 11.1598 19.866 11.7731 20.1685C12.3999 20.4776 12.6129 20.6794 12.6129 20.9549C12.6066 21.378 12.1064 21.5731 11.64 21.5731C10.9932 21.5731 10.6466 21.4725 10.1199 21.2371L9.90653 21.1362L9.67982 22.554C10.0598 22.7285 10.7599 22.8834 11.4867 22.8902C13.1867 22.8902 14.2934 22.0435 14.3065 20.7331C14.313 20.0141 13.88 19.4632 12.9466 19.013C12.3799 18.724 12.0329 18.5291 12.0329 18.2334C12.0396 17.9646 12.3264 17.6893 12.9661 17.6893C13.4928 17.6758 13.8798 17.8034 14.1729 17.9311L14.3195 17.9982L14.5398 16.6343Z" fill="#00579F"/>
<path d="M16.6931 20.5584C16.8265 20.1956 17.3399 18.7912 17.3399 18.7912C17.3332 18.8047 17.4731 18.4217 17.5531 18.1865L17.6663 18.7308C17.6663 18.7308 17.9731 20.2427 18.0397 20.5584C17.7865 20.5584 17.0131 20.5584 16.6931 20.5584ZM18.693 16.4799H17.4398C17.0533 16.4799 16.7597 16.594 16.593 17.0039L14.1865 22.796H15.8864C15.8864 22.796 16.1663 22.0164 16.2265 21.8485C16.413 21.8485 18.0667 21.8485 18.3066 21.8485C18.3531 22.0703 18.4999 22.796 18.4999 22.796H20L18.693 16.4799Z" fill="#00579F"/>
<path d="M5.69331 16.4799L4.10666 20.7869L3.93328 19.9134C3.63994 18.9055 2.71997 17.8104 1.69333 17.2659L3.14664 22.7894H4.8599L7.40648 16.4799H5.69331Z" fill="#00579F"/>
<path d="M2.63331 16.4799H0.026667L0 16.6075C2.03335 17.1316 3.37999 18.3951 3.93327 19.9136L3.36662 17.0108C3.27333 16.6074 2.98663 16.4932 2.63331 16.4799Z" fill="#FAA61A"/>
</svg>
