<svg width="24" height="24" viewBox="0 0 24 24" fill="none" xmlns="http://www.w3.org/2000/svg">
<path d="M18.461 15.1103C18.8646 15.2656 19.0199 15.8702 19.0508 16.134C19.113 16.6152 18.9736 16.8014 18.8183 16.8014C18.6631 16.8014 18.4456 16.6152 18.2132 16.243C17.9803 15.8702 17.8872 15.4517 18.0116 15.2342C18.0888 15.0944 18.2595 15.0327 18.4615 15.1103H18.461ZM16.1031 16.8636C16.3515 16.8636 16.6307 16.972 16.879 17.189C17.3597 17.5926 17.4996 18.0579 17.2512 18.3993C17.1114 18.57 16.879 18.6785 16.6152 18.6785C16.3515 18.6785 16.0723 18.5854 15.8862 18.4147C15.4517 18.0425 15.3278 17.4214 15.6065 17.0805C15.7155 16.9407 15.8862 16.8636 16.1031 16.8636ZM10.6737 21.3469C4.778 21.3469 0 16.5685 0 10.6732C0 4.778 4.77848 0 10.6732 0C16.5685 0 21.3469 4.77848 21.3469 10.6732C21.3469 12.6743 20.7886 14.5519 19.8425 16.1499C19.8112 16.1962 19.7335 16.1808 19.7181 16.1186C19.3459 13.4969 17.7479 12.0537 15.4208 11.6198C15.2188 11.5884 15.1879 11.4645 15.4517 11.4336C16.1653 11.3714 17.1736 11.3869 17.7011 11.4799C17.732 11.2162 17.7479 10.937 17.7479 10.6578C17.7479 6.76365 14.5828 3.59857 10.6887 3.59857C6.79499 3.59857 3.62991 6.76365 3.62991 10.6578C3.62991 14.5519 6.79499 17.717 10.6891 17.717H11.0146C10.904 17.0872 10.8572 16.4478 10.8748 15.8085C10.8907 15.3741 10.9838 15.3119 11.1699 15.6533C12.1473 17.3443 13.5437 18.8646 16.2738 19.4698C18.5078 19.9664 20.7418 20.5402 23.1465 23.5963C23.3634 23.8601 23.038 24.1393 22.7896 23.9223C20.3387 21.75 18.1047 21.0364 16.0723 21.0364C13.7915 21.0523 12.2403 21.3469 10.6732 21.3469H10.6737Z" fill="#FF8C00"/>
</svg>
