<svg width="24" height="24" viewBox="0 0 24 24" fill="none" xmlns="http://www.w3.org/2000/svg">
<g clip-path="url(#clip0)">
<path d="M9.69981 9.8953C8.87149 9.8953 8.19883 9.22357 8.19883 8.39618C8.19883 7.56694 8.87149 6.89521 9.69981 6.89521C10.5281 6.89521 11.1989 7.56694 11.1989 8.39618C11.1989 9.22357 10.5281 9.8953 9.69981 9.8953ZM12.0004 0C5.37107 0 0 5.372 0 12.0004C0 17.7522 4.04799 22.5591 9.44872 23.7293V12.9603L9.44946 12.9595C9.46154 12.4397 9.87566 12.0209 10.3908 12.0015V12.0007H10.8902H11.9066C11.977 12.0007 12.0345 11.9452 12.0382 11.8757L12.0389 0.00214954L12.0004 0ZM20.27 18.5469C19.4426 18.5469 18.7699 17.8751 18.7699 17.0459C18.7699 16.2194 19.4426 15.5477 20.27 15.5477C21.0974 15.5477 21.77 16.2194 21.77 17.0459C21.77 17.8751 21.0974 18.5469 20.27 18.5469ZM16.7538 18.5469C15.9264 18.5469 15.2547 17.8751 15.2547 17.0459C15.2547 16.2194 15.9264 15.5477 16.7538 15.5477C17.5821 15.5477 18.2539 16.2194 18.2539 17.0459C18.2539 17.8751 17.5821 18.5469 16.7538 18.5469ZM13.2358 18.5469C12.4084 18.5469 11.7348 17.8751 11.7348 17.0459C11.7348 16.2194 12.4084 15.5477 13.2358 15.5477C14.065 15.5477 14.7368 16.2194 14.7368 17.0459C14.7368 17.8751 14.065 18.5469 13.2358 18.5469ZM13.4813 0.0904438V12V12.4633V12.4717L13.4784 12.4746C13.4739 13.0102 13.0373 13.4428 12.5 13.4428H12.0385H11.0231C10.9489 13.4428 10.8897 13.5021 10.8897 13.5753V23.9506C11.2556 23.9839 11.6244 24.0025 11.9996 24.0025C18.628 24.0025 24 18.6286 24 12.0002C24 5.87497 19.41 0.820769 13.4811 0.0906662" fill="#00985F"/>
</g>
<defs>
<clipPath id="clip0">
<rect width="24" height="24" fill="white"/>
</clipPath>
</defs>
</svg>
