<svg width="24" height="24" viewBox="0 0 24 24" fill="none" xmlns="http://www.w3.org/2000/svg">
<g clip-path="url(#clip0)">
<mask id="mask0" mask-type="alpha" maskUnits="userSpaceOnUse" x="0" y="0" width="25" height="24">
<path d="M0 12.0002C0 18.6281 5.37229 24 12.0019 24C18.6286 24 24.0021 18.6281 24.0021 12.0002C24.0021 5.37187 18.6286 1.83305e-06 12.0019 1.83305e-06C5.37229 1.83305e-06 0 5.37187 0 12.0002Z" fill="url(#paint0_linear)"/>
</mask>
<g mask="url(#mask0)">
<path d="M0 12.0002C0 18.6281 5.37229 24 12.0019 24C18.6286 24 24.0021 18.6281 24.0021 12.0002C24.0021 5.37185 18.6286 -1.81941e-05 12.0019 -1.81941e-05C5.37229 -1.81941e-05 0 5.37185 0 12.0002Z" fill="url(#paint1_linear)"/>
<path d="M24.0004 9.44109H0V14.5776H24.0004V9.44109ZM24.0004 19.7125H0V23.997H24.0004V19.7125ZM24.0004 4.30583H0V0.0016742H24.0004V4.30583Z" fill="black"/>
<path d="M24.0004 9.44108H0V14.5776H24.0004V9.44108ZM24.0004 4.30582H0V0.00166462H24.0004V4.30582Z" fill="url(#paint2_radial)"/>
<path d="M24.0004 9.44108H0V14.5776H24.0004V9.44108ZM24.0004 4.30582H0V0.00166462H24.0004V4.30582Z" fill="url(#paint3_radial)"/>
</g>
</g>
<defs>
<linearGradient id="paint0_linear" x1="0.000427084" y1="12.0083" x2="24.0004" y2="12.0083" gradientUnits="userSpaceOnUse">
<stop stop-color="#FAA61A"/>
<stop offset="1" stop-color="#FFE100"/>
</linearGradient>
<linearGradient id="paint1_linear" x1="0.000427084" y1="12.0083" x2="24.0004" y2="12.0083" gradientUnits="userSpaceOnUse">
<stop stop-color="#FAA61A"/>
<stop offset="1" stop-color="#FFE100"/>
</linearGradient>
<radialGradient id="paint2_radial" cx="0" cy="0" r="1" gradientUnits="userSpaceOnUse" gradientTransform="translate(14.8181 8.24311) scale(7.27666)">
<stop stop-color="#363738"/>
<stop offset="1"/>
</radialGradient>
<radialGradient id="paint3_radial" cx="0" cy="0" r="1" gradientUnits="userSpaceOnUse" gradientTransform="translate(14.8181 8.24311) scale(7.27666)">
<stop stop-color="#363738"/>
<stop offset="1"/>
</radialGradient>
<clipPath id="clip0">
<rect width="24" height="24" fill="white"/>
</clipPath>
</defs>
</svg>
