<svg width="24" height="9" viewBox="0 0 24 9" fill="none" xmlns="http://www.w3.org/2000/svg">
<path d="M-1.52588e-05 3.09602V4.36524L3.42394 3.98861V2.61487L-1.52588e-05 3.09602ZM1.09263 4.44245V8.79172H2.34617V4.31434L1.09263 4.44245ZM3.88636 2.5499V8.79172H5.20724V2.36418L3.88636 2.5499ZM5.45333 2.32957V3.76545L7.36068 3.5556V2.06158L5.45333 2.32957ZM5.45333 4.83416V6.2962L6.70538 6.22791V4.72639L5.45333 4.83416ZM5.45333 7.35003V8.79172H7.36068V7.2925L5.45333 7.35003ZM12.2933 1.36612V8.79172H14.0249V1.12274L12.2933 1.36612ZM14.3483 1.07724V2.7853L16.8717 2.50785V0.722517L14.3483 1.07724ZM14.3483 4.06987V5.80957L16.0022 5.71925V3.92824L14.3483 4.06987ZM14.3483 7.08116V8.79172H16.8717V7.00497L14.3483 7.08116ZM7.86536 1.99053V8.79172H9.36999V1.77899L7.86536 1.99053ZM9.65082 7.22341V8.79165H11.8349V7.15749L9.65082 7.22341ZM22.5292 0.638551C21.9819 0.121503 21.1795 -0.090576 20.3018 0.0355085V1.92995C20.6572 1.91021 20.9452 2.04211 21.0735 2.30767C21.2762 2.72635 21.0671 3.35454 20.574 3.93656C19.8129 4.8347 17.789 6.67303 17.789 6.67303L20.6944 6.5775C22.4697 4.84315 23.1072 3.79039 23.2216 2.47648C23.2817 1.78136 23.0294 1.11159 22.5292 0.638551ZM23.3239 8.79172V6.80946L17.4309 6.98699L23.3239 8.79172ZM17.4309 6.98692L17.4315 8.79165H23.3239L17.4309 6.98692ZM19.963 0.0780325C18.2511 0.44263 17.4104 1.70212 17.5074 3.75727L19.3328 3.59528C19.2496 2.43422 19.6047 2.1588 19.9639 2.00736L19.963 0.0780325Z" fill="#141414"/>
</svg>
