<svg width="24" height="6" viewBox="0 0 24 6" fill="none" xmlns="http://www.w3.org/2000/svg">
<path fill-rule="evenodd" clip-rule="evenodd" d="M2.13332 0C1.68804 0 1.16011 0.428091 0.724641 1.14779C0.270765 1.89316 0 2.81591 0 3.61723C0 4.79032 0.658321 5.97335 2.13345 5.97335C3.60681 5.97335 4.26689 4.79032 4.26689 3.61723C4.26689 2.81591 3.99625 1.89316 3.54457 1.14779C3.10502 0.428091 2.57714 0 2.13332 0ZM13.6534 1.76003H15.1468V5.65345H16.7469V1.76003H18.2397V0.319834H13.6534V1.75985V1.76003ZM21.6532 1.76003H24V0.319834H21.6532C19.4972 0.319834 18.3458 1.3918 18.3458 2.98646C18.3458 4.58112 19.4972 5.65345 21.6532 5.65345H24V4.21331H21.6532C20.6554 4.21331 19.9995 3.85666 19.9995 2.98664C19.9995 2.11662 20.6554 1.76003 21.6532 1.76003ZM10.399 0.319834L9.5462 3.50324L8.69343 0.319834H5.86692V5.65345H7.4664V1.31524L8.62882 5.65345H10.4636L11.6266 1.31262V5.65345H13.2267V0.319834H10.399Z" fill="#E30613"/>
</svg>
