<svg width="15" height="24" viewBox="0 0 15 24" fill="none" xmlns="http://www.w3.org/2000/svg">
<path d="M12.4818 8.29075C13.7992 6.95161 14.6124 5.0938 14.6113 3.06269V1.6292C14.6113 0.72942 13.8822 1.90735e-06 12.9824 1.90735e-06C12.0809 1.90735e-06 11.3523 0.72942 11.3523 1.6292V3.06269C11.3518 4.22193 10.894 5.25315 10.1563 6.00631C9.41571 6.75738 8.41937 7.21058 7.30567 7.21107C6.19135 7.21058 5.19623 6.75738 4.45458 6.00631C3.71782 5.25315 3.25961 4.22193 3.25961 3.06269V1.6292C3.25961 0.72942 2.52983 1.90735e-06 1.63005 1.90735e-06C0.730286 1.90735e-06 3.4514e-07 0.72942 3.4514e-07 1.6292V3.06269C-0.000574866 5.0938 0.812565 6.95161 2.12938 8.29075C3.07909 9.26041 4.30551 9.96731 5.67562 10.2849V13.715C4.30551 14.0325 3.07909 14.74 2.12938 15.7101C0.812516 17.0493 -0.000611581 18.9058 3.4514e-07 20.9383V22.3712C3.4514e-07 23.2704 0.730249 24 1.63005 24C2.52978 24 3.25961 23.2703 3.25961 22.3712V20.9383C3.25961 19.7789 3.71782 18.7465 4.45458 17.9941C5.19623 17.2427 6.19135 16.7898 7.30567 16.7887C8.41937 16.7898 9.41571 17.2427 10.1563 17.9941C10.894 18.7465 11.3518 19.7789 11.3523 20.9383V22.3712C11.3523 23.2704 12.0809 24 12.9824 24C13.8822 24 14.6113 23.2703 14.6113 22.3712V20.9383C14.6124 18.9058 13.7992 17.0493 12.4818 15.7101C11.5322 14.74 10.3058 14.0325 8.93572 13.715V10.2849C10.3058 9.96731 11.5322 9.26041 12.4818 8.29075Z" fill="#00AEEF"/>
<path d="M7.30615 23.657C8.86473 23.657 10.128 22.3949 10.128 20.8357C10.128 19.2767 8.86473 18.0134 7.30615 18.0134C5.74757 18.0134 4.48431 19.2767 4.48431 20.8357C4.48431 22.3949 5.74757 23.657 7.30615 23.657Z" fill="#00AEEF"/>
</svg>
