<svg width="17" height="24" viewBox="0 0 17 24" fill="none" xmlns="http://www.w3.org/2000/svg">
<path d="M8.7844 -0.0239601C10.5266 -0.0239601 11.0741 1.22566 11.5334 2.47333C11.7263 3.00315 16.2538 15.4015 16.3899 15.7736C16.4261 15.8774 16.4016 16.0478 16.242 16.1095C16.0814 16.1702 13.729 17.0849 13.5988 17.1339C13.4685 17.1839 13.3226 17.1114 13.2756 16.9811C13.2266 16.8528 12.2502 14.1499 12.1406 13.8483H5.43019C5.32442 14.1499 4.33628 16.8587 4.29221 16.9811C4.24716 17.1055 4.10712 17.1897 3.96805 17.1339C3.82899 17.0791 1.46782 16.1644 1.3268 16.1095C1.19165 16.0566 1.12995 15.9029 1.17696 15.7736C1.34345 15.3094 5.80234 3.1099 6.02954 2.47333C6.4722 1.24427 7.03825 -0.0239601 8.7844 -0.0239601ZM0.818527 19.7376C0.677503 19.7376 0.56488 19.8551 0.56488 19.9981V22.896C0.56488 23.0389 0.677503 23.1545 0.818527 23.1545H16.7434C16.8874 23.1545 17 23.0389 17 22.896V19.9981C17 19.8551 16.8874 19.7376 16.7434 19.7376H0.818527ZM8.76873 4.02459L6.5006 10.8358H11.0741L8.79811 4.02459H8.76873Z" fill="#EE2A23"/>
</svg>
