<svg width="24" height="24" viewBox="0 0 24 24" fill="none" xmlns="http://www.w3.org/2000/svg">
<path d="M21.2111 4.66283C21.7736 5.39985 22.2498 6.20055 22.63 7.04887L11.8439 15.107L7.33603 12.2432V8.79787L11.8439 11.6617L21.2111 4.66283Z" fill="#21A038"/>
<path d="M2.73559 12C2.73559 11.8454 2.73931 11.6918 2.74675 11.5391L0.0148783 11.4035C0.00557985 11.6014 3.30134e-06 11.8012 3.30134e-06 12.0028C-0.00115903 13.5783 0.304616 15.1384 0.899796 16.5938C1.49497 18.0493 2.36783 19.3713 3.46831 20.484L5.40609 18.5211C4.55899 17.666 3.88697 16.6497 3.42868 15.5306C2.97038 14.4115 2.73484 13.2116 2.73559 12Z" fill="url(#paint0_linear)"/>
<path d="M11.8415 2.77169C11.994 2.77169 12.1455 2.77735 12.2962 2.78489L12.4329 0.015309C12.237 0.00588548 12.0399 0.00117429 11.8415 0.00117429C10.2862 -0.000747881 8.74595 0.308695 7.30903 0.911735C5.87211 1.51478 4.56688 2.39954 3.46829 3.51522L5.40608 5.47908C6.2498 4.62029 7.25271 3.93899 8.35714 3.47436C9.46157 3.00973 10.6457 2.77093 11.8415 2.77169Z" fill="url(#paint1_linear)"/>
<path d="M11.8419 21.2285C11.6895 21.2285 11.5379 21.2285 11.3864 21.2162L11.2497 23.9849C11.4462 23.9949 11.6436 24 11.8419 24C13.3966 24.0016 14.9361 23.692 16.3723 23.0888C17.8084 22.4855 19.1128 21.6007 20.2106 20.485L18.2765 18.5221C17.4326 19.3804 16.4298 20.0613 15.3256 20.5258C14.2214 20.9903 13.0375 21.2291 11.8419 21.2285Z" fill="url(#paint2_linear)"/>
<path d="M16.9744 4.38196L19.2767 2.66217C17.1724 0.935265 14.5457 -0.00479369 11.838 1.83829e-05V2.77148C13.6715 2.76918 15.4625 3.33074 16.9744 4.38196Z" fill="url(#paint3_linear)"/>
<path d="M23.6822 12C23.6837 11.279 23.6215 10.5593 23.4962 9.84955L20.9476 11.7531C20.9476 11.8351 20.9476 11.9171 20.9476 12C20.9482 13.2894 20.6815 14.5646 20.1648 15.7428C19.648 16.9211 18.8927 17.9761 17.9479 18.8396L19.7862 20.8987C21.0146 19.7748 21.9962 18.4019 22.6673 16.869C23.3385 15.336 23.6843 13.6771 23.6822 12Z" fill="#21A038"/>
<path d="M11.8417 21.2285C10.5693 21.2289 9.31097 20.9586 8.14821 20.4349C6.98551 19.9112 5.94426 19.1459 5.09192 18.1885L3.06116 20.0506C4.16995 21.2956 5.52459 22.2906 7.03723 22.971C8.54986 23.6513 10.1867 24.0019 11.8417 23.9999V21.2285Z" fill="url(#paint4_linear)"/>
<path d="M5.73526 5.16034L3.8979 3.1013C2.66918 4.22494 1.68723 5.59777 1.01572 7.13076C0.344222 8.66374 -0.00183074 10.3227 7.28358e-06 11.9999H2.7356C2.73503 10.7106 3.00177 9.43542 3.51851 8.25718C4.03526 7.07897 4.79048 6.02389 5.73526 5.16034Z" fill="url(#paint5_linear)"/>
<defs>
<linearGradient id="paint0_linear" x1="4.02156" y1="20.1382" x2="0.960938" y2="11.408" gradientUnits="userSpaceOnUse">
<stop offset="0.14" stop-color="#F1E813"/>
<stop offset="0.3" stop-color="#E6E418"/>
<stop offset="0.58" stop-color="#C9DA26"/>
<stop offset="0.89" stop-color="#A2CC39"/>
</linearGradient>
<linearGradient id="paint1_linear" x1="4.24935" y1="4.00524" x2="11.9733" y2="1.10083" gradientUnits="userSpaceOnUse">
<stop offset="0.06" stop-color="#0FA7DF"/>
<stop offset="0.54" stop-color="#0098F8"/>
<stop offset="0.92" stop-color="#0290EA"/>
</linearGradient>
<linearGradient id="paint2_linear" x1="11.0693" y1="22.3273" x2="19.7856" y2="20.3843" gradientUnits="userSpaceOnUse">
<stop offset="0.12" stop-color="#A2CC39"/>
<stop offset="0.28" stop-color="#86C239"/>
<stop offset="0.87" stop-color="#219F38"/>
</linearGradient>
<linearGradient id="paint3_linear" x1="11.2689" y1="0.928236" x2="18.7285" y2="3.19966" gradientUnits="userSpaceOnUse">
<stop offset="0.06" stop-color="#0290EA"/>
<stop offset="0.79" stop-color="#0C89CA"/>
</linearGradient>
<linearGradient id="paint4_linear" x1="3.74738" y1="19.7132" x2="11.8745" y2="22.7102" gradientUnits="userSpaceOnUse">
<stop offset="0.13" stop-color="#F1E813"/>
<stop offset="0.3" stop-color="#EAE616"/>
<stop offset="0.53" stop-color="#D8DF1F"/>
<stop offset="0.8" stop-color="#BAD52D"/>
<stop offset="0.98" stop-color="#A2CC39"/>
</linearGradient>
<linearGradient id="paint5_linear" x1="1.01911" y1="12.3354" x2="4.34727" y2="3.79264" gradientUnits="userSpaceOnUse">
<stop offset="0.07" stop-color="#A2CC39"/>
<stop offset="0.26" stop-color="#81C45E"/>
<stop offset="0.92" stop-color="#0FA7DF"/>
</linearGradient>
</defs>
</svg>
