<svg width="24" height="22" viewBox="0 0 24 22" fill="none" xmlns="http://www.w3.org/2000/svg">
<path d="M23.7016 7.7791C23.6363 7.71257 23.598 7.65177 23.544 7.56723C23.5159 7.52445 23.4854 7.47827 23.4517 7.42869C23.5451 7.32053 23.6239 7.19545 23.6836 7.05806L23.9223 6.51392L23.3346 6.42938C23.2355 6.41476 23.0756 6.37309 22.8887 6.32351C22.5284 6.22885 22.0656 6.10722 21.5612 6.05424C21.7334 5.97879 21.8798 5.84246 21.9823 5.6577L22.0791 5.48309C22.0791 5.48309 22.0532 5.23859 21.9586 5.16203C21.9947 5.0865 22.0228 5.00314 22.042 4.91189L22.1219 4.5221L21.7458 4.39369C21.6873 4.37337 21.6288 4.35876 21.5713 4.34975C21.5499 4.27874 21.5184 4.20327 21.4756 4.1233L21.2527 3.71434L20.8507 3.9498C20.7505 4.0084 20.666 4.07596 20.5973 4.15147C20.5377 4.14017 20.4735 4.13456 20.4059 4.13456C20.4059 4.13456 20.1763 4.10864 19.9229 4.20102L19.5986 3.86417L19.2146 3.45411C18.8554 3.06992 18.3691 2.95616 17.8737 3.14543C17.6845 2.95616 17.3894 2.79953 16.9312 2.79953C16.7758 2.79953 16.6395 2.8187 16.5596 2.82885C16.5596 2.82885 15.9291 2.94375 15.5744 3.2806L15.1443 3.07557C14.856 3.52958 14.3628 3.6738 14.3628 3.6738C14.3291 3.54083 14.2716 3.41693 14.1895 3.30313L14.2176 3.14314C14.2176 3.13863 14.3144 2.59675 14.6095 2.13709L15.1229 1.33723L14.3955 1.41946C14.3978 1.34739 14.3944 1.26177 14.3842 1.16038L14.3189 0.538481L13.7492 0.796457C13.6861 0.824633 13.6332 0.852809 13.5837 0.878729L13.4711 0.638766L13.2099 0.773937C13.184 0.709731 13.1502 0.636514 13.104 0.551991L12.8034 0L12.3767 0.460761C12.3327 0.508054 12.2956 0.551991 12.264 0.593676L12.0051 0.335699L11.7439 0.594828C11.7112 0.553143 11.6751 0.509201 11.6313 0.461861L11.2 0L10.8983 0.554242C10.8521 0.638766 10.8194 0.710834 10.7935 0.775089L10.5334 0.639869L10.4208 0.879832C10.3713 0.853908 10.3184 0.825781 10.2553 0.796457L9.68336 0.539629L9.62027 1.16373C9.61012 1.26402 9.60676 1.3485 9.60901 1.42061L8.88051 1.33839L9.39506 2.13824C9.69122 2.59675 9.78578 3.13863 9.78578 3.14314L9.8128 3.30313C9.73064 3.41803 9.6721 3.54199 9.63939 3.67491C9.63939 3.67491 9.17326 3.47548 8.86139 3.07557L8.42224 3.28511C7.92119 2.94711 7.61043 2.81534 7.06996 2.79953C6.61169 2.78717 6.31669 2.95616 6.12751 3.14543C5.63096 2.95727 5.14568 3.07107 4.78763 3.45521C4.78763 3.45521 4.55232 3.71094 4.40367 3.86532C4.25502 4.02076 4.03546 4.14922 4.03546 4.14922C4.03546 4.14922 3.72359 4.07936 3.40268 4.15258C3.33402 4.07711 3.24842 4.0095 3.1471 3.9498L2.74397 3.71434L2.52217 4.12555C2.47939 4.20442 2.44897 4.27874 2.4287 4.34975C2.37131 4.35876 2.31277 4.37337 2.25423 4.39369L1.88037 4.52435L1.95808 4.91189C1.97719 5.00544 2.00421 5.08875 2.04134 5.16429C2.01997 5.20596 2.00086 5.24989 1.98509 5.29607L1.92205 5.48419L2.01772 5.6588C2.11909 5.84246 2.26434 5.9799 2.43771 6.05539C1.93216 6.10837 1.47054 6.23 1.10908 6.32466C0.92331 6.37309 0.763412 6.41587 0.664319 6.43052L0.0743206 6.51617L0.208295 6.82036L0.315295 7.06256C0.376053 7.1977 0.456024 7.32278 0.548362 7.43094C0.513431 7.48052 0.364794 7.71372 0.298381 7.7802L0 8.08324L0.286015 8.39869C0.322049 8.43696 0.642951 8.77387 1.16199 8.77497C1.30388 8.77497 1.44462 8.7502 1.58422 8.70062C1.72272 8.91695 1.88713 9.13659 2.03684 9.24472C1.76099 9.56921 1.44687 9.85088 0.999882 10.0638L0.626037 10.2418L0.787036 10.6687C0.891784 10.9267 1.09558 11.2095 1.48965 11.3177C1.4052 11.57 1.36467 11.8088 1.32864 12.0218C1.24421 12.5276 1.20818 12.7372 0.763412 12.8938L0.363691 13.0335L0.478549 13.4413C0.570882 13.7737 0.709364 13.9933 0.859104 14.1387L0.593403 14.4316C0.593403 14.4316 1.22394 14.9048 1.84205 14.9622C1.8511 14.9633 2.37802 14.9971 2.61448 14.6952C2.70909 15.0376 2.8588 15.3531 2.99509 15.6393C3.27429 16.2274 3.42294 16.5755 3.23601 16.8931L2.81377 17.6097L3.64364 17.5748C4.00619 17.5601 4.34287 17.5376 4.63448 17.4654C4.63448 17.4812 4.63337 17.4959 4.63222 17.5106L4.56468 18.1256L5.29203 17.9724C5.36863 17.9499 5.44068 17.9195 5.50598 17.8846C5.95634 18.4118 6.72202 18.823 7.75343 18.823H7.81312L6.62745 19.3097L7.49105 19.7592C8.05969 20.0555 8.69137 20.3033 9.41197 20.514L9.31176 20.8599L9.74526 20.9872C9.99523 21.0604 10.8994 21.3004 12.0006 21.3004C13.1018 21.3004 14.0048 21.0604 14.2559 20.9872L14.6883 20.8599L14.588 20.5152C15.3098 20.3045 15.9415 20.0566 16.5101 19.7603L17.3737 19.3108L16.1869 18.8241H16.2466C17.278 18.8241 18.0425 18.413 18.4929 17.8857C18.5582 17.9206 18.6303 17.951 18.7068 17.9735L19.4342 18.1268L19.3678 17.5128C19.3666 17.4982 19.3655 17.4824 19.3655 17.4666C19.656 17.5387 19.9938 17.5601 20.3553 17.5759L21.1851 17.6108L20.7651 16.8954C20.5771 16.5777 20.7268 16.2296 21.005 15.6416C21.1412 15.3554 21.2909 15.0399 21.3855 14.6975C21.5454 14.8191 21.7177 14.8923 21.8888 14.9307C21.8888 14.9307 22.0217 14.97 22.1489 14.9734C22.516 14.9847 22.6995 14.88 22.9517 14.7211L23.41 14.4327L23.142 14.1398C23.2918 13.9956 23.4303 13.7759 23.5226 13.4447L23.6386 13.0357L23.2378 12.896C22.7918 12.7394 22.7569 12.5299 22.6725 12.024C22.6365 11.8111 22.597 11.5711 22.5115 11.3199C22.9056 11.2107 23.1082 10.9279 23.213 10.671L23.3729 10.2429L22.999 10.0649C22.552 9.85198 22.2379 9.57031 21.9609 9.24586C22.1117 9.13774 22.2762 8.91806 22.4158 8.70177C22.5543 8.75131 22.695 8.77497 22.838 8.77612C23.3571 8.77612 23.6791 8.43926 23.714 8.40094L24 8.08549L23.7016 7.7791Z" fill="white"/>
<path fill-rule="evenodd" clip-rule="evenodd" d="M8.34112 13.3309V9.89482C8.34112 9.57487 8.2488 9.25492 8.13843 8.96084H10.8036C11.048 9.2966 11.4916 9.52189 12.0005 9.52189C12.5072 9.52189 12.9508 9.2966 13.1963 8.96084H15.8615C15.7488 9.25602 15.6577 9.57487 15.6577 9.89482V13.3309H8.34112ZM11.9994 18.0265C11.6267 17.6559 11.361 17.6153 10.3566 17.6153C9.15633 17.6153 8.34112 16.9112 8.34112 15.7858V13.5326H15.6566V15.7858C15.6566 16.9112 14.8425 17.6153 13.6399 17.6153C12.6367 17.6142 12.3709 17.6559 11.9994 18.0265Z" fill="#FFDD2D"/>
<path d="M8.76569 18.4513V19.1374L8.17007 19.3773C8.67337 19.606 9.2983 19.8336 10.0324 20.0014L10.3702 18.9008C9.6496 18.7532 9.1474 18.5988 8.76569 18.4513Z" fill="white"/>
<path d="M11.9991 19.3807C11.2953 19.3807 10.7031 19.3075 10.4667 19.2534L10.1098 20.4082C10.6705 20.5456 11.3269 20.647 11.9991 20.647C12.669 20.647 13.3255 20.5468 13.8885 20.4082L13.5304 19.2534C13.294 19.3086 12.704 19.3807 11.9991 19.3807Z" fill="white"/>
<path d="M15.2331 18.4513C14.8503 18.5988 14.3492 18.7521 13.6286 18.9019L13.9675 20.0026C14.7028 19.8347 15.3255 19.6071 15.8288 19.3785L15.2343 19.1385V18.4513H15.2331Z" fill="white"/>
<path d="M7.51819 7.38252C8.45052 6.87891 10.7295 5.77033 9.18459 4.57504C8.97404 4.41279 8.74213 4.26636 8.5473 4.085C8.30638 4.27086 8.63741 4.73278 8.72072 4.90179C8.72072 4.90179 8.20612 4.95357 8.08343 4.95357C7.28848 4.95022 6.45525 4.47928 6.8775 3.5769C6.56108 3.64221 6.5228 3.94642 6.42603 4.20666C6.22334 4.06919 5.8709 3.77403 5.59956 3.81571C5.82021 4.5221 6.74915 5.1586 7.46975 5.30284C6.74125 5.69938 5.39011 5.99452 4.67962 5.14059C4.18083 6.10608 4.87551 6.50938 5.55678 7.01524C2.96364 8.19928 3.3465 9.5275 1.64517 10.573C1.86583 10.6767 2.84991 10.4682 2.93777 10.4558C2.56842 10.9346 2.39615 11.1374 2.28807 11.3706C2.18445 11.5892 2.13832 11.8359 2.03585 12.3677C1.9559 12.7879 1.8095 13.207 1.29834 13.4852C1.49878 13.848 1.94353 13.5641 2.12931 13.5157C2.10454 13.5539 2.04146 13.9911 1.87484 14.2017C2.74859 14.1454 2.34436 12.3023 3.21812 12.7462C3.46469 12.8701 3.53903 13.1608 3.42526 13.3985C2.85102 14.5836 4.15606 15.628 4.08507 16.6667C4.40603 16.6645 4.73821 16.6554 4.94761 16.2217C5.05683 16.438 5.2257 16.7422 5.32027 17.0351L5.58155 16.5901C5.74251 17.3269 6.42938 18.0074 7.35717 18.0682C6.91467 17.3674 7.44503 16.4109 6.36974 15.3937C6.50369 15.2855 6.81335 15.0771 6.92368 14.9351C5.60406 15.0906 4.22696 14.0463 4.85189 13.5506C5.26063 13.2272 5.43965 13.8987 6.07019 13.786L5.82361 13.5731C5.91028 13.4875 6.00939 13.376 6.11182 13.2915C5.84388 13.2588 5.55113 13.0875 5.55113 13.0875L5.71099 12.8228C4.16507 12.8205 4.12564 11.6376 4.75393 11.5903C5.04893 11.5689 5.43064 12.113 6.3821 11.9993C6.26047 11.8528 6.21208 11.6309 6.1546 11.4675C6.38435 11.4461 6.65459 11.4484 6.87189 11.3425C6.40687 11.2828 6.28974 11.1261 5.90242 10.8332L6.35168 10.6688C5.69973 10.3432 5.73916 9.7765 5.71889 9.18618C6.06008 9.38221 6.46091 9.68635 6.88875 9.54551C6.99012 9.51174 7.05542 9.46441 7.05767 9.3585C6.4474 9.11404 6.05557 8.17336 7.51819 7.38252ZM6.40462 7.47488C5.5883 8.34797 5.9418 8.87074 6.10621 9.03184C5.8022 8.96645 5.34848 8.57891 5.45201 8.20378C5.35524 8.3198 5.25612 8.44602 5.1548 8.57556C4.95211 8.84597 4.77084 9.11069 4.60983 9.3675C4.36211 10.1043 4.81587 10.8648 5.5883 11.2016C4.73031 11.0755 4.34524 10.3116 4.34749 9.82493C3.93761 10.6 3.74168 11.3075 3.75969 11.9013C3.76759 12.122 3.78671 12.3282 3.81598 12.5231C4.01306 12.8971 4.32948 13.0346 4.89353 13.1033C4.38127 13.136 4.10984 13.1124 3.88693 12.878C4.23597 14.3797 5.86865 15.6798 6.53296 16.7929C5.8675 15.9277 4.49045 14.6389 4.00856 13.7072C3.97139 14.044 4.06145 14.907 4.48029 15.4376C3.86327 14.8304 3.81488 13.9111 3.85541 13.3726C3.69894 12.985 3.59983 12.5524 3.58632 12.0601C3.57391 11.6072 3.60544 11.214 3.67413 10.8614C3.28452 11.4157 2.72157 11.6297 2.44454 12.4736C2.49862 11.3852 3.31048 11.3683 3.9185 10.0469C4.15381 9.46896 4.49605 8.96985 4.87441 8.4043C4.39363 8.56205 4.03333 8.67472 3.47705 9.28419C3.87227 8.34912 6.15575 7.29797 7.20181 6.28069C6.88765 6.34714 5.60517 6.37985 5.0726 6.02383C6.03756 6.2852 8.18475 5.98666 8.99546 5.43237C8.43587 6.23791 7.21758 6.28409 5.73465 7.88608C5.92379 7.73514 6.17606 7.58304 6.40462 7.47488Z" fill="white"/>
<path d="M21.9623 12.3676C21.8598 11.8359 21.8148 11.5892 21.7112 11.3706C21.6042 11.1374 21.4308 10.9346 21.0604 10.4558C21.1482 10.4682 22.1346 10.6766 22.3541 10.573C20.6528 9.52749 21.0356 8.19927 18.4414 7.01524C19.1226 6.50938 19.8173 6.10608 19.3185 5.13944C18.608 5.99451 17.2569 5.69938 16.5284 5.30168C17.2501 5.15749 18.1779 4.52206 18.3986 3.8146C18.1261 3.77291 17.7737 4.06808 17.571 4.20439C17.4742 3.94412 17.437 3.63995 17.1206 3.57349C17.5429 4.47698 16.7085 4.94792 15.9125 4.95132C15.7908 4.95132 15.2774 4.89944 15.2774 4.89944C15.3596 4.73053 15.6907 4.2686 15.4485 4.08269C15.2538 4.2652 15.0241 4.41053 14.8124 4.57278C13.2664 5.76807 15.5476 6.87776 16.48 7.38022C17.9403 8.1711 17.5519 9.11179 16.9405 9.35289C16.9427 9.4588 17.008 9.50608 17.1105 9.5399C17.5361 9.68184 17.9392 9.37765 18.2781 9.18048C18.2589 9.77084 18.2995 10.3386 17.6476 10.6631L18.0957 10.8276C17.7084 11.1205 17.5924 11.2771 17.1274 11.3368C17.3436 11.4427 17.6161 11.4404 17.8446 11.4619C17.7861 11.6252 17.7354 11.8472 17.6161 11.9936C18.5686 12.1062 18.9515 11.5632 19.2442 11.5847C19.8702 11.632 19.8331 12.8149 18.286 12.8171L18.4459 13.0819C18.4459 13.0819 18.1531 13.2531 17.884 13.2858C17.9865 13.3692 18.0867 13.4818 18.1734 13.5674L17.9268 13.7804C18.5562 13.893 18.7364 13.2216 19.1451 13.5449C19.77 14.0406 18.3941 15.085 17.0733 14.9295C17.1848 15.0715 17.4944 15.281 17.6284 15.3892C16.552 16.4053 17.0812 17.3629 16.6409 18.0648C17.5665 18.0028 18.2533 17.3224 18.4166 16.5856L18.6778 17.0306C18.7713 16.7377 18.9424 16.4335 19.0494 16.2172C19.2577 16.6509 19.5921 16.6599 19.9141 16.6622C19.8409 15.6235 21.1448 14.5791 20.5728 13.3939C20.458 13.1574 20.5323 12.8667 20.7789 12.7416C21.6549 12.2978 21.2484 14.1409 22.1233 14.1972C21.9555 13.9865 21.8936 13.5494 21.8699 13.5111C22.0546 13.5596 22.4983 13.8435 22.6987 13.4795C22.1909 13.207 22.0445 12.7879 21.9623 12.3676ZM20.3262 10.8602C20.395 11.214 20.4298 11.606 20.4141 12.059C20.3995 12.5513 20.3015 12.9839 20.145 13.3714C20.1843 13.9099 20.1371 14.8293 19.52 15.4364C19.9378 14.9047 20.029 14.0428 19.9918 13.706C19.5077 14.6377 18.1318 15.9265 17.4652 16.7917C18.1306 15.6786 19.7632 14.3774 20.1134 12.8769C19.8882 13.1101 19.6191 13.1349 19.1057 13.1022C19.6687 13.0335 19.9851 12.896 20.1821 12.5219C20.2114 12.3282 20.2306 12.1209 20.2384 11.9001C20.2576 11.3064 20.0605 10.5989 19.6507 9.82382C19.6541 10.3105 19.2689 11.0743 18.4099 11.2005C19.18 10.8625 19.6349 10.1021 19.3883 9.36639C19.2284 9.10954 19.0483 8.84367 18.8434 8.57441C18.742 8.44483 18.6429 8.31869 18.545 8.20263C18.6486 8.57776 18.1948 8.96534 17.8907 9.03069C18.0563 8.86959 18.4087 8.34686 17.5935 7.47373C17.8221 7.58189 18.0743 7.73398 18.2646 7.88268C16.7817 6.28069 15.5645 6.23561 15.0027 5.42896C15.8145 5.98326 17.9617 6.28294 18.9255 6.02047C18.3941 6.3764 17.1105 6.34378 16.7963 6.27729C17.8424 7.29461 20.1281 8.34571 20.5222 9.28079C19.9659 8.67131 19.6045 8.55864 19.1259 8.4009C19.5054 8.9676 19.8454 9.46555 20.0808 10.0435C20.6899 11.365 21.5029 11.3807 21.5558 12.4702C21.2788 11.6285 20.7169 11.4145 20.3262 10.8602Z" fill="white"/>
<path d="M13.1952 8.95965C12.9508 9.29536 12.5061 9.5207 12.0005 9.5207C11.8823 9.5207 11.7685 9.50719 11.6604 9.48688C11.6909 9.62546 11.7618 9.76855 11.9093 9.89133C11.8496 10.2936 12.023 10.6699 12.4543 10.7678C12.5004 10.9729 12.6265 11.1272 12.8405 11.2004L12.5398 11.5474C12.4238 11.6804 12.273 11.7232 12.1514 11.7074L10.8093 11.5553C10.8678 11.4067 10.7124 11.2343 10.2868 11.3075L10.8138 9.83164L10.4928 9.14777L9.88367 9.66829L9.83864 11.2162L9.57631 11.0889C9.23848 10.9425 9.13826 11.5587 9.46033 11.561L9.58982 11.5621C9.58081 11.6252 9.60107 11.695 9.65171 11.7176C9.59092 11.7423 9.57291 11.8561 9.64836 11.8967C9.5718 11.9338 9.56055 12.051 9.62244 12.1017C9.556 12.2155 9.54359 12.4622 9.77899 12.5242C9.97263 12.5749 10.0942 12.3676 10.1336 12.247L12.2223 12.8937C12.5162 12.9782 12.7279 12.9309 12.9733 12.7157L13.5183 12.2392C13.4496 12.5513 13.5611 12.8317 13.7987 12.9253C13.7987 12.9253 13.7615 13.2114 13.7762 13.3297L14.5069 13.3308H15.6576V9.89473C15.6576 9.57478 15.7489 9.25483 15.8614 8.95965H14.5069H13.1952Z" fill="white"/>
<path d="M10.0674 14.7414L10.1079 14.7921C10.1642 14.8619 10.198 14.8451 10.2622 14.8079L10.3568 14.7572C10.4164 14.7121 10.8049 14.8608 10.8263 14.5375C10.8691 14.7786 10.582 15.2867 10.7554 15.5706L10.9884 15.9525L10.2273 15.9638C10.144 15.9638 10.1001 16.0144 10.0776 16.0595L9.87822 16.473C9.82639 16.5822 9.82979 16.6949 9.89513 16.7704L10.0302 16.9225C10.0302 16.9225 10.1406 16.829 10.1766 16.7062L10.1169 16.6442C10.0674 16.5969 10.0674 16.5518 10.0944 16.4933L10.2171 16.2387C10.2644 16.1384 10.3129 16.117 10.4209 16.1429L11.0368 16.2758C11.0819 16.2871 11.1551 16.3085 11.199 16.233C11.2744 16.0989 11.4073 16.0899 11.5424 16.1113C11.8802 16.162 12.6605 16.2432 12.9386 15.9176C13.2651 16.3513 13.9036 16.3513 13.8619 16.5788L13.7268 17.3246H13.9294L14.0533 16.562C14.0668 16.473 14.122 16.3513 14.0263 16.2826C13.9869 16.2522 13.9689 16.2364 13.8799 16.0832C13.764 15.8804 13.7696 15.5762 13.6581 15.3137C13.764 15.1887 13.8788 15.1458 13.979 15.1695C14.2042 15.2247 14.265 15.6134 14.5848 15.93C14.5488 15.7891 14.533 15.6348 14.4575 15.5008C14.4575 15.5008 14.6793 15.6731 14.7368 15.8748C14.7728 16.0009 14.81 16.0933 14.9237 16.1519C14.9992 16.1789 15.0892 16.1429 15.1793 16.0347C15.1793 16.0347 14.9687 15.7351 14.8145 15.539C14.6028 15.2698 14.3201 14.9994 13.9351 15.0309C13.8135 15.0411 13.6964 15.0963 13.5849 15.1628C13.1469 14.9172 12.8069 15.1774 12.6718 15.1774L11.852 15.129C11.6911 15.1188 11.5638 14.9318 11.5638 14.9318C11.5435 14.2378 10.9862 13.9618 10.7937 13.9618C10.7937 13.9618 10.8117 13.8368 10.761 13.7929L10.5898 14.008L10.1147 13.8345L10.4874 14.1398L10.0832 14.6096C10.0415 14.6558 10.0471 14.7166 10.0674 14.7414Z" fill="white"/>
<path d="M9.52992 15.7159C9.41514 15.8049 9.42074 15.9289 9.48944 16.0675L9.55809 16.1958L9.73711 16.0596L9.69659 15.9717C9.66731 15.9097 9.66846 15.8467 9.7191 15.8072L9.97583 15.6134C10.0479 15.5605 10.0704 15.5548 10.147 15.5661L10.6886 15.6799C10.6886 15.6799 10.6064 15.5605 10.5793 15.4388L10.0693 15.3712C9.99724 15.3622 9.95331 15.3926 9.89027 15.441L9.52992 15.7159Z" fill="white"/>
<path d="M12.9938 17.3246H13.1987L13.5275 16.5146C13.5387 16.4864 13.5545 16.4741 13.5669 16.4504C13.4194 16.3918 13.3327 16.3513 13.21 16.2803C13.2921 16.3907 13.3563 16.438 13.3226 16.5406L12.9938 17.3246Z" fill="white"/>
<path d="M13.1681 6.36854L13.5475 4.18634L12.1097 4.67529V6.92508L13.1681 6.36854ZM12.3529 4.89613L13.3065 4.54461C13.3065 4.54461 13.1208 4.6956 12.899 4.84765C12.7019 4.98398 12.3529 5.12932 12.3529 5.12932V4.89613ZM12.3529 5.42446L13.2255 5.11241C13.2255 5.11241 13.1208 5.22279 12.9001 5.37488C12.703 5.51011 12.354 5.65545 12.354 5.65545V5.42446H12.3529ZM12.3529 5.9855L13.1208 5.69037C13.1208 5.69037 13.1208 5.78383 12.899 5.93482C12.7019 6.07115 12.3529 6.21649 12.3529 6.21649V5.9855Z" fill="white"/>
<path d="M10.6098 8.29844L10.6413 8.34912H10.9375L10.9408 8.40095C10.9442 8.45053 10.9555 8.50121 10.9724 8.55305C11.0186 8.69384 11.1098 8.84143 11.2561 8.96089C11.4261 9.09829 11.6716 9.19744 11.9981 9.19744C12.7064 9.19744 13.0261 8.73896 13.0566 8.40095L13.0588 8.34912H13.356L13.3876 8.29844C13.6668 7.86132 14.008 7.37572 14.4043 7.30592L13.3234 6.67843L11.9981 7.39939L10.6717 6.67843L9.59192 7.30592C9.98829 7.37462 10.3295 7.86132 10.6098 8.29844Z" fill="white"/>
<path d="M11.8869 6.92508V4.67529L10.4513 4.18634L10.8284 6.36854L11.8869 6.92508ZM11.6448 6.21874C11.6448 6.21874 11.2957 6.07226 11.0987 5.93707C10.8769 5.78608 10.8769 5.69147 10.8769 5.69147L11.6459 5.98661V6.21874H11.6448ZM11.6448 4.89613V5.12932C11.6448 5.12932 11.2957 4.98398 11.0987 4.84765C10.8757 4.6956 10.6888 4.54461 10.6888 4.54461L11.6448 4.89613ZM11.6448 5.42446V5.65655C11.6448 5.65655 11.2957 5.51121 11.0987 5.37603C10.8757 5.22393 10.7722 5.11356 10.7722 5.11356L11.6448 5.42446Z" fill="white"/>
<path d="M11.9991 3.22431C11.1782 3.22431 10.5623 3.4936 10.4283 3.80903L11.9991 4.42979L13.5675 3.80903C13.4347 3.4936 12.8199 3.22431 11.9991 3.22431Z" fill="white"/>
<path d="M11.9994 2.32299C12.604 2.32299 13.2098 2.5066 13.6174 2.74431C13.6838 2.52461 13.7547 2.36803 13.8516 2.18892L13.48 2.24637L13.1793 1.6042L12.6176 1.90276L11.9994 1.29102L11.3801 1.90276L10.8194 1.6042L10.5165 2.24637L10.1449 2.18892C10.2417 2.36803 10.3115 2.52461 10.3803 2.74431C10.789 2.5066 11.3925 2.32299 11.9994 2.32299Z" fill="white"/>
<path d="M22.2455 7.2687C22.4481 7.24279 22.6115 7.17515 22.8107 7.0265C22.3817 6.91269 21.4832 6.58709 20.7164 6.73357C20.4631 6.76735 20.3224 6.86991 20.4124 6.92845C20.8245 7.20217 21.3335 7.8365 21.7039 8.57666C22.0293 8.17221 21.8931 7.64159 21.8244 7.48949C22.4729 7.88043 22.643 8.0708 22.9436 7.99646C22.7826 7.74971 22.5563 7.52777 22.2455 7.2687Z" fill="white"/>
<path d="M2.29448 8.57552C2.66494 7.83536 3.17384 7.20111 3.58708 6.92735C3.67944 6.86876 3.5364 6.7662 3.28532 6.73243C2.51739 6.58709 1.61666 6.91154 1.18765 7.02536C1.38921 7.17405 1.54907 7.24164 1.75401 7.26756C1.44214 7.52777 1.21578 7.74861 1.05478 7.99535C1.35769 8.0697 1.52656 7.87929 2.17396 7.48839C2.10756 7.64159 1.97016 8.17111 2.29448 8.57552Z" fill="white"/>
<path fill-rule="evenodd" clip-rule="evenodd" d="M6.79068 15.4455C7.08904 15.2089 7.33671 15.0907 7.32435 14.5172C6.8762 14.747 5.60501 14.7346 5.07355 14.0023C4.92379 13.7939 5.0837 13.6892 5.22891 13.8537C5.59261 14.266 6.26592 14.0789 6.51139 13.9607C6.47201 13.8187 6.36279 13.634 6.27158 13.5551C6.36394 13.465 6.62402 13.3298 6.67691 13.0977C6.53846 13.0222 5.99909 12.9681 5.99909 12.9681C6.0858 12.8848 6.19387 12.7687 6.12862 12.4589C5.57799 12.6279 4.89678 12.3981 4.74252 12.1942C4.59051 11.9937 4.74592 11.8055 4.87422 11.9385C5.149 12.2269 6.50239 12.557 7.00573 12.0556C6.8188 12.0038 6.61276 11.837 6.57559 11.7334C7.04176 11.6861 7.41331 11.4112 7.44373 11.0687C7.18586 11.0687 6.69942 11.0496 6.5328 10.9256C6.75576 10.8434 6.89761 10.7623 6.96856 10.5122C6.11621 10.4604 6.04862 9.82722 6.04412 9.72246C6.59925 10.0424 7.57658 9.90046 7.3232 9.11183C6.86158 9.08706 6.39656 8.34015 7.66554 7.65403C8.81968 7.02879 10.1314 6.35508 10.0154 5.24539C9.93996 4.53561 8.77235 4.05119 8.62375 3.69182C8.13617 3.92387 8.03824 4.19316 8.2578 4.64492C8.2578 4.64492 7.17124 4.75304 7.08564 4.08387C7.04851 3.7842 7.2489 3.5037 7.464 3.28851C7.34237 3.28851 6.52375 3.06882 6.27718 3.73576C5.81892 3.42258 5.42599 3.43384 5.11748 3.76504C5.61062 4.05795 5.91578 5.06288 6.73099 5.35921C6.15109 5.67346 5.21315 5.54168 4.66592 4.57503C4.14801 5.35581 3.8496 6.12864 4.96097 6.9544C2.93983 7.87482 2.95448 9.6346 1.1957 10.4728C1.3736 10.9516 1.74966 10.9516 2.22938 10.8772C1.46931 11.8652 2.11676 12.8994 0.913086 13.3219C1.02569 13.7252 1.252 14.0474 1.69566 13.9292C1.56953 14.1263 1.48622 14.1218 1.29029 14.3381C1.94784 14.7527 2.72818 14.453 2.90495 13.1225C2.93647 12.8848 3.263 13.0335 3.15037 13.2667C2.40046 14.818 4.29666 15.9852 3.62555 17.123C4.21666 17.0982 4.66817 17.052 4.91368 16.8526C5.03412 17.0915 5.10737 17.3281 5.08035 17.5612C5.40683 17.4948 5.52621 17.3021 5.54872 17.0791C5.76267 17.7043 6.5283 18.3724 7.75339 18.3724C7.10365 17.4441 7.70832 16.5033 6.79068 15.4455ZM5.58135 16.589L5.32016 17.034C5.22666 16.7411 5.05664 16.4369 4.94746 16.2206C4.73691 16.6543 4.40473 16.6633 4.08496 16.6656C4.15587 15.6269 2.85091 14.5826 3.42511 13.3974C3.53999 13.1608 3.46454 12.8701 3.21792 12.7451C2.34306 12.3012 2.7484 14.1443 1.87469 14.2006C2.04135 13.99 2.10435 13.5528 2.12912 13.5145C1.94334 13.563 1.49858 13.8469 1.29819 13.4841C1.80939 13.2059 1.95574 12.7868 2.0357 12.3665C2.13702 11.8348 2.1843 11.5881 2.28677 11.3695C2.39485 11.1363 2.56712 10.9335 2.93647 10.4547C2.84866 10.4671 1.86568 10.6755 1.64388 10.5719C3.3452 9.52643 2.96234 8.19817 5.55548 7.01409C4.87536 6.50832 4.18063 6.10497 4.67837 5.13948C5.38882 5.99345 6.73889 5.69827 7.4685 5.30168C6.7479 5.15754 5.81892 4.5221 5.59936 3.81463C5.8707 3.77294 6.22314 4.0681 6.42473 4.20553C6.52265 3.94419 6.56097 3.64113 6.87734 3.57577C6.4551 4.47817 7.28833 4.94906 8.08327 4.95246C8.20711 4.95246 8.72057 4.90063 8.72057 4.90063C8.63836 4.73163 8.30618 4.26978 8.54715 4.08387C8.74193 4.26638 8.97389 4.41171 9.18444 4.57393C10.7304 5.77037 8.45033 6.87895 7.51799 7.38251C6.05538 8.1734 6.44724 9.11523 7.05752 9.35518C7.05526 9.46109 6.98997 9.50842 6.8886 9.5422C6.46075 9.68413 6.05988 9.37884 5.71874 9.18282C5.73901 9.77314 5.69843 10.3409 6.35153 10.6654L5.90222 10.8287C6.28844 11.1228 6.40672 11.2783 6.87169 11.3391C6.65439 11.445 6.3853 11.4427 6.15449 11.4641C6.21303 11.6275 6.26032 11.8494 6.38195 11.9959C5.43049 12.1086 5.04878 11.5655 4.75378 11.587C4.12549 11.6342 4.16487 12.8172 5.71088 12.8195L5.55098 13.0842C5.55098 13.0842 5.84368 13.2554 6.11286 13.2881C6.01035 13.3715 5.91128 13.4841 5.82457 13.5698L6.07114 13.7827C5.4395 13.8953 5.26158 13.2239 4.8517 13.5472C4.22681 14.0429 5.60387 15.0873 6.92348 14.9318C6.8132 15.0738 6.50239 15.2833 6.36954 15.3914C7.44484 16.4076 6.91447 17.3652 7.35702 18.0671C6.42923 18.0062 5.74241 17.3247 5.58135 16.589Z" fill="black"/>
<path fill-rule="evenodd" clip-rule="evenodd" d="M3.88451 12.878C4.10857 13.1113 4.37885 13.136 4.89111 13.1033C4.32702 13.0346 4.01065 12.8972 3.81361 12.5232C3.78544 12.3294 3.76633 12.1221 3.75842 11.9013C3.74041 11.3076 3.93634 10.6001 4.34618 9.825C4.34393 10.3106 4.72785 11.0744 5.58699 11.2017C4.8146 10.8637 4.36084 10.1032 4.60851 9.36757C4.76957 9.11076 4.9508 8.84489 5.15349 8.57558C5.25481 8.44609 5.35388 8.31987 5.45074 8.2038C5.34713 8.57898 5.80093 8.96652 6.10494 9.03191C5.94053 8.87076 5.58699 8.34918 6.40335 7.47605C6.17585 7.58422 5.92362 7.73631 5.73224 7.88505C7.21405 6.28301 8.43341 6.23793 8.99304 5.43129C8.18233 5.98558 6.03514 6.28526 5.07018 6.0228C5.60275 6.37877 6.88523 6.3461 7.19935 6.27961C6.15448 7.29689 3.871 8.34804 3.47468 9.28311C4.03091 8.67249 4.39121 8.56097 4.8731 8.40437C4.49368 8.97102 4.15254 9.46898 3.91714 10.0469C3.30912 11.3673 2.4962 11.3842 2.44327 12.4725C2.7203 11.6287 3.28325 11.4146 3.67282 10.8603C3.60417 11.2141 3.5715 11.6061 3.5839 12.059C3.59741 12.5514 3.69648 12.9839 3.85299 13.3715C3.81361 13.91 3.86085 14.8293 4.47792 15.4365C4.05903 14.9059 3.96897 14.0429 4.00614 13.7061C4.48918 14.6378 5.86623 15.9266 6.53169 16.7918C5.86623 15.6799 4.2347 14.3798 3.88451 12.878Z" fill="black"/>
<path fill-rule="evenodd" clip-rule="evenodd" d="M19.127 8.40431C19.6056 8.56205 19.967 8.67357 20.5232 9.28415C20.1291 8.34908 17.8423 7.29802 16.7974 6.2807C17.1115 6.34604 18.3951 6.37985 18.9266 6.02384C17.9628 6.2863 15.8155 5.98666 15.0037 5.43237C15.5645 6.23902 16.7828 6.28405 18.2656 7.88609C18.0754 7.73739 17.8231 7.58525 17.5946 7.47713C18.4098 8.35027 18.0573 8.87295 17.8919 9.03409C18.1958 8.96875 18.6496 8.58121 18.546 8.20603C18.644 8.32206 18.7431 8.44824 18.8444 8.57781C19.0482 8.84818 19.2284 9.11294 19.3894 9.3698C19.6371 10.1066 19.1822 10.867 18.412 11.2039C19.2711 11.0777 19.6562 10.3128 19.6517 9.82719C20.0627 10.6023 20.2586 11.3098 20.2406 11.9035C20.2327 12.1243 20.2136 12.3305 20.1843 12.5254C19.9862 12.8994 19.6698 13.0369 19.1067 13.1056C19.6202 13.1371 19.8893 13.1135 20.1145 12.8803C19.7643 14.382 18.1328 15.6821 17.4662 16.7952C18.1328 15.9299 19.5076 14.6411 19.9929 13.7094C20.0301 14.0463 19.9399 14.9093 19.5211 15.4399C20.1381 14.8326 20.1855 13.9133 20.146 13.3748C20.3014 12.9873 20.3994 12.5547 20.4151 12.0623C20.4298 11.6095 20.3949 11.2163 20.3273 10.8637C20.718 11.418 21.2799 11.632 21.558 12.4758C21.5051 11.3864 20.6921 11.3695 20.0829 10.0492C19.8465 9.46786 19.5065 8.96986 19.127 8.40431Z" fill="black"/>
<path fill-rule="evenodd" clip-rule="evenodd" d="M21.7707 10.8749C22.2492 10.9503 22.6253 10.9503 22.8043 10.4716C21.0456 9.63335 21.0602 7.87476 19.0391 6.9532C20.1504 6.12854 19.8509 5.35456 19.3341 4.57383C18.788 5.54047 17.8467 5.67226 17.2691 5.35796C18.082 5.06168 18.3894 4.05673 18.8826 3.76382C18.5741 3.43262 18.18 3.42136 17.7217 3.73454C17.474 3.0676 16.6565 3.28729 16.5338 3.28729C16.7478 3.50134 16.9504 3.78188 16.9122 4.08265C16.8277 4.75184 15.7412 4.64367 15.7412 4.64367C15.9607 4.19195 15.8627 3.92271 15.3752 3.6906C15.2266 4.04997 14.0601 4.53445 13.9835 5.24419C13.8664 6.35387 15.1804 7.02754 16.3334 7.65283C17.6023 8.3389 17.1374 9.08696 16.6768 9.11063C16.4212 9.89926 17.3986 10.0412 17.9548 9.72125C17.9525 9.82602 17.8816 10.4592 17.0292 10.511C17.1013 10.7611 17.242 10.8422 17.465 10.9244C17.2983 11.0495 16.8119 11.0675 16.5552 11.0675C16.5856 11.41 16.9583 11.686 17.4245 11.7322C17.3873 11.8359 17.1801 12.0026 16.9943 12.0544C17.4976 12.5558 18.8511 12.2256 19.1258 11.9373C19.2519 11.8043 19.4062 11.9925 19.2553 12.193C19.0999 12.398 18.4198 12.6278 17.8681 12.4577C17.805 12.7664 17.9109 12.8836 17.9976 12.9669C17.9976 12.9669 17.4582 13.021 17.3186 13.0965C17.3715 13.3286 17.6328 13.4627 17.7239 13.5539C17.6316 13.6328 17.5224 13.8175 17.483 13.9594C17.7307 14.0789 18.404 14.2648 18.7655 13.8525C18.9118 13.6891 19.0718 13.7927 18.922 14.0011C18.3905 14.7334 17.1193 14.7447 16.67 14.516C16.6576 15.0894 16.9054 15.2077 17.2038 15.4443C16.2849 16.5022 16.8919 17.4429 16.2422 18.3689C17.4661 18.3689 18.2318 17.7008 18.4457 17.0756C18.4705 17.2975 18.5876 17.4913 18.913 17.5578C18.8882 17.3246 18.9602 17.088 19.0796 16.8492C19.3273 17.0486 19.7788 17.0948 20.37 17.1195C19.7 15.9817 21.5962 14.8145 20.844 13.2632C20.7326 13.03 21.0591 12.8814 21.0906 13.119C21.2663 14.4495 22.0477 14.7492 22.7064 14.3346C22.5082 14.1183 22.426 14.1228 22.2999 13.9257C22.7435 14.044 22.9687 13.7217 23.0824 13.3184C21.8844 12.8971 22.5318 11.8629 21.7707 10.8749ZM21.872 13.5156C21.8957 13.5539 21.9576 13.991 22.1254 14.2017C21.2505 14.1453 21.6558 12.3022 20.7809 12.7461C20.5344 12.87 20.4612 13.1607 20.5749 13.3984C21.1469 14.5836 19.843 15.6279 19.9162 16.6666C19.5942 16.6644 19.2598 16.6554 19.0515 16.2216C18.9445 16.438 18.7722 16.7421 18.6788 17.0351L18.4176 16.59C18.2554 17.3268 17.5686 18.0073 16.643 18.0692C17.0833 17.3685 16.5541 16.4109 17.6305 15.3936C17.4954 15.2854 17.1858 15.0759 17.0743 14.934C18.395 15.0894 19.7709 14.0451 19.1461 13.5494C18.7373 13.226 18.5572 13.8975 17.9277 13.7848L18.1744 13.5719C18.0876 13.4863 17.9875 13.3748 17.8849 13.2903C18.1541 13.2576 18.4468 13.0864 18.4468 13.0864L18.2869 12.8216C19.8329 12.8193 19.8701 11.6364 19.2451 11.5891C18.9512 11.5677 18.5685 12.1118 17.617 11.9981C17.7375 11.8516 17.787 11.6297 17.8456 11.4663C17.6159 11.4449 17.3445 11.4472 17.1284 11.3413C17.5933 11.2816 17.7104 11.125 18.0966 10.8321L17.6485 10.6676C18.3004 10.342 18.2588 9.77529 18.2791 9.18497C17.939 9.381 17.5359 9.68518 17.1114 9.54439C17.0101 9.51057 16.9437 9.46325 16.9414 9.35738C17.5528 9.11623 17.9424 8.17555 16.4809 7.38467C15.5497 6.8811 13.2685 5.77256 14.8133 4.57723C15.025 4.41498 15.2547 4.26856 15.4484 4.08715C15.6905 4.27307 15.3594 4.73497 15.2772 4.90393C15.2772 4.90393 15.7907 4.95576 15.9123 4.95576C16.7084 4.95236 17.5427 4.48147 17.1204 3.57795C17.4368 3.64331 17.474 3.94858 17.5708 4.20886C17.7735 4.07139 18.1248 3.77738 18.3984 3.81902C18.1766 4.5254 17.2499 5.16194 16.5282 5.30613C17.2567 5.70268 18.6078 5.99786 19.3183 5.14388C19.816 6.10938 19.1224 6.51268 18.4412 7.01854C21.0355 8.20147 20.6515 9.53084 22.3539 10.5763C22.1344 10.6799 21.148 10.4716 21.0602 10.4592C21.4317 10.938 21.6052 11.1407 21.711 11.374C21.8146 11.5925 21.8597 11.8381 21.9621 12.371C22.0432 12.7912 22.1907 13.2103 22.6996 13.4885C22.5003 13.8479 22.0567 13.564 21.872 13.5156Z" fill="black"/>
<path fill-rule="evenodd" clip-rule="evenodd" d="M9.51897 16.4234L9.88942 16.1091L9.83313 15.9964C9.79256 15.9153 9.81397 15.9108 9.8568 15.8793L10.0527 15.734C10.0977 15.6967 10.145 15.7012 10.2002 15.7148L10.7868 15.8522H10.1675C10.0245 15.8612 9.98288 15.9165 9.9311 16.0223L9.88832 16.1091L9.72956 16.4358C9.67552 16.5485 9.64735 16.6983 9.7892 16.8673L9.90183 17.0013L9.67437 17.4621H9.8658L10.0234 17.1422C10.0358 17.1309 10.2689 16.918 10.3184 16.6983C10.2509 16.6431 10.2035 16.6048 10.2408 16.5282L10.3117 16.375C10.3353 16.3243 10.3432 16.304 10.4107 16.3164L11.0255 16.4493C11.1021 16.4708 11.2147 16.5045 11.2969 16.3806C11.3813 16.2521 11.3926 16.2657 11.5885 16.2848L11.9027 16.3186C12.3317 16.3592 12.7607 16.2521 12.9273 16.1192C12.9859 16.2521 13.1018 16.3547 13.1559 16.4584C13.1761 16.4966 13.1424 16.5507 13.1165 16.6183L12.7641 17.461H13.3078L13.6152 16.6927C13.6434 16.6194 13.685 16.5608 13.7166 16.5316L13.5398 17.4621H14.0679L14.2075 16.5417C14.2379 16.3367 14.2199 16.2713 14.1219 16.1868C13.9023 16.0009 13.9068 15.6111 13.8359 15.3745C13.8731 15.3532 13.917 15.3419 13.9688 15.3487C14.0837 15.3588 14.1704 15.6528 14.3055 15.8421C14.5757 16.2217 14.9439 16.6409 15.3661 16.0505C15.3256 15.9829 15.2817 15.9221 15.2299 15.8635L15.1117 15.725C15.043 15.6483 14.7165 15.2743 14.5802 15.1402C14.2705 14.8282 13.7954 14.8755 13.6062 15.0276C13.1772 14.8023 12.7246 15.0388 12.6177 15.0298L11.879 14.9847C11.8452 14.9825 11.7946 14.9712 11.7586 14.9138L11.8959 14.8687C11.7676 14.3336 11.4444 13.8863 10.8803 13.8086C10.8803 13.8086 10.8476 13.6396 10.7609 13.6069L10.592 13.8052C10.5447 13.812 10.4929 13.8266 10.4502 13.8446L9.72956 13.5765L10.27 14.1229C10.27 14.1229 9.98964 14.5206 9.90969 14.6017C9.8568 14.6761 9.8613 14.7335 9.92094 14.8045L10.0257 14.9419C10.0797 15.0129 10.1394 15.0107 10.2261 14.9667L10.3443 14.9048C10.3961 14.862 10.5695 14.9464 10.6438 14.8788C10.5965 15.0343 10.5729 15.1842 10.5616 15.3024L10.0763 15.2439C9.97048 15.2292 9.92209 15.2439 9.8579 15.2945L9.44356 15.6134C9.30842 15.717 9.26679 15.8962 9.3501 16.0708L9.51897 16.4234ZM13.5274 16.5146L13.1987 17.3258H12.9937L13.3225 16.5406C13.3563 16.4392 13.2921 16.3919 13.2099 16.2815C13.3315 16.3502 13.4194 16.3952 13.5669 16.4516C13.5545 16.4741 13.5387 16.4865 13.5274 16.5146ZM10.3567 14.7583L10.2633 14.8079C10.1979 14.8451 10.1653 14.862 10.109 14.7921L10.0685 14.7403C10.0482 14.7155 10.0415 14.6558 10.0831 14.6085L10.4862 14.1387L10.1146 13.8333L10.5875 14.008L10.7609 13.7917C10.8116 13.8345 10.7935 13.9596 10.7935 13.9596C10.985 13.9596 11.5424 14.2367 11.5637 14.9307C11.5637 14.9307 11.6899 15.1165 11.8508 15.1267L12.6717 15.1763C12.8079 15.1763 13.148 14.9172 13.5849 15.1617C13.6952 15.0952 13.8134 15.0422 13.9351 15.0287C14.3201 15.0006 14.6039 15.2686 14.8144 15.539C14.9686 15.7351 15.1804 16.0347 15.1804 16.0347C15.0892 16.1429 15.0002 16.1789 14.9247 16.1519C14.8111 16.0933 14.7739 16.0021 14.7378 15.8747C14.6804 15.6731 14.4586 15.5007 14.4586 15.5007C14.534 15.6359 14.5498 15.7891 14.5859 15.93C14.2649 15.6122 14.2041 15.2247 13.9801 15.1707C13.881 15.1459 13.765 15.1887 13.658 15.3126C13.7706 15.5751 13.765 15.8793 13.881 16.0832C13.9688 16.2353 13.988 16.2488 14.0274 16.2826C14.1219 16.3502 14.069 16.473 14.0544 16.562L13.9328 17.3246H13.7278L13.863 16.5789C13.9046 16.3513 13.2662 16.3513 12.9397 15.9176C12.6615 16.2431 11.8813 16.162 11.5435 16.1113C11.4072 16.0911 11.2744 16.1001 11.2 16.2341C11.1561 16.3096 11.083 16.2871 11.0379 16.2758L10.422 16.1429C10.3139 16.1181 10.2666 16.1395 10.2193 16.2386L10.0966 16.4933C10.0696 16.553 10.0707 16.5969 10.1202 16.6454L10.1788 16.7073C10.1439 16.829 10.0325 16.9225 10.0325 16.9225L9.89843 16.7715C9.83313 16.6949 9.82978 16.5845 9.88156 16.4764L10.0809 16.0595C10.1045 16.0133 10.1473 15.9638 10.2306 15.9638L10.9917 15.9525L10.7587 15.5729C10.5853 15.2878 10.8735 14.7797 10.8296 14.5397C10.806 14.8608 10.4175 14.7144 10.3567 14.7583ZM9.53023 15.7159L9.89057 15.441C9.95472 15.3926 9.9975 15.361 10.0707 15.37L10.5796 15.4376C10.6078 15.5593 10.6889 15.6787 10.6889 15.6787L10.1473 15.565C10.0707 15.5559 10.0482 15.5593 9.97613 15.6111L9.7194 15.8049C9.66877 15.8443 9.66651 15.9075 9.69578 15.9694L9.73742 16.0584L9.55839 16.1936L9.4897 16.0651C9.4199 15.9288 9.41544 15.8038 9.53023 15.7159Z" fill="black"/>
<path fill-rule="evenodd" clip-rule="evenodd" d="M11.0998 5.93604C11.2968 6.07233 11.6459 6.21767 11.6459 6.21767V5.98558L10.8768 5.69155C10.8768 5.69155 10.8768 5.7862 11.0998 5.93604Z" fill="black"/>
<path fill-rule="evenodd" clip-rule="evenodd" d="M11.6445 5.65655V5.42451L10.7719 5.11242C10.7719 5.11242 10.8755 5.22284 11.0985 5.37493C11.2955 5.51011 11.6445 5.65655 11.6445 5.65655Z" fill="black"/>
<path fill-rule="evenodd" clip-rule="evenodd" d="M11.6447 5.12927V4.89607L10.6888 4.54456C10.6888 4.54456 10.8757 4.69555 11.0986 4.84764C11.2957 4.98393 11.6447 5.12927 11.6447 5.12927Z" fill="black"/>
<path fill-rule="evenodd" clip-rule="evenodd" d="M14.3302 8.29843H15.3076C15.2671 8.15645 15.115 8.01336 14.8302 8.01336C14.56 8.01336 14.3978 8.16886 14.3302 8.29843Z" fill="black"/>
<path fill-rule="evenodd" clip-rule="evenodd" d="M13.3078 4.54456L12.3541 4.89607V5.12927C12.3541 5.12927 12.7031 4.98393 12.9002 4.84764C13.122 4.69555 13.3078 4.54456 13.3078 4.54456Z" fill="black"/>
<path fill-rule="evenodd" clip-rule="evenodd" d="M13.122 5.69155L12.3541 5.98673V6.21877C12.3541 6.21877 12.7031 6.07229 12.9002 5.93715C13.122 5.7862 13.122 5.69155 13.122 5.69155Z" fill="black"/>
<path fill-rule="evenodd" clip-rule="evenodd" d="M13.2255 5.11242L12.3528 5.42451V5.65655C12.3528 5.65655 12.703 5.51122 12.8989 5.37608C13.1219 5.22284 13.2255 5.11242 13.2255 5.11242Z" fill="black"/>
<path fill-rule="evenodd" clip-rule="evenodd" d="M9.16662 8.01336C8.88177 8.01336 8.72977 8.15645 8.68924 8.29843H9.66771C9.59787 8.16886 9.43801 8.01336 9.16662 8.01336Z" fill="black"/>
<path fill-rule="evenodd" clip-rule="evenodd" d="M13.9409 3.91828C13.9409 3.36849 13.0176 2.87616 11.9986 2.87616C10.9796 2.87616 10.0563 3.36849 10.0563 3.91828L10.0777 4.05345L10.483 6.38886L8.55758 7.51205C8.35269 7.63262 8.09596 7.96387 8.06333 8.29733H8.41463C8.47317 7.96387 8.7355 7.59434 9.22759 7.61686C9.67234 7.64052 9.93578 7.91085 10.197 8.29733L10.2646 8.3987L10.3614 8.55079H7.52957C7.73791 8.96875 7.93495 9.41262 7.93495 9.89367V15.7846C7.93495 17.2999 9.0981 18.022 10.358 18.022C11.3309 18.022 11.4626 17.9781 11.9997 18.5154C12.5345 17.9781 12.6663 18.022 13.6413 18.022C14.9002 18.022 16.0645 17.2999 16.0645 15.7846V9.89482C16.0645 9.41373 16.2615 8.9699 16.4698 8.55194H13.6357L13.7337 8.39984L13.8012 8.29848C14.0613 7.912 14.326 7.64163 14.7707 7.61796C15.2605 7.59545 15.5251 7.96498 15.5825 8.29848H15.9327C15.9012 7.96498 15.6433 7.63262 15.4395 7.5132L13.5141 6.39L13.9206 4.0546L13.9409 3.91828ZM10.4504 4.18637L11.8871 4.67534V6.92513L10.8287 6.36859L10.4504 4.18637ZM10.8039 8.95974C10.9931 9.21885 11.2994 9.41037 11.6619 9.48472C11.6923 9.62105 11.7666 9.77085 11.9107 9.89142C11.8511 10.2936 12.0233 10.6687 12.4557 10.7679C12.5008 10.973 12.628 11.1273 12.8408 11.2005L12.5402 11.5475C12.4253 11.6805 12.2756 11.7232 12.1517 11.7075L10.8095 11.5554C10.8681 11.4067 10.7127 11.2343 10.2882 11.3076L10.8163 9.83173L10.4943 9.14786L9.88399 9.66838L9.83896 11.2163L9.57998 11.089C9.23885 10.9426 9.13973 11.5588 9.464 11.561L9.59235 11.5622C9.58449 11.6252 9.60365 11.6951 9.65318 11.7165C9.59235 11.7424 9.57433 11.8573 9.65093 11.8979C9.57323 11.9339 9.56308 12.0511 9.62506 12.1018C9.55747 12.2156 9.54731 12.4623 9.78263 12.5242C9.97521 12.5749 10.0957 12.3676 10.1351 12.2471L12.2226 12.8938C12.5188 12.9783 12.7282 12.9309 12.9737 12.7158L13.5187 12.2393C13.45 12.5513 13.5625 12.8318 13.8001 12.9253C13.8001 12.9253 13.7664 13.2059 13.7765 13.3309H8.34143V9.89482C8.34143 9.57483 8.24911 9.25492 8.13874 8.95974H10.8039ZM13.0491 10.2632C12.9343 10.4829 12.9455 10.7353 13.0806 10.9639L12.9905 11.0518C12.5987 11.0034 12.4445 10.4187 12.4445 10.4187C12.4366 10.4716 12.4321 10.5223 12.4332 10.5741C12.2046 10.4896 12.0605 10.2869 12.0718 10.0086C12.1585 10.057 12.2553 10.0908 12.3589 10.1089L12.3859 9.9376C12.1123 9.89031 11.9524 9.71906 11.8916 9.51628C11.8781 9.51514 11.8669 9.51178 11.8544 9.51063C11.9029 9.51403 11.9513 9.51854 12.0008 9.51854C12.163 9.51854 12.3172 9.49377 12.4613 9.45094C12.5751 9.61319 12.7766 9.72921 12.9793 9.75173C12.9467 9.88692 12.9624 10.0548 13.0491 10.2632ZM13.629 11.8089C13.5896 11.8618 13.558 11.9227 13.5378 11.9891L13.3194 12.1896C13.3632 11.8697 13.1482 11.4923 12.9523 11.338L13.1842 11.1104L13.2304 11.1577C13.1527 11.3616 13.3047 11.7616 13.629 11.8089ZM12.574 11.7086L12.7541 11.5317C12.9365 11.6917 13.1775 12.0488 13.1021 12.3891L12.9061 12.5693C12.8656 12.6088 12.8239 12.637 12.7811 12.6628C12.9039 12.3598 12.7474 11.8934 12.574 11.7086ZM12.1866 11.8585H12.1922C12.2575 11.8686 12.3274 11.8573 12.3904 11.8314C12.5278 12.0274 12.6347 12.4736 12.4703 12.7518C12.3769 12.7541 12.2857 12.7372 12.2001 12.7124L12.1326 12.6921C12.2711 12.477 12.2519 12.0962 12.1866 11.8585ZM11.7329 11.8021L11.9862 11.8337C12.0267 12.0443 11.9997 12.4083 11.8657 12.6155L11.5707 12.5299C11.7002 12.3541 11.761 11.9925 11.7329 11.8021ZM11.2048 11.7379L11.5122 11.7739C11.5425 11.9429 11.4851 12.3023 11.3692 12.4736L11.0562 12.3834C11.1811 12.2178 11.2261 11.9261 11.2048 11.7379ZM9.96055 11.6557C9.81759 11.7019 9.75451 11.5982 9.76016 11.5104C10.0405 11.4078 10.1655 11.4742 10.2477 11.5261C10.3231 11.5734 10.3862 11.7086 10.4875 11.7931C10.4706 11.908 10.4358 12.0748 10.394 12.1863C10.1069 12.1131 10.0923 11.8596 10.1993 11.7052C10.1396 11.6354 10.0766 11.6173 9.96055 11.6557ZM9.76016 12.2156C9.76016 12.2156 9.84572 12.2516 9.95379 12.2595C9.94143 12.3192 9.89525 12.3756 9.8221 12.3598C9.76126 12.3462 9.73424 12.2719 9.76016 12.2156ZM9.47751 11.3931C9.40661 11.3459 9.43813 11.2422 9.51694 11.2422C9.60365 11.2445 9.71848 11.3425 9.83221 11.3909C9.83221 11.3909 9.5338 11.4315 9.47751 11.3931ZM9.76916 11.9903C9.8311 12.05 10.0169 12.0274 10.0169 12.0274L10.0236 12.0647C9.94254 12.1728 9.71738 12.1243 9.76916 11.9903ZM10.0191 11.8675C9.88625 11.9204 9.75 11.8483 9.79163 11.7627C9.85362 11.819 10.0259 11.7908 10.0259 11.7908L10.0191 11.8675ZM10.2151 10.3206L9.96055 11.2478L10.0473 9.75173L10.4414 9.41487L10.6418 9.85539L10.1351 11.3087L10.2691 10.3308C10.2815 10.2609 10.2263 10.2531 10.2151 10.3206ZM10.2331 11.445C10.2331 11.445 10.5168 11.4315 10.5967 11.4619C10.6553 11.4867 10.6159 11.5858 10.5393 11.5746C10.4594 11.5644 10.2331 11.445 10.2331 11.445ZM10.6778 11.6703L10.9863 11.7086C11.01 11.8776 10.966 12.1638 10.8557 12.3237L10.5573 12.237C10.6362 12.0488 10.6553 11.872 10.6778 11.6703ZM15.658 15.7858C15.658 16.5022 15.3269 17.0464 14.7764 17.3483L14.9734 16.9473H14.782L14.5286 17.461C14.2663 17.5601 13.969 17.6153 13.6402 17.6153C12.6358 17.6153 12.3702 17.6559 11.9986 18.0265C11.6258 17.6559 11.3602 17.6153 10.3569 17.6153C10.0304 17.6153 9.73314 17.5624 9.47191 17.4632H9.47866L9.73199 16.9473H9.54171L9.3199 17.399C9.26697 17.3742 9.21518 17.3472 9.1656 17.3179L9.34803 16.9473H9.15885L9.02379 17.2232C8.59365 16.9067 8.34028 16.411 8.34028 15.7858V13.5325H15.6557V15.7858H15.658ZM15.8618 8.95974C15.748 9.25492 15.6568 9.57483 15.6568 9.89482V13.3309H15.2571C15.0758 13.1552 14.9227 12.5693 14.9227 12.5693C14.8237 12.78 14.9373 13.207 15.0432 13.3309H14.5286C14.4014 13.1586 14.291 12.5479 14.291 12.5479C14.1368 12.7237 14.2347 13.198 14.3304 13.3309H13.9882C13.9668 13.0864 14.0366 12.8206 14.0366 12.8206C13.8575 12.7879 13.6673 12.6932 13.6684 12.495C13.7585 12.5794 13.7956 12.5783 13.9206 12.5761L14.0658 12.4612C13.5839 12.477 13.5614 11.9474 13.9442 11.6996C13.5625 11.712 13.2776 11.4844 13.4162 11.0788C13.1448 10.9381 13.0491 10.4784 13.2495 10.2767C13.1043 10.119 13.0806 9.80921 13.173 9.59849C12.9804 9.59849 12.7642 9.52189 12.6437 9.39006C12.6347 9.39461 12.6235 9.39796 12.6133 9.40136C12.8543 9.30335 13.0581 9.15011 13.1955 8.96084H15.8618V8.95974ZM14.4048 7.30592C14.0084 7.37466 13.6673 7.86017 13.388 8.29848L13.3565 8.34916H13.0581L13.057 8.40095C13.0266 8.73895 12.7057 9.19744 11.9986 9.19744C11.6721 9.19744 11.4255 9.09718 11.2566 8.96084C11.1102 8.84142 11.0178 8.69388 10.9728 8.55304C10.9559 8.50236 10.9458 8.45053 10.9413 8.40095L10.939 8.34916H10.6429L10.6113 8.29848C10.331 7.86131 9.98982 7.37576 9.5946 7.30592L10.6744 6.67843L12.0008 7.39943L13.325 6.67843L14.4048 7.30592ZM13.1685 6.36859L12.1112 6.92513V4.67534L13.5479 4.18637L13.1685 6.36859ZM11.9997 4.42974L10.429 3.80899C10.5618 3.49355 11.1777 3.22427 11.9997 3.22427C12.8205 3.22427 13.4353 3.49355 13.5682 3.80899L11.9997 4.42974Z" fill="black"/>
<path fill-rule="evenodd" clip-rule="evenodd" d="M15.49 11.1802L15.4933 11.0078C14.9653 10.9955 14.8437 10.3724 14.8437 10.3724C14.6894 10.831 15.0925 11.1735 15.49 11.1802Z" fill="black"/>
</svg>
