<svg width="24" height="24" viewBox="0 0 24 24" fill="none" xmlns="http://www.w3.org/2000/svg">
<path d="M11.9426 0.00145438C13.8154 0.00145438 15.597 0.430183 17.1955 1.19713C17.4461 1.30982 17.6983 1.44552 17.9483 1.58134L16.8528 2.55295L15.2091 0.858941L12.378 3.34217L10.7105 1.5591L5.50366 6.18745L8.83771 9.82187L7.53599 10.9493L10.8248 14.5838L9.52306 15.7126L14.2285 20.8824L17.013 18.3532L19.4347 21.0635C18.9548 21.4247 18.4297 21.7866 17.8593 22.1018C16.1237 23.0735 14.1136 23.6358 11.9663 23.6358C5.36645 23.6358 7.00369e-05 18.3324 7.00369e-05 11.8082C-0.0223569 5.32925 5.34419 0 11.9433 0L11.9426 0.00145438ZM9.75003 11.085L12.6056 8.55579L15.1631 11.3787L12.3075 13.9065L9.75003 11.0843V11.085ZM11.7824 15.9618L14.6158 13.4103L17.1955 16.2326L14.3398 18.7619L11.7824 15.9618ZM7.7192 6.27643L10.5726 3.74863L13.1315 6.57013L10.2759 9.09947L7.7192 6.27643ZM12.9483 4.92283L15.0711 3.02623L16.99 5.12533L14.865 7.04417L12.9468 4.92283H12.9483ZM16.7385 13.6135L18.8613 11.7177L20.7802 13.839L18.6559 15.7364L16.7385 13.6135ZM18.6107 17.8807L20.735 15.9841L22.6523 18.0832L20.5287 20.002L18.6107 17.8807ZM19.4785 8.12709L20.8952 6.86391L22.1732 8.26354L20.7579 9.5274L19.4785 8.12709ZM17.6516 3.95113L19.0683 2.66503L20.3478 4.08758L18.9311 5.35221L17.6524 3.9519L17.6516 3.95113ZM21.2838 12.3052L22.699 11.0406L24 12.4402L22.5611 13.704L21.2838 12.3052ZM14.9124 9.1662L17.036 7.27037L18.9541 9.36947L16.8313 11.2661L14.9124 9.1662Z" fill="#006CB4"/>
</svg>
