<svg width="21" height="24" viewBox="0 0 21 24" fill="none" xmlns="http://www.w3.org/2000/svg">
<path d="M17.2917 1.86811C16.1822 0.605949 14.1766 0.0648327 11.611 0.0648327H4.16459C3.63967 0.0648327 3.19361 0.445863 3.11143 0.962503L0.0109175 20.5889C-0.0507215 20.9759 0.24952 21.3265 0.642552 21.3265H5.23963L6.3942 14.0174L6.35841 14.2463C6.4406 13.7297 6.88334 13.3486 7.4076 13.3486H9.59214C13.8837 13.3486 17.244 11.6089 18.2256 6.57608C18.2547 6.42724 18.2799 6.28237 18.3018 6.14081C18.1779 6.07532 18.1779 6.07532 18.3018 6.14081C18.5941 4.28064 18.2998 3.01451 17.2917 1.86811Z" fill="#27346A"/>
<path d="M8.15324 5.4707C8.27585 5.41249 8.41238 5.38007 8.55555 5.38007H14.3934C15.0846 5.38007 15.7295 5.42506 16.3188 5.51965C16.4878 5.54677 16.6515 5.57786 16.8105 5.61359C16.9696 5.64865 17.124 5.68834 17.2738 5.732C17.3487 5.75383 17.4223 5.77632 17.4945 5.80013C17.7842 5.89671 18.0539 6.00917 18.3018 6.14081C18.5941 4.27998 18.2998 3.01451 17.2917 1.86811C16.1816 0.605949 14.1766 0.0648327 11.611 0.0648327H4.16393C3.63967 0.0648327 3.19361 0.445863 3.11143 0.962503L0.010918 20.5882C-0.0507211 20.9759 0.249521 21.3258 0.64189 21.3258H5.23963L7.63494 6.16529C7.68398 5.85438 7.88414 5.59969 8.15324 5.4707Z" fill="#27346A"/>
<path d="M18.2255 6.57609C17.244 11.6082 13.8836 13.3486 9.5921 13.3486H7.4069C6.88264 13.3486 6.4399 13.7297 6.35837 14.2463L4.92212 23.3341C4.86843 23.6728 5.1309 23.9798 5.47422 23.9798H9.34952C9.80817 23.9798 10.1986 23.6464 10.2701 23.1946L10.3079 22.9974L11.0383 18.3774L11.0854 18.1221C11.1569 17.6703 11.5473 17.3369 12.006 17.3369H12.5859C16.3399 17.3369 19.2794 15.8148 20.1383 11.4124C20.4969 9.57273 20.3113 8.03671 19.3629 6.95778C19.0752 6.63099 18.718 6.3611 18.3018 6.14081C18.2792 6.28304 18.2547 6.42725 18.2255 6.57609Z" fill="#2790C3"/>
<path d="M17.2746 5.73199C17.1248 5.68833 16.9704 5.64864 16.8113 5.61358C16.6522 5.57852 16.4878 5.54743 16.3195 5.52031C15.7296 5.42505 15.0854 5.38007 14.3934 5.38007H8.5563C8.41247 5.38007 8.27594 5.41248 8.15398 5.47136C7.88423 5.60035 7.68473 5.85437 7.63569 6.16594L6.39495 14.0174L6.35916 14.2463C6.44068 13.7297 6.88342 13.3486 7.40769 13.3486H9.59289C13.8844 13.3486 17.2448 11.6089 18.2263 6.57608C18.2555 6.42724 18.28 6.28303 18.3026 6.1408C18.054 6.00983 17.7849 5.89671 17.4953 5.80079C17.423 5.77697 17.3495 5.75382 17.2746 5.73199Z" fill="#1F264F"/>
</svg>
