<svg width="35" height="35" viewBox="0 0 35 35" fill="none" xmlns="http://www.w3.org/2000/svg">
<g clip-path="url(#clip0)">
<path d="M17.1855 -0.0349464C19.7263 -0.0349464 20.5246 1.78742 21.1945 3.60694C21.4758 4.37959 28.0783 22.4605 28.2769 23.0032C28.3297 23.1546 28.294 23.4031 28.0612 23.4931C27.827 23.5816 24.3965 24.9155 24.2065 24.9869C24.0166 25.0598 23.8038 24.9541 23.7352 24.7641C23.6638 24.5771 22.2399 20.6352 22.0799 20.1954H12.294C12.1397 20.6352 10.6987 24.5856 10.6344 24.7641C10.5687 24.9455 10.3645 25.0684 10.1617 24.9869C9.95889 24.907 6.51552 23.573 6.30986 23.4931C6.11277 23.4159 6.0228 23.1917 6.09135 23.0032C6.33414 22.3262 12.8367 4.53526 13.168 3.60694C13.8136 1.81456 14.6391 -0.0349464 17.1855 -0.0349464ZM5.56863 28.784C5.36297 28.784 5.19873 28.9554 5.19873 29.1639V33.3899C5.19873 33.5985 5.36297 33.767 5.56863 33.767H28.7924C29.0024 33.767 29.1666 33.5985 29.1666 33.3899V29.1639C29.1666 28.9554 29.0024 28.784 28.7924 28.784H5.56863ZM17.1627 5.86919L13.855 15.8023H20.5246L17.2055 5.86919H17.1627Z" fill="white"/>
</g>
<defs>
<clipPath id="clip0">
<rect width="35" height="35" fill="white"/>
</clipPath>
</defs>
</svg>
