<svg width="56" height="36" viewBox="0 0 56 36" fill="none" xmlns="http://www.w3.org/2000/svg">
<path d="M24.5956 24.798H21.1193L23.2936 11.2457H26.7697L24.5956 24.798Z" fill="white"/>
<path d="M37.1974 11.577C36.5117 11.3028 35.4242 11 34.0794 11C30.6465 11 28.2291 12.8453 28.2142 15.4836C28.1857 17.4301 29.9451 18.5113 31.2609 19.1603C32.6058 19.8235 33.063 20.2564 33.063 20.8475C33.0493 21.7554 31.9762 22.1739 30.9754 22.1739C29.5875 22.1739 28.8438 21.9582 27.7137 21.4531L27.256 21.2365L26.7695 24.2787C27.5848 24.6532 29.087 24.9854 30.6465 25C34.294 25 36.6687 23.1832 36.6968 20.3717C36.7107 18.829 35.7817 17.6468 33.7789 16.6809C32.563 16.0608 31.8184 15.6426 31.8184 15.0082C31.8327 14.4314 32.4482 13.8406 33.8207 13.8406C34.9508 13.8117 35.7812 14.0855 36.4102 14.3595L36.7246 14.5034L37.1974 11.577Z" fill="white"/>
<path d="M41.8175 19.9969C42.1038 19.2183 43.2054 16.2051 43.2054 16.2051C43.191 16.234 43.4911 15.4121 43.6628 14.9076L43.9057 16.0753C43.9057 16.0753 44.564 19.3193 44.707 19.9969C44.1637 19.9969 42.5042 19.9969 41.8175 19.9969ZM46.1085 11.2457H43.4197C42.5905 11.2457 41.9605 11.4906 41.6027 12.3701L36.4392 24.7978H40.0867C40.0867 24.7978 40.6872 23.1252 40.8163 22.7649C41.2165 22.7649 44.7648 22.7649 45.2795 22.7649C45.3793 23.2407 45.6943 24.7978 45.6943 24.7978H48.913L46.1085 11.2457Z" fill="white"/>
<path d="M18.2159 11.2457L14.8115 20.4871L14.4395 18.6128C13.8101 16.4502 11.8362 14.1005 9.63336 12.9321L12.7517 24.7837H16.4277L21.8918 11.2457H18.2159Z" fill="white"/>
<path d="M11.6502 11.2457H6.05722L6 11.5195C10.3629 12.6441 13.2523 15.355 14.4394 18.6134L13.2236 12.3849C13.0234 11.5193 12.4083 11.2742 11.6502 11.2457Z" fill="white"/>
<path d="M8 2H48V-2H8V2ZM54 8V28H58V8H54ZM48 34H8V38H48V34ZM2 28V8H-2V28H2ZM8 34C4.68629 34 2 31.3137 2 28H-2C-2 33.5228 2.47715 38 8 38V34ZM54 28C54 31.3137 51.3137 34 48 34V38C53.5228 38 58 33.5228 58 28H54ZM48 2C51.3137 2 54 4.68629 54 8H58C58 2.47715 53.5228 -2 48 -2V2ZM8 -2C2.47715 -2 -2 2.47715 -2 8H2C2 4.68629 4.68629 2 8 2V-2Z" fill="white"/>
</svg>
