<svg width="703" height="271" viewBox="0 0 703 271" fill="none" xmlns="http://www.w3.org/2000/svg">
<path d="M0 69H201" stroke="#3B5C7B"/>
<path d="M234.354 3.64645C234.549 3.84171 234.549 4.15829 234.354 4.35355L231.172 7.53553C230.976 7.7308 230.66 7.7308 230.464 7.53553C230.269 7.34027 230.269 7.02369 230.464 6.82843L233.293 4L230.464 1.17157C230.269 0.97631 230.269 0.659727 230.464 0.464465C230.66 0.269203 230.976 0.269203 231.172 0.464465L234.354 3.64645ZM201 68.5H207.246V69.5H201V68.5ZM216.746 59V14H217.746V59H216.746ZM227.246 3.5H234V4.5H227.246V3.5ZM216.746 14C216.746 8.20101 221.447 3.5 227.246 3.5V4.5C221.999 4.5 217.746 8.75329 217.746 14H216.746ZM207.246 68.5C212.493 68.5 216.746 64.2467 216.746 59H217.746C217.746 64.799 213.045 69.5 207.246 69.5V68.5Z" fill="#3B5C7B"/>
</svg>
