<svg width="704" height="214" viewBox="0 0 704 214" fill="none" xmlns="http://www.w3.org/2000/svg">
<path d="M0 12H201" stroke="#00FFA3"/>
<path d="M234.354 77.3536C234.549 77.1583 234.549 76.8417 234.354 76.6464L231.172 73.4645C230.976 73.2692 230.66 73.2692 230.464 73.4645C230.269 73.6597 230.269 73.9763 230.464 74.1716L233.293 77L230.464 79.8284C230.269 80.0237 230.269 80.3403 230.464 80.5355C230.66 80.7308 230.976 80.7308 231.172 80.5355L234.354 77.3536ZM201 12.5H207.246V11.5H201V12.5ZM216.746 22V67H217.746V22H216.746ZM227.246 77.5H234V76.5H227.246V77.5ZM216.746 67C216.746 72.799 221.447 77.5 227.246 77.5V76.5C221.999 76.5 217.746 72.2467 217.746 67H216.746ZM207.246 12.5C212.493 12.5 216.746 16.7533 216.746 22H217.746C217.746 16.201 213.045 11.5 207.246 11.5V12.5Z" fill="#00FFA3"/>
</svg>
