<svg width="235" height="149" viewBox="0 0 235 149" fill="none" xmlns="http://www.w3.org/2000/svg">
<path d="M234.354 145.354C234.549 145.158 234.549 144.842 234.354 144.646L231.172 141.464C230.976 141.269 230.66 141.269 230.464 141.464C230.269 141.66 230.269 141.976 230.464 142.172L233.293 145L230.464 147.828C230.269 148.024 230.269 148.34 230.464 148.536C230.66 148.731 230.976 148.731 231.172 148.536L234.354 145.354ZM0 1.5H207.246V0.5H0V1.5ZM216.746 11V135H217.746V11H216.746ZM227.246 145.5H234V144.5H227.246V145.5ZM216.746 135C216.746 140.799 221.447 145.5 227.246 145.5V144.5C221.999 144.5 217.746 140.247 217.746 135H216.746ZM207.246 1.5C212.493 1.5 216.746 5.7533 216.746 11H217.746C217.746 5.20101 213.045 0.5 207.246 0.5V1.5Z" fill="#3B5C7B"/>
</svg>
