<svg width="19" height="19" viewBox="0 0 19 19" fill="none" xmlns="http://www.w3.org/2000/svg">
<path fill-rule="evenodd" clip-rule="evenodd" d="M0.746582 2.63867C0.746582 1.67217 1.53008 0.888672 2.49658 0.888672H16.5032C17.4697 0.888672 18.2532 1.67217 18.2532 2.63867V4.64034C18.2532 5.60684 17.4697 6.39034 16.5032 6.39034H2.49658C1.53008 6.39034 0.746582 5.60684 0.746582 4.64034V2.63867ZM2.49658 2.38867C2.35851 2.38867 2.24658 2.5006 2.24658 2.63867V4.64034C2.24658 4.77841 2.35851 4.89034 2.49658 4.89034H16.5032C16.6413 4.89034 16.7532 4.77841 16.7532 4.64034V2.63867C16.7532 2.5006 16.6413 2.38867 16.5032 2.38867H2.49658ZM0.746582 9.642C0.746582 9.22779 1.08237 8.892 1.49658 8.892H13.5016C13.9158 8.892 14.2516 9.22779 14.2516 9.642C14.2516 10.0562 13.9158 10.392 13.5016 10.392H1.49658C1.08237 10.392 0.746582 10.0562 0.746582 9.642ZM0.746582 13.6437C0.746582 13.2295 1.08237 12.8937 1.49658 12.8937H16.5028C16.917 12.8937 17.2528 13.2295 17.2528 13.6437C17.2528 14.0579 16.917 14.3937 16.5028 14.3937H1.49658C1.08237 14.3937 0.746582 14.0579 0.746582 13.6437ZM0.746582 17.6453C0.746582 17.2311 1.08237 16.8953 1.49658 16.8953H8.4995C8.91371 16.8953 9.2495 17.2311 9.2495 17.6453C9.2495 18.0596 8.91371 18.3953 8.4995 18.3953H1.49658C1.08237 18.3953 0.746582 18.0596 0.746582 17.6453Z" fill="#ff1b2d"/>
</svg>
