<svg width="19" height="19" viewBox="0 0 19 19" fill="none" xmlns="http://www.w3.org/2000/svg">
<path fill-rule="evenodd" clip-rule="evenodd" d="M0.746582 1.63867C0.746582 1.22446 1.08237 0.888672 1.49658 0.888672H17.5032C17.9175 0.888672 18.2532 1.22446 18.2532 1.63867C18.2532 2.05289 17.9175 2.38867 17.5032 2.38867H1.49658C1.08237 2.38867 0.746582 2.05289 0.746582 1.63867Z" fill="#ff1b2d"/>
<path fill-rule="evenodd" clip-rule="evenodd" d="M0.746582 5.64034C0.746582 5.22613 1.08237 4.89034 1.49658 4.89034H17.5032C17.9175 4.89034 18.2532 5.22613 18.2532 5.64034C18.2532 6.05455 17.9175 6.39034 17.5032 6.39034H1.49658C1.08237 6.39034 0.746582 6.05455 0.746582 5.64034Z" fill="#ff1b2d"/>
<path fill-rule="evenodd" clip-rule="evenodd" d="M0.746582 9.642C0.746582 9.22779 1.08237 8.892 1.49658 8.892H17.5032C17.9175 8.892 18.2532 9.22779 18.2532 9.642C18.2532 10.0562 17.9175 10.392 17.5032 10.392H1.49658C1.08237 10.392 0.746582 10.0562 0.746582 9.642Z" fill="#ff1b2d"/>
<path fill-rule="evenodd" clip-rule="evenodd" d="M0.746582 13.6437C0.746582 13.2295 1.08237 12.8937 1.49658 12.8937H17.5032C17.9175 12.8937 18.2532 13.2295 18.2532 13.6437C18.2532 14.0579 17.9175 14.3937 17.5032 14.3937H1.49658C1.08237 14.3937 0.746582 14.0579 0.746582 13.6437Z" fill="#ff1b2d"/>
<path fill-rule="evenodd" clip-rule="evenodd" d="M0.746582 17.6453C0.746582 17.2311 1.08237 16.8953 1.49658 16.8953H9.49992C9.91413 16.8953 10.2499 17.2311 10.2499 17.6453C10.2499 18.0596 9.91413 18.3953 9.49992 18.3953H1.49658C1.08237 18.3953 0.746582 18.0596 0.746582 17.6453Z" fill="#ff1b2d"/>

</svg>
