<svg width="21" height="21" viewBox="0 0 21 21" fill="none" xmlns="http://www.w3.org/2000/svg">
<path fill-rule="evenodd" clip-rule="evenodd" d="M0.746094 2.63843C0.746094 1.67193 1.5296 0.888428 2.49609 0.888428H7.49901C8.46551 0.888428 9.24901 1.67193 9.24901 2.63843V7.64134C9.24901 8.60784 8.46551 9.39134 7.49901 9.39134H2.49609C1.5296 9.39134 0.746094 8.60784 0.746094 7.64134V2.63843ZM2.49609 2.38843C2.35802 2.38843 2.24609 2.50036 2.24609 2.63843V7.64134C2.24609 7.77942 2.35802 7.89134 2.49609 7.89134H7.49901C7.63708 7.89134 7.74901 7.77942 7.74901 7.64134V2.63843C7.74901 2.50036 7.63708 2.38843 7.49901 2.38843H2.49609Z" fill="#ff1b2d"/>
<path fill-rule="evenodd" clip-rule="evenodd" d="M11.7507 2.63843C11.7507 1.67193 12.5342 0.888428 13.5007 0.888428H18.5036C19.4701 0.888428 20.2536 1.67193 20.2536 2.63843V7.64134C20.2536 8.60784 19.4701 9.39134 18.5036 9.39134H13.5007C12.5342 9.39134 11.7507 8.60784 11.7507 7.64134V2.63843ZM13.5007 2.38843C13.3626 2.38843 13.2507 2.50036 13.2507 2.63843V7.64134C13.2507 7.77942 13.3626 7.89134 13.5007 7.89134H18.5036C18.6417 7.89134 18.7536 7.77942 18.7536 7.64134V2.63843C18.7536 2.50036 18.6417 2.38843 18.5036 2.38843H13.5007Z" fill="#ff1b2d"/>
<path fill-rule="evenodd" clip-rule="evenodd" d="M0.746094 13.643C0.746094 12.6765 1.5296 11.893 2.49609 11.893H7.49901C8.46551 11.893 9.24901 12.6765 9.24901 13.643V18.6459C9.24901 19.6124 8.46551 20.3959 7.49901 20.3959H2.49609C1.5296 20.3959 0.746094 19.6124 0.746094 18.6459V13.643ZM2.49609 13.393C2.35802 13.393 2.24609 13.5049 2.24609 13.643V18.6459C2.24609 18.784 2.35802 18.8959 2.49609 18.8959H7.49901C7.63708 18.8959 7.74901 18.784 7.74901 18.6459V13.643C7.74901 13.5049 7.63708 13.393 7.49901 13.393H2.49609Z" fill="#ff1b2d"/>
<path fill-rule="evenodd" clip-rule="evenodd" d="M11.7507 13.643C11.7507 12.6765 12.5342 11.893 13.5007 11.893H18.5036C19.4701 11.893 20.2536 12.6765 20.2536 13.643V18.6459C20.2536 19.6124 19.4701 20.3959 18.5036 20.3959H13.5007C12.5342 20.3959 11.7507 19.6124 11.7507 18.6459V13.643ZM13.5007 13.393C13.3626 13.393 13.2507 13.5049 13.2507 13.643V18.6459C13.2507 18.784 13.3626 18.8959 13.5007 18.8959H18.5036C18.6417 18.8959 18.7536 18.784 18.7536 18.6459V13.643C18.7536 13.5049 18.6417 13.393 18.5036 13.393H13.5007Z" fill="#ff1b2d"/>

</svg>
