<svg width="20" height="21" viewBox="0 0 20 21" fill="none" xmlns="http://www.w3.org/2000/svg">
<path fill-rule="evenodd" clip-rule="evenodd" d="M3 2.39209C2.30921 2.39209 1.75 2.9513 1.75 3.64209V4.89209H4.25V2.39209H3ZM1.75 11.3921V14.8921H4.25V11.3921H1.75ZM0.25 10.6421V5.64209V3.64209C0.25 2.12288 1.48079 0.89209 3 0.89209H5H15H17C18.5192 0.89209 19.75 2.12288 19.75 3.64209V5.64209V10.6421V15.6421V17.6421C19.75 19.1613 18.5192 20.3921 17 20.3921H15H5H3C1.48079 20.3921 0.25 19.1613 0.25 17.6421V15.6421V10.6421ZM1.75 9.89209H4.25V6.39209H1.75V9.89209ZM5.75 11.3921V15.6421V18.8921H14.25V15.6421V11.3921H5.75ZM14.25 9.89209H5.75V5.64209V2.39209H14.25V5.64209V9.89209ZM15.75 11.3921V14.8921H18.25V11.3921H15.75ZM18.25 9.89209H15.75V6.39209H18.25V9.89209ZM18.25 3.64209V4.89209H15.75V2.39209H17C17.6908 2.39209 18.25 2.9513 18.25 3.64209ZM18.25 16.3921V17.6421C18.25 18.3329 17.6908 18.8921 17 18.8921H15.75V16.3921H18.25ZM3 18.8921H4.25V16.3921H1.75V17.6421C1.75 18.3329 2.30921 18.8921 3 18.8921Z" fill="#ff1b2d"/>

</svg>
