<svg width="20" height="21" viewBox="0 0 20 21" fill="none" xmlns="http://www.w3.org/2000/svg">
<path fill-rule="evenodd" clip-rule="evenodd" d="M0.246094 1.63831C0.246094 1.22409 0.58188 0.888306 0.996094 0.888306H19.0036C19.4178 0.888306 19.7536 1.22409 19.7536 1.63831C19.7536 2.05252 19.4178 2.38831 19.0036 2.38831H0.996094C0.58188 2.38831 0.246094 2.05252 0.246094 1.63831ZM5.24818 5.63956C5.24818 4.67306 6.03168 3.88956 6.99818 3.88956H13.0015C13.968 3.88956 14.7515 4.67306 14.7515 5.63956V7.64122C14.7515 8.60772 13.968 9.39122 13.0015 9.39122H6.99818C6.03168 9.39122 5.24818 8.60772 5.24818 7.64122V5.63956ZM6.99818 5.38956C6.86011 5.38956 6.74818 5.50148 6.74818 5.63956V7.64122C6.74818 7.77929 6.86011 7.89122 6.99818 7.89122H13.0015C13.1396 7.89122 13.2515 7.77929 13.2515 7.64122V5.63956C13.2515 5.50148 13.1396 5.38956 13.0015 5.38956H6.99818ZM0.246094 12.6429C0.246094 12.2287 0.58188 11.8929 0.996094 11.8929H19.0036C19.4178 11.8929 19.7536 12.2287 19.7536 12.6429C19.7536 13.0571 19.4178 13.3929 19.0036 13.3929H0.996094C0.58188 13.3929 0.246094 13.0571 0.246094 12.6429ZM2.24693 16.6441C2.24693 15.6776 3.03043 14.8941 3.99693 14.8941H16.0028C16.9693 14.8941 17.7528 15.6776 17.7528 16.6441V18.6458C17.7528 19.6123 16.9693 20.3958 16.0028 20.3958H3.99693C3.03043 20.3958 2.24693 19.6123 2.24693 18.6458V16.6441ZM3.99693 16.3941C3.85886 16.3941 3.74693 16.5061 3.74693 16.6441V18.6458C3.74693 18.7839 3.85886 18.8958 3.99693 18.8958H16.0028C16.1408 18.8958 16.2528 18.7839 16.2528 18.6458V16.6441C16.2528 16.5061 16.1408 16.3941 16.0028 16.3941H3.99693Z" fill="#ff1b2d"/>

</svg>
