<svg width="20" height="19" viewBox="0 0 20 19" fill="none" xmlns="http://www.w3.org/2000/svg">
<path fill-rule="evenodd" clip-rule="evenodd" d="M0.583008 17.7671C0.583008 17.3529 0.918794 17.0171 1.33301 17.0171H18.667C19.0812 17.0171 19.417 17.3529 19.417 17.7671C19.417 18.1813 19.0812 18.5171 18.667 18.5171H1.33301C0.918794 18.5171 0.583008 18.1813 0.583008 17.7671Z" fill="#ff1b2d"/>
<path fill-rule="evenodd" clip-rule="evenodd" d="M0.583008 12.3501C0.583008 11.9359 0.918794 11.6001 1.33301 11.6001H18.667C19.0812 11.6001 19.417 11.9359 19.417 12.3501C19.417 12.7643 19.0812 13.1001 18.667 13.1001H1.33301C0.918794 13.1001 0.583008 12.7643 0.583008 12.3501Z" fill="#ff1b2d"/>
<path fill-rule="evenodd" clip-rule="evenodd" d="M13.584 6.93409C13.584 6.51988 13.9198 6.18409 14.334 6.18409H18.667C19.0812 6.18409 19.417 6.51988 19.417 6.93409C19.417 7.3483 19.0812 7.68409 18.667 7.68409H14.334C13.9198 7.68409 13.584 7.3483 13.584 6.93409Z" fill="#ff1b2d"/>
<path fill-rule="evenodd" clip-rule="evenodd" d="M4.53033 0.61176C4.82322 0.904653 4.82322 1.37953 4.53033 1.67242L2.06066 4.14209L4.53033 6.61176C4.82322 6.90465 4.82322 7.37953 4.53033 7.67242C4.23744 7.96531 3.76256 7.96531 3.46967 7.67242L0.46967 4.67242C0.176777 4.37953 0.176777 3.90465 0.46967 3.61176L3.46967 0.61176C3.76256 0.318867 4.23744 0.318867 4.53033 0.61176Z" fill="#ff1b2d"/>
<path fill-rule="evenodd" clip-rule="evenodd" d="M9.53033 0.61176C9.82322 0.904653 9.82322 1.37953 9.53033 1.67242L7.06066 4.14209L9.53033 6.61176C9.82322 6.90465 9.82322 7.37953 9.53033 7.67242C9.23744 7.96531 8.76256 7.96531 8.46967 7.67242L5.46967 4.67242C5.17678 4.37953 5.17678 3.90465 5.46967 3.61176L8.46967 0.61176C8.76256 0.318867 9.23744 0.318867 9.53033 0.61176Z" fill="#ff1b2d"/>
<path fill-rule="evenodd" clip-rule="evenodd" d="M13.584 1.51709C13.584 1.10288 13.9198 0.76709 14.334 0.76709H18.667C19.0812 0.76709 19.417 1.10288 19.417 1.51709C19.417 1.9313 19.0812 2.26709 18.667 2.26709H14.334C13.9198 2.26709 13.584 1.9313 13.584 1.51709Z" fill="#ff1b2d"/>
</svg>
