<svg width="20" height="21" viewBox="0 0 20 21" fill="none" xmlns="http://www.w3.org/2000/svg">
<path fill-rule="evenodd" clip-rule="evenodd" d="M19.7536 3.6383C19.7536 2.11952 18.5224 0.888306 17.0036 0.888306H2.9961C1.47731 0.888306 0.246096 2.11952 0.246096 3.63831V17.6458C0.246096 19.1646 1.47731 20.3958 2.9961 20.3958H17.0036C18.5224 20.3958 19.7536 19.1646 19.7536 17.6458V3.6383ZM17.0036 2.38831C17.694 2.38831 18.2536 2.94795 18.2536 3.6383V17.6458C18.2536 18.3362 17.694 18.8958 17.0036 18.8958H2.9961C2.30574 18.8958 1.7461 18.3362 1.7461 17.6458V3.63831C1.7461 2.94795 2.30574 2.38831 2.9961 2.38831H17.0036Z" fill="#ff1b2d"/>
<path fill-rule="evenodd" clip-rule="evenodd" d="M0.246094 7.64081C0.246094 8.05502 0.58188 8.39081 0.996094 8.39081H19.0036C19.4178 8.39081 19.7536 8.05502 19.7536 7.64081C19.7536 7.22659 19.4178 6.89081 19.0036 6.89081H0.996094C0.58188 6.89081 0.246094 7.22659 0.246094 7.64081Z" fill="#ff1b2d"/>
<path fill-rule="evenodd" clip-rule="evenodd" d="M0.246094 13.6433C0.246094 14.0575 0.58188 14.3933 0.996094 14.3933H19.0036C19.4178 14.3933 19.7536 14.0575 19.7536 13.6433C19.7536 13.2291 19.4178 12.8933 19.0036 12.8933H0.996094C0.58188 12.8933 0.246094 13.2291 0.246094 13.6433Z" fill="#ff1b2d"/>
<path fill-rule="evenodd" clip-rule="evenodd" d="M9.99984 20.3958C10.4141 20.3958 10.7498 20.06 10.7498 19.6458V7.64081C10.7498 7.22659 10.4141 6.89081 9.99984 6.89081C9.58563 6.89081 9.24984 7.22659 9.24984 7.64081V19.6458C9.24984 20.06 9.58563 20.3958 9.99984 20.3958Z" fill="#ff1b2d"/>

</svg>
