<svg width="22" height="22" viewBox="0 0 22 22" fill="none" xmlns="http://www.w3.org/2000/svg">
<path d="M11.5 1H8.5M1 8.5V11.5M9.257 15.621L6.075 12.439C5.489 11.853 5.489 10.903 6.075 10.318C6.661 9.732 7.611 9.732 8.196 10.318M12.086 9.964L9.611 7.49C9.025 6.904 8.075 6.904 7.49 7.49C6.904 8.076 6.904 9.026 7.49 9.611L9.965 12.086M10.318 8.197C9.732 7.611 9.732 6.661 10.318 6.076C10.904 5.49 11.854 5.49 12.439 6.076L14.914 8.551M13.854 7.49C13.268 6.904 13.268 5.954 13.854 5.369C14.44 4.783 15.39 4.783 15.975 5.369L17.743 7.137L17.036 6.43L18.804 8.198C21.733 11.127 21.733 15.876 18.804 18.805C15.875 21.734 11.126 21.734 8.197 18.805L6.929 17.537C6.609 17.217 6.429 16.783 6.429 16.33C6.429 15.877 6.609 15.443 6.929 15.123L7.843 14.209M4 1H3C1.895 1 1 1.895 1 3V4M1 16V17C1 18.105 1.895 19 3 19H4M19 4V3C19 1.895 18.105 1 17 1H16" stroke="#6C89A9" stroke-width="1.5" stroke-linecap="round" stroke-linejoin="round"/>
</svg>
