<svg width="14" height="17" viewBox="0 0 14 17" fill="none" xmlns="http://www.w3.org/2000/svg">
<path fill-rule="evenodd" clip-rule="evenodd" d="M7 5.19592C9.89979 5.19592 12.25 7.54614 12.25 10.4459V10.5219C12.25 10.9361 12.5858 11.2719 13 11.2719C13.4142 11.2719 13.75 10.9361 13.75 10.5219V10.4459C13.75 6.71771 10.7282 3.69592 7 3.69592H1C0.585787 3.69592 0.25 4.03171 0.25 4.44592C0.25 4.86014 0.585787 5.19592 1 5.19592H7Z" fill="#6C89A9"/>
<path fill-rule="evenodd" clip-rule="evenodd" d="M13 9.77592C12.5858 9.77592 12.25 10.1117 12.25 10.5259V15.4459C12.25 15.8601 12.5858 16.1959 13 16.1959C13.4142 16.1959 13.75 15.8601 13.75 15.4459V10.5259C13.75 10.1117 13.4142 9.77592 13 9.77592Z" fill="#6C89A9"/>
<path fill-rule="evenodd" clip-rule="evenodd" d="M4.53033 0.915593C4.23744 0.6227 3.76256 0.6227 3.46967 0.915593L0.469669 3.91559C0.176776 4.20849 0.176776 4.68336 0.469669 4.97625L3.46967 7.97625C3.76256 8.26915 4.23744 8.26915 4.53033 7.97625C4.82322 7.68336 4.82322 7.20849 4.53033 6.91559L2.06066 4.44592L4.53033 1.97625C4.82322 1.68336 4.82322 1.20849 4.53033 0.915593Z" fill="#6C89A9"/>
</svg>
