<svg width="17" height="14" viewBox="0 0 17 14" fill="none" xmlns="http://www.w3.org/2000/svg">
<path fill-rule="evenodd" clip-rule="evenodd" d="M1.08819 0.750022C1.55643 0.750022 1.93601 1.12961 1.93601 1.59785V12.9022C1.93601 13.3704 1.55643 13.75 1.08819 13.75C0.619947 13.75 0.240363 13.3704 0.240363 12.9022V1.59785C0.240363 1.12961 0.619947 0.750022 1.08819 0.750022Z" fill="#6C89A9"/>
<path fill-rule="evenodd" clip-rule="evenodd" d="M7.8708 0.750022C8.33904 0.750022 8.71862 1.12961 8.71862 1.59785V12.9022C8.71862 13.3704 8.33904 13.75 7.8708 13.75C7.40255 13.75 7.02297 13.3704 7.02297 12.9022V1.59785C7.02297 1.12961 7.40255 0.750022 7.8708 0.750022Z" fill="#6C89A9"/>
<path fill-rule="evenodd" clip-rule="evenodd" d="M8.71862 6.96742C8.71862 7.43566 8.33904 7.81525 7.8708 7.81525L1.08806 7.81524C0.619818 7.81524 0.240234 7.43565 0.240234 6.96741C0.240235 6.49917 0.61982 6.11959 1.08806 6.11959L7.8708 6.11959C8.33904 6.1196 8.71862 6.49918 8.71862 6.96742Z" fill="#6C89A9"/>
<path fill-rule="evenodd" clip-rule="evenodd" d="M14.2872 0.807112C14.5675 0.923198 14.7502 1.19668 14.7502 1.50002V13.25C14.7502 13.6642 14.4144 14 14.0002 14C13.586 14 13.2502 13.6642 13.2502 13.25V3.31068L12.5306 4.03035C12.2377 4.32325 11.7628 4.32325 11.4699 4.03035C11.177 3.73746 11.177 3.26259 11.4699 2.96969L13.4699 0.969692C13.6844 0.755193 14.007 0.691027 14.2872 0.807112Z" fill="#6C89A9"/>
<path fill-rule="evenodd" clip-rule="evenodd" d="M11.2502 13.25C11.2502 12.8358 11.586 12.5 12.0002 12.5H16.0002C16.4144 12.5 16.7502 12.8358 16.7502 13.25C16.7502 13.6642 16.4144 14 16.0002 14H12.0002C11.586 14 11.2502 13.6642 11.2502 13.25Z" fill="#6C89A9"/>
</svg>
