<svg width="18" height="14" viewBox="0 0 18 14" fill="none" xmlns="http://www.w3.org/2000/svg">
<path fill-rule="evenodd" clip-rule="evenodd" d="M1.34795 0.75C1.8162 0.75 2.19578 1.12958 2.19578 1.59783V12.9022C2.19578 13.3704 1.8162 13.75 1.34795 13.75C0.879713 13.75 0.500128 13.3704 0.500128 12.9022V1.59783C0.500128 1.12958 0.879713 0.75 1.34795 0.75Z" fill="#6C89A9"/>
<path fill-rule="evenodd" clip-rule="evenodd" d="M8.13056 0.75C8.5988 0.75 8.97839 1.12958 8.97839 1.59783V12.9022C8.97839 13.3704 8.5988 13.75 8.13056 13.75C7.66232 13.75 7.28274 13.3704 7.28274 12.9022V1.59783C7.28274 1.12958 7.66232 0.75 8.13056 0.75Z" fill="#6C89A9"/>
<path fill-rule="evenodd" clip-rule="evenodd" d="M8.97839 6.9674C8.97839 7.43564 8.5988 7.81522 8.13056 7.81522L1.34782 7.81522C0.879583 7.81521 0.499999 7.43563 0.5 6.96739C0.500001 6.49915 0.879586 6.11956 1.34783 6.11956L8.13056 6.11957C8.5988 6.11957 8.97839 6.49916 8.97839 6.9674Z" fill="#6C89A9"/>
<path fill-rule="evenodd" clip-rule="evenodd" d="M14.7058 2.35905C14.372 2.23547 14.0133 2.19442 13.6602 2.23941C13.3071 2.2844 12.9702 2.41409 12.6781 2.61743C12.386 2.82076 12.1473 3.09172 11.9825 3.4072C11.8178 3.72268 11.7317 4.07332 11.7317 4.42924C11.7317 4.83564 11.4023 5.16509 10.9959 5.16509C10.5895 5.16509 10.26 4.83564 10.26 4.42924C10.26 3.83604 10.4034 3.25163 10.6781 2.72584C10.9527 2.20004 11.3504 1.74845 11.8373 1.40955C12.3242 1.07065 12.8857 0.854501 13.4742 0.779519C14.0626 0.704538 14.6605 0.772951 15.2168 0.978927C15.7731 1.1849 16.2713 1.52233 16.669 1.96246C17.0667 2.40258 17.3521 2.93234 17.5009 3.50659C17.6497 4.08083 17.6574 4.68253 17.5234 5.2604C17.3894 5.83827 17.1176 6.37516 16.7313 6.82533C16.4666 7.13373 16.0021 7.16918 15.6937 6.90452C15.3853 6.63985 15.3498 6.17529 15.6145 5.86689C15.8463 5.5968 16.0093 5.27466 16.0897 4.92794C16.1701 4.58122 16.1655 4.2202 16.0762 3.87565C15.987 3.5311 15.8157 3.21324 15.5771 2.94917C15.3385 2.6851 15.0395 2.48264 14.7058 2.35905Z" fill="#6C89A9"/>
<path fill-rule="evenodd" clip-rule="evenodd" d="M10.26 13.0141C10.26 12.6077 10.5895 12.2783 10.9959 12.2783L16.8826 12.2783C17.289 12.2783 17.6185 12.6077 17.6185 13.0141C17.6185 13.4205 17.289 13.75 16.8826 13.75L10.9959 13.75C10.5895 13.75 10.26 13.4205 10.26 13.0141Z" fill="#6C89A9"/>
<path fill-rule="evenodd" clip-rule="evenodd" d="M16.7745 5.56481C17.0956 5.81389 17.154 6.27613 16.9049 6.59725L11.5774 13.4651C11.3283 13.7863 10.8661 13.8446 10.545 13.5956C10.2239 13.3465 10.1655 12.8842 10.4146 12.5631L15.742 5.69522C15.9911 5.3741 16.4534 5.31572 16.7745 5.56481Z" fill="#6C89A9"/>
</svg>
