<svg width="18" height="14" viewBox="0 0 18 14" fill="none" xmlns="http://www.w3.org/2000/svg">
<path fill-rule="evenodd" clip-rule="evenodd" d="M1.08819 0.75C1.55643 0.75 1.93601 1.12958 1.93601 1.59783V12.9022C1.93601 13.3704 1.55643 13.75 1.08819 13.75C0.619947 13.75 0.240363 13.3704 0.240363 12.9022V1.59783C0.240363 1.12958 0.619947 0.75 1.08819 0.75Z" fill="#6C89A9"/>
<path fill-rule="evenodd" clip-rule="evenodd" d="M7.8708 0.75C8.33904 0.75 8.71862 1.12958 8.71862 1.59783V12.9022C8.71862 13.3704 8.33904 13.75 7.8708 13.75C7.40255 13.75 7.02297 13.3704 7.02297 12.9022V1.59783C7.02297 1.12958 7.40255 0.75 7.8708 0.75Z" fill="#6C89A9"/>
<path fill-rule="evenodd" clip-rule="evenodd" d="M8.71862 6.9674C8.71862 7.43564 8.33904 7.81523 7.8708 7.81522L1.08806 7.81522C0.619818 7.81521 0.240234 7.43563 0.240234 6.96739C0.240235 6.49915 0.61982 6.11956 1.08806 6.11956L7.8708 6.11957C8.33904 6.11957 8.71862 6.49916 8.71862 6.9674Z" fill="#6C89A9"/>
<path fill-rule="evenodd" clip-rule="evenodd" d="M12.5608 0.771522C13.0626 0.716963 13.5703 0.766407 14.0522 0.916767C14.5341 1.06713 14.9798 1.31518 15.3616 1.64544C15.7433 1.97571 16.0529 2.3811 16.2711 2.83633C16.4892 3.29156 16.6112 3.78686 16.6294 4.29132C16.6476 4.79579 16.5617 5.29859 16.377 5.76837C16.1922 6.23815 15.9127 6.66482 15.5557 7.02176C15.2246 7.35286 14.6878 7.35286 14.3567 7.02176C14.0256 6.69066 14.0256 6.15385 14.3567 5.82275C14.5489 5.63055 14.6995 5.40081 14.7989 5.14785C14.8984 4.89489 14.9447 4.62415 14.9349 4.35252C14.925 4.08088 14.8594 3.81419 14.7419 3.56906C14.6245 3.32394 14.4577 3.10565 14.2522 2.92781C14.0466 2.74998 13.8066 2.61641 13.5471 2.53545C13.2877 2.45449 13.0143 2.42786 12.7441 2.45724C12.4739 2.48662 12.2126 2.57137 11.9766 2.7062C11.7406 2.84103 11.5349 3.02305 11.3723 3.2409C11.0923 3.6162 10.5611 3.69344 10.1858 3.41343C9.8105 3.13342 9.73326 2.60219 10.0133 2.2269C10.3151 1.82231 10.6971 1.48427 11.1355 1.23387C11.5738 0.983469 12.059 0.82608 12.5608 0.771522Z" fill="#6C89A9"/>
<path fill-rule="evenodd" clip-rule="evenodd" d="M13.1322 5.28977C13.8671 5.22177 14.6069 5.34678 15.2786 5.65244C15.9503 5.95809 16.5306 6.4338 16.962 7.03251C17.3935 7.63122 17.6612 8.33219 17.7386 9.06609C17.816 9.79999 17.7005 10.5414 17.4035 11.217C17.1065 11.8925 16.6383 12.4788 16.0452 12.9179C15.452 13.357 14.7546 13.6337 14.0217 13.7205C13.2889 13.8074 12.5461 13.7014 11.8667 13.4131C11.1874 13.1248 10.5951 12.6642 10.1484 12.0767C9.86503 11.704 9.93743 11.1721 10.3102 10.8887C10.6829 10.6052 11.2148 10.6776 11.4982 11.0504C11.7662 11.4028 12.1216 11.6792 12.5292 11.8522C12.9368 12.0252 13.3825 12.0888 13.8222 12.0367C14.2619 11.9846 14.6804 11.8186 15.0362 11.5551C15.3921 11.2917 15.673 10.9399 15.8513 10.5345C16.0295 10.1292 16.0988 9.68434 16.0523 9.244C16.0058 8.80366 15.8452 8.38308 15.5864 8.02385C15.3275 7.66463 14.9793 7.3792 14.5763 7.19581C14.1733 7.01242 13.7294 6.93741 13.2885 6.97821C12.8222 7.02136 12.4093 6.67837 12.3661 6.21212C12.323 5.74587 12.666 5.33292 13.1322 5.28977Z" fill="#6C89A9"/>
</svg>
