<svg width="18" height="14" viewBox="0 0 18 14" fill="none" xmlns="http://www.w3.org/2000/svg">
<path fill-rule="evenodd" clip-rule="evenodd" d="M1.08819 0.75003C1.55643 0.75003 1.93601 1.12961 1.93601 1.59786V12.9022C1.93601 13.3704 1.55643 13.75 1.08819 13.75C0.619947 13.75 0.240363 13.3704 0.240363 12.9022V1.59786C0.240363 1.12961 0.619947 0.75003 1.08819 0.75003Z" fill="#6C89A9"/>
<path fill-rule="evenodd" clip-rule="evenodd" d="M7.8708 0.75003C8.33904 0.75003 8.71862 1.12961 8.71862 1.59786V12.9022C8.71862 13.3704 8.33904 13.75 7.8708 13.75C7.40255 13.75 7.02297 13.3704 7.02297 12.9022V1.59786C7.02297 1.12961 7.40255 0.75003 7.8708 0.75003Z" fill="#6C89A9"/>
<path fill-rule="evenodd" clip-rule="evenodd" d="M8.71862 6.96743C8.71862 7.43567 8.33904 7.81525 7.8708 7.81525L1.08806 7.81524C0.619818 7.81524 0.240234 7.43566 0.240234 6.96742C0.240235 6.49918 0.61982 6.11959 1.08806 6.11959L7.8708 6.1196C8.33904 6.1196 8.71862 6.49919 8.71862 6.96743Z" fill="#6C89A9"/>
<path fill-rule="evenodd" clip-rule="evenodd" d="M14.5074 0.586341C14.874 0.779259 15.0147 1.23279 14.8218 1.59934L12.2425 6.50003H17.0002C17.4144 6.50003 17.7502 6.83582 17.7502 7.25003C17.7502 7.66424 17.4144 8.00003 17.0002 8.00003H11.0002C10.7375 8.00003 10.494 7.86257 10.3582 7.63766C10.2224 7.41276 10.2142 7.1332 10.3365 6.90072L13.4944 0.90072C13.6874 0.534175 14.1409 0.393422 14.5074 0.586341Z" fill="#6C89A9"/>
<path fill-rule="evenodd" clip-rule="evenodd" d="M16.0002 4.50003C16.4144 4.50003 16.7502 4.83582 16.7502 5.25003V13.25C16.7502 13.6642 16.4144 14 16.0002 14C15.586 14 15.2502 13.6642 15.2502 13.25V5.25003C15.2502 4.83582 15.586 4.50003 16.0002 4.50003Z" fill="#6C89A9"/>
</svg>
