<svg width="18" height="14" viewBox="0 0 18 14" fill="none" xmlns="http://www.w3.org/2000/svg">
<path fill-rule="evenodd" clip-rule="evenodd" d="M0.871099 0.750207C1.35212 0.750207 1.74207 1.12979 1.74207 1.59802V12.9022C1.74207 13.3704 1.35212 13.75 0.871099 13.75C0.390077 13.75 0.00013183 13.3704 0.00013183 12.9022V1.59802C0.00013183 1.12979 0.390077 0.750207 0.871099 0.750207Z" fill="#6C89A9"/>
<path fill-rule="evenodd" clip-rule="evenodd" d="M7.83883 0.750207C8.31985 0.750207 8.7098 1.12979 8.7098 1.59802V12.9022C8.7098 13.3704 8.31985 13.75 7.83883 13.75C7.35781 13.75 6.96787 13.3704 6.96787 12.9022V1.59802C6.96787 1.12979 7.35781 0.750207 7.83883 0.750207Z" fill="#6C89A9"/>
<path fill-rule="evenodd" clip-rule="evenodd" d="M8.7098 6.96751C8.7098 7.43574 8.31985 7.81532 7.83883 7.81532L0.870966 7.81531C0.389944 7.81531 -5.74771e-07 7.43573 0 6.9675C5.74772e-07 6.49926 0.389946 6.11968 0.870968 6.11968L7.83883 6.11969C8.31986 6.11969 8.7098 6.49927 8.7098 6.96751Z" fill="#6C89A9"/>
<path fill-rule="evenodd" clip-rule="evenodd" d="M14.5162 6.11968C14.5162 6.58792 14.1263 6.9675 13.6453 6.9675L11.3227 6.96751C10.8417 6.96751 10.4517 6.58793 10.4517 6.1197C10.4517 5.65146 10.8417 5.27188 11.3227 5.27188L13.6453 5.27187C14.1263 5.27187 14.5162 5.65145 14.5162 6.11968Z" fill="#6C89A9"/>
<path fill-rule="evenodd" clip-rule="evenodd" d="M12.6953 0.775514C13.162 0.889078 13.4457 1.34938 13.329 1.80364L12.1677 6.3253C12.0511 6.77956 11.5782 7.05574 11.1115 6.94218C10.6449 6.82861 10.3612 6.36831 10.4778 5.91405L11.6391 1.39239C11.7558 0.938135 12.2286 0.661951 12.6953 0.775514Z" fill="#6C89A9"/>
<path fill-rule="evenodd" clip-rule="evenodd" d="M17.4195 1.59802C17.4195 2.06625 17.0295 2.44583 16.5485 2.44583H12.484C12.003 2.44583 11.613 2.06625 11.613 1.59802C11.613 1.12979 12.003 0.750207 12.484 0.750207L16.5485 0.750207C17.0295 0.750207 17.4195 1.12979 17.4195 1.59802Z" fill="#6C89A9"/>
<path fill-rule="evenodd" clip-rule="evenodd" d="M13.2439 5.28991C13.9988 5.22191 14.7588 5.34692 15.4489 5.65257C16.1389 5.95821 16.735 6.43392 17.1782 7.03262C17.6214 7.63132 17.8964 8.33228 17.976 9.06616C18.0555 9.80005 17.9369 10.5414 17.6317 11.217C17.3266 11.8925 16.8456 12.4789 16.2363 12.918C15.627 13.357 14.9105 13.6337 14.1576 13.7205C13.4048 13.8074 12.6417 13.7014 11.9438 13.4131C11.246 13.1248 10.6375 12.6642 10.1787 12.0767C9.8875 11.704 9.96188 11.1721 10.3448 10.8887C10.7277 10.6053 11.2741 10.6777 11.5653 11.0504C11.8406 11.4029 12.2057 11.6793 12.6244 11.8522C13.0431 12.0252 13.5009 12.0888 13.9527 12.0367C14.4044 11.9846 14.8343 11.8186 15.1999 11.5552C15.5654 11.2917 15.854 10.9399 16.0371 10.5346C16.2202 10.1292 16.2914 9.68441 16.2436 9.24407C16.1959 8.80374 16.0309 8.38317 15.765 8.02394C15.4991 7.66472 15.1414 7.3793 14.7274 7.19591C14.3134 7.01252 13.8573 6.93752 13.4044 6.97832C12.9254 7.02147 12.5012 6.67848 12.4569 6.21224C12.4126 5.74599 12.7649 5.33306 13.2439 5.28991Z" fill="#6C89A9"/>
</svg>
