<svg width="19" height="14" viewBox="0 0 19 14" fill="none" xmlns="http://www.w3.org/2000/svg">
<path fill-rule="evenodd" clip-rule="evenodd" d="M0.871099 0.750165C1.35212 0.750165 1.74207 1.12974 1.74207 1.59798V12.9021C1.74207 13.3704 1.35212 13.75 0.871099 13.75C0.390077 13.75 0.00013183 13.3704 0.00013183 12.9021V1.59798C0.00013183 1.12974 0.390077 0.750165 0.871099 0.750165Z" fill="#6C89A9"/>
<path fill-rule="evenodd" clip-rule="evenodd" d="M7.83883 0.750165C8.31985 0.750165 8.7098 1.12974 8.7098 1.59798V12.9021C8.7098 13.3704 8.31985 13.75 7.83883 13.75C7.35781 13.75 6.96787 13.3704 6.96787 12.9021V1.59798C6.96787 1.12974 7.35781 0.750165 7.83883 0.750165Z" fill="#6C89A9"/>
<path fill-rule="evenodd" clip-rule="evenodd" d="M8.7098 6.96747C8.7098 7.4357 8.31985 7.81528 7.83883 7.81528L0.870966 7.81527C0.389944 7.81527 -5.74771e-07 7.43569 0 6.96746C5.74772e-07 6.49922 0.389946 6.11964 0.870968 6.11964L7.83883 6.11965C8.31986 6.11965 8.7098 6.49923 8.7098 6.96747Z" fill="#6C89A9"/>
<path fill-rule="evenodd" clip-rule="evenodd" d="M14 6.74996C12.4812 6.74996 11.25 7.98118 11.25 9.49996C11.25 11.0187 12.4812 12.25 14 12.25C15.5188 12.25 16.75 11.0187 16.75 9.49996C16.75 7.98118 15.5188 6.74996 14 6.74996ZM9.75 9.49996C9.75 7.15275 11.6528 5.24996 14 5.24996C16.3472 5.24996 18.25 7.15275 18.25 9.49996C18.25 11.8472 16.3472 13.75 14 13.75C11.6528 13.75 9.75 11.8472 9.75 9.49996Z" fill="#6C89A9"/>
<path fill-rule="evenodd" clip-rule="evenodd" d="M13.2314 0.536533C13.6254 0.664306 13.8412 1.0873 13.7134 1.48131L11.4434 8.48131C11.3157 8.87533 10.8927 9.09116 10.4986 8.96338C10.1046 8.83561 9.8888 8.41262 10.0166 8.0186L12.2866 1.0186C12.4143 0.624591 12.8373 0.40876 13.2314 0.536533Z" fill="#6C89A9"/>
</svg>
