<svg width="250" height="45" viewBox="0 0 250 45" fill="none" xmlns="http://www.w3.org/2000/svg">
<path d="M97.1809 5.95898H90.5789C89.8123 5.95898 89.5406 6.201 89.3918 6.9512L86.6474 22.1493C86.5236 22.8995 86.7218 23.1416 87.488 23.1416H89.4911C90.2328 23.1416 90.5295 22.8995 90.6529 22.1493L91.4939 17.5512H95.1283C98.8375 17.5512 101.483 15.7119 102.151 12.0818C102.794 8.45167 100.89 5.95898 97.1809 5.95898ZM95.351 13.9452H92.1367L92.9278 9.54068H96.1422C97.5765 9.54068 98.2936 10.3877 98.0464 11.7672C97.7988 13.1466 96.7854 13.9452 95.351 13.9452Z" fill="#0077EE"/>
<path d="M117.076 5.95898H107.135C106.369 5.95898 106.097 6.201 105.949 6.9512L103.204 22.1493C103.08 22.8995 103.278 23.1416 104.045 23.1416H114.232C114.974 23.1416 115.271 22.8995 115.394 22.1493L115.691 20.5279C115.839 19.8018 115.617 19.5356 114.875 19.5356H107.68L108.273 16.2443H113.985C114.727 16.2443 115.048 16.0023 115.172 15.2521L115.468 13.6306C115.592 12.9046 115.394 12.6626 114.652 12.6626H108.941L109.485 9.54068H116.433C117.199 9.54068 117.496 9.2987 117.62 8.57266L117.916 6.9512C118.065 6.201 117.842 5.95898 117.076 5.95898Z" fill="#0077EE"/>
<path d="M128.77 4.79716C130.724 4.79716 132.381 3.90171 133.246 2.35286C133.469 1.89304 133.395 1.72363 132.974 1.53002L131.639 1.02181C131.243 0.900803 131.045 0.949204 130.774 1.33642C130.428 1.94144 129.859 2.28025 129.216 2.28025C128.573 2.28025 128.128 1.94144 127.979 1.33642C127.856 0.949204 127.683 0.876603 127.163 1.04601L125.754 1.53002C125.284 1.69943 125.136 1.89304 125.235 2.35286C125.507 3.90171 126.842 4.79716 128.77 4.79716ZM134.655 5.95879H132.554C132.035 5.95879 131.763 6.10398 131.49 6.41858L125.779 13.3642C124.196 15.3245 123.628 16.1957 122.466 18.3012H122.342C123.356 15.9537 123.677 15.2035 124.172 12.4446L125.136 6.951C125.284 6.20081 125.062 5.95879 124.32 5.95879H122.317C121.551 5.95879 121.278 6.20081 121.13 6.951L118.386 22.1492C118.262 22.8994 118.46 23.1414 119.226 23.1414H121.328C121.823 23.1414 122.095 23.0204 122.391 22.6815L128.177 15.6149C129.784 13.6546 130.279 12.9044 131.416 10.7989H131.565C130.551 13.1706 130.229 13.8483 129.735 16.6556L128.721 22.1492C128.598 22.8994 128.795 23.1414 129.562 23.1414H131.565C132.306 23.1414 132.603 22.8994 132.751 22.1492L135.471 6.951C135.62 6.20081 135.397 5.95879 134.655 5.95879Z" fill="#0077EE"/>
<path d="M151.003 5.95898H139.233C138.491 5.95898 138.194 6.201 138.046 6.9512L137.774 8.57266C137.625 9.2987 137.848 9.54068 138.59 9.54068H142.472L140.197 22.1493C140.073 22.8995 140.271 23.1416 141.013 23.1416H143.016C143.782 23.1416 144.079 22.8995 144.203 22.1493L146.478 9.54068H150.359C151.101 9.54068 151.398 9.2987 151.546 8.57266L151.818 6.9512C151.967 6.201 151.744 5.95898 151.003 5.95898Z" fill="#0077EE"/>
<path d="M167.941 5.95898H165.839C165.32 5.95898 165.048 6.10417 164.776 6.41878L159.064 13.3644C157.481 15.3247 156.913 16.1959 155.751 18.3014H155.627C156.641 15.9539 156.962 15.2037 157.457 12.4448L158.421 6.9512C158.57 6.201 158.347 5.95898 157.605 5.95898H155.602C154.836 5.95898 154.564 6.201 154.415 6.9512L151.671 22.1493C151.547 22.8995 151.745 23.1416 152.511 23.1416H154.613C155.108 23.1416 155.38 23.0206 155.676 22.6817L161.462 15.6151C163.069 13.6548 163.564 12.9046 164.702 10.7991H164.85C163.836 13.1708 163.515 13.8484 163.02 16.6557L162.007 22.1493C161.883 22.8995 162.081 23.1416 162.847 23.1416H164.85C165.592 23.1416 165.888 22.8995 166.037 22.1493L168.757 6.9512C168.905 6.201 168.683 5.95898 167.941 5.95898Z" fill="#0077EE"/>
<path d="M185.77 5.95898H183.767C183.001 5.95898 182.729 6.201 182.581 6.9512L181.567 12.6384H175.583L176.597 6.9512C176.745 6.201 176.523 5.95898 175.781 5.95898H173.778C173.036 5.95898 172.739 6.201 172.591 6.9512L169.847 22.1493C169.723 22.8995 169.921 23.1416 170.687 23.1416H172.69C173.432 23.1416 173.729 22.8995 173.877 22.1493L174.94 16.2443H180.899L179.836 22.1493C179.712 22.8995 179.91 23.1416 180.676 23.1416H182.68C183.421 23.1416 183.718 22.8995 183.842 22.1493L186.586 6.9512C186.735 6.201 186.512 5.95898 185.77 5.95898Z" fill="#0077EE"/>
<path d="M200.74 5.95898H191.616C190.849 5.95898 190.578 6.201 190.429 6.9512L187.684 22.1493C187.561 22.8995 187.759 23.1416 188.525 23.1416H190.528C191.27 23.1416 191.566 22.8995 191.69 22.1493L193.965 9.54068H200.097C200.863 9.54068 201.16 9.2987 201.284 8.57266L201.581 6.9512C201.729 6.201 201.507 5.95898 200.74 5.95898Z" fill="#0077EE"/>
<path d="M97.2649 26.8936H86.8053C86.0636 26.8936 85.767 27.1356 85.6186 27.8858L82.8742 43.1325C82.7504 43.8584 82.9731 44.076 83.6898 44.076H90.8357C94.2483 44.076 96.696 42.1886 97.2894 38.8488C97.9322 35.4607 95.9049 33.21 92.4678 33.21H88.6601L89.1791 30.4027H96.6217C97.3883 30.4027 97.685 30.1365 97.8088 29.4104L98.0805 27.8858C98.2289 27.1356 98.0065 26.8936 97.2649 26.8936ZM93.185 38.6552C92.9872 39.7925 92.0968 40.5672 90.7863 40.5672H87.3496L88.0419 36.7191H91.4789C92.7894 36.7191 93.4073 37.4935 93.185 38.6552Z" fill="#0077EE"/>
<path d="M115.333 26.8936H113.132C111.995 26.8936 111.821 26.9178 111.327 27.7648L107.173 34.5168L105.071 27.7648C104.824 26.9178 104.527 26.8936 103.365 26.8936H101.288C100.571 26.8936 100.398 27.2808 100.596 27.8858L104.28 38.9698L101.511 43.0841C101.14 43.6648 101.115 44.076 101.832 44.076H104.206C105.269 44.076 105.566 43.9308 106.011 43.2049L115.679 27.8858C116.025 27.2808 116.05 26.8936 115.333 26.8936Z" fill="#0077EE"/>
<path d="M129.452 43.0357L127.351 37.1305C126.93 35.9447 126.436 35.2186 125.471 34.6862L131.925 27.8616C132.37 27.3534 132.271 26.8936 131.579 26.8936H129.403C128.216 26.8936 127.944 27.0146 127.301 27.7164L121.886 33.5972H121.219L122.257 27.8858C122.405 27.1356 122.183 26.8936 121.441 26.8936H119.438C118.672 26.8936 118.4 27.1356 118.251 27.8858L115.507 43.0841C115.383 43.834 115.581 44.076 116.347 44.076H118.35C119.092 44.076 119.389 43.834 119.512 43.0841L120.6 37.1305H121.243C122.653 37.1305 123.048 37.4693 123.419 38.5826L124.903 43.1809C125.15 43.9308 125.496 44.076 126.757 44.076H128.735C129.477 44.076 129.675 43.6165 129.452 43.0357Z" fill="#0077EE"/>
<path d="M151.202 26.8936H149.422C148.631 26.8936 148.408 27.0146 147.963 27.6438L141.93 35.8237L138.864 27.6196C138.641 27.0388 138.419 26.8936 137.578 26.8936H136.02C135.278 26.8936 134.982 27.1356 134.833 27.8616L132.089 43.1081C131.965 43.834 132.163 44.076 132.929 44.076H134.809C135.575 44.076 135.872 43.834 135.995 43.1081L136.984 37.6387C137.281 36.0173 137.355 34.6378 137.207 32.1693H137.405C137.628 33.936 137.924 35.3639 138.443 36.6707L139.68 39.7441C139.878 40.3008 140.075 40.446 140.669 40.446H141.683C142.301 40.446 142.573 40.2524 142.944 39.7441L145.218 36.6707C146.207 35.3639 147.196 33.815 148.012 32.1693H148.21C147.172 34.541 146.677 36.1383 146.43 37.6145L145.441 43.1081C145.292 43.834 145.515 44.076 146.257 44.076H148.111C148.853 44.076 149.175 43.834 149.298 43.1081L152.043 27.8616C152.191 27.1356 151.969 26.8936 151.202 26.8936Z" fill="#0077EE"/>
<path d="M166.986 26.8936H157.046C156.279 26.8936 156.007 27.1356 155.859 27.8858L153.114 43.0841C152.99 43.834 153.188 44.076 153.955 44.076H164.142C164.884 44.076 165.181 43.834 165.304 43.0841L165.601 41.4623C165.749 40.7364 165.527 40.4704 164.785 40.4704H157.59L158.183 37.1789H163.895C164.637 37.1789 164.958 36.9369 165.082 36.1867L165.378 34.5652C165.502 33.8392 165.304 33.5972 164.562 33.5972H158.851L159.395 30.4753H166.343C167.109 30.4753 167.406 30.2333 167.529 29.5073L167.826 27.8858C167.974 27.1356 167.752 26.8936 166.986 26.8936Z" fill="#0077EE"/>
<path d="M182.241 43.0357L180.14 37.1305C179.719 35.9447 179.225 35.2186 178.26 34.6862L184.714 27.8616C185.159 27.3534 185.06 26.8936 184.368 26.8936H182.192C181.005 26.8936 180.733 27.0146 180.09 27.7164L174.675 33.5972H174.008L175.046 27.8858C175.194 27.1356 174.972 26.8936 174.23 26.8936H172.227C171.461 26.8936 171.189 27.1356 171.041 27.8858L168.296 43.0841C168.172 43.834 168.37 44.076 169.136 44.076H171.139C171.881 44.076 172.178 43.834 172.301 43.0841L173.389 37.1305H174.032C175.442 37.1305 175.837 37.4693 176.208 38.5826L177.692 43.1809C177.939 43.9308 178.285 44.076 179.546 44.076H181.524C182.266 44.076 182.464 43.6165 182.241 43.0357Z" fill="#0077EE"/>
<path d="M198.749 26.8936H188.809C188.043 26.8936 187.771 27.1356 187.622 27.8858L184.878 43.0841C184.754 43.834 184.952 44.076 185.718 44.076H195.905C196.648 44.076 196.944 43.834 197.068 43.0841L197.364 41.4623C197.513 40.7364 197.29 40.4704 196.549 40.4704H189.353L189.947 37.1789H195.658C196.4 37.1789 196.722 36.9369 196.845 36.1867L197.142 34.5652C197.265 33.8392 197.068 33.5972 196.326 33.5972H190.614L191.158 30.4753H198.106C198.873 30.4753 199.17 30.2333 199.293 29.5073L199.59 27.8858C199.738 27.1356 199.516 26.8936 198.749 26.8936Z" fill="#0077EE"/>
<path d="M210.593 26.8936H203.991C203.224 26.8936 202.952 27.1356 202.804 27.8858L200.06 43.0841C199.936 43.834 200.134 44.076 200.9 44.076H202.903C203.645 44.076 203.942 43.834 204.065 43.0841L204.906 38.4858H208.54C212.25 38.4858 214.895 36.6465 215.563 33.0164C216.206 29.3862 214.302 26.8936 210.593 26.8936ZM208.763 34.8798H205.549L206.34 30.4753H209.554C210.989 30.4753 211.705 31.3223 211.458 32.7018C211.211 34.0812 210.197 34.8798 208.763 34.8798Z" fill="#0077EE"/>
<path d="M218.001 32.8225L217.111 37.7353C216.419 41.7528 218.62 44.4389 223.293 44.4389C227.991 44.4389 230.908 42.2367 231.625 38.2193L232.516 33.3065C233.208 29.2892 231.032 26.5303 226.334 26.5303C221.661 26.5303 218.719 28.8051 218.001 32.8225ZM228.584 32.9677L227.669 38.0015C227.323 39.889 225.963 40.8329 223.861 40.8329C221.785 40.8329 220.746 39.889 221.092 38.0015L222.007 32.9677C222.329 31.08 223.713 30.1362 225.79 30.1362C227.892 30.1362 228.906 31.08 228.584 32.9677Z" fill="#0077EE"/>
<path d="M244.923 26.8936H237.975C237.209 26.8936 236.937 27.1356 236.788 27.8858L234.044 43.0841C233.92 43.834 234.118 44.076 234.884 44.076H241.956C245.294 44.076 248.039 42.5758 248.607 39.4781C248.978 37.3483 248.385 35.7753 246.976 35.1461L247 35.0492C248.36 34.2264 249.028 33.2826 249.349 31.6369C249.869 28.878 248.212 26.8936 244.923 26.8936ZM245.17 32.0242C244.973 33.1616 244.256 33.6698 243.094 33.6698H239.755L240.349 30.3785H243.687C244.849 30.3785 245.369 30.9109 245.17 32.0242ZM244.478 38.8488C244.256 40.0345 243.539 40.5912 242.302 40.5912H238.519L239.162 37.0821H242.945C244.157 37.0821 244.676 37.6871 244.478 38.8488Z" fill="#0077EE"/>
<path fill-rule="evenodd" clip-rule="evenodd" d="M24.6425 5.95898H9.49386C7.73753 5.95898 7.07888 6.5499 6.74954 8.21522L2.64413 31.0823C2.49653 31.9044 3.14277 32.6578 3.99557 32.6578H19.9223C28.4845 32.6578 34.6867 28.6825 36.2235 20.1948C37.7054 11.6533 33.2047 5.95898 24.6425 5.95898ZM14.9276 23.2568H20.3064C22.8861 23.2568 24.6973 21.6989 25.1364 19.3352C25.5755 16.9716 24.368 15.36 21.7335 15.36H16.3546L14.9276 23.2568Z" fill="white"/>
<path d="M1.36932 38.1249C1.55535 37.099 2.46648 36.3516 3.53099 36.3516H10.9682C11.8219 36.3516 12.4684 37.1065 12.3192 37.9292L11.5261 42.3033C11.3401 43.3291 10.4289 44.0768 9.36441 44.0768H1.92722C1.07348 44.0768 0.42699 43.3215 0.576179 42.4988L1.36932 38.1249Z" fill="white"/>
<path d="M42.3149 7.73226C42.5006 6.7064 43.4121 5.95898 44.4765 5.95898H68.791C69.6448 5.95898 70.2915 6.71391 70.142 7.53666L69.3489 11.9107C69.1628 12.9366 68.2518 13.684 67.1873 13.684H42.8725C42.019 13.684 41.3724 12.9291 41.5215 12.1063L42.3149 7.73226Z" fill="white"/>
<path fill-rule="evenodd" clip-rule="evenodd" d="M58.0664 17.377H42.9176C41.1613 17.377 40.5026 17.9679 40.1732 19.6332L36.068 42.5004C35.9204 43.3223 36.5666 44.0757 37.4194 44.0757H53.346C61.9083 44.0757 68.1105 40.1004 69.6472 31.6127C71.1294 23.0713 66.6286 17.377 58.0664 17.377ZM48.324 34.6748H53.703C56.2824 34.6748 58.0936 33.1169 58.5328 30.7532C58.9719 28.3895 57.7646 26.7779 55.13 26.7779H49.7509L48.324 34.6748Z" fill="white"/>
</svg>
