<svg width="291" height="142" viewBox="0 0 291 142" fill="none" xmlns="http://www.w3.org/2000/svg">
<path d="M285.694 14.3867H285.687L291 13.2889V130.991L287.652 131.845C284.471 132.652 281.282 133.425 278.084 134.163C274.87 134.906 271.643 135.598 268.407 136.236C265.514 136.811 262.611 137.335 259.699 137.809C256.805 138.29 253.844 138.73 250.822 139.137C247.975 139.51 245.204 139.848 242.466 140.14C239.633 140.438 236.869 140.709 234.199 140.912H234.205C231.563 141.129 228.798 141.305 225.897 141.454H225.918C223.173 141.61 220.347 141.719 217.467 141.8C216.281 141.834 215.102 141.854 213.93 141.854C203.819 141.854 194.081 140.573 184.465 138.608C162.123 134.041 140.939 126.214 119.01 121.721C107.829 119.417 96.5595 117.892 85.0664 117.757C83.7043 117.743 82.3355 117.73 80.9734 117.73C59.2748 117.73 37.8133 119.932 17.1244 126.37C12.6425 127.756 8.18527 129.321 3.7055 130.895L3.08334 131.113L0 132.198V13.3702L1.58572 12.8281C3.92933 12.043 6.27861 11.275 8.63337 10.5241C13.62 8.96725 18.6604 7.58847 23.7451 6.39035L23.8197 6.36324L23.9417 6.32936C26.1373 5.82789 28.4413 5.3332 30.8944 4.83851C33.2152 4.36985 35.5421 3.93159 37.8743 3.52385C49.8418 1.49088 61.9922 0.379519 74.1832 0.0677963H74.1765C75.9113 0.0203603 77.6325 3.05176e-05 79.3402 3.05176e-05C84.8563 0.00391594 90.37 0.227721 95.8683 0.670912C102.954 1.24464 110.009 2.14462 117.011 3.36799H117.004C123.98 4.57944 130.91 6.03732 137.781 7.73889C144.686 9.45455 151.547 11.3458 158.355 13.4109L158.579 13.4787L158.599 13.4854C168.29 16.3994 177.641 19.1981 187.129 21.1769C195.633 22.9523 204.3 24.0908 213.544 24.0908C214.662 24.0908 215.793 24.0705 216.932 24.0366H216.939C222.17 23.8845 227.395 23.5636 232.606 23.0743H232.613C237.823 22.5847 243.02 21.9634 248.199 21.2107H248.213C251.1 20.8005 253.983 20.3554 256.86 19.8757H256.866C259.767 19.4014 262.613 18.8999 265.391 18.3781H265.405C268.542 17.8021 271.965 17.138 275.543 16.4332C279.758 15.5997 282.766 14.9763 285.694 14.3867Z" fill="#2E3192"/>
<path d="M85.1816 17.0499C140.878 17.7208 171.129 42.4553 217.189 41.0932C240.725 40.402 261.014 36.9663 275.244 33.7677V100.429C261.678 103.539 242.114 106.833 217.189 107.558C174.456 108.818 136.663 84.1313 85.1816 83.5146C53.8128 83.1216 30.908 87.4789 15.7894 91.7956V25.6697C31.7415 21.2785 55.6561 16.6907 85.1816 17.0499Z" fill="#399247"/>
<path fill-rule="evenodd" clip-rule="evenodd" d="M267.533 40.5918L265.947 40.9035L264.348 41.2017L262.708 41.4863L261.034 41.7913L259.32 42.0759L257.585 42.3605L255.823 42.6316L254.027 42.9094L252.197 43.1805L250.354 43.438L248.477 43.6887L246.58 43.9259L244.635 44.1699L242.669 44.3935L240.704 44.6103L238.685 44.8136L236.652 45.0169L234.592 45.1999L232.511 45.3761L230.411 45.5319L228.276 45.6743L226.121 45.8098L223.953 45.9318L221.764 46.0334L219.555 46.1351L217.291 46.2028L212.873 46.257L208.515 46.1689L204.26 45.9318L200.058 45.5658L195.938 45.0779L191.886 44.4748L187.888 43.7971L183.937 43.0043L180.034 42.1437L176.171 41.2085L172.342 40.2259L168.52 39.1891L164.725 38.1184L163.316 37.6914V93.8354L163.702 93.9371L167.605 95.0213L171.475 96.092L175.317 97.1017L179.146 98.0505L182.954 98.9517L186.756 99.7785L190.544 100.524L194.325 101.181L198.093 101.744L201.861 102.198L205.635 102.55L209.43 102.76L213.225 102.855L217.068 102.821L219.311 102.753L221.574 102.652L223.797 102.55L225.992 102.442L228.147 102.306L230.275 102.164L232.376 102.008L234.436 101.852L236.476 101.676L238.475 101.493L240.447 101.29L242.378 101.086L244.289 100.87L246.153 100.659L247.996 100.429L249.792 100.192L251.574 99.9479L253.315 99.6972L255.01 99.4397L256.69 99.1822L258.33 98.9111L259.929 98.64L261.508 98.369L263.04 98.0979L264.551 97.8065L266.022 97.5287L267.458 97.244L268.861 96.9594L270.223 96.668L270.291 96.6613V40.0429L269.078 40.2936L267.533 40.5918ZM199.455 86.9098C198.303 88.3328 196.955 89.2138 195.457 89.4916C193.966 89.7898 191.777 89.5594 188.999 88.9495C183.711 87.969 178.466 86.7708 173.277 85.3579V50.4314C181.755 52.7422 189.582 54.206 198.276 55.4596V61.4705C191.987 60.8335 185.997 59.5188 180.02 58.1499V65.8481L189.053 67.8133C191.56 68.3555 193.621 69.1145 195.267 70.1106C196.907 71.1 198.31 72.5841 199.469 74.5493C200.628 76.5145 201.217 78.9066 201.217 81.2174C201.217 83.5689 200.628 85.4731 199.455 86.903V86.9098ZM232.999 90.3319C228.215 90.6843 216.18 91.6873 207.065 91.118L207.079 56.2593C215.699 56.5845 224.142 56.1373 232.355 55.5545V61.5586C226.548 61.9652 220.808 62.3989 213.964 62.4463V70.1038C219.839 70.009 225.349 69.7311 231.081 69.3177V75.1863C225.511 75.5387 219.67 75.9317 213.964 75.9588V85.4596C220.323 85.3693 226.676 85.0528 233.013 84.5108L232.999 90.3319ZM263.209 57.5333L253.227 59.1597L253.254 87.9872C251.025 88.3057 248.809 88.6175 246.444 88.936V60.0948C243.1 60.4849 239.752 60.8441 236.401 61.1723V55.1818C245.421 54.3889 254.183 53.0065 263.209 51.5021V57.5197V57.5333Z" fill="white"/>
<path fill-rule="evenodd" clip-rule="evenodd" d="M217.189 41.0932C171.129 42.4553 140.878 17.7208 85.1816 17.0499C55.6561 16.6907 31.7415 21.2785 15.7894 25.6697V91.7956C30.908 87.4789 53.8128 83.1216 85.1816 83.5146C136.663 84.1313 174.456 108.818 217.189 107.558C242.114 106.833 261.678 103.539 275.244 100.429V33.7677C261.014 36.9663 240.725 40.402 217.189 41.0932ZM272.378 98.335L272.005 98.4163L270.65 98.7077L269.274 98.9923L267.865 99.2769L266.415 99.5683L264.93 99.8597L263.419 100.131L261.861 100.402L260.289 100.693L258.662 100.958L257.009 101.229L255.335 101.5L253.607 101.75L251.865 101.994L250.076 102.252L248.26 102.489L246.403 102.719L244.513 102.93L242.602 103.146L240.65 103.356L238.678 103.553L236.652 103.743L234.605 103.912L232.532 104.082L230.417 104.237L228.276 104.373L226.107 104.508L223.892 104.617L221.655 104.719L219.392 104.82L217.108 104.888L213.191 104.922L209.329 104.834L205.486 104.603L201.644 104.265L197.822 103.79L193.986 103.228L190.158 102.564L186.342 101.805L182.5 100.978L178.658 100.083L174.802 99.1143L170.939 98.0978L167.05 97.0271L163.139 95.9429L159.195 94.8112L155.238 93.6795L151.24 92.541L147.208 91.389L143.121 90.2641L139.022 89.1527L134.854 88.0685L130.652 87.0249L126.397 86.0287L122.073 85.1003L117.709 84.2329L113.264 83.4468L108.764 82.7421L104.21 82.1322L99.5615 81.6307L94.8586 81.2309L90.0608 80.9666L85.2155 80.8379L82.2609 80.8243H79.3605L76.5144 80.865L73.7292 80.9124L70.9711 80.9937L68.2808 81.1021L65.638 81.2241L63.029 81.38L60.4742 81.5426L57.9737 81.7324L55.5205 81.9492L53.1148 82.1796L50.7634 82.4168L48.4526 82.6811L46.1892 82.9522L43.9868 83.2571L41.8183 83.5553L39.704 83.8806L37.6304 84.2194L35.6109 84.5514L33.6322 84.9038L31.7076 85.263L29.8102 85.6357L27.9873 86.0152L26.1983 86.4014L24.4499 86.7945L22.7693 87.1943L21.1158 87.6009L19.5098 88.0075L18.6153 88.2311V28.0347L19.564 27.7908L21.1633 27.3842L22.7896 26.9844L24.4838 26.5778L26.1983 26.1847L27.9737 25.7849L29.7763 25.3919L31.6331 25.0124L33.5237 24.6329L35.4618 24.267L37.4474 23.9078L39.4736 23.5554L41.5337 23.2301L43.6344 22.9049L45.7758 22.5796L47.9579 22.295L50.1806 22.0104L52.4304 21.7257L54.7344 21.4818L57.0656 21.2514L59.4442 21.021L61.8499 20.8312L64.2894 20.6483L66.7832 20.4924L69.2905 20.3569L71.8453 20.262L74.4407 20.1739L77.0633 20.1197L79.7197 20.079L82.3964 20.0655L85.1139 20.079L90.1963 20.2146L95.1161 20.4721L99.9139 20.8516L104.597 21.3463L109.157 21.9494L113.609 22.6406L117.953 23.4063L122.216 24.2534L126.39 25.175L130.497 26.1576L134.529 27.1741L138.507 28.2584L142.417 29.3494L146.306 30.4608L150.149 31.5992L153.95 32.7512L157.745 33.8897L161.527 35.0078L165.301 36.1192L169.082 37.1967L172.857 38.2199L176.665 39.2025L180.494 40.1242L184.357 40.9848L188.253 41.7505L192.204 42.4282L196.202 43.0178L200.268 43.4989L204.402 43.8581L208.604 44.0885L212.88 44.1833L217.237 44.1291L219.473 44.0614L221.669 43.9665L223.844 43.8581L225.999 43.7496L228.14 43.6005L230.241 43.465L232.342 43.3092L234.416 43.1397L236.455 42.95L238.468 42.7603L240.467 42.557L242.446 42.3401L244.397 42.1097L246.308 41.8725L248.199 41.6286L250.069 41.3778L251.913 41.1271L253.715 40.856L255.497 40.585L257.259 40.3139L258.987 40.0293L260.675 39.7379L262.335 39.4533L263.975 39.1551L265.567 38.8502L267.133 38.5588L268.678 38.2538L270.169 37.9557L271.646 37.6439L272.371 37.4881V98.335H272.378Z" fill="white"/>
<path fill-rule="evenodd" clip-rule="evenodd" d="M186.898 73.2007C184.597 72.7411 182.304 72.2441 180.02 71.7098V81.2106C182.201 81.716 184.387 82.1949 186.58 82.6472C189.575 83.2707 194.19 84.1178 194.19 79.6927C194.19 78.073 193.641 76.5144 192.543 75.5386C191.438 74.556 189.561 73.7902 186.891 73.2007H186.898ZM102.272 52.9252L102.299 58.9292C102.299 60.4878 102.049 61.423 101.554 61.7415C100.537 62.4191 98.396 61.8567 97.1627 61.7686L97.2101 67.2576C99.3176 67.7659 100.768 68.0708 101.567 68.2063C103.838 68.5655 105.505 68.3758 106.582 67.5965C107.639 66.8307 108.256 65.4076 108.534 63.7677C108.805 62.1278 108.954 59.1596 108.954 54.8971V40.1852C112.451 40.6324 115.73 41.2288 119.119 41.8387V70.7137C121.911 71.2084 123.652 71.6488 125.922 72.1164V37.2306C115.514 34.8452 106.582 33.8423 102.272 33.4018V52.9184V52.9252ZM73.8241 32.4328L60.7724 68.0098L68.2267 67.5355L71.6149 57.8788C75.9181 57.6755 79.3673 57.6281 83.7586 57.6959L87.3366 67.2305L95.1026 67.5693L81.1022 32.1956L73.8241 32.4328ZM73.7699 51.9697L77.5106 40.2258L81.5359 51.8138C78.6355 51.8341 76.6703 51.8816 73.7699 51.9697ZM54.4973 48.5339C52.486 48.0091 50.3929 47.8734 48.3306 48.1341C45.1524 48.5 42.8077 48.9609 39.0331 49.5165L39.0128 41.8454C45.1492 40.7953 51.3254 39.9928 57.5264 39.4398V33.4425C49.0165 34.2261 40.5527 35.4475 32.1685 37.1018L32.1956 71.9741C38.308 70.7679 42.8619 70.1241 48.2018 69.3448C53.474 68.5791 55.8187 67.5761 58.7598 63.029C59.962 61.1499 60.5821 58.9573 60.542 56.7268C60.542 54.4296 59.9457 53.0878 58.7733 51.5224C57.7422 50.059 56.232 49.0019 54.5041 48.5339H54.4973ZM45.7826 63.8219L39.0399 64.8587V55.3647C41.3846 54.9717 43.6615 54.6396 45.9927 54.3008C48.5813 53.9755 53.413 53.9552 53.413 57.6213C53.413 62.5072 49.896 63.2052 45.7826 63.8287V63.8219ZM129.724 44.1224C133.008 44.8992 136.275 45.7465 139.523 46.6636V75.5996L146.191 77.4293V48.561C149.674 49.5775 152.71 50.4991 155.97 51.4682V45.4506C147.445 42.9026 140.289 40.6392 129.724 38.1048V44.1224Z" fill="white"/>
<path d="M15.803 101.29C19.1819 100.24 22.5847 99.2682 26.0085 98.3757V100.659C23.5173 101.306 21.0368 101.993 18.5678 102.72V105.877C19.7854 105.515 21.0052 105.161 22.2272 104.813C23.2437 104.522 24.0975 104.434 24.7684 104.509C25.4393 104.583 26.0085 104.902 26.4761 105.444C26.9708 106.006 27.208 106.731 27.208 107.619C27.2159 108.523 26.9617 109.411 26.4761 110.174C26.0726 110.875 25.5169 111.477 24.8497 111.936C24.2398 112.329 23.3589 112.674 22.2272 112.979C20.0783 113.598 17.9367 114.242 15.803 114.911V101.29ZM18.5678 111.766C19.442 111.516 20.3433 111.238 21.2378 110.987C22.0849 110.743 22.6948 110.526 23.0471 110.35C23.386 110.174 23.6909 109.909 23.9552 109.55C24.2127 109.178 24.3211 108.785 24.3211 108.351C24.3211 107.721 24.1178 107.321 23.657 107.151C23.2098 106.989 22.4305 107.036 21.353 107.348L18.5678 108.161V111.766ZM27.845 97.9149L30.9283 97.183L32.5073 100.409C33.0228 101.485 33.5537 102.553 34.0998 103.614C34.5402 102.347 35.0078 101.08 35.4415 99.7988C35.882 98.5384 36.3699 97.2576 36.8375 95.9768C37.7998 95.7939 38.7553 95.6177 39.7243 95.455C38.9382 97.3321 38.1454 99.1957 37.3932 101.08C36.6342 102.95 35.8481 104.834 35.0959 106.711C34.7151 107.727 34.2098 108.692 33.5915 109.584C33.0973 110.264 32.3635 110.732 31.5382 110.892C30.725 111.068 30.0948 111.156 29.6475 111.136V109.089C30.0017 109.037 30.3543 108.974 30.7047 108.9C31.2114 108.821 31.6846 108.598 32.0668 108.256C32.3582 107.958 32.6225 107.402 32.88 106.582C32.0464 105.125 31.1723 103.668 30.3591 102.225C29.5459 100.775 28.6649 99.3516 27.845 97.9149ZM41.4117 95.1704C42.313 95.0213 43.2075 94.879 44.1426 94.7435V100.558C44.7864 100.422 45.1795 100.192 45.3963 99.9072C45.6267 99.6158 45.9452 98.8636 46.4128 97.6303C47.0024 96.0717 47.5513 95.0959 48.1273 94.6486C48.7101 94.2081 49.6181 93.9167 50.8921 93.7744C50.9531 93.7744 51.0954 93.7473 51.3123 93.7134V95.76L50.8921 95.7938C50.3432 95.8616 49.9298 95.97 49.6723 96.1462C49.3971 96.3245 49.1766 96.5754 49.0353 96.8713C48.8795 97.1627 48.6152 97.7862 48.3035 98.7213C48.1704 99.1573 47.9957 99.5794 47.7817 99.9818C47.5919 100.321 47.226 100.659 46.7381 101.005C47.348 101.1 47.863 101.385 48.2493 101.866C48.6423 102.347 49.1099 103.018 49.5842 103.926C50.2077 105.085 50.804 106.27 51.4546 107.45C50.3432 107.578 49.2657 107.714 48.1883 107.856C47.6394 106.752 47.0837 105.647 46.5619 104.536C46.5348 104.488 46.5009 104.4 46.4196 104.271C46.3031 104.072 46.1857 103.873 46.0672 103.675C45.8612 103.239 45.5656 102.851 45.1998 102.537C44.9558 102.401 44.6441 102.374 44.1426 102.435V108.425C43.2328 108.564 42.3247 108.713 41.4185 108.873V102.028V95.1704H41.4117ZM53.2233 107.239V93.6118L57.357 93.212L58.5768 97.7591C58.9969 99.277 59.3967 100.809 59.8304 102.306L61.0502 97.5693L62.27 92.8596C63.6456 92.7715 65.0145 92.697 66.4173 92.6292V106.209C65.5363 106.243 64.6892 106.298 63.8489 106.359V95.6515C63.3789 97.4596 62.9226 99.2713 62.4801 101.086C62.0396 102.896 61.5788 104.712 61.1383 106.528L58.4954 106.731C58.0234 104.994 57.5671 103.252 57.1266 101.507C56.6793 99.7446 56.2117 98.0166 55.7848 96.2479V106.975L53.2233 107.246V107.239ZM69.4057 106.087V92.4937C72.7602 92.392 76.1281 92.3175 79.5028 92.2836V94.5808C77.0294 94.5876 74.5898 94.6418 72.1435 94.7164V97.7116C74.4069 97.6506 76.7041 97.6032 79.0149 97.5964V99.8801C76.7242 99.9034 74.4336 99.9441 72.1435 100.002V103.695C74.6711 103.628 77.2056 103.594 79.7671 103.58V105.884C76.3125 105.901 72.8584 105.969 69.4057 106.087ZM82.4168 92.2632C83.3248 92.2632 84.2465 92.2904 85.1749 92.3175V98.1114C85.7847 98.0572 86.2049 97.9149 86.4353 97.6642C86.6386 97.427 86.9774 96.7087 87.4179 95.5634C87.9939 94.1133 88.5902 93.212 89.1595 92.8664C89.7287 92.5411 90.6503 92.4123 91.904 92.4869L92.3106 92.4937V94.5198C92.1683 94.5063 92.0463 94.4927 91.9311 94.4927C91.5095 94.4405 91.0816 94.4916 90.6842 94.6418C90.4132 94.757 90.2302 94.9603 90.0743 95.2314C89.9049 95.5228 89.6677 96.0852 89.3424 96.9594C89.1997 97.3613 89.0158 97.7474 88.7935 98.1114C88.597 98.4164 88.265 98.7078 87.7771 98.9721C88.3869 99.1754 88.8749 99.5345 89.2815 100.07C89.688 100.612 90.1217 101.378 90.5893 102.36C91.1992 103.621 91.8227 104.902 92.4529 106.176C91.3758 106.115 90.2983 106.063 89.2205 106.02C88.6783 104.834 88.1227 103.648 87.5941 102.462C87.5454 102.357 87.4864 102.257 87.4179 102.164C87.3908 102.116 87.2959 101.893 87.1062 101.52C86.747 100.842 86.4285 100.409 86.232 100.233C86.0016 100.063 85.6492 99.9885 85.1749 99.9614V105.925C84.2465 105.911 83.3248 105.891 82.41 105.891V92.27L82.4168 92.2632ZM94.2826 106.257V92.7037C97.637 92.9612 101.012 93.2865 104.386 93.6728V95.9768C101.937 95.6909 99.4833 95.4356 97.0271 95.2111V98.2266C99.304 98.4164 101.594 98.6671 103.892 98.9314V101.235C101.608 100.959 99.319 100.72 97.0271 100.517V104.21C99.5547 104.434 102.089 104.712 104.651 105.037V107.341C101.195 106.914 97.7183 106.542 94.2826 106.257ZM107.544 107.748V94.1133C109.008 94.3166 110.465 94.5266 111.942 94.7841C113.636 95.0552 114.741 95.3263 115.229 95.5567C116.042 95.9257 116.731 96.5209 117.215 97.2711C117.753 98.1155 118.025 99.1027 117.994 100.104C117.994 100.944 117.824 101.628 117.519 102.144C117.257 102.625 116.856 103.017 116.367 103.268C115.893 103.492 115.432 103.621 114.944 103.648C114.294 103.661 113.338 103.539 112.098 103.323L110.289 103.031V108.195C109.354 108.046 108.459 107.883 107.544 107.755V107.748ZM110.289 96.8307V100.707C110.777 100.775 111.278 100.863 111.793 100.958C112.871 101.141 113.596 101.195 113.982 101.127C114.328 101.059 114.606 100.863 114.822 100.598C115.053 100.334 115.141 100.002 115.141 99.5955C115.141 99.0873 115.005 98.6603 114.707 98.2741C114.421 97.9064 114.035 97.6288 113.596 97.4744C113.277 97.3525 112.606 97.2102 111.631 97.0407C111.185 96.9622 110.737 96.8922 110.289 96.8307ZM128.491 106.928L131.154 108.432C130.747 109.835 130.09 110.79 129.121 111.278C128.172 111.787 126.973 111.834 125.489 111.502C123.711 111.098 122.132 110.081 121.03 108.629C120.452 107.881 120.011 107.037 119.729 106.135C119.422 105.169 119.271 104.16 119.281 103.146C119.281 101.994 119.444 101.019 119.729 100.192C119.974 99.4145 120.423 98.7172 121.03 98.1724C122.195 97.1627 123.747 96.8645 125.665 97.305C127.325 97.6913 128.694 98.5248 129.731 99.7785C130.401 100.634 130.879 101.623 131.134 102.679C130.198 102.659 129.304 102.659 128.396 102.659C128.259 101.923 127.905 101.246 127.379 100.714C126.88 100.183 126.233 99.8151 125.523 99.6565C124.506 99.4125 123.693 99.6023 123.07 100.199C122.446 100.788 122.107 101.9 122.107 103.539C122.107 105.281 122.432 106.589 123.042 107.47C123.652 108.351 124.465 108.893 125.462 109.117C126.187 109.286 126.824 109.205 127.346 108.873C127.867 108.52 128.254 107.876 128.491 106.928ZM133.444 99.4735C134.353 99.6972 135.274 99.9479 136.209 100.205V106.054C136.819 106.155 137.212 106.094 137.429 105.898C137.653 105.694 137.992 105.085 138.446 104.041C139.042 102.713 139.584 101.954 140.167 101.75C140.756 101.547 141.658 101.615 142.932 101.974C142.999 101.994 143.135 102.035 143.338 102.076V104.129C143.196 104.088 143.054 104.027 142.932 104.007C142.544 103.855 142.123 103.808 141.712 103.872C141.448 103.939 141.238 104.088 141.068 104.332C140.788 104.837 140.555 105.365 140.37 105.911C140.244 106.281 140.062 106.628 139.828 106.941C139.625 107.199 139.272 107.402 138.771 107.551C139.381 107.904 139.896 108.398 140.289 109.035C140.682 109.672 141.136 110.526 141.631 111.644C142.247 113.054 142.85 114.484 143.481 115.907C142.383 115.602 141.305 115.304 140.228 115.026C139.679 113.691 139.103 112.349 138.601 111.028C138.574 110.973 138.54 110.865 138.446 110.696C138.425 110.635 138.303 110.397 138.1 109.95C137.89 109.408 137.593 108.904 137.219 108.459C136.935 108.19 136.584 108.003 136.203 107.917V113.948C135.274 113.691 134.353 113.44 133.444 113.21V99.4803V99.4735ZM158.003 119.973C156.973 119.702 155.99 119.41 155.001 119.132C154.594 117.98 154.181 116.842 153.801 115.703L148.366 114.165L147.228 116.944C146.232 116.679 145.276 116.401 144.321 116.144C146.053 112.07 147.815 108.008 149.607 103.96C150.569 104.237 151.538 104.509 152.521 104.8C154.33 109.855 156.132 114.924 158.003 119.979V119.973ZM152.927 113.149C152.29 111.299 151.64 109.442 151.036 107.558C150.402 109.066 149.792 110.584 149.207 112.112L152.934 113.149H152.927ZM167.89 122.69V116.998C167.687 116.93 167.51 116.883 167.334 116.842C166.46 116.598 165.85 116.557 165.477 116.733C165.125 116.883 164.529 117.52 163.675 118.57C163.017 119.383 162.333 120.19 161.662 120.989C160.564 120.677 159.446 120.379 158.369 120.081L160.036 117.879C160.497 117.23 161.022 116.629 161.601 116.083C162.044 115.745 162.551 115.5 163.092 115.365C161.804 114.809 160.869 114.111 160.32 113.271C159.782 112.476 159.492 111.54 159.487 110.58C159.487 109.74 159.69 109.069 160.117 108.547C160.306 108.292 160.551 108.084 160.833 107.938C161.114 107.792 161.426 107.713 161.743 107.707C162.455 107.666 163.471 107.849 164.834 108.222C166.758 108.737 168.676 109.245 170.628 109.754V123.408C169.692 123.171 168.798 122.927 167.89 122.69ZM167.89 111.353C167.165 111.15 166.44 110.96 165.735 110.77C165.029 110.568 164.314 110.396 163.593 110.255C163.228 110.201 162.929 110.296 162.679 110.506C162.441 110.723 162.306 111.068 162.306 111.522C162.306 111.947 162.427 112.364 162.655 112.723C162.883 113.082 163.208 113.368 163.593 113.548C163.959 113.711 164.712 113.955 165.85 114.26L167.883 114.816V111.36L167.89 111.353ZM184.594 113.047C185.502 113.237 186.403 113.406 187.332 113.589V119.397C187.969 119.464 188.375 119.363 188.579 119.16C188.802 118.929 189.155 118.299 189.609 117.221C190.171 115.846 190.734 115.019 191.316 114.755C191.899 114.49 192.807 114.457 194.081 114.646C194.149 114.66 194.285 114.667 194.488 114.714V116.733C194.346 116.72 194.203 116.679 194.081 116.666C193.679 116.575 193.26 116.584 192.862 116.693C192.591 116.795 192.364 116.986 192.218 117.235C192.062 117.486 191.798 118.021 191.493 118.861C191.354 119.245 191.18 119.615 190.971 119.966C190.781 120.251 190.422 120.488 189.92 120.677C190.53 120.949 191.045 121.396 191.438 121.979C191.831 122.582 192.286 123.381 192.78 124.418C193.397 125.753 194 127.095 194.637 128.423C193.551 128.275 192.467 128.115 191.384 127.942C190.829 126.668 190.273 125.408 189.751 124.147L189.616 123.842C189.483 123.611 189.36 123.373 189.25 123.131C189.045 122.611 188.747 122.133 188.369 121.721C188.074 121.469 187.715 121.305 187.332 121.247V127.237C186.418 127.068 185.505 126.892 184.594 126.709V113.04V113.047ZM195.891 121.877C195.891 120.494 196.08 119.37 196.501 118.482C196.807 117.827 197.242 117.242 197.781 116.761C198.294 116.309 198.897 115.972 199.55 115.771C200.404 115.507 201.359 115.439 202.498 115.534C204.504 115.717 206.103 116.442 207.296 117.757C207.917 118.404 208.384 119.182 208.665 120.034C208.956 120.901 209.132 121.89 209.132 122.988C209.132 124.073 208.956 125.048 208.658 125.882C208.388 126.685 207.933 127.414 207.33 128.01C206.137 129.189 204.531 129.704 202.518 129.534C200.485 129.351 198.893 128.559 197.693 127.197C197.081 126.507 196.615 125.7 196.324 124.825C196.033 123.944 195.891 122.968 195.891 121.877ZM198.716 122.141C198.716 123.666 199.082 124.892 199.794 125.753C200.505 126.627 201.42 127.108 202.518 127.19C203.602 127.285 204.497 126.959 205.202 126.234C205.92 125.489 206.286 124.337 206.286 122.778C206.286 121.226 205.92 120.054 205.222 119.234C204.888 118.834 204.476 118.506 204.011 118.271C203.546 118.035 203.038 117.897 202.518 117.865C202.021 117.792 201.514 117.834 201.036 117.988C200.558 118.142 200.121 118.404 199.76 118.753C199.062 119.444 198.716 120.576 198.716 122.141ZM211.545 129.812V116.313L214.309 116.374V121.687C216.092 121.674 217.887 121.66 219.697 121.619V116.3L222.462 116.205V129.778L219.697 129.846V123.923C217.887 123.964 216.092 123.964 214.309 123.971V129.867C213.374 129.867 212.453 129.833 211.545 129.812ZM228.635 129.501V118.177C227.259 118.258 225.924 118.346 224.589 118.401V116.11C228.211 115.9 231.83 115.643 235.446 115.338V117.648C234.07 117.77 232.735 117.879 231.393 117.987V129.318L228.635 129.501ZM236.428 122.162C236.428 120.779 236.652 119.58 237.072 118.597C237.376 117.871 237.797 117.201 238.319 116.612C238.822 116.035 239.426 115.555 240.101 115.195C240.948 114.741 241.931 114.45 243.029 114.335C245.041 114.097 246.654 114.511 247.867 115.622C248.479 116.189 248.94 116.9 249.209 117.689C249.493 118.529 249.67 119.478 249.67 120.596C249.671 121.617 249.516 122.632 249.209 123.605C248.93 124.492 248.473 125.313 247.867 126.017C246.65 127.431 244.928 128.312 243.069 128.471C241.057 128.701 239.43 128.233 238.231 127.115C237.615 126.542 237.148 125.828 236.869 125.035C236.562 124.108 236.414 123.137 236.428 122.162ZM239.288 121.802C239.288 123.347 239.64 124.472 240.365 125.204C240.712 125.558 241.138 125.824 241.609 125.98C242.079 126.136 242.58 126.176 243.069 126.099C243.598 126.048 244.111 125.89 244.576 125.634C245.041 125.377 245.448 125.028 245.773 124.608C246.464 123.72 246.823 122.487 246.823 120.901C246.823 119.342 246.478 118.204 245.793 117.513C245.116 116.822 244.208 116.551 243.069 116.679C241.931 116.815 241.036 117.303 240.325 118.17C239.633 119.01 239.288 120.223 239.288 121.802ZM252.096 127.088V113.413C253.539 113.21 255.023 113 256.507 112.756C258.195 112.505 259.272 112.396 259.801 112.457C260.553 112.525 261.224 112.864 261.745 113.467C262.274 114.05 262.538 114.897 262.538 115.975C262.538 116.815 262.396 117.553 262.098 118.163C261.573 119.272 260.648 120.141 259.509 120.596C258.838 120.833 257.883 121.043 256.629 121.247C256.019 121.348 255.43 121.43 254.854 121.531V126.668C253.925 126.817 252.99 126.953 252.089 127.081L252.096 127.088ZM254.854 115.331V119.214L256.365 118.97C257.442 118.807 258.174 118.611 258.513 118.421C258.869 118.241 259.168 117.967 259.38 117.629C259.591 117.291 259.706 116.902 259.712 116.503C259.712 116.002 259.57 115.622 259.272 115.338C258.987 115.066 258.601 114.924 258.174 114.911C257.822 114.897 257.178 114.972 256.195 115.127L254.854 115.331ZM275.692 122.866C274.692 123.084 273.691 123.296 272.69 123.503C272.283 122.555 271.876 121.613 271.504 120.657C269.689 121.011 267.873 121.357 266.055 121.694C265.669 122.812 265.31 123.91 264.917 125.001C263.928 125.184 262.972 125.347 262.01 125.529C262.884 123.097 263.778 120.65 264.653 118.238C265.534 115.805 266.442 113.366 267.336 110.919C268.292 110.743 269.267 110.567 270.25 110.377L272.947 116.632C273.862 118.719 274.757 120.799 275.692 122.866ZM270.63 118.529C270.304 117.757 269.952 116.977 269.667 116.191C269.369 115.399 269.024 114.626 268.739 113.847C268.409 114.742 268.097 115.643 267.804 116.551C267.512 117.452 267.194 118.346 266.909 119.241L270.63 118.529Z" fill="white"/>
</svg>
