<svg width="357" height="63" viewBox="0 0 357 63" fill="none" xmlns="http://www.w3.org/2000/svg">
<path d="M38.374 29.4038C40.2 27.9825 41.6606 26.146 42.6345 24.0468C43.6085 21.9477 44.0677 19.6465 43.974 17.3342C44.016 6.59485 36.12 0 23.968 0H0V60.7818H25.62C31.78 60.7818 36.736 59.1436 40.46 55.9232C42.3094 54.3294 43.7739 52.3375 44.7438 50.0968C45.7136 47.8561 46.1636 45.4249 46.06 42.9855C46.1711 40.2303 45.5104 37.4989 44.1524 35.0991C42.7944 32.6994 40.793 30.7268 38.374 29.4038ZM15.54 13.8898H23.534C24.1794 13.8486 24.8263 13.9426 25.4333 14.1657C26.0404 14.3888 26.5942 14.7362 27.0593 15.1856C27.5244 15.635 27.8907 16.1765 28.1346 16.7755C28.3786 17.3745 28.4948 18.0179 28.476 18.6644C28.5035 19.3138 28.3932 19.9617 28.1524 20.5655C27.9117 21.1692 27.5459 21.7152 27.0791 22.1675C26.6123 22.6198 26.0551 22.9682 25.4441 23.1897C24.8331 23.4113 24.1821 23.501 23.534 23.453H15.54V13.8898ZM25.2 46.8921H15.54V36.6427H25.2C26.559 36.6427 27.8623 37.1826 28.8232 38.1437C29.7842 39.1048 30.324 40.4082 30.324 41.7674C30.324 43.1265 29.7842 44.43 28.8232 45.3911C27.8623 46.3521 26.559 46.8921 25.2 46.8921Z" fill="#FF0025"/>
<path d="M73.542 16.1581C70.4736 16.0539 67.4168 16.586 64.5641 17.721C61.7113 18.8559 59.1244 20.5692 56.966 22.7529C54.8168 24.9092 53.1269 27.4788 51.9984 30.3065C50.8698 33.1342 50.3261 36.1613 50.4 39.2051C50.3039 42.2478 50.8403 45.2774 51.9754 48.1021C53.1104 50.9268 54.8193 53.4851 56.994 55.6152C61.418 59.8157 67.326 62.042 74.704 62.042C82.866 62.042 89.124 59.3537 93.38 53.977L82.95 46.682C80.8164 48.6883 77.982 49.779 75.054 49.7204C70.014 49.7204 66.808 47.9842 65.324 44.4137H95.34C95.7682 42.6544 95.9705 40.8476 95.942 39.037C96.0411 36.0223 95.5305 33.0185 94.4407 30.2059C93.3509 27.3932 91.7045 24.8297 89.6 22.6689C87.5218 20.5284 85.0208 18.8441 82.2562 17.7231C79.4916 16.6022 76.5239 16.0692 73.542 16.1581ZM65.142 34.3604C66.36 30.2859 69.216 28.2837 73.654 28.2837C75.5213 28.1274 77.3813 28.6588 78.8844 29.7778C80.3875 30.8969 81.43 32.5266 81.816 34.3604H65.142Z" fill="#FF0025"/>
<path d="M130.55 31.182V17.3622H121.52V5.20867L107.114 9.54923V17.3622H100.59V31.182H107.114V44.1197C107.114 50.9806 108.85 55.7552 112.322 58.4435C115.794 61.1319 121.861 61.9113 130.522 60.7818V47.7602C124.012 48.1102 121.492 47.5921 121.492 43.7697V31.168L130.55 31.182Z" fill="#FF0025"/>
<path d="M176.834 29.4038C178.66 27.9825 180.121 26.146 181.095 24.0468C182.068 21.9477 182.528 19.6465 182.434 17.3342C182.476 6.59485 174.58 0 162.4 0H138.46V60.7818H164.066C170.24 60.7818 175.182 59.1436 178.92 55.9232C180.767 54.3274 182.23 52.3351 183.199 50.0949C184.169 47.8548 184.621 45.4245 184.52 42.9855C184.631 40.2303 183.97 37.4989 182.612 35.0991C181.254 32.6994 179.253 30.7268 176.834 29.4038ZM154 13.8898H161.98C162.626 13.8487 163.274 13.9427 163.881 14.1657C164.489 14.3887 165.044 14.7358 165.51 15.185C165.976 15.6341 166.344 16.1755 166.589 16.7745C166.835 17.3736 166.953 18.0172 166.936 18.6644C166.964 19.3151 166.853 19.9643 166.611 20.5691C166.37 21.1739 166.003 21.7206 165.534 22.1731C165.066 22.6256 164.507 22.9737 163.894 23.1943C163.282 23.4149 162.629 23.5031 161.98 23.453H154V13.8898ZM163.632 46.8921H154V36.6427H163.632C164.991 36.6427 166.294 37.1826 167.255 38.1437C168.216 39.1048 168.756 40.4082 168.756 41.7674C168.756 43.1265 168.216 44.43 167.255 45.3911C166.294 46.3521 164.991 46.8921 163.632 46.8921Z" fill="#F8E800"/>
<path d="M212.086 16.1581C209.042 16.1094 206.02 16.6758 203.201 17.8235C200.381 18.9711 197.823 20.6764 195.678 22.837C193.482 24.9246 191.745 27.4472 190.578 30.2438C189.412 33.0403 188.841 36.0494 188.902 39.0791C188.841 42.1211 189.412 45.1426 190.578 47.9528C191.744 50.7629 193.481 53.3005 195.678 55.4052C197.827 57.5545 200.388 59.2468 203.208 60.3802C206.028 61.5136 209.048 62.0645 212.086 62C215.126 62.0801 218.151 61.5363 220.973 60.402C223.795 59.2678 226.355 57.5672 228.494 55.4052C230.691 53.3005 232.428 50.7629 233.594 47.9528C234.76 45.1426 235.331 42.1211 235.27 39.0791C235.331 36.0494 234.76 33.0403 233.594 30.2438C232.427 27.4472 230.69 24.9246 228.494 22.837C226.357 20.6665 223.799 18.9547 220.978 17.8064C218.157 16.658 215.131 16.0972 212.086 16.1581ZM212.086 48.1102C210.912 48.1252 209.748 47.8992 208.664 47.4461C207.581 46.9929 206.603 46.3224 205.789 45.4759C204.976 44.6294 204.344 43.6249 203.934 42.5246C203.524 41.4243 203.345 40.2516 203.406 39.0791C203.359 37.9032 203.55 36.7299 203.967 35.6296C204.385 34.5294 205.02 33.5248 205.835 32.6762C206.651 31.8275 207.629 31.1524 208.711 30.6912C209.794 30.23 210.958 29.9922 212.135 29.9922C213.312 29.9922 214.476 30.23 215.559 30.6912C216.641 31.1524 217.62 31.8275 218.435 32.6762C219.25 33.5248 219.885 34.5294 220.303 35.6296C220.72 36.7299 220.911 37.9032 220.864 39.0791C220.93 40.261 220.751 41.4439 220.336 42.5529C219.922 43.6618 219.282 44.6727 218.457 45.5216C217.632 46.3704 216.64 47.0388 215.543 47.4844C214.446 47.93 213.269 48.1431 212.086 48.1102Z" fill="#F8E800"/>
<path d="M262.71 16.1581C259.666 16.1102 256.645 16.677 253.825 17.8246C251.006 18.9722 248.447 20.677 246.302 22.837C244.106 24.9246 242.369 27.4472 241.202 30.2438C240.036 33.0403 239.465 36.0494 239.526 39.0791C239.465 42.1211 240.036 45.1426 241.202 47.9528C242.368 50.7629 244.105 53.3005 246.302 55.4052C248.452 57.5532 251.013 59.2446 253.833 60.3779C256.652 61.5112 259.672 62.0629 262.71 62C265.75 62.0801 268.775 61.5363 271.597 60.402C274.419 59.2678 276.979 57.5672 279.118 55.4052C281.315 53.3005 283.052 50.7629 284.218 47.9528C285.384 45.1426 285.955 42.1211 285.894 39.0791C285.955 36.0494 285.384 33.0403 284.218 30.2438C283.051 27.4472 281.314 24.9246 279.118 22.837C276.981 20.6665 274.423 18.9547 271.602 17.8064C268.781 16.658 265.755 16.0972 262.71 16.1581ZM262.71 48.1102C261.536 48.1252 260.371 47.8992 259.288 47.4461C258.205 46.9929 257.227 46.3224 256.413 45.4759C255.599 44.6294 254.968 43.6249 254.558 42.5246C254.148 41.4243 253.969 40.2516 254.03 39.0791C253.983 37.9032 254.174 36.7299 254.591 35.6296C255.009 34.5294 255.644 33.5248 256.459 32.6762C257.274 31.8275 258.253 31.1524 259.335 30.6912C260.418 30.23 261.582 29.9922 262.759 29.9922C263.936 29.9922 265.1 30.23 266.183 30.6912C267.265 31.1524 268.243 31.8275 269.059 32.6762C269.874 33.5248 270.509 34.5294 270.927 35.6296C271.344 36.7299 271.535 37.9032 271.488 39.0791C271.554 40.261 271.375 41.4439 270.96 42.5529C270.546 43.6618 269.906 44.6727 269.081 45.5216C268.256 46.3704 267.264 47.0388 266.167 47.4844C265.07 47.93 263.893 48.1431 262.71 48.1102Z" fill="#F8E800"/>
<path d="M340.676 16.1581C338.284 16.0359 335.896 16.4794 333.707 17.4525C331.518 18.4255 329.589 19.9009 328.076 21.7588C325.64 18.0203 321.902 16.1581 316.96 16.1581C312.018 16.1581 308 17.8943 305.2 21.4508V17.3622H290.78V60.7678H305.2V37.0768C305.2 32.5682 307.272 29.7818 311.192 29.7818C314.832 29.7818 316.652 31.7841 316.652 35.8586V60.7818H331.072V37.0768C331.072 32.5682 333.158 29.7818 337.064 29.7818C340.62 29.7818 342.44 31.7841 342.44 35.8586V60.7818H357V34.1784C357 23.019 350.742 16.1581 340.676 16.1581Z" fill="#F8E800"/>
</svg>
