<svg width="400" height="53" viewBox="0 0 400 53" fill="none" xmlns="http://www.w3.org/2000/svg">
<path d="M71.9406 0.751953H114.956L112.979 12.5363H84.5486L83.5599 19.3061H100.618L98.6401 31.3412H81.582L80.3459 39.3646H111.743L109.765 51.9011H63.7822L71.9406 0.751953Z" fill="#0092F3"/>
<path d="M136.712 13.5395H118.665L120.643 1.00293H171.323L169.345 13.5395H151.298L145.365 52.1523H131.026L136.712 13.5395Z" fill="#0092F3"/>
<path d="M172.311 29.0849C171.817 12.2859 183.189 0 198.764 0C216.811 0 222.25 12.2859 222.744 18.3034H208.158C207.417 17.0498 204.945 13.2888 199.258 13.2888C191.1 13.2888 186.65 20.3093 186.897 28.3327C187.145 34.8517 190.853 39.8663 197.034 39.8663C202.967 39.8663 205.439 36.356 206.181 35.1024H220.767C219.778 39.6157 213.844 52.9044 197.528 52.9044C182.695 52.9044 172.806 43.126 172.311 29.0849Z" fill="#0092F3"/>
<path d="M233.374 0.751953H247.713L242.769 31.592L269.963 0.751953H284.302L276.391 51.9011H262.052L266.996 21.0612L239.802 52.152H225.464L233.374 0.751953Z" fill="#0092F3"/>
<path d="M307.54 13.5395H289.493L291.471 1.00293H342.151L340.173 13.5395H322.126L316.193 52.1523H301.607L307.54 13.5395Z" fill="#0092F3"/>
<path d="M349.073 0.751953H363.41L358.466 31.5919L385.662 0.751953H400L392.089 51.9011H377.752L382.695 21.0612L355.501 51.9011H341.162L349.073 0.751953Z" fill="#0092F3"/>
<path d="M38.8132 19.8076H25.958L26.9468 13.5393H57.3548L59.3326 0.751953H14.5859L11.6193 19.8076H1.73053L0 31.3412H9.64154L6.4277 51.9011H36.341C50.1855 51.9011 59.5796 45.633 59.0853 33.3471C58.8379 24.8222 51.6686 19.8076 38.8132 19.8076ZM37.5771 39.3646H22.7441L23.9802 31.3412H39.0606C42.0272 31.3412 43.5106 32.3441 43.7576 34.35C44.005 37.6094 41.5328 39.3646 37.5771 39.3646Z" fill="#0092F3"/>
</svg>
