<svg width="400" height="65" viewBox="0 0 400 65" fill="none" xmlns="http://www.w3.org/2000/svg">
<path d="M94.1527 15.8186C94.1527 15.0774 94.7537 14.4739 95.4975 14.4739H126.067C133.324 14.4739 136.555 17.6546 136.555 23.3226C136.555 26.4528 135.014 29.1872 132.33 30.2315V30.3298C136.903 31.5229 138.394 35.7984 138.394 38.4319C138.394 45.3913 134.916 49.9643 124.525 49.9643H95.4975C94.7564 49.9643 94.1527 49.3636 94.1527 48.6195V15.8186ZM107.872 26.3546C107.872 27.0957 108.473 27.6993 109.217 27.6993H118.461C121.294 27.6993 121.94 26.756 121.94 25.3636C121.94 24.0722 121.294 23.1261 118.461 23.1261H109.217C108.476 23.1261 107.872 23.7269 107.872 24.4708V26.3546ZM107.872 39.9759C107.872 40.717 108.473 41.3207 109.217 41.3207H119.854C122.636 41.3207 123.484 40.1273 123.484 38.5385C123.484 36.9971 122.639 35.7536 119.854 35.7536H109.217C108.476 35.7536 107.872 36.3543 107.872 37.0983V39.9759Z" fill="black"/>
<path d="M144.404 14.4766H179.446C180.187 14.4766 180.79 15.0773 180.79 15.8213V21.7841C180.79 22.5252 180.189 23.1288 179.446 23.1288H158.421C157.68 23.1288 157.077 23.7296 157.077 24.4735V26.5594C157.077 27.3006 157.677 27.904 158.421 27.904H177.755C178.497 27.904 179.1 28.505 179.1 29.2488V35.2117C179.1 35.9529 178.5 36.5563 177.755 36.5563H158.421C157.68 36.5563 157.077 37.1572 157.077 37.9011V39.987C157.077 40.7281 157.677 41.3318 158.421 41.3318H179.446C180.187 41.3318 180.79 41.9325 180.79 42.6763V48.6392C180.79 49.3804 180.189 49.984 179.446 49.984H144.404C143.663 49.984 143.059 49.3831 143.059 48.6392V15.8185C143.062 15.0773 143.663 14.4766 144.404 14.4766Z" fill="black"/>
<path d="M270.481 14.4766H305.521C306.262 14.4766 306.866 15.0773 306.866 15.8213V21.7841C306.866 22.5252 306.265 23.1288 305.521 23.1288H284.498C283.757 23.1288 283.153 23.7296 283.153 24.4735V26.5566C283.153 27.2977 283.754 27.9013 284.498 27.9013H303.832C304.573 27.9013 305.177 28.502 305.177 29.2461V35.2061C305.177 35.9472 304.576 36.5506 303.832 36.5506H284.498C283.757 36.5506 283.153 37.1516 283.153 37.8954V39.9787C283.153 40.7198 283.754 41.3232 284.498 41.3232H305.521C306.262 41.3232 306.866 41.9241 306.866 42.668V48.6309C306.866 49.372 306.265 49.9754 305.521 49.9754H270.481C269.74 49.9754 269.135 49.3747 269.135 48.6309V15.8185C269.135 15.0773 269.737 14.4766 270.481 14.4766Z" fill="black"/>
<path d="M312.076 15.8213C312.076 15.0801 312.677 14.4766 313.421 14.4766H341.603C345.631 14.4766 348.067 14.8247 350.003 15.7679C352.637 17.0593 354.825 20.4899 354.825 24.3669C354.825 27.6964 353.432 31.2757 349.358 32.469V32.567C351.447 33.165 353.136 34.9534 353.383 38.0359L353.982 45.7899C354.057 46.5842 354.27 47.3562 354.57 48.0638C354.96 48.962 354.331 49.9644 353.351 49.9644H341.404C340.76 49.9644 340.199 49.5066 340.083 48.8723C339.893 47.8025 339.839 46.1771 339.664 43.2547C339.517 40.6215 338.62 39.0297 336.034 39.0297H327.438C326.697 39.0297 326.093 39.6304 326.093 40.3745V48.6223C326.093 49.3635 325.494 49.9671 324.75 49.9671H313.418C312.677 49.9671 312.073 49.3664 312.073 48.6223V15.8213H312.076ZM326.096 28.7408C326.096 29.4819 326.697 30.0855 327.441 30.0855H336.036C338.773 30.0855 339.914 28.9905 339.914 26.7559C339.914 24.0721 338.174 23.4264 335.838 23.4264H327.438C326.697 23.4264 326.093 24.0272 326.093 24.7711V28.7408H326.096Z" fill="black"/>
<path d="M370.657 39.3272L356.409 16.2705C355.8 15.2851 356.251 14.4766 357.408 14.4766H370.255C370.835 14.4766 371.514 14.9033 371.766 15.4226L377.161 26.5285C377.661 27.556 378.477 27.556 378.976 26.5285L384.371 15.4226C384.624 14.9033 385.303 14.4766 385.88 14.4766H398.727C399.887 14.4766 400.338 15.2851 399.728 16.2705L385.48 39.3272C385.257 39.6838 385.077 40.321 385.077 40.7394V48.6223C385.077 49.3608 384.476 49.9671 383.735 49.9671H372.403C371.664 49.9671 371.058 49.3635 371.058 48.6223V40.7394C371.058 40.321 370.88 39.6838 370.657 39.3272Z" fill="black"/>
<path d="M40.0749 31.2731C40.5972 31.7954 40.5972 32.6514 40.0749 33.1737L9.34567 63.9001C8.39959 64.8463 7.62475 64.5263 7.62475 63.1871V51.312C7.62475 50.5679 7.024 49.9672 6.28004 49.9672H1.34472C0.600775 49.9672 0 49.3665 0 48.6224V15.8214C0 15.0775 0.600775 14.4767 1.34472 14.4767H6.28004C7.024 14.4767 7.62475 13.876 7.62475 13.132V1.25691C7.62475 -0.0821913 8.39959 -0.402231 9.34567 0.543845L40.0749 31.2731ZM80.6412 14.4767H75.7059C74.9618 14.4767 74.3611 13.876 74.3611 13.132V1.25691C74.3611 -0.0821913 73.5861 -0.402231 72.6401 0.543845L41.9138 31.2731C41.3915 31.7954 41.3915 32.6514 41.9138 33.1737L72.6431 63.903C73.5891 64.849 74.3638 64.5289 74.3638 63.1898V51.312C74.3638 50.5679 74.9647 49.9672 75.7086 49.9672H80.6439C81.3879 49.9672 81.9886 49.3665 81.9886 48.6224V15.8214C81.986 15.0775 81.385 14.4767 80.6412 14.4767Z" fill="black"/>
<path d="M222.042 14.4739L185.892 14.4767C185.148 14.4767 184.547 15.0774 184.547 15.8214V22.079C184.547 22.8229 185.148 23.4237 185.892 23.4237H195.617C196.36 23.4237 196.961 24.0245 196.961 24.7684V48.6196V48.6225C196.961 49.3663 197.562 49.9673 198.306 49.9673H209.634C210.378 49.9673 210.978 49.3663 210.978 48.6225V48.6196V24.7684C210.978 24.0245 211.579 23.4237 212.323 23.4237V23.4209H212.326H222.045C222.789 23.4209 223.392 22.8173 223.392 22.0734V15.8186C223.387 15.0774 222.783 14.4739 222.042 14.4739Z" fill="black"/>
<path d="M264.276 14.4739L228.125 14.4767C227.381 14.4767 226.781 15.0774 226.781 15.8214V22.079C226.781 22.8229 227.381 23.4237 228.125 23.4237H237.85C238.594 23.4237 239.195 24.0245 239.195 24.7684V48.6196V48.6225C239.195 49.3663 239.796 49.9673 240.539 49.9673H251.867C252.611 49.9673 253.212 49.3663 253.212 48.6225V48.6196V24.7684C253.212 24.0245 253.812 23.4237 254.557 23.4237V23.4209H254.559H264.278C265.022 23.4209 265.626 22.8173 265.626 22.0734V15.8186C265.623 15.0774 265.019 14.4739 264.276 14.4739Z" fill="black"/>
</svg>
