<svg width="370" height="124" viewBox="0 0 370 124" fill="none" xmlns="http://www.w3.org/2000/svg">
<path d="M244.168 41.3456L224.565 121.033H256.369L276.758 38.0081L244.168 41.3456Z" fill="black"/>
<path d="M349.012 37.8451C339.532 36.9153 324.741 39.8366 317.432 45.4086C317.264 42.3596 316.705 39.9636 316.054 37.5112L287.903 40.9597C289.022 48.8211 287.919 57.5448 285.155 69.2833L272.541 121.033H304.346L317.365 68.2334C320.552 63.6532 325.618 60.5906 329.9 60.5906C335.198 60.5906 336.493 64.4727 334.849 70.8412L322.627 121.033H354.433L368.081 66.5212C371.335 51.7449 366.539 39.5659 349.012 37.8451Z" fill="black"/>
<path d="M281.976 15.5116C281.976 6.96383 274.512 0 264.966 0C255.244 0 247.258 6.96321 247.258 15.5116C247.258 24.0575 255.071 31.0263 264.444 31.0263C274.163 31.0269 281.976 24.0581 281.976 15.5116Z" fill="#FFD300"/>
<path fill-rule="evenodd" clip-rule="evenodd" d="M205.702 38.8666L195.647 62.1175C191.927 70.8524 188.665 79.0774 185.801 87.1463L185.41 38.8666H156.709L132.933 87.5514L135.505 37.7534L103.885 41.6968L110.281 121.033H138.249C138.249 121.033 159.464 78.2269 161.364 73.2713L161.647 121.033H190.343L237.692 38.8666H205.702Z" fill="black"/>
<path fill-rule="evenodd" clip-rule="evenodd" d="M69.6432 36.7962C61.3854 36.7962 55.2027 38.9612 51.5616 40.9905C56.7625 24.8632 57.9227 9.97721 57.9227 9.97721L57.9208 9.97907C58.1438 7.5626 58.1952 4.68837 58.1302 2.79224L24.8002 6.84528C25.175 12.193 24.3901 20.6466 20.106 38.7084L4.02021 105.271C3.28989 108.456 1.46252 114.507 0 116.735C10.0536 120.08 21.5698 123.105 40.5781 123.105C50.9991 123.105 59.2241 121.193 67.6331 116.256C82.0737 107.818 90.9888 92.6233 94.6776 77.8811C101.576 50.3218 90.2981 36.7962 69.6432 36.7962ZM61.2355 79.3157C57.5789 94.6012 52.8252 101.448 44.7836 101.448C41.4937 101.448 38.7514 100.65 37.2907 99.5369L46.0627 63.0719C47.7086 61.6391 50.6336 59.0907 55.3873 59.0907C62.5153 59.0901 65.073 63.0713 61.2355 79.3157Z" fill="black"/>
</svg>
