<svg width="390" height="72" viewBox="0 0 390 72" fill="none" xmlns="http://www.w3.org/2000/svg">
<path d="M17.9634 69.5668C17.6743 69.8326 16.9726 69.9629 15.8502 69.9629H1.88087C0.374129 69.9629 -0.232394 69.3053 0.0795502 67.9922L11.3637 19.7783C11.9187 17.4159 12.7862 15.1045 13.9756 12.8384C15.1595 10.5781 16.6889 8.57867 18.5754 6.83972C20.4565 5.10038 22.7336 3.70113 25.4127 2.65337C28.081 1.60472 31.1569 1.0778 34.6297 1.0778H64.5514C65.3387 1.0778 65.8203 1.19721 65.9962 1.42993C66.166 1.65619 66.1265 2.32458 65.866 3.44065L63.266 14.5605C63.0615 15.4161 62.801 15.9879 62.4668 16.2825C62.1327 16.5772 61.6057 16.7247 60.8864 16.7247H36.584C35.2694 16.7247 34.1767 16.9058 33.3097 17.2684C32.4318 17.6253 31.7351 18.0674 31.2252 18.5944C30.7092 19.1206 30.3018 19.7099 30.0185 20.3674C29.7353 21.024 29.5145 21.6815 29.3615 22.3331L27.9389 28.4337H53.8168C54.604 28.4337 55.0804 28.5699 55.2497 28.8249C55.4201 29.0912 55.3685 29.7824 55.1081 30.8925L52.7121 41.1285C52.3606 42.6363 51.5619 43.3953 50.3157 43.3953H24.4383L18.6774 67.9922C18.4902 68.7795 18.2526 69.3053 17.9634 69.5668Z" fill="black"/>
<path d="M105.333 35.5191C105.871 32.9642 106.228 30.5172 106.409 28.1885C106.597 25.8604 106.46 23.8438 106.008 22.1331C105.554 20.4278 104.687 19.0741 103.418 18.0546C102.149 17.0401 100.365 16.5247 98.0715 16.5247C96.1677 16.5247 94.3766 17.0177 92.706 18.0031C91.0353 18.9889 89.5396 20.3204 88.2303 21.9915C86.9171 23.6625 85.7775 25.6168 84.7975 27.8434C83.8122 30.0751 83.0363 32.4037 82.4699 34.8333C81.7673 37.8531 81.3256 40.5724 81.1498 42.9961C80.9795 45.4273 81.1498 47.4771 81.6821 49.1483C82.203 50.8258 83.1156 52.1166 84.4068 53.0356C85.704 53.959 87.4659 54.4165 89.6981 54.4165C91.8618 54.4165 93.7821 53.907 95.4642 52.8881C97.1475 51.873 98.614 50.4964 99.8715 48.7576C101.135 47.0182 102.211 45.002 103.106 42.708C104.007 40.408 104.75 38.0175 105.333 35.5191ZM124.945 35.4225C123.653 40.9344 121.896 45.8852 119.688 50.2811C117.479 54.678 114.754 58.4227 111.508 61.4984C108.261 64.5797 104.438 66.9474 100.059 68.5848C95.6695 70.2213 90.6893 71.0437 85.1149 71.0437C79.8015 71.0437 75.3716 70.2386 71.8477 68.6359C68.3242 67.0266 65.6728 64.698 63.8943 61.6504C62.1153 58.5979 61.13 54.8695 60.9488 50.4743C60.7615 46.0838 61.3111 41.1334 62.603 35.6151C63.8607 30.2394 65.6847 25.3505 68.0584 20.9606C70.4316 16.5642 73.2757 12.8026 76.595 9.68724C79.915 6.57135 83.7102 4.17542 87.9704 2.50377C92.2306 0.833267 96.9206 -0.000137329 102.036 -0.000137329C107.355 -0.000137329 111.769 0.833267 115.275 2.50377C118.787 4.17542 121.478 6.55399 123.353 9.63579C125.217 12.7234 126.264 16.4509 126.491 20.8076C126.712 25.1752 126.202 30.0408 124.945 35.4225Z" fill="black"/>
<path d="M239.623 47.5276C240.069 45.6247 239.86 44.0665 239.005 42.8544C238.15 41.6428 236.643 41.0299 234.49 41.0299H222.946L219.926 53.9233H231.47C232.779 53.9233 233.901 53.7251 234.847 53.334C235.782 52.9379 236.586 52.4106 237.266 51.7594C237.941 51.1024 238.455 50.4162 238.829 49.6923C239.185 48.9669 239.458 48.2474 239.623 47.5276ZM226.349 26.4713H236.62C237.917 26.4713 239.21 26.1376 240.472 25.4855C241.724 24.8284 242.58 23.5485 243.026 21.6452C243.379 20.1381 243.202 18.9883 242.512 18.201C241.814 17.4128 240.715 17.0225 239.221 17.0225H228.565L226.349 26.4713ZM252.226 32.3744C253.875 33.1562 255.207 34.1588 256.197 35.3709C257.189 36.5885 257.925 37.9313 258.407 39.4098C258.877 40.8828 259.104 42.4301 259.086 44.0328C259.076 45.6421 258.888 47.2274 258.514 48.802C257.778 51.9526 256.498 54.8244 254.68 57.4189C252.861 60.0075 250.647 62.239 248.041 64.1097C245.446 65.9783 242.562 67.4231 239.407 68.4367C236.246 69.4566 232.961 69.9607 229.551 69.9607H203.968C201.277 69.9607 199.657 69.4566 199.107 68.4367C198.563 67.4231 198.557 65.7635 199.09 63.4679L212.176 7.57347C212.68 5.40963 213.455 3.78907 214.499 2.70772C215.536 1.6194 217.405 1.07626 220.09 1.07626H245.678C248.624 1.07626 251.31 1.41 253.71 2.061C256.119 2.71861 258.101 3.7717 259.664 5.21113C261.228 6.66083 262.309 8.49688 262.905 10.7229C263.495 12.9551 263.426 15.6461 262.683 18.7903C262.09 21.3506 260.821 23.8258 258.877 26.2223C256.946 28.6187 254.77 30.471 252.369 31.7851L252.226 32.3744Z" fill="black"/>
<path d="M310.967 69.9629H280.558C276.615 69.9629 273.555 69.4024 271.358 68.2918C269.161 67.1702 267.562 65.7195 266.577 63.9122C265.585 62.105 265.093 60.0883 265.088 57.8568C265.082 55.6246 265.343 53.4263 265.846 51.2625L273.217 19.7777C273.771 17.4149 274.638 15.1042 275.827 12.8384C277.012 10.5781 278.547 8.57817 280.427 6.83883C282.309 5.09988 284.59 3.70063 287.265 2.65237C289.933 1.60423 293.009 1.07731 296.488 1.07731H325.515C326.308 1.07731 326.783 1.19621 326.958 1.42892C327.141 1.65569 327.089 2.32952 326.835 3.43964L324.241 14.5655C324.037 15.4156 323.764 15.9879 323.429 16.2821C323.101 16.5767 322.574 16.7237 321.855 16.7237H298.436C297.121 16.7237 296.022 16.9055 295.162 17.2679C294.283 17.6248 293.593 18.0671 293.078 18.5993C292.557 19.1201 292.159 19.7094 291.871 20.3669C291.587 21.0235 291.372 21.6805 291.213 22.3326L290.244 26.4675H316.626C317.414 26.4675 317.889 26.6036 318.06 26.8587C318.224 27.1251 318.178 27.8163 317.913 28.9318L315.521 39.1628C315.165 40.669 314.366 41.4231 313.119 41.4231H286.744L285.021 48.8047C284.727 50.0559 284.641 51.0422 284.773 51.7616C284.897 52.4811 285.175 53.0193 285.622 53.3817C286.065 53.7382 286.636 53.9708 287.328 54.0724C288.029 54.1695 288.806 54.2136 289.657 54.2136H314.654C315.441 54.2136 315.918 54.3339 316.099 54.5656C316.275 54.7918 316.235 55.4662 315.975 56.5768L313.369 67.7026C313.018 69.2087 312.208 69.9629 310.967 69.9629Z" fill="black"/>
<path d="M384.624 16.7258H367.8L355.818 67.8972C355.637 68.6845 355.393 69.2277 355.098 69.5223C354.788 69.8168 354.085 69.9639 352.97 69.9639H338.994C337.487 69.9639 336.897 69.2732 337.227 67.8972L349.201 16.7258H332.761C331.385 16.7258 330.87 15.9726 331.226 14.4655L333.799 3.44176C334.066 2.32568 334.366 1.6578 334.722 1.42507C335.068 1.19286 335.64 1.07941 336.422 1.07941H388.29C389.071 1.07941 389.587 1.19286 389.825 1.42507C390.069 1.6578 390.057 2.32568 389.796 3.44176L387.219 14.4655C386.862 15.9726 386.001 16.7258 384.624 16.7258Z" fill="black"/>
<path d="M152.659 32.6715L144.247 67.8956C144.066 68.6829 143.821 69.2261 143.521 69.5206C143.215 69.8152 142.513 69.9629 141.398 69.9629H127.428C125.915 69.9629 125.326 69.278 125.655 67.8956L139.749 8.86146C140.485 5.78017 141.483 3.70658 142.756 2.65882C144.015 1.61107 146.031 1.08376 148.784 1.08376H153.9C154.886 1.08376 155.73 1.13485 156.426 1.2308C157.123 1.33284 157.747 1.52551 158.295 1.82604C158.851 2.12062 159.355 2.56224 159.803 3.15153C160.256 3.74613 160.72 4.53341 161.207 5.51373L170.253 26.5706L175.064 38.5736H175.755L184.207 3.15153C184.394 2.36425 184.638 1.82604 184.938 1.52551C185.238 1.2308 185.946 1.08376 187.056 1.08376H201.032C202.538 1.08376 203.134 1.77496 202.799 3.15153L188.71 62.1901C188.178 64.4174 187.278 66.2756 186.008 67.7486C184.739 69.2261 182.626 69.9629 179.675 69.9629H174.559C173.637 69.9629 172.815 69.9183 172.084 69.8152C171.347 69.7202 170.707 69.5206 170.158 69.2261C169.603 68.932 169.082 68.4848 168.606 67.8956C168.124 67.3065 167.671 66.5192 167.246 65.5338L158.307 44.8727L153.349 32.6715H152.659Z" fill="black"/>
</svg>
