<svg width="371" height="71" viewBox="0 0 371 71" fill="none" xmlns="http://www.w3.org/2000/svg">
<g clip-path="url(#clip0)">
<path fill-rule="evenodd" clip-rule="evenodd" d="M177.395 71.0008H154.144L158.172 48.4388H181.423L177.395 71.0008ZM38.0907 27.1658L36.0621 39.2253H49.5252L47.9097 48.2477C47.6566 49.6697 46.6757 54.5806 45.3484 55.6947C44.1564 56.5192 42.7095 56.9141 41.2534 56.8129H34.2712C30.3623 56.8129 26.9393 55.9024 25.0798 51.9474C23.2556 47.7885 24.6554 39.3635 25.3422 35.5109C26.0514 31.5559 27.4102 24.5037 30.582 20.5488C32.1963 18.6006 34.2575 17.0524 36.5987 16.0301C38.9396 15.0079 41.4941 14.5404 44.0546 14.6657H70.4713L79.7505 0.0169575H36.1942C34.2454 0.0169575 24.6777 0.117103 17.2564 4.88226C6.72098 11.5757 3.46173 24.6567 1.45142 35.915C-0.214514 45.2432 -1.78924 58.1238 4.88194 65.0084C8.77783 69.0652 16.0298 70.9934 21.8819 70.9934H55.8652C58.7673 71.0162 61.6065 70.1672 63.9993 68.5608C66.6749 66.5518 68.4513 63.6076 68.9561 60.3452L72.7276 39.2236L72.962 37.8941L74.3413 30.1885L74.8791 27.1658H38.0907ZM116.472 27.1658L114.445 39.2253H127.906L126.296 48.2456C126.043 49.6677 125.062 54.5785 123.735 55.6929C122.543 56.5171 121.096 56.9123 119.64 56.8109H112.652C108.743 56.8109 105.318 55.9006 103.459 51.9456C101.633 47.7868 103.036 39.3617 103.723 35.5088C104.428 31.5541 105.789 24.5019 108.961 20.547C110.575 18.5987 112.637 17.0506 114.978 16.0283C117.319 15.0061 119.873 14.5386 122.434 14.6639H148.852L158.133 0.0151367H114.577C112.626 0.0151367 103.061 0.115283 95.6373 4.88043C85.1 11.5739 81.8426 24.6548 79.8324 35.9132C78.1664 45.2432 76.586 58.1273 83.261 65.0137C87.1568 69.0708 94.4088 70.999 100.263 70.999H134.246C137.148 71.0218 139.988 70.1725 142.38 68.5664C145.055 66.5568 146.831 63.6127 147.337 60.3508L151.11 39.2289L151.345 37.8997L152.722 30.1921L153.26 27.1694H116.472V27.1658Z" fill="#FF7D02"/>
<path fill-rule="evenodd" clip-rule="evenodd" d="M243.788 70.9964C240.81 70.9964 237.869 70.7926 235.496 68.5638C232.704 65.8327 233.206 62.9868 233.806 59.6418L242.493 10.9651C242.867 7.78799 244.491 4.87832 247.022 2.85326C249.673 0.892919 252.935 -0.110596 256.256 0.0127459H302.898L293.621 14.6451H269.76C268.426 14.5964 267.109 14.9498 265.987 15.6575C264.97 16.5411 264.346 17.7775 264.245 19.1043L262.8 27.1615H291.503L289.355 39.221H260.652L258.145 53.258C258.005 53.7076 257.983 54.1845 258.08 54.6451C258.178 55.1055 258.392 55.5344 258.704 55.8927C259.948 56.7195 261.471 57.0455 262.955 56.803H296.274L293.74 70.9929H243.788V70.9964ZM312.086 70.9964L322.16 14.5668H304.823L307.42 0H368.626L359.362 14.5668H345.358L335.286 70.9893H312.086V70.9964ZM227.446 30.938C230.606 28.0342 232.583 24.1081 233.011 19.8873C233.843 15.2204 234.489 8.73096 231.207 4.6723C227.969 0.546253 221.969 0.0400585 216.931 0.00910421H166.839L164.804 11.4331C164.804 11.4458 164.804 11.4568 164.804 11.4713L159.849 39.221H201.697C202.642 39.0796 203.609 39.1935 204.493 39.5502C205.376 39.907 206.144 40.4934 206.711 41.2457C207.162 42.1358 207.302 43.1455 207.112 44.1209C207.112 44.1209 205.855 51.2221 205.852 51.2422C205.541 52.782 204.826 54.2162 203.776 55.4028C203.275 55.9089 201.777 56.8231 197.362 56.8231H190.594L181.659 70.9947H205.113C211.27 70.9947 216.61 70.9947 222.114 66.0276C227.362 61.3606 228.276 55.6797 229.089 51.1185C229.869 46.7573 230.578 42.1962 227.43 38.5545C225.386 36.3934 222.569 35.0852 219.564 34.9018L219.637 34.4977C222.6 34.293 225.383 33.0292 227.455 30.9471L227.446 30.938ZM210.179 19.0151C210.179 19.0642 210.151 19.128 210.14 19.1808L209.652 21.8665L209.587 22.2307C209.576 22.2799 209.567 22.329 209.552 22.38C209.336 23.3979 208.926 24.367 208.344 25.2369C207.588 25.9905 206.661 26.5582 205.638 26.8933C204.615 27.2286 203.525 27.3217 202.458 27.1652H185.207L185.737 24.1936L186.242 21.3803C186.29 21.1018 186.333 20.8341 186.387 20.5646L186.772 18.4142C186.781 17.8346 186.917 17.2635 187.17 16.7392C187.422 16.2148 187.786 15.7492 188.237 15.3734C189.135 14.7246 190.251 14.4336 191.359 14.5595H204.603C206.144 14.5595 208.402 14.5595 209.587 15.9816C210.186 16.8803 210.396 17.9743 210.172 19.0242L210.179 19.0151Z" fill="white"/>
</g>
<defs>
<clipPath id="clip0">
<rect width="371" height="71" fill="white"/>
</clipPath>
</defs>
</svg>
