<svg width="368" height="71" viewBox="0 0 368 71" fill="none" xmlns="http://www.w3.org/2000/svg">
<g clip-path="url(#clip0)">
<path d="M16.6098 1.53858L17.1907 1.18358H34.3668C34.6863 1.16142 35.0056 1.22879 35.2888 1.37809C35.572 1.52739 35.8078 1.75269 35.9696 2.02858C36.1314 2.30447 36.2127 2.61998 36.2045 2.93954C36.1962 3.25911 36.0987 3.57001 35.9228 3.83721L23.6729 49.2476C23.5834 49.4683 23.5475 49.7071 23.5682 49.9443C23.5889 50.1815 23.6656 50.4104 23.7919 50.6124C23.9182 50.8144 24.0907 50.9836 24.2951 51.1064C24.4995 51.2291 24.7301 51.3018 24.9681 51.3185H57.8264C59.0564 51.1232 60.2865 52.6793 59.5159 53.7739L56.9876 63.0926C56.792 64.063 55.6924 64.5807 54.7854 64.3854H1.70409C0.731918 64.4505 -0.305463 63.4802 0.0828135 62.4447L15.5102 4.73358C15.8955 3.69817 15.8065 2.40538 16.6127 1.56817L16.6098 1.53858ZM79.4158 3.73663C79.5003 3.07539 79.8106 2.46342 80.2943 2.00379C80.778 1.54416 81.4056 1.26494 82.0715 1.21317H132.103C134.112 1.21317 134.474 3.80171 133.336 5.0945C130.965 7.81025 128.929 10.8514 127.112 13.9577L126.528 14.2535H98.3406C97.3684 14.0583 96.331 14.6381 96.0732 15.6143L93.871 24.09C93.6131 25.0603 94.7127 26.0957 95.5604 26.1608H120.318C121.548 25.9034 122.977 26.6134 123.104 28.0364L120.511 37.6746C120.315 38.7751 119.02 39.2277 118.051 39.0946C108.981 39.0946 99.8374 39.0295 90.7647 39.1597C90.458 39.3695 90.1557 39.5855 89.8578 39.8076C88.69 43.1712 87.9134 46.665 87.0065 50.0286L88.2365 51.5817H122.707C123.745 51.3865 124.652 52.2326 124.975 53.1349L122.316 62.9684C122.12 63.9387 121.148 64.5215 120.176 64.4564C101.639 64.3913 83.0377 64.5866 64.5012 64.3913C64.2433 64.1339 63.7247 63.5512 63.4638 63.2908L79.4099 3.71L79.4158 3.73663ZM218.899 3.09171C219.014 2.54775 219.318 2.06168 219.756 1.71872C220.195 1.37577 220.74 1.19783 221.297 1.21613L235.296 1.28121L236.333 2.05629L254.155 35.5653L254.807 35.1807L264.132 1.18358L282.153 1.31375C282.348 1.57113 282.805 2.02375 282.994 2.28408L267.048 62.2495C266.853 63.5423 265.626 64.5126 264.328 64.3203C259.985 64.2552 255.643 64.3203 251.301 64.3203C250.068 64.2552 249.487 62.9003 248.968 61.9921L231.336 31.2994L230.624 31.9502L222.068 64.0363L221.291 64.3322C215.328 64.2671 209.302 64.3322 203.338 64.202C203.055 63.8411 202.752 63.4955 202.431 63.1666C209.821 53.7887 213.576 41.4317 211.768 29.5895L218.896 3.06508L218.899 3.09171ZM361.287 1.53858C341.518 1.66875 321.748 1.28121 301.984 1.73383C297.835 2.574 294.272 5.93467 293.428 10.1444L285.389 43.5883C284.678 47.2123 287.849 50.7682 291.545 50.641H348.711C353.702 50.7712 358.433 46.7952 359.34 41.9731L367.342 8.59421C368.122 5.02942 364.921 1.40842 361.287 1.53858ZM326.224 21.0103C326.289 24.5692 323.307 27.282 320.198 28.4505L322.919 37.3137H316.048L313.908 29.2286C312.545 29.2286 311.187 29.1635 309.827 29.2286L307.883 37.3137H301.466L306.845 14.996C311.291 14.996 315.856 14.8659 320.325 15.0611C323.372 15.2564 326.484 17.7148 326.253 21.0133L326.224 21.0103ZM349.363 31.0687C348.261 34.6926 344.502 36.6954 340.937 37.2131C337.309 37.7308 333.29 37.5977 330.178 35.4381C328.233 34.1453 327.196 31.687 327.806 29.4209L331.304 15.1233C333.313 14.6055 335.646 15.0582 337.786 14.928C336.683 19.5844 335.45 24.1787 334.289 28.773C333.992 29.8735 334.093 31.2965 335.195 32.0065C337.851 33.6927 342.196 32.6573 343.198 29.4179C344.493 24.6313 345.569 19.7146 346.826 14.928C348.966 14.8629 351.168 14.928 353.308 14.928L349.39 31.0627L349.363 31.0687ZM318.577 19.8152C316.437 19.4306 314.297 19.685 312.16 19.6199L310.927 24.4716C313.132 24.6017 315.53 24.7674 317.732 24.2763C319.741 23.9805 321.04 20.5252 318.577 19.8388V19.8152ZM163.411 0.307918C166.909 -0.20979 170.539 0.0120848 174.04 0.438085L182.789 16.5462L199.832 19.6525L199.962 19.7175C201.584 23.0812 202.749 26.64 203.267 30.3912L191.471 43.1327L193.415 60.3414C190.887 63.1222 187.712 65.3232 184.405 67.0686L168.331 59.5012L152.127 67.329C148.997 65.6912 146.099 63.6459 143.508 61.2466L145.583 43.1327L132.945 29.8705C133.398 26.4389 134.566 23.1433 136.057 19.972L154.528 16.348L163.411 0.307918Z" fill="black"/>
<path d="M136.128 19.9095C141.084 9.36601 151.748 1.53826 163.349 0.310547L154.534 16.2855C148.506 17.6464 142.284 18.809 136.158 19.9095H136.128ZM174.043 0.372672C185.06 2.14767 195.235 9.42517 199.838 19.587L182.796 16.4808C179.746 11.2416 177.025 5.73909 174.043 0.372672ZM158.097 22.3058C164.514 21.9212 171.124 22.3058 177.606 22.1105L177.991 22.4063L184.02 40.5853C179.028 44.7861 173.326 48.4131 168.074 52.4246L152.128 40.5853L158.097 22.2732V22.3058ZM133.081 29.8081L145.719 43.0703L143.645 61.1842C135.153 53.3564 130.941 41.1267 133.081 29.8111V29.8081ZM191.542 43.0733L203.339 30.3288C205.117 41.0675 201.394 52.7115 193.486 60.2819C193.19 54.525 192.123 48.8331 191.542 43.0733ZM152.133 67.1985L168.337 59.3707L184.411 66.9381C174.624 72.3075 162.051 72.3075 152.104 67.1955L152.133 67.1985Z" fill="#D71015"/>
</g>
<defs>
<clipPath id="clip0">
<rect width="367.529" height="71" fill="white"/>
</clipPath>
</defs>
</svg>
