<svg width="300" height="97" viewBox="0 0 300 97" fill="none" xmlns="http://www.w3.org/2000/svg">
<path d="M146.774 52.6193H138.151C134.71 52.6193 131.911 55.4236 131.911 58.8723V89.8319C131.911 93.4553 134.535 96.085 138.151 96.085H146.774C150.215 96.085 153.014 93.2806 153.014 89.8319V81.659H146.338V88.563C146.338 89.3208 145.723 89.9368 144.967 89.9368H140.172C139.415 89.9368 138.803 89.3208 138.803 88.563V60.0103C138.803 59.2524 139.418 58.6365 140.172 58.6365H144.967C145.723 58.6365 146.338 59.2524 146.338 60.0103V67.3816H153.014V58.8745C153.012 55.4258 150.213 52.6193 146.774 52.6193Z" fill="#007E32"/>
<path d="M175.198 61.2683H155.634V67.3816H162.077V96.0981H168.753V67.3816H175.198V61.2683Z" fill="#007E32"/>
<path d="M67.3733 80.8378H66.7216L66.7173 61.2705H60.0455V96.0981H65.9174L73.2342 77.4328H73.8859V96.0959H80.562V61.2705H74.6117L67.3733 80.8378Z" fill="#007E32"/>
<path d="M38.5635 52.6127L30.4119 96.0893H37.4759L43.06 59.6891H43.7117L49.5422 96.0893H56.6258L48.5395 52.6127H38.5635Z" fill="#007E32"/>
<path d="M181.922 61.2683L174.649 96.0981H181.362L182.19 91.6426H191.124L191.944 96.0981H198.677L191.445 61.2683H181.922ZM183.267 85.8634L186.368 67.3838H186.998L190.063 85.8634H183.267Z" fill="#007E32"/>
<path d="M106.109 61.2683L98.8357 96.0981H105.549L106.377 91.6426H115.311L116.131 96.0981H122.864L115.632 61.2683H106.109ZM107.452 85.8634L110.553 67.3838H111.183L114.248 85.8634H107.452Z" fill="#007E32"/>
<path d="M100.678 61.2683H85.5533V96.0959H92.2294V67.3838H100.678V61.2683Z" fill="#007E32"/>
<path d="M239.234 61.2683H231.856C228.417 61.2683 225.618 64.0727 225.618 67.5214V89.845C225.618 93.2915 228.417 96.0959 231.856 96.0959H239.234C242.674 96.0959 245.472 93.2915 245.472 89.845V67.5214C245.472 64.0727 242.674 61.2683 239.234 61.2683ZM238.798 88.5761C238.798 89.334 238.184 89.9499 237.43 89.9499H233.663C232.907 89.9499 232.292 89.334 232.292 88.5761V68.7882C232.292 68.0303 232.907 67.4144 233.663 67.4144H237.43C238.186 67.4144 238.798 68.0412 238.798 68.8122V88.5761Z" fill="#007E32"/>
<path d="M0 0V96.1003H18.4612V17.5383H281.233V96.1003H299.694V0H0Z" fill="#007E32"/>
<path d="M271.47 61.2683H264.273L258.24 76.0503H257.083V61.2683H250.464V96.0981H257.083V81.8316H258.504L264.633 96.0981H271.841L264.11 78.6319L271.47 61.2683Z" fill="#007E32"/>
<path d="M216.767 79.0796V78.4288H216.76C219.341 77.8915 221.285 75.5873 221.285 72.8353V72.8331V67.4974C221.285 64.0618 218.487 61.2683 215.047 61.2683H202.092V96.0959H215.355C218.796 96.0959 221.595 93.2915 221.595 89.845V84.9221V84.9199C221.597 82.0238 219.513 79.6082 216.767 79.0796ZM208.768 67.3947H213.238C213.995 67.3947 214.609 68.0106 214.609 68.7685V74.6852C214.609 75.4431 213.995 76.059 213.238 76.059H208.768V67.3947ZM214.921 88.5761C214.921 89.334 214.306 89.9499 213.55 89.9499H208.766V81.8381H213.55C214.306 81.8381 214.921 82.4541 214.921 83.2119V88.5761Z" fill="#007E32"/>
</svg>
