<svg width="400" height="57" viewBox="0 0 400 57" fill="none" xmlns="http://www.w3.org/2000/svg">
<path fill-rule="evenodd" clip-rule="evenodd" d="M329.439 18.6917H318.224L312.757 46.7291H300.378L305.832 18.6917H294.86L296.678 9.34588H331.257L329.439 18.6917ZM267.29 18.6917L266.355 23.3646H282.71L280.888 32.7104H264.533L263.626 37.3833H282.243L280.425 46.7291H249.444L256.71 9.34588H287.383L285.561 18.6917H267.29ZM236.743 27.5702C238.218 28.1827 239.497 29.1861 240.444 30.472C241.332 31.7631 241.789 33.3025 241.748 34.8692C241.748 38.8101 240.123 41.7696 236.874 43.7478C233.625 45.7259 229.444 46.7197 224.332 46.7291H202.804L210.28 9.43934H230.042C234.403 9.43934 237.724 10.2182 240.005 11.7758C241.096 12.4814 241.985 13.4593 242.583 14.6131C243.181 15.7669 243.468 17.0567 243.416 18.3552C243.439 20.3251 242.817 22.2483 241.645 23.8319C240.38 25.4988 238.685 26.7909 236.743 27.5702ZM216.869 37.3833H224.346C225.006 37.3603 225.64 37.1182 226.148 36.6951C226.655 36.2721 227.008 35.6922 227.15 35.0468C227.222 34.7657 227.229 34.4715 227.168 34.1875C227.107 33.9036 226.981 33.6377 226.8 33.4109C226.618 33.1842 226.386 33.0028 226.123 32.8812C225.859 32.7596 225.571 32.7011 225.28 32.7104H217.757L216.869 37.3833ZM227.042 18.6917H220.5L219.593 23.3646H226.135C226.796 23.3416 227.43 23.0995 227.937 22.6765C228.445 22.2534 228.798 21.6735 228.939 21.0281C229.013 20.7446 229.019 20.4478 228.956 20.1616C228.894 19.8754 228.766 19.6079 228.581 19.3805C228.396 19.1532 228.161 18.9724 227.894 18.8527C227.626 18.7331 227.335 18.6779 227.042 18.6917ZM187.85 18.6917L182.383 46.7291H170.005L175.458 18.6917H164.486L166.304 9.34588H200.883L199.065 18.6917H187.85ZM147.505 18.8692C145.74 18.4065 143.923 18.174 142.098 18.1777C140.36 18.1777 139.011 18.4253 138.051 18.9206C137.092 19.416 136.612 20.0016 136.612 20.6777C136.612 21.3568 137.047 21.8895 137.916 22.2758C139.306 22.8275 140.741 23.2559 142.206 23.5562C144.277 24.022 146.314 24.6277 148.304 25.3692C149.953 26.0035 151.424 27.0262 152.593 28.3506C153.799 29.6995 154.403 31.4752 154.407 33.6777C154.454 36.2952 153.649 38.857 152.112 40.9767C150.434 43.1854 148.167 44.875 145.57 45.8506C142.375 47.0675 138.974 47.6546 135.556 47.5795C132.49 47.5989 129.432 47.2506 126.449 46.5421C123.977 45.9973 121.604 45.072 119.416 43.7992L124.262 34.5281C128.07 36.7824 132.411 37.9779 136.836 37.9907C138.088 38.0522 139.339 37.8533 140.509 37.4066C141.366 37.0141 141.793 36.4814 141.79 35.8085C141.787 35.1356 141.35 34.62 140.481 34.2618C139.143 33.725 137.763 33.2983 136.355 32.9861C134.257 32.4687 132.194 31.8194 130.178 31.0421C128.531 30.377 127.062 29.337 125.888 28.0048C124.664 26.634 124.051 24.8319 124.051 22.5982C123.999 19.9604 124.791 17.3749 126.313 15.2197C127.976 12.9893 130.248 11.287 132.855 10.3178C135.693 9.16519 139.048 8.58887 142.921 8.58887C145.527 8.57194 148.128 8.84781 150.673 9.4113C152.851 9.87798 154.945 10.6787 156.878 11.7851L152.35 20.944C150.846 20.005 149.205 19.3051 147.486 18.8692H147.505ZM33.6449 46.7291L36.9673 29.6216L24.6355 46.7291H20.9252L15.6168 29.9347L12.3458 46.7291H0L7.25701 9.34588H19.8318L26.1075 29.201L40.4159 9.34588H53.271L46.0047 46.7291H33.6449Z" fill="white"/>
<path d="M86.4392 56.0748C101.924 56.0748 114.477 43.522 114.477 28.0374C114.477 12.5528 101.924 0 86.4392 0C70.9546 0 58.4019 12.5528 58.4019 28.0374C58.4019 43.522 70.9546 56.0748 86.4392 56.0748Z" fill="#FB4D00"/>
<path fill-rule="evenodd" clip-rule="evenodd" d="M392.724 46.7289H333.177L340.458 9.3457H400L392.724 46.7289Z" fill="#FB4D00"/>
<path d="M361.958 20.3131C360.597 19.2321 358.692 18.6917 356.243 18.6917H347.878L344.14 37.3365H350.43L351.364 32.6636H352.911L355.547 37.3365H362.089L358.972 31.9019C360.47 31.3858 361.775 30.4238 362.71 29.1449C363.594 27.8812 364.052 26.3689 364.019 24.8272C364.059 23.9651 363.893 23.1058 363.535 22.3207C363.176 21.5357 362.636 20.8474 361.958 20.3131ZM356.911 27.2664C356.343 27.7301 355.62 27.9621 354.888 27.9159H352.304L353.182 23.5515H355.285C356.846 23.5515 357.621 24.1823 357.621 25.4206C357.645 25.7615 357.594 26.1035 357.471 26.4224C357.348 26.7413 357.157 27.0294 356.911 27.2664ZM382.748 18.6917L380.724 28.8412C380.441 30.2244 380.04 31.2103 379.523 31.7991C379.254 32.1021 378.92 32.3411 378.547 32.4987C378.173 32.6564 377.769 32.7287 377.364 32.7103C376.685 32.7581 376.015 32.5384 375.495 32.0982C375.267 31.8467 375.093 31.5511 374.984 31.2295C374.874 30.908 374.832 30.5675 374.86 30.229C374.864 29.7714 374.918 29.3156 375.019 28.8692L377.047 18.6917H370.762L368.692 28.972C368.558 29.6195 368.486 30.2782 368.477 30.9393C368.446 32.2162 368.783 33.475 369.449 34.5655C370.127 35.6195 371.103 36.4489 372.252 36.9487C373.617 37.537 375.094 37.8224 376.579 37.7851C379.421 37.7851 381.693 37.067 383.397 35.6309C385.101 34.1948 386.238 32.0639 386.808 29.2384L388.925 18.6917H382.748Z" fill="white"/>
<path d="M86.9158 37.2897L99.6915 44.9206L96.3177 30.5234L107.607 20.8318L92.7336 19.5748L86.9158 6L81.1027 19.5794L66.2289 20.8551L77.5046 30.5327L74.1167 44.9346L86.9158 37.2897Z" fill="white"/>
</svg>
