<svg width="382" height="67" viewBox="0 0 382 67" fill="none" xmlns="http://www.w3.org/2000/svg">
<path d="M244.439 46.4011C243.364 52.1032 240.354 56.95 235.553 60.9415C230.751 64.933 225.448 67 219.715 67H177.865L190.979 0H232.829C238.562 0 243.005 1.99574 246.302 6.05851C249.527 10.05 250.602 14.8968 249.527 20.5989C248.738 24.6617 246.015 29.0096 241.429 33.5C244.224 38.0617 245.299 42.3383 244.439 46.4011ZM229.103 46.4011C229.39 44.9043 229.103 43.6926 228.315 42.6947C227.455 41.6968 226.308 41.1979 224.875 41.1979H206.816L210.041 25.8734H227.813C229.318 25.8734 230.608 25.3745 231.898 24.3766C233.116 23.3787 233.904 22.0957 234.191 20.6702C234.478 19.1734 234.191 17.9617 233.403 16.9638C232.543 15.966 231.396 15.467 229.963 15.467H203.52L196.425 51.8181H222.868C224.373 51.8181 225.663 51.3191 226.953 50.3213C228.028 49.1096 228.816 47.8979 229.103 46.4011Z" fill="#FFBC00"/>
<path d="M302.055 67H244.295L257.409 0H315.169L312.159 15.3245H269.807L267.729 25.8734H300.478L297.468 41.1979H264.719L262.641 51.7468H304.993L302.055 67Z" fill="#FFBC00"/>
<path d="M378.518 15.3245H354.941L344.837 67H329.429L339.534 15.3245H315.957L318.967 0H381.528L378.518 15.3245Z" fill="#FFBC00"/>
<path d="M72.1635 67H56.7562L62.7041 36.6362L40.9189 67H31.2446L21.3552 36.6362L15.4073 67H0L13.1141 0H28.5214L41.1339 41.1979L69.8703 0H85.2776L72.1635 67Z" fill="white"/>
<path d="M133.793 67H76.0332L89.1473 0H146.907L143.897 15.3245H101.545L99.4666 25.8734H132.216L129.206 41.1979H96.4568L94.3786 51.7468H136.731L133.793 67Z" fill="white"/>
<path d="M186.822 67H137.591L150.705 0H166.112L156.008 51.6755H189.761L186.822 67Z" fill="white"/>
</svg>
