<svg width="380" height="74" viewBox="0 0 380 74" fill="none" xmlns="http://www.w3.org/2000/svg">
<path fill-rule="evenodd" clip-rule="evenodd" d="M127.782 37.1244C127.782 49.3751 119.31 57.9034 107.174 57.9034C96.5876 57.9034 86.6858 51.0353 86.6858 37.1244C86.6858 23.273 96.9301 16.2896 107.349 16.2896C117.594 16.2896 127.782 23.273 127.782 37.1244ZM117.307 37.1244C117.307 29.9697 112.326 26.251 107.349 26.251C102.138 26.251 97.1572 29.7985 97.1572 37.1244C97.1572 44.279 102.082 48.0015 107.234 48.0015C112.215 48.0015 117.307 44.279 117.307 37.1244ZM144.95 47.7149H159.435V57.103H134.475V17.0341H144.95V47.7149ZM181.602 47.7707H186.694V57.1589H166.035V47.7707H171.127V26.478H166.492V17.0899H186.237V26.478H181.602V47.7707ZM229.771 16.9782H233.494V57.1589H223.019V38.6692L214.49 47.5995H213.288L204.76 38.6692V57.1589H194.285V16.9782H198.003L213.917 34.3213L229.771 16.9782ZM273.09 32.0878C273.09 39.4137 268.225 46.7433 258.721 46.7433H251.511V57.103H241.035V17.0341C246.988 17.0341 252.769 16.9782 258.721 17.0341C268.34 17.0341 273.261 24.5312 273.09 32.0878ZM263.073 31.8012C263.073 28.9386 261.584 26.1356 258.721 26.1356H251.339V37.6418H258.721C261.472 37.6418 263.073 34.7196 263.073 31.8012ZM311.435 44.7369C311.435 51.6086 306.972 56.9318 298.73 56.9318H279.44V16.9187H297.126C304.567 16.9187 309.775 21.784 309.775 29.2252C309.775 31.6895 308.461 34.5484 306.455 36.1528C309.719 37.813 311.435 41.0739 311.435 44.7369ZM289.916 32.7169H296.382C298.384 32.7169 299.415 31.1721 299.475 29.5714C299.531 27.7958 298.5 26.0202 296.382 26.0202H289.916V32.7169ZM301.076 44.7369C301.131 43.5345 300.618 42.2763 299.646 41.5914C299.129 41.3606 298.615 41.1893 297.926 41.1893H289.916V47.8303H297.986C299.989 47.8303 300.904 46.3413 301.076 44.7369ZM328.983 47.5995H344.037V57.1589H318.508V17.0899H343.523V26.1914H328.983V31.9166H342.377V41.0739H328.983V47.5995ZM380 17.0899V26.251H370.214V57.1589H360.081V26.251H350.235V17.0899H380Z" fill="url(#paint0_linear)"/>
<path d="M36.9345 1.86133C17.5626 1.86133 1.86108 17.5628 1.86108 36.931C1.86108 56.3029 17.5626 72.0043 36.9345 72.0043C56.3026 72.0043 72.0041 56.3029 72.0041 36.931C72.0041 17.5628 56.3026 1.86133 36.9345 1.86133Z" fill="#751615"/>
<path fill-rule="evenodd" clip-rule="evenodd" d="M48.8504 18.9064C49.2115 18.9064 49.5502 18.925 49.8704 18.9585C50.0044 19.2228 50.1533 19.4759 50.3208 19.7067C51.1025 20.8123 52.1672 21.5084 53.4886 21.7913C51.4078 21.9365 49.8629 21.2255 48.8504 18.9064ZM40.3259 15.4482C44.2159 14.257 47.6555 14.4394 49.1147 16.5612C49.2189 17.2164 49.3865 17.8306 49.6135 18.389C45.9804 19.5467 42.7157 18.8208 40.3259 15.4482ZM41.3868 10.9067C45.0646 10.903 47.6332 11.8262 49.0291 13.5795C48.9733 14.2123 48.9584 14.8303 48.9919 15.4184C48.802 15.2509 48.6047 15.0871 48.3814 14.9494C47.2349 14.2272 45.664 13.9331 43.8027 14.0709C42.8684 13.3264 42.0606 12.2915 41.3868 10.9067ZM49.9076 12.2022C53.7083 15.0536 55.3946 17.8827 54.1252 20.8644C54.5384 21.2776 54.9739 21.6685 55.3908 22.0035C55.5472 22.5061 55.7184 22.9788 55.9232 23.4218C55.1526 22.7815 54.2555 21.9551 53.4812 21.0952C50.0788 20.2539 49.1296 16.2188 49.9076 12.2022ZM52.2267 22.8262C53.8051 23.124 55.2717 23.6451 56.4443 24.3934C57.0064 25.3091 57.7472 26.1429 58.7746 27.0252C59.0017 27.5761 59.1245 28.1791 59.132 28.8343C59.0128 29.3852 58.957 29.9064 58.9496 30.4052C58.8639 30.2824 58.7746 30.1558 58.6592 30.0292C55.5062 29.9957 52.6548 27.189 52.2267 22.8262ZM55.1265 17.4583C60.0737 19.3084 61.1905 22.6587 60.4721 25.4952C60.07 26.1988 59.7536 26.8651 59.5228 27.4979C59.493 27.2485 59.4819 26.9954 59.493 26.7423C56.5076 24.2966 55.9418 22.4577 55.1265 17.4583ZM62.1546 24.1588C64.2281 28.4993 64.0792 32.5829 61.4064 34.5074C61.0379 33.9081 60.5726 33.3199 60.0142 32.728C59.1729 30.3568 59.5228 27.7622 62.1546 24.1588ZM61.4548 36.0597C60.714 37.7832 60.446 39.5588 60.647 41.4275C57.535 38.952 57.0101 37.3216 56.3624 30.5355C59.1468 32.5047 60.7438 34.2431 61.4548 36.0597ZM62.4971 44.4576C62.1248 44.7889 61.7042 45.0644 61.2761 45.3473C60.889 45.6004 60.4907 45.8647 60.111 46.1811C59.426 46.505 58.7783 46.8772 58.1753 47.2867C59.2325 46.0471 60.4758 43.9588 60.7066 41.8556C60.7959 42.4661 60.9299 43.084 61.116 43.7168C60.9746 44.1375 60.7959 44.5507 60.5986 44.9527C60.6731 44.9118 60.7438 44.8745 60.8182 44.8373C61.1756 44.6549 61.5404 44.4688 61.9499 44.1189C60.822 40.8058 60.7364 36.927 64.4514 32.6685C66.9827 38.3006 64.9874 43.7429 62.4971 44.4576ZM56.0832 48.2322C56.3215 47.8228 56.5448 47.3723 56.7309 46.8921C54.9069 45.3287 54.0917 41.3642 55.9492 37.169C58.4545 41.2004 59.1208 44.2417 57.6057 46.5794C57.4754 47.1118 57.2968 47.6255 57.0846 48.1094C56.7421 48.3923 56.422 48.6938 56.1205 48.9991C56.1205 48.7497 56.1056 48.4928 56.0832 48.2322ZM63.5357 45.7605C60.9188 53.4475 58.9496 55.2752 54.5496 54.4562C54.0396 54.5903 53.5259 54.8434 53.0345 55.2156C52.5431 55.1784 52.0853 55.2119 51.6572 55.3199C52.0183 54.9327 52.3682 54.5233 52.6846 54.1063C51.3892 50.5886 51.6907 47.5696 54.7282 44.707C55.4169 46.5497 55.6812 48.1727 55.5881 49.5686C54.2815 51.0688 53.4998 52.7141 53.4365 54.1696C53.6524 54.0877 53.8795 54.0244 54.1215 53.9872C54.4193 50.9943 58.1418 46.7953 63.5357 45.7605ZM56.381 57.1365C53.6152 60.818 51.0727 61.1307 48.359 58.9568C50.4548 55.9713 52.2081 54.7206 56.381 57.1365ZM51.4785 50.9459C51.1733 52.8891 50.6856 54.6461 50.0156 56.1202C49.2636 56.686 48.575 57.4864 47.8788 58.4654C46.911 57.8251 45.8687 57.4529 44.7929 57.3598C45.7682 54.3371 48.0054 51.9994 51.4785 50.9459ZM49.5502 60.9892C45.9245 62.6457 42.2467 62.2921 40.2217 60.0326C39.5926 60.4234 38.9523 60.9334 38.2897 61.4806C37.9696 61.3094 37.668 61.1381 37.3851 60.9632C37.6457 60.7957 37.8988 60.6282 38.1371 60.4681C39.0379 59.8688 39.8085 59.3625 40.6088 59.1429C43.6836 57.2221 46.978 57.6129 49.5502 60.9892ZM35.7956 62.3368C36.0301 62.5341 36.2721 62.7314 36.5141 62.9287C35.2819 63.8928 33.9344 64.7862 32.4565 65.1584L32.3746 65.1808L30.3198 63.4759L30.7107 63.4312C32.6911 63.193 34.2136 62.6681 35.4643 62.0613C35.576 62.1507 35.6839 62.2437 35.7956 62.3368Z" fill="#FFBE53"/>
<path fill-rule="evenodd" clip-rule="evenodd" d="M11.3722 33.8038C9.54813 31.6782 9.64863 28.0599 11.4727 24.2332C12.3884 25.4914 13.0249 26.6231 13.4344 27.6654C13.2818 29.1246 12.7941 30.2153 12.3474 31.2166C12.1539 31.6484 11.9715 32.0542 11.8188 32.4785C11.6439 32.9513 11.4987 33.3943 11.3722 33.8038ZM24.8364 59.5374C22.1525 61.0115 18.5491 59.9692 17.0787 56.4514C18.5677 55.7255 19.8036 55.4575 20.8682 55.5431L21.0469 55.7702C21.877 56.7976 23.299 58.2531 24.1217 58.9194C24.3897 59.1353 24.6912 59.3773 24.7508 59.4443L24.8364 59.5374ZM20.3657 21.888C21.7356 21.62 22.8412 20.9165 23.6452 19.7811C23.7569 19.6248 23.8611 19.4572 23.9579 19.286C24.7434 19.2153 25.6293 19.2711 26.6121 19.4684C24.8476 22.0183 22.8226 22.5283 20.3657 21.888ZM24.3041 18.5899C24.4753 18.1879 24.6131 17.7598 24.721 17.3056C27.4161 17.2163 29.5156 16.5053 31.1423 15.0721C31.7193 15.1875 32.3075 15.3402 32.9105 15.5226C31.3955 17.6593 29.5342 18.7351 27.4496 18.9435L26.7461 18.8021C25.8229 18.6197 25.0188 18.5601 24.3041 18.5899ZM24.855 16.6244C24.9853 15.8204 25.0225 14.953 24.9667 14.0447C26.4855 12.1388 29.2588 11.0444 33.2344 10.8657C31.4923 14.9121 28.678 16.4644 24.855 16.6244ZM19.8408 20.9388C18.5715 17.9571 20.2578 15.128 24.0584 12.2803C24.8364 16.2968 23.8872 20.3283 20.4848 21.1696C19.7962 21.9327 19.0144 22.6698 18.3109 23.2728C18.2439 23.3026 18.1769 23.3324 18.1173 23.3621C18.2923 22.9564 18.4523 22.5283 18.5901 22.063C19.007 21.7317 19.4351 21.3483 19.8408 20.9388ZM13.9928 26.932C12.5112 23.887 13.0696 19.6918 18.8395 17.5327C18.3444 20.5666 17.9424 22.4352 17.0341 23.9838C16.23 24.5198 15.5748 25.1415 15.1021 25.8451C14.9197 26.1131 14.7671 26.3923 14.6368 26.6826L14.6331 26.6863C14.6703 28.1679 14.1677 29.7872 13.6205 31.466C13.8662 31.1645 14.0859 30.8518 14.298 30.5466C14.4879 30.2674 14.6815 29.9956 14.8862 29.7351C14.3613 25.9046 17.6818 23.6637 21.7393 22.9006C21.3075 27.2931 18.4226 30.1073 15.2398 30.1036C14.8341 30.5205 14.5512 30.9263 14.2757 31.3469C13.9481 31.8457 13.4232 32.4302 13.051 33.2603C12.7569 34.2616 12.5522 35.155 12.407 35.8958C12.1985 35.4454 11.964 34.995 11.6923 34.5483C11.8449 33.9824 12.0459 33.3422 12.3065 32.6274C12.4554 32.218 12.6341 31.8159 12.8276 31.3916C13.3674 30.1855 13.9593 28.8566 13.9928 26.932ZM13.3451 41.1706C13.4865 39.3689 13.1962 37.6528 12.4517 35.9851C13.1292 34.109 14.7373 32.3259 17.6036 30.2972C16.9596 37.0647 16.4347 38.7026 13.3451 41.1706ZM9.51462 32.7466C13.2297 37.0014 13.1441 40.8802 12.0161 44.1932C12.4256 44.5432 12.7904 44.7293 13.1478 44.9154C13.3265 45.0047 13.5089 45.0978 13.695 45.2132C13.3935 44.6511 13.1292 44.0704 12.9319 43.4934C13.1217 42.7973 13.2557 42.1124 13.3265 41.4423C13.4456 42.6931 13.9705 44.0034 14.6256 45.1834C14.7745 45.6599 14.983 46.1252 15.2473 46.5905C14.3985 46.0471 13.4567 45.5929 12.4331 45.2542C12.098 45.0308 11.7705 44.8 11.4727 44.5357C8.98231 43.8247 6.9796 38.3787 9.51462 32.7466ZM17.3356 47.2159C17.5589 47.7445 17.8232 48.2322 18.0987 48.6677C18.0875 48.7794 18.0689 48.891 18.0615 48.999C17.6408 48.5188 17.1718 48.0535 16.6544 47.6217C16.6134 47.51 16.5762 47.3946 16.539 47.2792C14.54 44.7628 14.0188 41.5242 18.0764 36.9679C20.9129 41.2897 19.3457 45.5036 17.3356 47.2159ZM9.89804 45.377C13.5386 45.8125 16.3491 47.7929 18.0391 49.9929C18.095 51.8653 18.7539 53.4474 20.0083 54.6497C19.8557 54.5939 19.6994 54.5455 19.5468 54.5046C14.7931 55.4501 12.6974 53.5777 9.89804 45.377ZM19.7366 45.1537C22.521 47.9418 22.8672 50.797 21.717 54.0318C22.1413 54.6237 22.6327 55.2044 23.1464 55.7516C23.3958 56.5519 23.6973 57.2629 24.0435 57.9069C23.0794 57.0656 21.9068 55.9303 21.0841 54.6684C18.6645 52.8592 17.9089 49.6206 19.7366 45.1537ZM25.5809 58.8859C24.051 57.088 23.1576 54.311 23.0794 50.8714C26.3738 52.0998 28.4324 54.4524 29.2811 57.3932C27.9782 57.4788 26.7275 57.9777 25.5809 58.8859ZM43.6462 63.5502L41.5914 65.2551L41.5058 65.2365C39.451 64.7117 37.5711 63.1929 35.9146 61.849C35.1477 61.2311 34.407 60.6355 33.6922 60.1665C31.6598 62.3739 28.008 62.7052 24.4158 61.0636C27.0811 57.5682 30.5207 57.2704 33.6885 59.4332C34.3772 59.731 35.0361 60.1516 35.7471 60.6132C37.4334 61.7002 39.5328 63.0589 43.2553 63.5056L43.6462 63.5502Z" fill="#FFBE53"/>
<path fill-rule="evenodd" clip-rule="evenodd" d="M73.8654 36.9309C73.8654 57.3302 57.3301 73.8655 36.9345 73.8655C16.5352 73.8655 -0.00012207 57.3302 -0.00012207 36.9309C-0.00012207 16.5353 16.5352 0 36.9345 0C57.3301 0 73.8654 16.5353 73.8654 36.9309ZM69.8712 36.9309C69.8712 18.7428 55.1226 3.99424 36.9345 3.99424C18.7427 3.99424 3.99412 18.7428 3.99412 36.9309C3.99412 55.1227 18.7427 69.8713 36.9345 69.8713C55.1226 69.8713 69.8712 55.1227 69.8712 36.9309Z" fill="#FFBE53"/>
<defs>
<linearGradient id="paint0_linear" x1="233.343" y1="16.2896" x2="233.343" y2="57.9034" gradientUnits="userSpaceOnUse">
<stop stop-color="#BB2125"/>
<stop offset="1" stop-color="#891519"/>
</linearGradient>
</defs>
</svg>
