<svg width="370" height="125" viewBox="0 0 370 125" fill="none" xmlns="http://www.w3.org/2000/svg">
<path d="M0 68.3626L19.5962 0.0699047H259.98L244.037 55.7107C286.011 56.3109 328.023 55.7437 370 55.7107L350.518 124.143C243.707 124.048 136.896 124.143 30.0853 124.143L45.9656 68.3626H0Z" fill="black"/>
<path fill-rule="evenodd" clip-rule="evenodd" d="M121.964 58.5767L126.577 50.3983H147.967V58.5767H162.017V9.78613H134.406L105.677 58.5767H121.964ZM142.165 23.0672H147.967V38.5851H133.288L142.165 23.0672ZM76.0392 58.5767L79.7439 45.5752H97.0094C106.096 45.5752 111.619 41.451 114.135 32.7135L115.533 27.8904C118.748 16.7762 113.506 9.85604 102.042 9.85604H26.9691L12.989 58.5767H76.0392ZM86.2447 22.9973H101.953L99.0365 33.5523H83.239L86.2447 22.9973ZM220.593 27.8204L219.335 32.2242C217.518 38.655 214.023 42.6393 208.71 44.2471L213.114 58.5767H198.085L193.961 45.1558H184.874L181.03 58.5767H166.421L180.401 9.78613H207.103C218.566 9.78613 223.809 16.5665 220.593 27.8204ZM206.963 22.9274H191.235L188.229 33.4824H204.027L206.963 22.9274ZM233.036 58.5767L247.016 9.78613H232.337L218.426 58.5767H233.036ZM126.997 84.999L143.493 65.4968H162.436L148.526 114.357H133.917L141.955 86.397L128.325 102.474H118.888L113.785 87.3756L106.096 114.357H43.0462L56.9564 65.4968H120.216L126.997 84.999ZM182.008 65.4968L153.209 114.287H169.496L174.11 106.109H195.499V114.287H209.549V65.5667L182.008 65.4968ZM180.89 94.3657L189.697 78.8478H195.499V94.3657H180.89ZM262.953 65.4968L258.969 79.4769H245.268L235.272 114.357H220.663L230.659 79.4769H214.582L218.566 65.4968H262.953ZM278.471 79.4769H300.629L304.684 65.5667H281.057C271.97 65.5667 266.448 69.6908 263.932 78.4284L258.759 96.253C255.474 107.647 260.786 114.287 272.25 114.287H290.634L294.618 100.377H272.46L278.471 79.4769ZM337.397 82.9719L342.43 65.4968H357.039L343.129 114.357H328.45L333.413 96.8821H316.706L311.744 114.357H297.134L311.045 65.4968H325.654L320.691 82.9719H337.397Z" fill="#F8FF13"/>
</svg>
