<svg width="380" height="115" viewBox="0 0 380 115" fill="none" xmlns="http://www.w3.org/2000/svg">
<path d="M285.222 49.79C288.934 49.79 291.944 46.8133 291.944 43.1414C291.944 39.4695 288.934 36.4929 285.222 36.4929C281.509 36.4929 278.499 39.4695 278.499 43.1414C278.499 46.8133 281.509 49.79 285.222 49.79Z" fill="#FF2400"/>
<path fill-rule="evenodd" clip-rule="evenodd" d="M0 71.5085H380V93.9772C379.975 99.5485 377.763 104.883 373.848 108.813C369.934 112.742 364.636 114.947 359.113 114.945H20.8796C18.1422 114.953 15.4306 114.417 12.9023 113.367C10.3683 112.315 8.06738 110.772 6.13201 108.827C4.1904 106.876 2.65096 104.563 1.60111 102.018C0.548473 99.4677 0.00456765 96.7362 0 93.9772V71.5085ZM32.4977 103.351C34.1291 103.383 35.7407 102.989 37.1728 102.207C38.5377 101.416 39.6644 100.271 40.4344 98.8942L37.6513 97.1117C37.138 97.9896 36.4208 98.731 35.5604 99.2731C34.6349 99.8209 33.5726 100.094 32.4977 100.06C31.6085 100.072 30.7272 99.8918 29.9135 99.5331C29.163 99.1952 28.493 98.7015 27.9479 98.0848C27.3874 97.4563 26.9547 96.7246 26.6742 95.9306C26.3727 95.0793 26.2207 94.1822 26.225 93.2791C26.2212 92.3711 26.3731 91.4692 26.6742 90.6126C26.9535 89.8168 27.3806 89.0809 27.9331 88.4437C28.4764 87.8155 29.1462 87.3092 29.8988 86.9581C30.7146 86.5881 31.602 86.4029 32.4977 86.4159C33.5239 86.3746 34.5425 86.6095 35.447 87.0961C36.3544 87.5847 37.1153 88.3062 37.6513 89.1864L40.449 87.3517C39.6288 85.9948 38.4558 84.8858 37.055 84.143C35.6427 83.4319 34.0786 83.075 32.4977 83.1031C31.1229 83.096 29.7617 83.3742 28.5 83.9202C27.3238 84.4251 26.2619 85.1629 25.3783 86.0891C24.4983 87.0216 23.8081 88.1165 23.3464 89.3127C22.85 90.5757 22.6001 91.9221 22.6101 93.2791C22.5946 94.647 22.8291 96.0063 23.3022 97.2899C23.7295 98.4842 24.4024 99.5756 25.2775 100.494C26.1497 101.409 27.2051 102.129 28.3749 102.608C29.6855 103.129 31.0875 103.382 32.4977 103.351ZM57.8463 86.8391H63.7877L63.7361 83.519H48.2752V86.8391H54.1651V102.987H57.8463V86.8391ZM83.0254 98.8424L84.6672 102.987H88.5766L79.9995 83.1922H78.3871L69.9057 102.987H73.7268L75.3539 98.8424H83.0254ZM102.035 102.987C104.391 102.987 106.143 102.497 107.336 101.501C107.932 100.996 108.403 100.359 108.713 99.641C109.023 98.9212 109.164 98.1397 109.125 97.3568C109.203 96.2103 108.86 95.0747 108.16 94.1629C107.491 93.353 106.585 92.7737 105.569 92.5065C106.284 92.1387 106.889 91.5876 107.321 90.9095C107.834 89.9223 108.015 88.7961 107.837 87.698C107.66 86.6014 107.133 85.5913 106.335 84.8189C105.022 83.8723 103.421 83.4126 101.807 83.519H96.4322V102.987H102.035ZM121.361 93.4648L129.423 102.987H134.098L125.521 92.9819L133.767 83.519H129.46L121.361 92.7145V83.519H117.68V102.987H121.361V93.4648ZM154.286 102.987H157.783L157.827 83.3408H156.186L145.354 95.7895V83.519H141.858V103.121H143.47L154.286 90.672V102.987ZM193.556 102.987H197.237L197.259 83.519H193.578V91.4147H184.471V83.519H180.79V102.987H184.471V94.7645H193.556V102.987ZM218.271 98.8424L219.899 102.987H223.801L215.223 83.1922H213.611L205.129 102.965H208.951L210.593 98.8424H218.271ZM253.029 103.351C254.664 103.385 256.28 102.991 257.719 102.207H257.734C259.108 101.417 260.242 100.27 261.017 98.8869L258.242 97.1043C257.719 97.9739 256.998 98.7071 256.137 99.2434C255.211 99.7902 254.149 100.063 253.074 100.031C252.184 100.044 251.302 99.8638 250.488 99.5034C249.736 99.1652 249.064 98.6716 248.516 98.0551C247.958 97.4259 247.528 96.6943 247.25 95.9009C246.944 95.0506 246.792 94.1528 246.801 93.2494C246.793 92.3407 246.945 91.4379 247.25 90.5827C247.523 89.786 247.948 89.0496 248.501 88.4138C249.046 87.7837 249.719 87.2773 250.475 86.9284C251.29 86.5569 252.178 86.3717 253.074 86.3862C254.095 86.3568 255.106 86.6003 256.002 87.0918C256.901 87.5857 257.653 88.3082 258.183 89.1864L260.98 87.374C260.162 86.0155 258.988 84.906 257.586 84.1653C256.177 83.4535 254.615 83.0965 253.037 83.1254C251.661 83.1102 250.297 83.3809 249.031 83.9202C247.856 84.427 246.795 85.1646 245.91 86.0891C245.03 87.0215 244.34 88.1164 243.878 89.3127C243.385 90.5766 243.135 91.9223 243.141 93.2791C243.127 94.6463 243.36 96.0048 243.826 97.2899C244.262 98.4766 244.933 99.5631 245.799 100.484C246.676 101.4 247.734 102.123 248.906 102.608C250.217 103.13 251.619 103.383 253.029 103.351ZM281.345 102.987H284.96L284.967 83.519H269.19V102.987H272.87V86.8391H281.345V102.987ZM310.521 100.432C311.412 99.5075 312.108 98.4139 312.568 97.2157H312.582C313.073 95.9438 313.318 94.5903 313.305 93.2271C313.314 91.8747 313.082 90.5316 312.619 89.2607C312.187 88.0637 311.516 86.9669 310.647 86.037C309.769 85.1086 308.705 84.3748 307.525 83.8831C306.225 83.3483 304.83 83.0829 303.424 83.1031C302.064 83.0883 300.715 83.3538 299.463 83.8831C298.289 84.386 297.228 85.1183 296.341 86.037C295.454 86.9673 294.759 88.0625 294.295 89.2607C293.802 90.5249 293.553 91.8705 293.559 93.2271C293.547 94.5868 293.779 95.9376 294.243 97.2157C294.672 98.4124 295.344 99.5074 296.217 100.432C297.097 101.348 298.154 102.076 299.324 102.571C300.621 103.107 302.013 103.373 303.416 103.351C304.779 103.364 306.129 103.099 307.385 102.571C308.561 102.071 309.626 101.344 310.521 100.432ZM327.815 96.3318C330.105 96.3095 331.872 95.7152 333.101 94.5491H333.116C333.747 93.9358 334.237 93.193 334.552 92.3721C334.869 91.5492 335.004 90.6679 334.95 89.788C334.997 88.9323 334.861 88.0762 334.549 87.2788C334.238 86.4826 333.76 85.7626 333.146 85.168C331.939 84.0686 330.179 83.519 327.867 83.519H321.926V103.017H325.606V96.3318H327.815ZM352.193 86.8391H358.134L358.119 83.519H342.657V86.8391H348.548V102.987H352.193V86.8391ZM305.844 87.4845C306.553 87.7843 307.187 88.2373 307.701 88.811C308.223 89.3975 308.629 90.0786 308.895 90.8176C309.453 92.4338 309.453 94.1906 308.895 95.8068C308.629 96.5458 308.223 97.227 307.701 97.8135C307.187 98.3872 306.553 98.8401 305.844 99.14C305.08 99.4638 304.257 99.6253 303.427 99.6141C302.6 99.6273 301.779 99.4657 301.018 99.14C300.315 98.8366 299.686 98.384 299.175 97.8135C298.652 97.2282 298.249 96.5466 297.987 95.8068C297.419 94.1921 297.419 92.4323 297.987 90.8176C298.249 90.0779 298.652 89.3963 299.175 88.811C299.686 88.2404 300.315 87.7878 301.018 87.4845C301.779 87.1586 302.6 86.9971 303.427 87.0104C304.257 86.9992 305.08 87.1606 305.844 87.4845ZM76.6473 95.3564H81.757L79.2167 89.3944L76.6473 95.3564ZM102.567 94.8636H100.152V99.6031H102.413C103.415 99.6709 104.413 99.4428 105.235 98.9584C105.525 98.7501 105.754 98.489 105.906 98.1951C106.058 97.9014 106.128 97.5823 106.111 97.2624C106.127 96.9365 106.059 96.6116 105.913 96.3092C105.767 96.0069 105.547 95.7338 105.266 95.5084C104.5 95.0069 103.532 94.7757 102.567 94.8636ZM212.057 95.3564H216.826L214.456 89.3944L212.057 95.3564ZM104.257 90.1853C104.138 90.4759 103.953 90.7353 103.718 90.9434C103.117 91.4251 102.356 91.6598 101.588 91.5996H100.152V87.0192H101.588C102.346 86.9605 103.1 87.1711 103.718 87.6139C103.954 87.8169 104.14 88.0724 104.259 88.36C104.378 88.6471 104.428 88.9583 104.405 89.2684C104.427 89.5813 104.376 89.8951 104.257 90.1853ZM327.879 87.0201H325.615V93.4717H327.879C328.862 93.5449 329.841 93.2471 330.631 92.633C331.237 91.9975 331.577 91.1397 331.577 90.2459C331.577 89.3521 331.237 88.4943 330.631 87.8589C329.841 87.246 328.862 86.9483 327.879 87.0201Z" fill="#00CFA6"/>
<path d="M73.1338 8.93857C73.1338 11.3093 72.1609 13.5828 70.4291 15.2591C68.6974 16.9354 66.3487 17.8771 63.8997 17.8771C61.4507 17.8771 59.102 16.9354 57.3703 15.2591C55.6385 13.5828 54.6656 11.3093 54.6656 8.93857C54.6656 6.56785 55.6385 4.29435 57.3703 2.61804C59.102 0.941726 61.4507 0 63.8997 0C66.3487 0 68.6974 0.941726 70.4291 2.61804C72.1609 4.29435 73.1338 6.56785 73.1338 8.93857ZM73.1338 23.196H54.6656V66.1897H73.1338V23.196ZM162.815 41.3686V23.196H133.414V41.3686H162.815Z" fill="#FF2400"/>
<path fill-rule="evenodd" clip-rule="evenodd" d="M24.895 49.7747C38.6442 49.7747 49.79 38.632 49.79 24.8873C49.79 11.1426 38.6442 0 24.895 0C11.1459 0 0 11.1426 0 24.8873V66.1897H18.0092V48.8103H18.0094V24.9311L18.0092 24.8873C18.0092 21.0856 21.0921 18.0036 24.895 18.0036C28.698 18.0036 31.7808 21.0856 31.7808 24.8873C31.7808 28.6891 28.698 31.7711 24.895 31.7711C24.3482 31.7711 23.8162 31.7074 23.3062 31.587V49.7249C23.8316 49.758 24.3614 49.7747 24.895 49.7747ZM248.285 49.7747C262.035 49.7747 273.18 38.632 273.18 24.8873C273.18 11.1426 262.035 0 248.285 0C234.536 0 223.39 11.1426 223.39 24.8873V66.1897H241.399V24.8873C241.399 21.0856 244.482 18.0036 248.285 18.0036C252.088 18.0036 255.172 21.0856 255.172 24.8873C255.172 28.6891 252.088 31.7711 248.285 31.7711C247.739 31.7711 247.207 31.7072 246.696 31.5868V49.7247C247.222 49.7578 247.752 49.7747 248.285 49.7747ZM128.095 24.8873V66.1897H110.086V25.4164H110.086C110.086 24.5125 109.907 23.6174 109.561 22.7823C109.215 21.9472 108.708 21.1885 108.069 20.5494C106.777 19.2584 105.026 18.5331 103.2 18.5331C101.374 18.5331 99.6223 19.2584 98.3308 20.5494C97.6914 21.1885 97.1841 21.9474 96.8381 22.7826C96.492 23.6178 96.3139 24.513 96.3139 25.417L96.3142 25.4699V48.8105H96.314V66.1897H78.3048V24.8873C78.3048 11.1425 89.4507 0 103.2 0C116.949 0 128.095 11.1425 128.095 24.8873ZM168.429 41.3024V0H186.438V40.773C186.438 41.6771 186.616 42.5722 186.962 43.4074C187.308 44.2426 187.815 45.0015 188.455 45.6406C189.746 46.9316 191.498 47.6568 193.324 47.6568C195.15 47.6568 196.901 46.9315 198.192 45.6406C198.832 45.0015 199.339 44.2427 199.685 43.4076C200.031 42.5724 200.209 41.6773 200.209 40.7733H200.211V0H218.219V41.3024C218.219 55.0473 207.073 66.1897 193.324 66.1897C179.575 66.1897 168.429 55.0473 168.429 41.3024ZM342.621 31.069V0H356.141V30.6708C356.141 32.044 356.686 33.361 357.655 34.3319C358.135 34.8126 358.704 35.194 359.332 35.4543C359.959 35.7145 360.631 35.8485 361.31 35.8485C362.681 35.8485 363.996 35.3031 364.965 34.3319C365.935 33.3601 366.48 32.0433 366.48 30.6704V0H380V31.069C380 41.4083 371.632 49.79 361.31 49.79C350.989 49.79 342.621 41.4083 342.621 31.069ZM310.467 49.79V10.0639H314.692C316.233 10.0639 317.712 10.6777 318.801 11.7704C319.892 12.8642 320.504 14.3459 320.503 15.8904C320.503 17.4358 319.891 18.9177 318.801 20.0104C313.108 24.6301 313.108 22.659 313.108 29.5091V32.9651L324.407 49.79H339.518L325.59 28.7603C330.699 26.3468 334.236 21.1355 334.236 15.096C334.236 6.75874 327.496 0 319.182 0H297.263V49.79H310.467Z" fill="#FF2400"/>
</svg>
