<svg width="380" height="94" viewBox="0 0 380 94" fill="none" xmlns="http://www.w3.org/2000/svg">
<path fill-rule="evenodd" clip-rule="evenodd" d="M16.8063 73.8401V19.431H40.7032C46.5534 19.431 50.9279 20.6746 53.8269 23.1619C56.7259 25.6492 58.6716 28.3955 59.664 31.401C60.0296 32.4892 60.2908 33.5644 60.4475 34.6267C60.6042 35.689 60.6826 36.6865 60.6826 37.6192C60.6826 38.5519 60.6042 39.5494 60.4475 40.6117C60.2908 41.674 60.0296 42.7492 59.664 43.8374C58.7238 46.8428 56.7912 49.6021 53.8661 52.1153C50.941 54.6285 46.5534 55.8851 40.7032 55.8851H32.9465V73.8401H16.8063ZM32.9465 31.401V43.9151H36.5506C38.7967 43.9151 40.442 43.5524 41.4867 42.8269C42.5314 42.1015 43.2365 41.3242 43.6022 40.4951C43.8111 39.9251 43.9417 39.381 43.9939 38.8628C44.0461 38.3446 44.0723 37.9301 44.0723 37.6192C44.0723 37.3083 44.0592 36.9974 44.0331 36.6865C44.007 36.3756 43.9678 36.0646 43.9156 35.7537C43.6544 34.6656 43.0015 33.6681 41.9568 32.7612C40.9121 31.8544 39.1101 31.401 36.5506 31.401H32.9465ZM94.8434 75.3947C85.2323 75.3947 77.9197 72.5188 72.9052 66.7669C67.8908 61.0151 65.3836 54.3047 65.3836 46.6356C65.3836 39.0182 67.8516 32.3208 72.7877 26.5431C77.7238 20.7653 85.0756 17.8765 94.8434 17.8765H95.6269C105.395 17.8765 112.746 20.7653 117.683 26.5431C122.619 32.3208 125.087 39.0182 125.087 46.6356C125.087 54.3047 122.619 60.9892 117.683 66.6892C112.746 72.3892 105.395 75.2651 95.6269 75.3169L94.8434 75.3947ZM95.1568 62.3365C95.6791 62.3365 96.2276 62.2976 96.8022 62.2199C97.3767 62.1421 97.9513 61.9996 98.5259 61.7924C101.033 61.1187 103.318 59.6031 105.382 57.2453C107.445 54.8876 108.476 51.351 108.476 46.6356C108.476 41.9201 107.432 38.3835 105.342 36.0258C103.253 33.668 100.981 32.1524 98.5259 31.4787C97.9513 31.3233 97.3898 31.1937 96.8413 31.0901C96.2929 30.9865 95.7575 30.9346 95.2351 30.9346C94.6606 30.9346 94.0599 30.9865 93.4331 31.0901C92.8063 31.1937 92.2056 31.3492 91.631 31.5565C89.2283 32.2819 87.0214 33.8235 85.0104 36.1812C82.9994 38.539 81.9939 42.0237 81.9939 46.6356C81.9939 51.2474 82.9994 54.7321 85.0104 57.0899C87.0214 59.4476 89.2283 60.9892 91.631 61.7146C92.2056 61.9219 92.7932 62.0774 93.3939 62.181C93.9946 62.2846 94.5822 62.3365 95.1568 62.3365ZM159.561 75.3947C149.95 75.3947 142.637 72.5188 137.623 66.7669C132.608 61.0151 130.101 54.3047 130.101 46.6356C130.101 39.0182 132.569 32.3208 137.505 26.5431C142.441 20.7653 149.793 17.8765 159.561 17.8765H160.344C170.112 17.8765 177.464 20.7653 182.4 26.5431C187.336 32.3208 189.804 39.0182 189.804 46.6356C189.804 54.3047 187.336 60.9892 182.4 66.6892C177.464 72.3892 170.112 75.2651 160.344 75.3169L159.561 75.3947ZM159.874 62.3365C160.397 62.3365 160.945 62.2976 161.52 62.2199C162.094 62.1421 162.669 61.9996 163.243 61.7924C165.751 61.1187 168.036 59.6031 170.099 57.2453C172.162 54.8876 173.194 51.351 173.194 46.6356C173.194 41.9201 172.149 38.3835 170.06 36.0258C167.971 33.668 165.698 32.1524 163.243 31.4787C162.669 31.3233 162.107 31.1937 161.559 31.0901C161.01 30.9865 160.475 30.9346 159.953 30.9346C159.378 30.9346 158.777 30.9865 158.151 31.0901C157.524 31.1937 156.923 31.3492 156.349 31.5565C153.946 32.2819 151.739 33.8235 149.728 36.1812C147.717 38.539 146.711 42.0237 146.711 46.6356C146.711 51.2474 147.717 54.7321 149.728 57.0899C151.739 59.4476 153.946 60.9892 156.349 61.7146C156.923 61.9219 157.511 62.0774 158.111 62.181C158.712 62.2846 159.3 62.3365 159.874 62.3365ZM197.248 73.8401V19.431H213.388V60.7819H229.841V73.8401H197.248ZM235.874 19.431H263.219C268.181 19.431 271.811 20.3119 274.109 22.0737C276.408 23.8356 277.922 25.7787 278.654 27.9033C279.019 28.8878 279.267 29.8335 279.398 30.7403C279.529 31.6472 279.594 32.4892 279.594 33.2665C279.594 36.0647 278.745 38.4483 277.048 40.4174C275.35 42.3865 273.352 43.7856 271.054 44.6146V44.7701C271.68 44.9256 272.438 45.1587 273.326 45.4696C274.214 45.7806 275.128 46.221 276.068 46.791C277.687 47.7756 279.189 49.2005 280.573 51.066C281.957 52.9315 282.65 55.4705 282.65 58.6833C282.65 58.9942 282.637 59.2921 282.61 59.5771C282.584 59.8621 282.571 60.1601 282.571 60.471C282.206 63.7874 280.639 66.8446 277.87 69.6428C275.102 72.441 270.714 73.8401 264.707 73.8401H235.874V19.431ZM252.015 62.9583H258.283C258.7 62.9583 259.249 62.9453 259.928 62.9194C260.607 62.8935 261.286 62.8028 261.965 62.6474C263.114 62.3883 264.159 61.8572 265.099 61.054C266.039 60.2508 266.509 58.9683 266.509 57.2065C266.509 55.4965 266.026 54.2658 265.06 53.5144C264.094 52.7631 263.062 52.2578 261.965 51.9987C261.338 51.8951 260.724 51.8303 260.124 51.8044C259.523 51.7785 259.014 51.7656 258.596 51.7656H252.015V62.9583ZM252.015 40.8837H257.656C259.902 40.8837 261.521 40.534 262.514 39.8344C263.506 39.1349 264.159 38.3447 264.472 37.4637C264.577 37.1528 264.642 36.8549 264.668 36.5699C264.694 36.2849 264.707 36.0128 264.707 35.7537C264.707 34.3546 264.198 33.0981 263.179 31.984C262.161 30.8699 260.32 30.3128 257.656 30.3128H252.015V40.8837ZM289.779 73.8401V19.431H323.47V32.4892H305.92V40.1065H321.825V52.0765H305.92V60.7819H323.47V73.8401H289.779ZM339.375 73.8401V32.4892H327.309V19.431H367.582V32.4892H355.516V73.8401H339.375Z" fill="white"/>
<path fill-rule="evenodd" clip-rule="evenodd" d="M0 0H380V93.2727H0V0ZM6.90909 6.90909V86.3636H373.091V6.90909H6.90909Z" fill="white"/>
</svg>
