<svg width="390" height="79" viewBox="0 0 390 79" fill="none" xmlns="http://www.w3.org/2000/svg">
<path d="M46.5141 24.168H29.8118V69.4591H16.3965V24.168H0V13.8103H46.5141V24.168Z" fill="white"/>
<path d="M86.7219 45.8771H65.6243V59.1396H90.5439V69.4591H52.2089V13.8103H90.6203V24.168H65.6243V35.9016H86.7219V45.8771Z" fill="white"/>
<path d="M142.485 69.4591H129.146L109.425 34.8315V69.4591H96.0094V13.8103H109.425L129.108 48.4379V13.8103H142.485V69.4591Z" fill="white"/>
<path d="M197.446 69.4591H184.107L164.386 34.8315V69.4591H150.97V13.8103H164.386L184.069 48.4379V13.8103H197.446V69.4591Z" fill="white"/>
<path d="M220.225 69.4591H206.848V13.8103H220.225V69.4591Z" fill="white"/>
<path d="M258.255 54.6678C258.255 52.7058 257.554 51.177 256.152 50.0814C254.777 48.9857 252.343 47.8519 248.852 46.6798C245.362 45.5077 242.508 44.3738 240.291 43.2782C233.08 39.7364 229.475 34.8697 229.475 28.678C229.475 25.5949 230.367 22.8813 232.15 20.5371C233.959 18.1674 236.507 16.3328 239.794 15.0334C243.081 13.7084 246.776 13.0459 250.878 13.0459C254.878 13.0459 258.458 13.7593 261.618 15.1862C264.803 16.6131 267.275 18.6515 269.033 21.3015C270.791 23.9259 271.67 26.9326 271.67 30.3215H258.293C258.293 28.0537 257.592 26.2956 256.191 25.0471C254.815 23.7985 252.942 23.1743 250.572 23.1743C248.177 23.1743 246.279 23.7094 244.878 24.7795C243.502 25.8242 242.814 27.1619 242.814 28.7927C242.814 30.2196 243.578 31.519 245.107 32.6911C246.636 33.8377 249.324 35.0353 253.171 36.2838C257.019 37.5069 260.178 38.8319 262.65 40.2588C268.663 43.7241 271.67 48.5016 271.67 54.5914C271.67 59.4581 269.835 63.2801 266.166 66.0575C262.497 68.8348 257.465 70.2235 251.069 70.2235C246.559 70.2235 242.47 69.4208 238.8 67.8156C235.157 66.1849 232.405 63.9681 230.545 61.1653C228.71 58.337 227.793 55.0882 227.793 51.4191H241.247C241.247 54.4003 242.011 56.6043 243.54 58.0312C245.094 59.4326 247.604 60.1333 251.069 60.1333C253.286 60.1333 255.031 59.6619 256.305 58.7192C257.605 57.7509 258.255 56.4005 258.255 54.6678Z" fill="white"/>
<path d="M292.844 69.4591H279.467V13.8103H292.844V69.4591Z" fill="white"/>
<circle cx="350.862" cy="39.1376" r="39.1376" fill="#F6DF00"/>
<path d="M333.061 39.8596C334.647 39.2593 336.192 39.0702 337.694 39.2921C339.216 39.5063 340.572 40.1092 341.761 41.1006C342.95 42.092 343.856 43.4113 344.479 45.0585C345.103 46.7057 345.301 48.3045 345.074 49.855C344.839 51.3852 344.223 52.7346 343.223 53.9031C342.245 55.064 340.962 55.9446 339.376 56.5449C338.258 56.9682 337.157 57.1637 336.076 57.1313C335.014 57.0913 334.022 56.8042 333.1 56.27L333.896 58.3747L330.266 59.7485L321.7 37.1151L325.513 35.6721L328.665 43.9994C329.046 43.0414 329.605 42.2139 330.341 41.517C331.097 40.8123 332.004 40.2598 333.061 39.8596ZM337.714 53.4427C339.117 52.9116 340.089 52.0091 340.629 50.735C341.191 49.4533 341.182 48.0498 340.605 46.5246C340.028 44.9995 339.105 43.9423 337.836 43.3532C336.587 42.7564 335.261 42.7236 333.858 43.2546C332.943 43.6009 332.2 44.1261 331.63 44.8303C331.051 45.514 330.695 46.3231 330.56 47.2575C330.426 48.1918 330.551 49.1674 330.936 50.1842C331.321 51.201 331.873 52.0149 332.592 52.626C333.312 53.2372 334.118 53.6177 335.012 53.7677C335.898 53.8973 336.799 53.789 337.714 53.4427Z" fill="#C8132A"/>
<path d="M363.442 37.9862C363.543 38.2506 363.665 38.6345 363.809 39.1379L351.028 43.975C351.706 45.0901 352.647 45.8266 353.852 46.1843C355.069 46.514 356.379 46.4133 357.782 45.8822C359.572 45.205 360.823 44.0573 361.536 42.4391L364.469 44.0144C364.067 45.1659 363.392 46.177 362.443 47.0477C361.494 47.9183 360.318 48.6192 358.915 49.1502C357.125 49.8275 355.414 50.0681 353.783 49.872C352.151 49.6759 350.72 49.0898 349.491 48.1138C348.274 47.1097 347.361 45.8044 346.753 44.1979C346.153 42.6117 345.97 41.0536 346.205 39.5234C346.452 37.9652 347.081 36.5878 348.093 35.3912C349.105 34.1946 350.414 33.2923 352.02 32.6843C353.607 32.084 355.155 31.905 356.664 32.1473C358.187 32.3615 359.536 32.9784 360.712 33.9978C361.901 34.9892 362.811 36.3187 363.442 37.9862ZM353.175 35.7346C351.955 36.1964 351.056 36.9549 350.479 38.0103C349.915 39.0376 349.768 40.1857 350.039 41.4548L359.282 37.9569C358.672 36.839 357.813 36.0718 356.702 35.6552C355.591 35.2387 354.415 35.2652 353.175 35.7346Z" fill="#C8132A"/>
<path d="M379.609 40.0626C379.301 40.598 378.855 41.0803 378.274 41.5096C377.713 41.9312 377.076 42.2767 376.365 42.5461C374.575 43.2233 373.015 43.2789 371.685 42.7129C370.355 42.1469 369.351 40.9692 368.674 39.1796L365.707 31.3403L363.023 32.3562L361.868 29.3059L364.553 28.29L363.144 24.5686L366.957 23.1256L368.366 26.847L372.728 25.1961L373.882 28.2464L369.52 29.8973L372.452 37.6451C372.753 38.4382 373.177 38.9751 373.725 39.2559C374.265 39.5164 374.901 39.5081 375.633 39.2311C376.487 38.9078 377.114 38.4148 377.514 37.7519L379.609 40.0626Z" fill="#C8132A"/>
</svg>
