<svg width="380" height="120" viewBox="0 0 380 120" fill="none" xmlns="http://www.w3.org/2000/svg">
<path d="M143.383 94.4106H170.144L169.073 100.351H151.625L151.17 102.813H158.101C166.932 102.813 168.806 106.025 168.806 109.798C168.806 114.535 166.397 118.495 157.673 118.495H139.155L143.383 94.4106ZM155.961 112.474C158.449 112.474 159.038 111.537 159.038 110.467C159.038 109.397 158.556 108.728 156.549 108.728H149.859L149.137 112.474H155.961Z" fill="black"/>
<path d="M199.152 94.4106L198.001 100.459H183.604L183.123 103.135H197.065L195.887 109.29H181.972L181.41 112.287H196.048L195.352 118.495H171.268L175.389 94.4106H199.152Z" fill="black"/>
<path d="M210.178 101.662H200.865L202.203 94.4106H230.141L228.803 101.662H219.437L216.761 118.495H207.448L210.178 101.662Z" fill="black"/>
<path d="M156.014 0L74.9295 118.63C74.8514 118.742 74.8053 118.874 74.7968 119.01C74.7882 119.147 74.8171 119.284 74.8805 119.405C74.9439 119.526 75.0395 119.628 75.1567 119.699C75.2736 119.77 75.4082 119.807 75.5453 119.807C75.7363 119.806 75.9191 119.729 76.0537 119.593L154.489 43.7802L180.901 81.0309H196.77L156.014 0Z" fill="#FF1E00"/>
<path d="M72.8155 38.2136H53.5211L71.4507 65.2418C72.1465 66.339 73.5113 67.9179 73.5113 68.8545C73.5113 69.3897 73.3507 70.3263 71.7986 70.3263H61.5493V81.0305H79.131C87.5338 81.0305 90.8521 77.6855 94.4915 71.5305L117.158 38.2136H97.2479L84.6436 58.2305L72.8155 38.2136Z" fill="#FF1E00"/>
<path d="M40.1408 57.3742L41.5859 57.1601C43.7235 56.9318 45.7089 55.9454 47.1816 54.3791C48.6545 52.8131 49.5175 50.7713 49.6141 48.6235V48.2221C49.6141 41.7728 44.1282 38.2136 33.7718 38.2136H0V81.0305H33.9324C45.9479 81.0305 52.0493 76.8291 52.0493 68.5601V67.9714C52.0493 59.9432 44.7169 58.0432 41.5592 57.5883L40.1408 57.3742ZM16.0563 48.9178H27.9113C30.962 48.9178 32.4606 50.2291 32.4606 52.4235C32.4606 54.6446 30.962 55.8221 27.9113 55.8221H16.0563V48.9178ZM34.1197 67.2756C34.1197 69.7643 32.4606 70.9686 29.062 70.9686H16.0563V63.3686H29.062C31.8435 63.3686 34.1197 64.2784 34.1197 67.2756Z" fill="#FF1E00"/>
<path d="M258.561 38.2136H235.787L219.437 55.7V38.2136H200.704V81.0305H219.437V63.6362L234.744 81.0305H258.159L238.41 58.4714L258.561 38.2136Z" fill="#FF1E00"/>
<path d="M303.786 81.0305H322.518L306.141 38.2136H276.704L260.648 81.0305H278.578L281.762 72.9954H300.949L303.786 81.0305ZM283.662 64.9742L289.945 48.9178H292.14L298.38 64.9742H283.662Z" fill="#FF1E00"/>
<path d="M361.268 38.2136V54.27H345.211V38.2136H326.479V81.0305H345.211V64.9742H361.268V81.0305H380V38.2136H361.268Z" fill="#FF1E00"/>
</svg>
