<svg width="381" height="58" viewBox="0 0 381 58" fill="none" xmlns="http://www.w3.org/2000/svg">
<path d="M135.31 2.62405L132.909 17.308C129.001 15.688 124.885 14.6261 120.682 14.1534C111.916 14.1534 103.932 20.3508 103.932 29.284C103.932 40.4505 110.855 43.2421 118.7 42.8792C121.703 42.7148 124.648 41.9855 127.381 40.7296L132.462 39.1105L134.696 52.7894L130.592 54.3806C125.338 56.7469 119.597 57.8283 113.842 57.5352C94.3008 57.1164 85.3676 42.8792 86.6239 28.3907C87.0487 23.9395 88.3798 19.6223 90.5354 15.7047C92.6911 11.7872 95.6255 8.35218 99.1582 5.61108C104.859 1.78374 111.613 -0.168156 118.476 0.0278444C124.151 0.136245 129.785 1.00952 135.226 2.62405H135.31ZM292.031 1.31199L281.479 56.5302H297.67L301.774 34.7835L312.326 56.5302H342.727L361.71 19.8762L363.776 40.7855L357.243 37.9939L352.19 48.1833L365.702 56.5581H381L373.183 1.3399H355.708L328.099 51.8403L316.262 28.1953L342.001 1.3399H322.795L304.733 19.4017L308.167 1.3399L292.031 1.31199ZM236.925 1.31199L257.164 0.697833C266.153 0.502419 276.203 2.7078 279.357 12.311C280.27 15.1883 280.198 18.2879 279.151 21.1194C278.105 23.9509 276.144 26.3525 273.579 27.944C282.177 34.0298 280.055 46.62 272.406 52.2311C266.125 56.8373 260.235 56.8931 252.865 56.8094L227.293 56.5302L236.925 1.31199ZM249.04 13.7626L247.561 22.5562H257.638C260.43 22.5562 263.473 22.5562 264.701 19.3179C264.967 18.6503 265.053 17.9245 264.951 17.2132C264.848 16.5018 264.561 15.8299 264.117 15.2646C263.673 14.6992 263.089 14.2604 262.422 13.9919C261.756 13.7234 261.03 13.6347 260.318 13.7347L249.04 13.7626ZM243.764 43.0188H254.54C257.89 43.0188 262.105 42.4046 262.915 38.3568C262.997 37.8029 262.97 37.2381 262.833 36.6949C262.697 36.1518 262.454 35.641 262.12 35.192C261.785 34.7431 261.365 34.3648 260.883 34.0791C260.401 33.7934 259.868 33.6058 259.313 33.5273C258.98 33.4855 258.642 33.4855 258.308 33.5273H245.411L243.764 43.1304V43.0188ZM198.652 1.3399L168.362 56.5302H177.044C184.358 56.2231 186.061 54.1573 187.373 52.4265C193.962 41.5113 198.791 31.1823 204.653 19.8483L206.608 41.0925L200.075 38.3009L194.994 48.5741L210.404 56.4185H223.999L216.127 1.3399H198.652ZM141.312 1.3399H182.879L180.087 16.6938H167.972L160.378 56.5302H144.243L151.836 16.7776H138.632L141.312 1.3399Z" fill="#2E9BFC"/>
<path d="M75.9599 56.5023H89.6668L69.7904 26.5482L95.1383 1.42368H72.5821L22.3329 51.952L31.5174 1.31201H19.0947L0 13.7905V27.944L11.4735 22.6121L9.91024 27.2741C8.15152 37.0168 6.36489 46.8154 4.63409 56.5023H41.5393L56.8094 40.1992L63.0626 49.7187C64.5053 51.8084 66.4312 53.5189 68.6766 54.7048C70.9221 55.8907 73.4206 56.5169 75.9599 56.5302V56.5023ZM46.1734 21.9979L32.8573 1.31201H48.0717C50.2149 1.43377 52.3107 1.99175 54.2308 2.95178C56.1509 3.91182 57.8548 5.2537 59.2381 6.89525L60.1315 8.12356L46.1734 21.9979Z" fill="black"/>
</svg>
