<svg width="381" height="58" viewBox="0 0 381 58" fill="none" xmlns="http://www.w3.org/2000/svg">
<path d="M135.31 2.60964L132.909 17.2936C129.001 15.6736 124.885 14.6117 120.682 14.139C111.916 14.139 103.932 20.3364 103.932 29.2696C103.932 40.4361 110.855 43.2277 118.7 42.8648C121.703 42.7004 124.648 41.9711 127.381 40.7152L132.462 39.0961L134.696 52.775L130.592 54.3662C125.338 56.7325 119.597 57.8139 113.842 57.5208C94.3008 57.102 85.3676 42.8648 86.6239 28.3763C87.0487 23.9251 88.3798 19.6079 90.5354 15.6903C92.6911 11.7728 95.6255 8.33777 99.1582 5.59668C104.859 1.76934 111.613 -0.18256 118.476 0.0134401C124.151 0.12184 129.785 0.995114 135.226 2.60964H135.31ZM292.031 1.29758L281.479 56.5158H297.67L301.774 34.7691L312.326 56.5158H342.727L361.71 19.8618L363.776 40.7711L357.243 37.9794L352.19 48.1688L365.702 56.5437H381L373.183 1.3255H355.708L328.099 51.8259L316.262 28.1809L342.001 1.3255H322.795L304.733 19.3873L308.167 1.3255L292.031 1.29758ZM236.925 1.29758L257.164 0.683428C266.153 0.488015 276.203 2.69339 279.357 12.2966C280.27 15.1738 280.198 18.2735 279.151 21.105C278.105 23.9365 276.144 26.3381 273.579 27.9296C282.177 34.0153 280.055 46.6055 272.406 52.2167C266.125 56.8229 260.235 56.8787 252.865 56.795L227.293 56.5158L236.925 1.29758ZM249.04 13.7482L247.561 22.5418H257.638C260.43 22.5418 263.473 22.5418 264.701 19.3035C264.967 18.6359 265.053 17.9101 264.951 17.1988C264.848 16.4874 264.561 15.8155 264.117 15.2502C263.673 14.6848 263.089 14.246 262.422 13.9775C261.756 13.709 261.03 13.6203 260.318 13.7203L249.04 13.7482ZM243.764 43.0044H254.54C257.89 43.0044 262.105 42.3902 262.915 38.3424C262.997 37.7885 262.97 37.2237 262.833 36.6805C262.697 36.1374 262.454 35.6266 262.12 35.1776C261.785 34.7287 261.365 34.3504 260.883 34.0647C260.401 33.779 259.868 33.5914 259.313 33.5129C258.98 33.4711 258.642 33.4711 258.308 33.5129H245.411L243.764 43.116V43.0044ZM198.652 1.3255L168.362 56.5158H177.044C184.358 56.2087 186.061 54.1429 187.373 52.4121C193.962 41.4969 198.791 31.1679 204.653 19.8339L206.608 41.0781L200.075 38.2865L194.994 48.5597L210.404 56.4041H223.999L216.127 1.3255H198.652ZM141.312 1.3255H182.879L180.087 16.6794H167.972L160.378 56.5158H144.243L151.836 16.7631H138.632L141.312 1.3255Z" fill="#2E9BFC"/>
<path d="M75.9599 56.4879H89.6668L69.7904 26.5338L95.1383 1.40927H72.5821L22.3329 51.9376L31.5174 1.29761H19.0947L0 13.7761V27.9296L11.4735 22.5977L9.91024 27.2597C8.15152 37.0024 6.36489 46.801 4.63409 56.4879H41.5393L56.8094 40.1848L63.0626 49.7043C64.5053 51.794 66.4312 53.5045 68.6766 54.6904C70.9221 55.8763 73.4206 56.5025 75.9599 56.5158V56.4879ZM46.1734 21.9835L32.8573 1.29761H48.0717C50.2149 1.41936 52.3107 1.97734 54.2308 2.93738C56.1509 3.89742 57.8548 5.2393 59.2381 6.88084L60.1315 8.10916L46.1734 21.9835Z" fill="white"/>
</svg>
