<svg width="387" height="129" viewBox="0 0 387 129" fill="none" xmlns="http://www.w3.org/2000/svg">
<path d="M34.0605 75.1585C33.8689 75.4774 33.7014 75.8103 33.5596 76.1542C32.5727 78.1289 32.3931 80.4101 33.0587 82.5149C36.6395 79.5548 40.6583 77.1688 44.9714 75.4421C41.3795 74.7061 37.6858 74.6101 34.0605 75.1585Z" fill="#C4AC70"/>
<path d="M37.5485 87.0713C38.5303 87.5051 39.5534 87.8387 40.6021 88.067C41.7037 84.3376 43.2093 80.7397 45.092 77.3372C41.0249 78.9885 37.2383 81.2604 33.8673 84.072C34.7844 85.4013 36.0614 86.4417 37.5485 87.0713Z" fill="#C4AC70"/>
<path d="M50.2157 87.5118C48.9061 83.8306 47.844 80.5235 47.0353 77.657C45.0721 81.0123 43.5219 84.5928 42.4187 88.3205C45.0449 88.5034 47.6829 88.2298 50.2157 87.5118Z" fill="#C4AC70"/>
<path d="M46.287 66.2995C46.6008 68.2306 47.0957 70.6023 47.844 73.4085C50.1109 70.5447 52.6604 67.9164 55.4539 65.5632C52.3812 65.134 49.2517 65.3853 46.287 66.2995Z" fill="#C4AC70"/>
<path d="M80.9025 98.2356C78.6775 95.8049 76.3246 93.4943 73.8539 91.3137C70.0073 96.6911 64.6425 100.797 58.447 103.106C60.004 106.727 61.8144 110.529 63.7516 114.572C71.3058 111.456 77.4229 105.629 80.9025 98.2356Z" fill="#C4AC70"/>
<path d="M59.1954 66.6735C58.7609 66.4865 58.26 66.2994 57.7591 66.1123C54.8983 68.3322 52.2843 70.8532 49.9622 73.6317C54.4382 72.2729 59.0711 71.498 63.7457 71.3264L63.6853 71.1997C63.2954 70.173 62.6943 69.2396 61.9208 68.46C61.1474 67.6803 60.2189 67.0717 59.1954 66.6735Z" fill="#C4AC70"/>
<path d="M72.4841 90.1308C69.1583 87.361 65.6347 84.8378 61.9413 82.5813C59.3534 85.2464 56.1972 87.2928 52.708 88.5678H52.5813C54.0176 92.4361 55.7013 96.6786 57.6988 101.356C63.665 99.2249 68.8284 95.305 72.4841 90.1308Z" fill="#C4AC70"/>
<path d="M56.0152 102.104C53.9573 97.3606 52.2736 93.1242 50.8373 89.2559C47.9283 90.1229 44.8792 90.42 41.8575 90.1309C40.6615 94.4048 39.7861 98.7619 39.2384 103.166C44.8265 104.298 50.6145 103.931 56.0152 102.104Z" fill="#C4AC70"/>
<path d="M108.536 16.8382C109.52 16.087 110.346 15.1493 110.967 14.0786C111.589 13.0079 111.993 11.8252 112.157 10.5982V10.4111H112.217C112.427 8.00475 111.739 5.60581 110.286 3.67628C109.535 2.69235 108.597 1.86611 107.526 1.24482C106.456 0.623519 105.273 0.219346 104.046 0.0553959H103.859C101.457 -0.205894 99.0469 0.463657 97.1241 1.92618C95.1489 3.45383 93.8495 5.69329 93.5032 8.16618V8.4136C93.2205 10.8538 93.9148 13.3067 95.4344 15.2368C96.954 17.1669 99.1756 18.4173 101.614 18.715H101.801V18.7754C104.211 19.0141 106.621 18.3209 108.536 16.8382ZM97.6733 13.344C96.7102 12.0057 96.2469 10.3721 96.3637 8.72741L96.4241 8.60068V8.54033C96.6422 6.86965 97.5094 5.35205 98.838 4.31597C100.176 3.35292 101.81 2.88954 103.455 3.00642L103.642 3.06677C105.312 3.28486 106.83 4.15206 107.866 5.48069C108.829 6.81903 109.293 8.45264 109.176 10.0973L109.115 10.2844C109.02 11.1153 108.757 11.9182 108.342 12.6444C107.927 13.3706 107.369 14.0049 106.701 14.5088C105.367 15.4799 103.73 15.9441 102.085 15.8183L101.958 15.758H101.898C101.068 15.6619 100.266 15.3985 99.541 14.9836C98.8159 14.5686 98.1825 14.0109 97.6793 13.344H97.6733Z" fill="#C4AC70"/>
<path d="M8.48499 31.5571C8.48499 33.6053 9.09233 35.6075 10.2302 37.3105C11.3681 39.0135 12.9855 40.3408 14.8777 41.1246C16.77 41.9084 18.8522 42.1135 20.861 41.7139C22.8698 41.3143 24.715 40.328 26.1633 38.8798C27.6116 37.4315 28.5979 35.5863 28.9975 33.5774C29.397 31.5686 29.192 29.4864 28.4082 27.5942C27.6244 25.7019 26.297 24.0846 24.594 22.9467C22.8911 21.8088 20.8889 21.2014 18.8407 21.2014C16.0952 21.2046 13.463 22.2967 11.5216 24.2381C9.58025 26.1795 8.48818 28.8116 8.48499 31.5571Z" fill="#C4AC70"/>
<path d="M33.3725 103.039C29.9663 101.494 27.006 99.1133 24.7669 96.1174C23.8553 98.1161 23.1652 100.209 22.709 102.357C26.0673 107.56 30.8436 111.693 36.4744 114.27C36.6011 114.33 36.7882 114.397 36.9089 114.457C36.8154 111.125 36.9404 107.791 37.283 104.476C35.9354 104.127 34.6255 103.646 33.3725 103.039Z" fill="#C4AC70"/>
<path d="M83.4613 77.651C81.7525 76.7094 79.9556 75.9373 78.0964 75.3457C78.2208 76.2557 78.2833 77.1731 78.2835 78.0916C78.2748 81.2888 77.5511 84.4435 76.1653 87.3248C75.791 88.1868 75.3532 89.0199 74.8557 89.8172C77.3481 92.0018 79.6836 94.2467 81.7173 96.4555C84.1555 90.5002 84.7627 83.9531 83.4613 77.651Z" fill="#C4AC70"/>
<path d="M73.4194 88.5677C73.7935 87.8798 74.1677 87.1978 74.4815 86.5099C76.2535 82.8275 76.8215 78.6808 76.1048 74.6575C72.7944 73.7206 69.3762 73.2175 65.9362 73.1609V73.6316C65.9056 75.2468 65.5441 76.8386 64.8741 78.3086C64.4134 79.3325 63.8276 80.2953 63.13 81.1751C66.7295 83.3941 70.1678 85.8645 73.4194 88.5677Z" fill="#C4AC70"/>
<path d="M52.02 86.9447C55.1557 85.831 58.0089 84.0429 60.3782 81.7065C56.6553 79.5715 52.7269 77.8166 48.6526 76.4683C49.4653 79.4615 50.5877 82.9537 52.02 86.9447Z" fill="#C4AC70"/>
<path d="M40.0953 89.8173C38.9523 89.6052 37.841 89.2483 36.7882 88.7552C35.0937 87.9841 33.6157 86.8067 32.4854 85.3274C29.7529 87.915 27.4563 90.9269 25.6842 94.2468C27.7459 97.4065 30.6811 99.8993 34.1329 101.422C35.2192 101.93 36.3455 102.348 37.5003 102.671C38.0331 98.3263 38.9007 94.0288 40.0953 89.8173Z" fill="#C4AC70"/>
<path d="M50.8975 75.2851C54.5888 76.6414 58.1581 78.309 61.567 80.2699C62.2297 79.4447 62.7947 78.5455 63.2507 77.5904C63.9225 76.2151 64.2241 74.6884 64.1258 73.1609C59.6464 73.3289 55.2042 74.0422 50.8975 75.2851Z" fill="#C4AC70"/>
<path d="M62.068 115.326C60.0704 111.21 58.3264 107.402 56.703 103.788C51.0315 105.755 44.9376 106.171 39.0512 104.995C38.7287 108.414 38.6239 111.851 38.7374 115.284C46.2614 118.074 54.5339 118.089 62.068 115.326Z" fill="#C4AC70"/>
<path d="M62.8163 116.95C55.102 119.804 46.6358 119.892 38.8641 117.197C39.0384 119.888 39.4422 122.559 40.0711 125.181C44.7002 127.415 49.7768 128.567 54.9167 128.549H55.1038C59.3784 128.555 63.614 127.735 67.5777 126.135C65.892 122.952 64.333 119.897 62.9008 116.968L62.8163 116.95Z" fill="#C4AC70"/>
<path d="M73.4797 65.4246C75.0726 67.1779 76.3032 69.2288 77.1006 71.4594L77.6619 73.1431C79.4348 73.7043 81.1652 74.392 82.8397 75.201C82.713 74.7001 82.5259 74.2656 82.4052 73.7647C79.9502 70.4755 76.9276 67.6512 73.4797 65.4246Z" fill="#C4AC70"/>
<path d="M112.839 2.86171L120.262 12.3424C120.201 12.7769 119.887 15.2089 119.761 15.7098C115.392 31.9253 107.595 42.1543 98.2406 47.3322C98.1803 47.3322 98.1803 47.3925 98.1139 47.3925C84.0166 55.0628 68.2355 50.6332 53.6374 41.0319C53.6374 41.0319 65.2423 39.2214 74.4092 44.0855C82.707 48.4547 80.444 49.8849 86.7624 48.6417C78.1568 34.5444 63.2267 32.0521 46.7818 35.7936C44.4995 33.7079 42.3528 31.4786 40.3547 29.1192H32.8535C33.3544 29.62 36.408 32.9875 41.2117 37.2903C32.1052 40.3077 21.6891 45.9623 9.77639 55.0024L0 61.9968H12.7274C26.4506 51.0798 37.9891 45.1536 47.8439 42.8483C58.26 51.0798 72.7315 59.8122 86.7021 59.1906C94.3723 70.9162 97.8061 85.7437 99.176 94.4339C99.2955 95.8386 99.3378 97.2488 99.3027 98.6582H112.839V95.1158H102.67C101.982 87.7533 99.176 72.0387 91.8799 58.5026C103.606 55.8232 114.523 45.4674 121.698 21.1411C121.758 20.8937 124.257 12.0889 124.257 12.0889L115.084 0.429688L112.839 2.86171Z" fill="#C4AC70"/>
<path d="M85.9598 84.1384C85.9419 88.8595 84.9667 93.528 83.0933 97.8615C84.7715 99.7363 86.3546 101.694 87.8366 103.727C90.2719 95.4413 89.4472 86.5376 85.5313 78.8398C85.8002 80.5936 85.9434 82.3643 85.9598 84.1384Z" fill="#C4AC70"/>
<path d="M64.5603 116.262C65.9966 119.194 67.5777 122.188 69.1769 125.368C73.3181 123.483 77.042 120.792 80.1309 117.451C83.2198 114.111 85.6117 110.188 87.1667 105.912C85.7304 103.914 84.1131 101.856 82.2363 99.6719C78.5132 107.134 72.2435 113.019 64.5603 116.262Z" fill="#C4AC70"/>
<path d="M45.599 61.1881C45.6593 61.9967 45.7861 63.1192 45.9732 64.4951C49.6596 63.3828 53.5729 63.2538 57.3246 64.121C59.0384 62.854 60.8787 61.768 62.8163 60.8803C60.2217 60.2546 57.5616 59.9406 54.8926 59.9449C51.7529 59.9385 48.6267 60.3567 45.599 61.1881Z" fill="#C4AC70"/>
<path d="M35.4303 73.1008C38.9366 72.7596 42.4751 72.992 45.9067 73.7888C45.2188 71.1094 44.6998 68.798 44.4101 66.9272C40.935 68.1772 37.8418 70.3038 35.4303 73.1008Z" fill="#C4AC70"/>
<path d="M65.4957 61.7493C63.3687 62.5147 61.3549 63.5642 59.5092 64.8693C59.6359 64.9296 59.823 64.996 59.9437 65.0563C62.4313 66.1207 64.4043 68.1153 65.4414 70.6144C65.5017 70.8618 65.6285 71.1153 65.6888 71.3627C69.0296 71.4157 72.3545 71.8346 75.604 72.6119C75.5324 72.4538 75.4895 72.2842 75.4773 72.111C73.7272 67.422 70.1123 63.8675 65.4957 61.7493Z" fill="#C4AC70"/>
<path d="M26.3237 75.2189C28.4848 74.4162 30.7208 73.8319 32.9982 73.4748C35.3035 69.9203 39.2986 66.9271 44.1023 65.177L44.229 65.1166C44.0419 63.8071 43.9152 62.7027 43.8548 61.8096C36.6596 64.1621 30.4778 68.8905 26.3237 75.2189Z" fill="#C4AC70"/>
<path d="M24.8876 77.4638C24.5134 78.0673 24.1996 78.713 23.8918 79.3346C22.6717 83.1155 22.7375 87.1939 24.0789 90.9335C24.266 91.4344 24.5134 91.9292 24.6824 92.4301C26.4952 89.1759 28.8109 86.2288 31.544 83.6977C31.4514 83.5009 31.3688 83.2995 31.2965 83.0943C30.8719 81.8558 30.6976 80.5454 30.7836 79.2391C30.8695 77.9327 31.2142 76.6565 31.7974 75.4844C29.4759 75.9511 27.216 76.6841 25.0626 77.669L24.8876 77.4638Z" fill="#C4AC70"/>
<path d="M35.7442 115.954C30.3925 113.499 25.7546 109.721 22.2684 104.977V105.037C24.9452 113.128 30.5387 119.933 37.9589 124.125C37.466 121.612 37.1334 119.07 36.9632 116.515C36.6132 116.328 36.1787 116.141 35.7442 115.954Z" fill="#C4AC70"/>
<path d="M22.4555 91.5009C21.8195 90.0588 21.4397 88.517 21.333 86.9446C20.8288 89.3131 20.5779 91.7285 20.5847 94.1501V94.2105C20.5815 95.8271 20.7066 97.4415 20.9589 99.0383C21.146 99.4125 21.333 99.847 21.5201 100.245C22.0836 98.2242 22.8352 96.2603 23.7651 94.3795C23.2244 93.4708 22.7852 92.5055 22.4555 91.5009Z" fill="#C4AC70"/>
<path d="M338.184 33.6389H324.932V99.4243H338.184V33.6389Z" fill="#C4AC70"/>
<path d="M300.298 71.9901L267.052 33.8743H260.317V99.4243H273.793V61.5318L306.804 99.4243H313.544V33.6389H300.298V71.9901Z" fill="#C4AC70"/>
<path d="M208.478 99.4243H249.159V86.1719H221.731V70.5961H249.159V57.579H221.731V46.656H249.388V33.4036H208.478V99.4243Z" fill="#C4AC70"/>
<path d="M347.713 46.8916H360.73V99.4246H373.983V46.8916H387V33.8745H347.713V46.8916Z" fill="#C4AC70"/>
<path d="M160.128 46.8915H179.885L158.504 92.6776V99.6538H196.855V86.6367H175.703L196.855 41.08V34.1038H160.128V46.8915Z" fill="#C4AC70"/>
</svg>
