<svg width="143" height="143" viewBox="0 0 143 143" fill="none" xmlns="http://www.w3.org/2000/svg">
<path fill-rule="evenodd" clip-rule="evenodd" d="M113.794 29.2062C90.4356 5.84795 52.5644 5.84793 29.2062 29.2062L29.2062 29.2062C5.84795 52.5643 5.84793 90.4354 29.2062 113.794C29.4577 114.045 29.7108 114.294 29.9656 114.54C40.999 104.703 55.5375 98.6875 71.4998 98.6875C87.4639 98.6875 102.003 104.704 113.037 114.537C113.291 114.292 113.543 114.044 113.794 113.794C137.151 90.4364 137.152 52.5671 113.796 29.2087L113.794 29.2062ZM104.41 121.459C95.4661 114.032 84.0109 109.562 71.4998 109.562C58.9897 109.562 47.5359 114.032 38.5927 121.46C58.4916 134.597 84.5116 134.596 104.41 121.459ZM121.483 21.5164C149.089 49.1216 149.089 93.8784 121.483 121.483C93.8783 149.089 49.1214 149.089 21.5164 121.483C-6.08879 93.8783 -6.08881 49.1214 21.5164 21.5164C49.1216 -6.08879 93.8784 -6.08881 121.483 21.5164ZM82.0761 48.6932C76.2351 42.8523 66.765 42.8523 60.924 48.6932C55.0831 54.5341 55.0831 64.0043 60.924 69.8452C66.765 75.6862 76.2351 75.6862 82.0761 69.8452C87.917 64.0043 87.917 54.5341 82.0761 48.6932ZM89.7658 41.0034C79.678 30.9155 63.3221 30.9155 53.2343 41.0034C43.1464 51.0913 43.1464 67.4471 53.2343 77.535C63.3221 87.6229 79.678 87.6229 89.7658 77.535C99.8537 67.4471 99.8537 51.0913 89.7658 41.0034Z" fill="#6C89A9"/>
</svg>
