<svg width="233" height="48" viewBox="0 0 233 48" fill="none" xmlns="http://www.w3.org/2000/svg">
<path d="M232.354 3.64645C232.549 3.84171 232.549 4.15829 232.354 4.35355L229.172 7.53553C228.976 7.7308 228.66 7.7308 228.464 7.53553C228.269 7.34027 228.269 7.02369 228.464 6.82843L231.293 4L228.464 1.17157C228.269 0.976311 228.269 0.659728 228.464 0.464466C228.66 0.269204 228.976 0.269204 229.172 0.464466L232.354 3.64645ZM0.5 46.5H205.246V47.5H0.5V46.5ZM214.746 37V14H215.746V37H214.746ZM225.246 3.5H232V4.5H225.246V3.5ZM214.746 14C214.746 8.20101 219.447 3.5 225.246 3.5V4.5C219.999 4.5 215.746 8.75329 215.746 14H214.746ZM205.246 46.5C210.493 46.5 214.746 42.2467 214.746 37H215.746C215.746 42.799 211.045 47.5 205.246 47.5V46.5Z" fill="#3B5C7B"/>
</svg>
