<svg width="233" height="48" viewBox="0 0 233 48" fill="none" xmlns="http://www.w3.org/2000/svg">
<path d="M232.353 44.3536C232.549 44.1583 232.549 43.8417 232.353 43.6464L229.172 40.4645C228.976 40.2692 228.66 40.2692 228.464 40.4645C228.269 40.6597 228.269 40.9763 228.464 41.1716L231.293 44L228.464 46.8284C228.269 47.0237 228.269 47.3403 228.464 47.5355C228.66 47.7308 228.976 47.7308 229.172 47.5355L232.353 44.3536ZM0 1.5H205.246V0.5H0V1.5ZM214.746 11V34H215.746V11H214.746ZM225.246 44.5H232V43.5H225.246V44.5ZM214.746 34C214.746 39.799 219.447 44.5 225.246 44.5V43.5C219.999 43.5 215.746 39.2467 215.746 34H214.746ZM205.246 1.5C210.493 1.5 214.746 5.75329 214.746 11H215.746C215.746 5.20101 211.045 0.5 205.246 0.5V1.5Z" fill="#00FFA3"/>
</svg>
