<svg width="235" height="332" viewBox="0 0 235 332" fill="none" xmlns="http://www.w3.org/2000/svg">
<path d="M234.354 3.64645C234.549 3.84171 234.549 4.15829 234.354 4.35355L231.172 7.53553C230.976 7.7308 230.66 7.7308 230.464 7.53553C230.269 7.34027 230.269 7.02369 230.464 6.82843L233.293 4L230.464 1.17157C230.269 0.976311 230.269 0.659728 230.464 0.464466C230.66 0.269204 230.976 0.269204 231.172 0.464466L234.354 3.64645ZM0 330.5H207.047V331.5H0V330.5ZM216.547 321V14H217.547V321H216.547ZM227.047 3.5H234V4.5H227.047V3.5ZM216.547 14C216.547 8.20102 221.248 3.5 227.047 3.5V4.5C221.801 4.5 217.547 8.7533 217.547 14H216.547ZM207.047 330.5C212.294 330.5 216.547 326.247 216.547 321H217.547C217.547 326.799 212.846 331.5 207.047 331.5V330.5Z" fill="#00FFA3"/>
</svg>
