<svg width="92" height="41" viewBox="0 0 92 41" fill="none" xmlns="http://www.w3.org/2000/svg">
<path d="M37.4685 11.8352C37.2807 12.5241 37.0929 13.2756 36.8425 14.1523C36.6546 14.9664 36.3416 15.9057 36.0912 17.0329H42.1641L42.4771 15.9057H39.4094L40.0354 13.6513H43.9797C44.8562 13.6513 45.4196 14.3402 45.1692 15.2795L44.731 17.0329L44.4805 17.9097C44.2301 18.7864 43.3536 19.5378 42.4145 19.5378H33.8999C33.0234 19.5378 32.46 18.849 32.7104 17.9097L34.5886 10.8333C34.839 9.95655 35.7781 9.20508 36.6546 9.20508H46.4214L45.7327 11.7726C42.8528 11.8352 40.2859 11.8352 37.4685 11.8352ZM72.9042 16.7198L73.3424 14.5906L72.7164 15.4674L70.9634 17.6592H70.9008L69.3982 19.5378H66.1426L65.7044 17.6592H65.6418L65.0783 15.4674L64.8905 14.5906L64.2018 16.7198L63.3253 19.5378H60.2575L63.5131 9.2677H66.8313L68.6469 16.4693L74.3442 9.2677H77.6623L75.4085 19.5378H72.3407L72.9042 16.7198ZM81.857 13.2756C81.9822 12.712 82.0448 12.3988 82.2327 11.8352H91.3107L91.9994 9.2677H81.544C80.6049 9.2677 79.6658 10.0192 79.4153 10.9585C79.1023 12.0857 78.7893 13.2756 78.4762 14.4028C78.1632 15.53 77.8502 16.7198 77.5371 17.847C77.2867 18.7864 77.8502 19.5378 78.7893 19.5378H89.2447L89.9333 16.9703H80.8553C80.9179 16.6572 80.9805 16.4067 81.0431 16.2188C81.1057 15.9683 81.1683 15.7805 81.2309 15.4674H88.0551L88.6186 13.2756H81.857ZM53.9968 12.3362L54.8733 15.6552H51.3673L53.9968 12.3362ZM55.8124 19.5378H59.1306L56.5011 9.20508H53.2455L44.9814 19.5378H48.2996L49.6143 17.9097H55.3742L55.8124 19.5378Z" fill="white"/>
<path d="M51.8682 28.1798C52.6195 28.1798 53.4333 27.4909 53.6838 26.5516C53.7464 26.3011 53.809 26.0506 53.8716 25.7375C54.0594 24.9234 54.3099 23.984 54.4977 23.2326C54.7481 22.2932 54.3099 21.6044 53.5586 21.6044H44.3553L43.7292 24.1719H51.5551L51.1795 25.6122H44.731C43.9797 25.6122 43.1658 26.3011 42.9154 27.2404C42.7275 28.0545 42.5397 28.806 42.2893 29.6201C42.1015 30.4342 41.851 31.1857 41.6632 31.9998H44.3553C44.5431 31.3109 44.6684 30.6847 44.8562 30.1211C45.044 29.4949 45.1692 28.9312 45.357 28.2424H51.8682V28.1798ZM65.2035 21.7296H57.3776C56.6263 21.7296 55.8124 22.4811 55.562 23.4204C55.249 24.5476 54.9985 25.7375 54.6855 26.8647C54.3725 28.0545 54.122 29.1817 53.809 30.3089C53.6212 31.2483 54.0594 31.9998 54.8107 31.9998H62.6366C63.3879 31.9998 64.2018 31.2483 64.4522 30.3089C64.7652 29.1817 65.0157 27.9919 65.3287 26.8647C65.6417 25.6749 65.8922 24.5476 66.2052 23.4204C66.4556 22.4811 66.0174 21.7296 65.2035 21.7296ZM62.9496 26.3637C62.7618 27.0526 62.6992 27.3657 62.1357 29.4322H56.6263C56.9394 28.305 57.0646 27.6788 57.1898 27.3031C57.4402 26.489 57.4402 26.3011 58.0037 24.2345H63.5131C63.2001 25.4244 63.0122 25.988 62.9496 26.3637ZM76.0971 31.9998H73.405L72.5911 27.9293H69.3356C68.9599 29.307 68.5843 30.6847 68.2712 32.0624H65.5791C66.0174 30.4968 66.393 28.9312 66.8313 27.3657C67.0817 26.4263 67.833 25.7375 68.6469 25.7375C69.7112 25.7375 70.7755 25.7375 71.9025 25.7375C72.9668 25.7375 74.0311 25.7375 75.158 25.7375L75.5337 24.2972H67.7078L68.3338 21.7296H77.5371C78.2258 21.7296 78.7266 22.4185 78.4762 23.3578L77.7249 26.2385C77.4745 27.1778 76.7232 27.8667 75.9093 27.8667H75.4085L76.0971 31.9998ZM40.5363 25.4244C41.2876 25.4244 41.7258 26.1132 41.4754 27.0526C41.4128 27.303 41.3502 27.5535 41.2876 27.8667C41.0997 28.6808 40.8493 29.6201 40.6615 30.3716C40.4111 31.3109 39.6598 31.9998 38.8459 31.9998H29.8931L30.5191 29.4322H38.0946L38.4702 27.9919H32.0217C31.2704 27.9919 30.8322 27.3031 31.0826 26.3637C31.2078 25.8627 31.333 25.3617 31.4582 24.7981C31.5835 24.2972 31.7087 23.7335 31.8339 23.2326C32.0843 22.3558 32.8356 21.667 33.5869 21.667H42.4771L41.851 24.2345H34.3382L34.0251 25.4244H40.5363ZM88.556 24.2345L89.2446 21.667H79.5405L78.8518 24.2345H82.4205L80.417 31.9998H82.9839L84.9874 24.2345H88.556Z" fill="#F5333F"/>
<path d="M0.0297515 32.9391C-0.0954628 33.5027 0.154966 34.6299 1.15668 34.8804C1.15668 34.8804 1.21929 34.8804 1.28189 34.8804C2.59664 35.1309 3.66097 34.3168 4.16182 34.0037C6.72872 32.4381 7.91825 31.4988 8.98257 31.1231C10.4225 30.6221 11.9251 30.8099 12.9268 30.9978C13.8659 31.3109 15.3059 31.8745 16.3076 33.0644C17.0589 33.9411 17.6224 35.3814 19.0623 38.0116C19.3754 38.5126 19.8762 39.765 21.1284 40.2034C21.1284 40.2034 21.191 40.2034 21.2536 40.2034C22.2553 40.4539 23.0066 39.6398 23.1944 39.0762C23.5074 38.1368 24.9474 30.6847 24.7596 28.8686C24.697 27.6788 24.0709 26.3011 22.8814 25.3618C23.1318 23.3578 22.7561 21.9175 22.2553 20.1014C23.1944 19.2247 23.8831 18.0975 24.1961 16.7824C24.697 15.0916 24.4465 13.3382 23.7579 11.8352C24.0083 5.63557 21.2536 0.25 21.2536 0.25C21.2536 0.25 16.1824 3.50639 13.1773 9.07982C11.7999 10.0192 10.7982 11.4595 10.2973 13.1503C9.92168 14.4654 9.98429 15.8431 10.2973 17.0329C8.91997 18.348 7.91825 19.4126 7.10436 21.2287C5.66439 21.3539 4.47486 22.2932 3.78618 23.2326C2.72186 24.7982 0.28018 31.9998 0.0297515 32.9391ZM17.998 24.485C16.9337 24.4224 15.8694 24.2972 14.8676 23.9841C13.8659 23.7336 12.8642 23.2952 11.9251 22.7942C11.8625 21.8549 11.8625 20.8529 11.9251 19.7257C12.8642 20.7277 14.0538 21.5418 15.4311 21.9175C16.8711 22.2932 18.311 22.2306 19.6258 21.7923C19.0623 22.7942 18.5615 23.7336 17.998 24.485ZM15.3685 8.07786C15.9946 7.13851 16.6833 6.26179 17.3719 5.51032L22.0049 6.76278C22.1927 7.76474 22.3805 8.82933 22.4431 10.0192C21.5666 9.14245 20.5023 8.45359 19.1875 8.07786C17.8728 7.70212 16.558 7.76474 15.3685 8.07786ZM18.8119 9.33031C21.9423 10.207 23.8205 13.4008 22.944 16.5319C22.0675 19.6631 18.8745 21.5418 15.7441 20.665C12.6138 19.7883 10.7356 16.5946 11.6121 13.4634C12.426 10.3323 15.6815 8.51622 18.8119 9.33031ZM21.4414 29.1818C21.9423 29.307 22.1927 29.808 22.0675 30.2463C21.9423 30.7473 21.4414 30.9978 21.0031 30.8726C20.5023 30.7473 20.2519 30.2463 20.3771 29.808C20.5023 29.3696 20.9405 29.0565 21.4414 29.1818ZM20.0014 26.6768C20.5023 26.8021 20.7527 27.3031 20.6275 27.7414C20.5023 28.2424 20.0014 28.4929 19.5632 28.3677C19.0623 28.2424 18.8119 27.7414 18.9371 27.3031C18.9997 26.8647 19.5006 26.5516 20.0014 26.6768ZM18.8745 30.6221C19.3754 30.7473 19.6258 31.2483 19.5006 31.6867C19.3754 32.1877 18.8745 32.4381 18.4363 32.3129C17.9354 32.1877 17.685 31.6867 17.8102 31.2483C17.9354 30.81 18.4363 30.4968 18.8745 30.6221ZM17.4345 28.1172C17.9354 28.2424 18.1858 28.7434 18.0606 29.1818C17.9354 29.6201 17.4345 29.9332 16.9963 29.808C16.4954 29.6827 16.245 29.1818 16.3702 28.7434C16.4954 28.305 16.9963 27.9919 17.4345 28.1172ZM5.60179 25.4244C5.66439 25.2365 5.91482 25.0486 6.10264 25.1113L7.48 25.487L7.85564 24.1093C7.91825 23.9214 8.16868 23.7336 8.3565 23.7962L9.17039 23.9841C9.35822 24.0467 9.54604 24.2972 9.48343 24.485L9.04518 25.9254L10.4225 26.3011C10.6104 26.3637 10.7982 26.6142 10.7356 26.8021L10.4851 27.6162C10.4225 27.8041 10.1721 27.9919 9.98429 27.9293L8.60693 27.5536L8.23129 28.9313C8.16868 29.1191 7.91825 29.307 7.73043 29.2444L6.91654 29.0565C6.72872 28.9939 6.54089 28.7434 6.6035 28.5555L6.97914 27.1778L5.66439 26.7395C5.47657 26.6768 5.28875 26.4264 5.35136 26.2385L5.60179 25.4244Z" fill="#F5333F"/>
<path d="M14.0535 33.4402C13.7404 34.5674 12.3631 35.4441 11.6118 36.2582C11.3613 35.131 10.6101 33.6907 10.8605 32.5635C10.8605 32.4382 10.9857 32.2504 11.0483 32.1251C10.3596 32.4382 9.79617 33.0645 9.60835 33.8159C9.10749 35.7572 10.1718 38.1369 10.5475 40.0156C11.7996 38.5753 13.9909 37.1349 14.4917 35.1936C14.6795 34.3795 14.4917 33.6281 14.0535 33.0018C14.1161 33.1271 14.0535 33.315 14.0535 33.4402Z" fill="white"/>
<path d="M18.123 11.8978C19.876 12.3988 20.8777 14.1523 20.4394 15.8431C19.9386 17.5965 18.1856 18.5985 16.4952 18.1601C14.8048 17.7218 13.7405 15.9057 14.1787 14.2149C14.617 12.4614 16.37 11.3969 18.123 11.8978Z" fill="white"/>
</svg>
