<svg width="159" height="50" viewBox="0 0 159 50" fill="none" xmlns="http://www.w3.org/2000/svg">
<path fill-rule="evenodd" clip-rule="evenodd" d="M74.1747 18.8893L73.7864 20.6545L73.2921 23.0199H75.8341L77.7405 14.4409H74.9867L70.2206 20.4427L68.7025 14.4409H65.9488L63.2303 23.0199H65.8076L66.549 20.6545L67.1138 18.8893L67.2904 19.5954L67.7493 21.4312H67.7846L68.173 23.0199H70.8914L72.1624 21.4312H72.1977L73.6452 19.5954L74.1747 18.8893Z" fill="white"/>
<path fill-rule="evenodd" clip-rule="evenodd" d="M158.694 14.4409L157.529 18.854H150.044L146.443 32.305H141.112L144.713 18.854H137.264L138.429 14.4409H158.694Z" fill="#F5333F"/>
<path fill-rule="evenodd" clip-rule="evenodd" d="M119.894 18.8541C119.647 19.8427 119.47 20.4075 119.223 21.3961H131.121L130.097 25.2089C125.79 25.2089 122.507 25.2089 118.199 25.2089C117.882 26.4093 117.776 26.727 117.458 27.9274C122.966 27.9274 127.661 27.9274 133.204 27.9274L132.039 32.3405C125.719 32.3405 120.071 32.3405 113.928 32.3405C112.304 32.3405 111.35 30.9989 111.774 29.3749C112.833 25.3855 113.928 21.3961 114.987 17.3713C115.41 15.7473 117.105 14.4058 118.729 14.4058C124.872 14.4058 130.556 14.4058 136.84 14.4058L135.64 18.8188C130.132 18.8541 125.437 18.8541 119.894 18.8541Z" fill="#F5333F"/>
<path fill-rule="evenodd" clip-rule="evenodd" d="M81.5535 16.5592C81.4122 17.0181 81.3416 17.3006 81.2357 17.7595H86.9551L86.4608 19.5954C84.3778 19.5954 82.8244 19.5954 80.7415 19.5954C80.6002 20.1603 80.5296 20.3368 80.3884 20.9016C83.0363 20.9016 85.2957 20.9016 87.9436 20.9016L87.3787 23.0199C84.3425 23.0199 81.6241 23.0199 78.6585 23.0199C77.8818 23.0199 77.4228 22.3844 77.6347 21.6077C78.1642 19.7013 78.6585 17.7595 79.1881 15.8531C79.3999 15.0764 80.2119 14.4409 80.9886 14.4409C83.9542 14.4409 86.6726 14.4409 89.7088 14.4409L89.1439 16.5592C86.4608 16.5592 84.2013 16.5592 81.5535 16.5592Z" fill="white"/>
<path fill-rule="evenodd" clip-rule="evenodd" d="M44.166 16.5593C43.8835 17.6185 43.5305 18.9247 43.0009 20.9018H48.0847L48.3319 19.9839C45.7193 19.9839 48.4025 19.9839 45.7547 19.9839L46.2842 18.0774C49.3557 18.0774 46.5314 18.0774 49.6028 18.0774C50.3442 18.0774 50.8032 18.6776 50.5914 19.419L50.203 20.9018L49.9912 21.6432C49.7794 22.3846 49.038 22.9848 48.2613 22.9848H41.2004C40.459 22.9848 40 22.3846 40.2118 21.6432L41.8006 15.7473C42.0124 15.0059 42.7891 14.4058 43.5305 14.4058H51.6858L51.1209 16.524C48.6849 16.5593 46.5667 16.5593 44.166 16.5593Z" fill="white"/>
<path fill-rule="evenodd" clip-rule="evenodd" d="M87.4845 31.4222V31.4575V31.4929V31.5282V31.5635V31.5988V31.6341V31.6694V31.7047V31.74V31.7753V31.8106V31.8459V31.8812V31.9165V31.9518V31.9871V32.0224V32.0577V32.093V32.1283V32.1636V32.1989V32.2342V32.1989V32.1636V32.1283V32.093V32.0224V31.9518L87.5198 31.8812V31.8459V31.8106L87.5551 31.74L87.5904 31.6341L87.4845 31.4222ZM94.7573 25.2793H105.419L104.572 28.4567C101.006 28.4567 97.4404 28.492 93.8746 28.492L94.0512 27.7859L94.7573 25.2793ZM96.4872 18.8538H107.149L106.443 21.4664H95.7811L96.4872 18.8538ZM106.372 32.3402C107.926 32.3402 109.515 31.0692 109.938 29.5158C110.397 27.8212 110.362 27.8918 110.821 26.2325C111.244 24.6791 110.327 23.4081 108.773 23.4081C110.327 23.4081 111.915 22.1372 112.339 20.5838C112.798 18.8891 112.763 18.9597 113.222 17.3004C113.645 15.747 112.727 14.4761 111.139 14.4761C104.784 14.4761 98.3936 14.4761 92.0388 14.4761L91.2974 17.1945L90.8385 18.8891L89.391 24.2907L88.4378 27.7859L87.4845 31.281V31.3163L87.4492 31.4222V31.4575V31.4929V31.5282V31.5635V31.5988V31.6694V31.7047L87.4139 31.7753L87.3786 31.8459V31.8812V31.9165L87.3433 31.9871V32.0224L87.308 32.1283L87.2727 32.2342H106.372V32.3402Z" fill="#F5333F"/>
<path fill-rule="evenodd" clip-rule="evenodd" d="M58.6761 19.8074L57.97 17.0183L55.7811 19.8074H58.6761ZM62.2419 23.0201H59.4881L59.1351 21.6432H54.3337L53.2392 23.0201H50.4855L57.3345 14.4058H60.053L62.2419 23.0201Z" fill="white"/>
<path fill-rule="evenodd" clip-rule="evenodd" d="M60.7591 26.9389C60.1942 29.1278 60.406 28.2805 59.7705 30.5753C61.3239 30.5753 62.842 30.5753 64.3954 30.5753C64.9956 28.2805 64.7838 29.1278 65.3839 26.9389C63.8305 26.9389 62.3125 26.9389 60.7591 26.9389ZM58.3583 32.3405C57.7229 32.3405 57.3345 31.8109 57.4757 31.1755C57.8994 29.5867 58.323 27.9627 58.7467 26.374C58.9232 25.7386 59.594 25.209 60.2295 25.209C62.4184 25.209 64.5719 25.209 66.7608 25.209C67.3963 25.209 67.7847 25.7386 67.6434 26.374C67.2198 27.9627 66.7961 29.5867 66.3725 31.1755C66.1959 31.8109 65.5252 32.3405 64.8897 32.3405C62.7008 32.3405 60.5472 32.3405 58.3583 32.3405Z" fill="white"/>
<path fill-rule="evenodd" clip-rule="evenodd" d="M55.7811 29.6925C56.4166 29.6925 57.0521 29.1982 57.2286 28.5627C57.4051 27.8919 57.6522 26.974 57.8288 26.2679C58.0053 25.6324 57.6169 25.1382 57.0168 25.1382C54.4748 25.1382 51.8976 25.1382 49.3557 25.1382L48.8967 26.9034C51.0856 26.9034 53.2392 26.9034 55.4281 26.9034L55.1456 27.8919C53.3451 27.8919 51.5446 27.8919 49.744 27.8919C49.1086 27.8919 48.4731 28.3862 48.2966 29.0217C48.0141 30.1161 47.6964 31.2106 47.4139 32.305C48.1553 32.305 48.932 32.305 49.6734 32.305C49.9206 31.3518 50.1324 30.6457 50.3795 29.6925H55.7811V29.6925Z" fill="white"/>
<path fill-rule="evenodd" clip-rule="evenodd" d="M73.857 32.3405H76.1165L75.3398 29.4808H75.7635C76.3989 29.4808 77.0344 28.9866 77.2109 28.3511C77.3875 27.6803 77.564 27.0095 77.7405 26.3387C77.917 25.7032 77.5287 25.209 76.9285 25.209C74.3866 25.209 71.8094 25.209 69.2674 25.209L68.8085 26.9742C70.9974 26.9742 73.1509 26.9742 75.3398 26.9742L75.0574 27.9627C73.2568 27.9627 71.4563 27.998 69.6558 27.998C69.0203 27.998 68.3848 28.4923 68.2083 29.1278C67.9259 30.2222 67.6434 31.2814 67.3257 32.3758H69.5852C69.8323 31.4226 70.0794 30.4694 70.3619 29.5161C71.2798 29.5161 72.1624 29.5161 73.0803 29.5161L73.857 32.3405Z" fill="white"/>
<path fill-rule="evenodd" clip-rule="evenodd" d="M46.249 27.7862C46.8845 27.7862 47.2375 28.2805 47.061 28.916C46.8845 29.5867 46.6373 30.5047 46.4608 31.2108C46.2843 31.8462 45.6488 32.3405 45.0133 32.3405C42.4714 32.3405 40.1413 32.3405 37.5641 32.3405L38.023 30.5753C40.2119 30.5753 42.1537 30.5753 44.3425 30.5753L44.625 29.5867C42.8245 29.5867 41.0239 29.5867 39.2234 29.5867C38.5879 29.5867 38.2349 29.0925 38.4114 28.457C38.5879 27.7509 38.7997 27.0095 38.9763 26.3034C39.1528 25.7032 39.753 25.209 40.3884 25.209C42.9657 25.209 45.2252 25.209 47.8024 25.209L47.3434 26.9742H41.0945L40.8827 27.8215H46.249V27.7862Z" fill="white"/>
<path fill-rule="evenodd" clip-rule="evenodd" d="M86.8138 25.1733L86.3195 26.9386H83.3539L81.9064 32.3402H79.7529L81.2003 26.9386H78.1995L78.6937 25.1733H86.8138Z" fill="white"/>
<path d="M0.0351279 40.2314C-0.10609 40.9375 0.176346 42.2438 1.3767 42.5615C1.412 42.5615 1.44731 42.5968 1.51792 42.5968C3.07131 42.9146 4.37758 41.926 5.01306 41.573C8.11986 39.7018 9.53204 38.5721 10.8383 38.1131C12.5682 37.4777 14.3688 37.7248 15.5691 37.9719C16.7342 38.325 18.4288 39.0311 19.5938 40.4432C20.4764 41.5024 21.1472 43.197 22.9124 46.3744C23.2655 47.0099 23.901 48.4927 25.4191 48.9869C25.4544 48.9869 25.4897 49.0222 25.5603 49.0222C26.7959 49.34 27.6786 48.3514 27.8904 47.6807C28.2434 46.5862 29.9733 37.6189 29.7968 35.3947C29.6909 33.9825 28.9848 32.2879 27.5373 31.1935C27.8198 28.7928 27.3961 27.0628 26.7606 24.9093C27.8551 23.8501 28.7024 22.5086 29.126 20.9198C29.6909 18.8722 29.4438 16.7892 28.5965 14.9887C28.8083 7.43353 25.4897 0.9375 25.4897 0.9375C25.4897 0.9375 19.4173 4.8563 15.8162 11.5289C14.1922 12.6586 12.9213 14.3532 12.3564 16.4009C11.9327 17.9896 11.968 19.6136 12.3917 21.0611C10.7677 22.6145 9.53204 23.8854 8.57882 26.0743C6.77829 26.2861 5.3308 27.4159 4.5188 28.5809C3.24784 30.4521 0.282259 39.0664 0.0351279 40.2314ZM21.5709 30.0284C20.2999 29.9578 19.0289 29.8166 17.8286 29.4635C16.5929 29.1458 15.4279 28.6162 14.2981 28.0514C14.1922 26.9216 14.1922 25.686 14.2628 24.3797C15.3573 25.6153 16.8048 26.5333 18.4994 26.9922C20.2293 27.4512 21.9592 27.3806 23.5126 26.851C22.8771 28.0514 22.2417 29.1105 21.5709 30.0284ZM18.4288 10.3285C19.2055 9.19875 20.0175 8.13962 20.8295 7.2217L26.3723 8.70449C26.6194 9.90484 26.7959 11.2111 26.9019 12.588C25.8427 11.5289 24.5365 10.7168 22.9831 10.2932C21.4297 9.90484 19.8763 9.94015 18.4288 10.3285ZM22.5594 11.8466C26.337 12.8704 28.5612 16.7539 27.5373 20.4962C26.5135 24.2738 22.63 26.498 18.8877 25.4741C15.1101 24.4503 12.886 20.5668 13.9098 16.8245C14.8983 13.0822 18.7818 10.8581 22.5594 11.8466ZM25.7015 35.7124C26.2664 35.8537 26.5841 36.4538 26.4429 37.0187C26.3017 37.5836 25.7015 37.9013 25.1366 37.7601C24.5718 37.6189 24.254 37.0187 24.3952 36.4538C24.5718 35.889 25.1366 35.5712 25.7015 35.7124ZM23.9716 32.6763C24.5365 32.8175 24.8542 33.4176 24.713 33.9825C24.5718 34.5474 23.9716 34.8651 23.4067 34.7239C22.8418 34.5827 22.5241 33.9825 22.6653 33.4176C22.8065 32.8881 23.4067 32.535 23.9716 32.6763ZM22.6653 37.4424C23.2302 37.5836 23.5479 38.1838 23.4067 38.7486C23.2655 39.3135 22.6653 39.6312 22.1004 39.49C21.5356 39.3488 21.2178 38.7486 21.359 38.1838C21.5356 37.6189 22.1357 37.3011 22.6653 37.4424ZM20.9354 34.4415C21.5003 34.5827 21.818 35.1829 21.6768 35.7477C21.5356 36.3126 20.9354 36.6304 20.3705 36.4891C19.8056 36.3479 19.4879 35.7477 19.6291 35.1829C19.8056 34.618 20.3705 34.265 20.9354 34.4415ZM6.67237 31.1935C6.74298 30.9463 7.02542 30.7698 7.27255 30.8404L8.93186 31.2641L9.35552 29.6048C9.42612 29.3576 9.70856 29.1811 9.95569 29.2517L10.9089 29.4988C11.156 29.5695 11.3326 29.8519 11.262 30.099L10.8383 31.7583L12.4976 32.182C12.7447 32.2526 12.9213 32.535 12.8507 32.7822L12.5682 33.7707C12.4976 34.0178 12.2152 34.1943 11.968 34.1237L10.3087 33.7001L9.88508 35.3241C9.81447 35.5712 9.53204 35.7477 9.28491 35.6771L8.33169 35.43C8.08455 35.3594 7.90803 35.077 7.97864 34.8298L8.40229 33.1705L6.74298 32.7469C6.49585 32.6762 6.31933 32.3938 6.38994 32.1467L6.67237 31.1935Z" fill="#F5333F"/>
<path d="M16.8402 40.8317C16.4872 42.2086 14.8279 43.2324 13.8747 44.221C13.5569 42.8794 12.639 41.1495 12.9921 39.8079C13.0274 39.6314 13.1333 39.4548 13.2392 39.2783C12.3919 39.6314 11.7211 40.3728 11.474 41.2907C10.8385 43.6208 12.18 46.4804 12.639 48.7399C14.1571 47.01 16.7696 45.2448 17.4051 42.9147C17.6522 41.9615 17.4404 41.0082 16.9109 40.2668C16.9109 40.4434 16.8755 40.6552 16.8402 40.8317Z" fill="white"/>
<path d="M21.7477 14.9181C23.8306 15.483 25.0663 17.6012 24.5014 19.6842C23.9366 21.7672 21.8183 23.0028 19.7353 22.438C17.6524 21.8731 16.4167 19.7548 16.9816 17.6718C17.5111 15.5889 19.6647 14.3532 21.7477 14.9181Z" fill="white"/>
<path d="M42.762 36.2338L41.8567 40.6471H40.8382L41.5738 37.0825H40.0461L39.8198 38.1576C39.6501 38.8365 39.4803 39.3457 39.3671 39.6852C39.1974 40.0247 39.0277 40.3076 38.8013 40.4773C38.575 40.6471 38.3487 40.7037 38.0092 40.7037C37.8395 40.7037 37.6697 40.7037 37.5 40.6471L37.7263 39.7984C37.7829 39.7984 37.8395 39.7984 37.8961 39.7984C38.0658 39.7984 38.179 39.7418 38.2921 39.6286C38.4053 39.5155 38.5184 39.3457 38.6316 39.0628C38.7448 38.7799 38.8579 38.4405 38.9145 37.9878L39.3671 36.1772H42.762V36.2338Z" fill="white"/>
<path d="M46.3265 39.6853H44.2896L43.7238 40.6472H42.6488L45.4778 36.2339H46.4962L47.5713 40.6472H46.5528L46.3265 39.6853ZM46.1568 38.8932L45.7607 37.1958L44.7423 38.8932H46.1568Z" fill="white"/>
<path d="M49.2122 36.2339H52.7767L52.607 37.026H50.0609L49.8911 37.9313H51.1359C51.5885 37.9313 51.928 38.0445 52.1543 38.2142C52.3807 38.4405 52.4938 38.7234 52.4938 39.0629C52.4938 39.4024 52.4373 39.6287 52.2675 39.855C52.0978 40.0813 51.8714 40.2511 51.532 40.3642C51.1925 40.4774 50.853 40.534 50.4003 40.534H48.3069L49.2122 36.2339ZM50.5135 39.855C50.7964 39.855 51.0227 39.7984 51.1925 39.6853C51.3622 39.5721 51.4188 39.4024 51.4188 39.1761C51.4188 39.0063 51.3622 38.8932 51.2491 38.78C51.1359 38.7234 50.9662 38.6668 50.7398 38.6668H49.7214L49.4951 39.855H50.5135Z" fill="white"/>
<path d="M54.2477 40.4773C53.9082 40.3076 53.6819 40.0812 53.5121 39.7983C53.3424 39.5154 53.2292 39.1759 53.2292 38.7799C53.2292 38.2707 53.3424 37.818 53.5687 37.422C53.7951 37.0259 54.1345 36.6864 54.5306 36.4601C54.9267 36.2338 55.4359 36.1206 55.9451 36.1206C56.3978 36.1206 56.7938 36.1772 57.0767 36.3469C57.3596 36.5167 57.6425 36.743 57.8122 37.0259C57.982 37.3088 58.0952 37.6483 58.0952 38.0443C58.0952 38.5536 57.982 39.0062 57.7557 39.4023C57.5293 39.7983 57.1899 40.1378 56.7938 40.3641C56.3978 40.5905 55.8885 40.7036 55.3793 40.7036C54.9267 40.7036 54.5872 40.5905 54.2477 40.4773ZM56.3412 39.572C56.5675 39.4023 56.7938 39.2325 56.907 38.9496C57.0201 38.6667 57.0767 38.3838 57.0767 38.1009C57.0767 37.7614 56.9635 37.4785 56.7372 37.3088C56.5109 37.0825 56.228 37.0259 55.8319 37.0259C55.4925 37.0259 55.2096 37.0825 54.9832 37.2522C54.7569 37.422 54.5306 37.5917 54.4174 37.8746C54.3043 38.1575 54.2477 38.4404 54.2477 38.7233C54.2477 39.0628 54.3608 39.3457 54.5872 39.5154C54.8135 39.7418 55.0964 39.7983 55.4925 39.7983C55.7754 39.8549 56.0583 39.7418 56.3412 39.572Z" fill="white"/>
<path d="M62.5085 36.5733C62.7914 36.7996 62.9612 37.1391 62.9612 37.5918C62.9612 37.9878 62.848 38.2707 62.6783 38.5536C62.5085 38.8365 62.2822 39.0628 61.9427 39.176C61.6032 39.2892 61.2638 39.4023 60.8111 39.4023H59.8493L59.6229 40.5905H58.6045L59.5098 36.1772H61.2638C61.773 36.2338 62.2256 36.347 62.5085 36.5733ZM61.6598 38.3273C61.8296 38.1576 61.9427 37.9312 61.9427 37.6483C61.9427 37.422 61.8861 37.3089 61.7164 37.1957C61.6032 37.0825 61.3769 37.026 61.094 37.026H60.3019L60.019 38.5536H60.8677C61.2072 38.5536 61.4901 38.497 61.6598 38.3273Z" fill="white"/>
<path d="M66.2994 39.6853H64.2625L63.6967 40.6472H62.6217L65.4507 36.2339H66.4692L67.5442 40.6472H66.5257L66.2994 39.6853ZM66.1297 38.8932L65.7336 37.1958L64.7152 38.8932H66.1297Z" fill="white"/>
<path d="M72.1271 37.026H70.7126L70.0337 40.5905H69.0152L69.6942 37.026H68.2797L68.4494 36.1772H72.2403L72.1271 37.026Z" fill="white"/>
<path d="M73.2587 40.4773C72.9192 40.3076 72.6929 40.0812 72.5231 39.7983C72.3534 39.5154 72.2402 39.1759 72.2402 38.7799C72.2402 38.2707 72.3534 37.818 72.5797 37.422C72.806 37.0259 73.1455 36.6864 73.5416 36.4601C73.9376 36.2338 74.4469 36.1206 74.9561 36.1206C75.4087 36.1206 75.8048 36.1772 76.0877 36.3469C76.3706 36.5167 76.6535 36.743 76.8232 37.0259C76.993 37.3088 77.1061 37.6483 77.1061 38.0443C77.1061 38.5536 76.993 39.0062 76.7667 39.4023C76.5403 39.7983 76.2008 40.1378 75.8048 40.3641C75.4087 40.5905 74.8995 40.7036 74.3903 40.7036C73.9376 40.7036 73.5982 40.5905 73.2587 40.4773ZM75.3521 39.572C75.5785 39.4023 75.8048 39.2325 75.918 38.9496C76.0311 38.6667 76.0877 38.3838 76.0877 38.1009C76.0877 37.7614 75.9745 37.4785 75.7482 37.3088C75.5219 37.0825 75.239 37.0259 74.8429 37.0259C74.5034 37.0259 74.2205 37.0825 73.9942 37.2522C73.7679 37.422 73.5416 37.5917 73.4284 37.8746C73.3153 38.1575 73.2587 38.4404 73.2587 38.7233C73.2587 39.0628 73.3718 39.3457 73.5982 39.5154C73.8245 39.7418 74.1074 39.7983 74.5034 39.7983C74.7863 39.8549 75.0692 39.7418 75.3521 39.572Z" fill="white"/>
<path d="M81.5195 36.5733C81.8024 36.7996 81.9722 37.1391 81.9722 37.5918C81.9722 37.9878 81.859 38.2707 81.6893 38.5536C81.5195 38.8365 81.2932 39.0628 80.9537 39.176C80.6142 39.2892 80.2748 39.4023 79.8221 39.4023H78.8603L78.6339 40.5905H77.6155L78.5208 36.1772H80.2748C80.784 36.2338 81.2366 36.347 81.5195 36.5733ZM80.6708 38.3273C80.8406 38.1576 80.9537 37.9312 80.9537 37.6483C80.9537 37.422 80.8972 37.3089 80.7274 37.1957C80.6142 37.0825 80.3879 37.026 80.105 37.026H79.3129L79.03 38.5536H79.8787C80.2182 38.5536 80.5011 38.497 80.6708 38.3273Z" fill="white"/>
<path d="M83.2169 36.2339H84.2354L83.6696 39.1195L86.3289 36.2339H87.2907L86.3854 40.6472H85.367L85.9328 37.7616L83.2735 40.6472H82.3116L83.2169 36.2339Z" fill="white"/>
<path d="M92.0434 36.2339L91.1947 40.6472H90.1763L90.4026 39.459H89.4973L88.4789 40.6472H87.3473L88.5355 39.2892C88.3091 39.1761 88.1394 39.0063 88.0262 38.8366C87.9131 38.6668 87.8565 38.3839 87.8565 38.1576C87.8565 37.7616 87.9697 37.4221 88.1394 37.1392C88.3092 36.8563 88.5921 36.6299 88.9315 36.4602C89.271 36.2905 89.6671 36.2339 90.1197 36.2339H92.0434ZM89.2144 37.3089C89.0447 37.4787 88.9315 37.705 88.9315 37.9879C88.9315 38.2142 88.9881 38.3274 89.1013 38.4405C89.2144 38.5537 89.3842 38.6103 89.6671 38.6103H90.5724L90.9118 37.026H90.0631C89.6671 37.026 89.3842 37.1392 89.2144 37.3089Z" fill="white"/>
<path d="M98.437 37.026H97.0225L96.287 40.6472H95.2686L95.9475 37.0826H94.5896L94.7593 36.2339H98.5502L98.437 37.026Z" fill="white"/>
<path d="M102.624 38.6668C102.737 38.8365 102.794 39.0063 102.794 39.2326C102.794 39.6852 102.624 40.0247 102.228 40.251C101.888 40.4774 101.379 40.5905 100.813 40.5905H98.4935L99.3988 36.1772H101.549C102.002 36.1772 102.398 36.2904 102.624 36.4601C102.907 36.6299 103.02 36.8562 103.02 37.1957C103.02 37.4786 102.963 37.7049 102.794 37.8747C102.624 38.0444 102.454 38.2141 102.228 38.3273C102.398 38.4405 102.511 38.5536 102.624 38.6668ZM101.549 39.6852C101.719 39.5721 101.775 39.4023 101.775 39.2326C101.775 38.9497 101.549 38.7799 101.096 38.7799H99.8515L99.6251 39.855H100.813C101.153 39.855 101.379 39.7984 101.549 39.6852ZM100.248 36.9694L100.021 37.9878H101.04C101.323 37.9878 101.492 37.9312 101.662 37.8181C101.832 37.7049 101.888 37.5352 101.888 37.3654C101.888 37.0825 101.662 36.9694 101.266 36.9694H100.248Z" fill="white"/>
<path d="M104.604 40.4773C104.265 40.3076 104.038 40.0812 103.869 39.7983C103.699 39.5154 103.586 39.1759 103.586 38.7799C103.586 38.2707 103.699 37.818 103.925 37.422C104.152 37.0259 104.491 36.6864 104.887 36.4601C105.283 36.2338 105.792 36.1206 106.302 36.1206C106.754 36.1206 107.15 36.1772 107.433 36.3469C107.716 36.5167 107.999 36.743 108.169 37.0259C108.339 37.3088 108.452 37.6483 108.452 38.0443C108.452 38.5536 108.339 39.0062 108.112 39.4023C107.886 39.7983 107.546 40.1378 107.15 40.3641C106.754 40.5905 106.245 40.7036 105.736 40.7036C105.283 40.7036 104.944 40.5905 104.604 40.4773ZM106.698 39.572C106.924 39.4023 107.15 39.2325 107.264 38.9496C107.377 38.6667 107.433 38.3838 107.433 38.1009C107.433 37.7614 107.32 37.4785 107.094 37.3088C106.867 37.0825 106.585 37.0259 106.189 37.0259C105.849 37.0259 105.566 37.0825 105.34 37.2522C105.113 37.422 104.887 37.5917 104.774 37.8746C104.661 38.1575 104.604 38.4404 104.604 38.7233C104.604 39.0628 104.717 39.3457 104.944 39.5154C105.17 39.7418 105.453 39.7983 105.849 39.7983C106.132 39.8549 106.415 39.7418 106.698 39.572Z" fill="white"/>
<path d="M109.866 36.2339H110.885L110.319 39.1195L112.978 36.2339H113.94L113.035 40.6472H112.016L112.582 37.7616L109.923 40.6472H108.961L109.866 36.2339Z" fill="white"/>
<path d="M115.92 36.2339L116.543 37.5918L117.731 36.2339H118.919L117.052 38.3274L118.184 40.6472H116.995L116.26 39.1761L114.958 40.6472H113.77L115.807 38.3839L114.789 36.2339H115.92V36.2339Z" fill="white"/>
<path d="M125.765 36.2339L124.86 40.6472H123.842L124.52 37.0826H122.54L121.861 40.6472H120.843L121.748 36.2339H125.765Z" fill="white"/>
<path d="M127.293 40.4773C126.953 40.3076 126.727 40.0812 126.557 39.7983C126.388 39.5154 126.275 39.1759 126.275 38.7799C126.275 38.2707 126.388 37.818 126.614 37.422C126.84 37.0259 127.18 36.6864 127.576 36.4601C127.972 36.2338 128.481 36.1206 128.99 36.1206C129.443 36.1206 129.839 36.1772 130.122 36.3469C130.405 36.5167 130.688 36.743 130.858 37.0259C131.027 37.3088 131.14 37.6483 131.14 38.0443C131.14 38.5536 131.027 39.0062 130.801 39.4023C130.575 39.7983 130.235 40.1378 129.839 40.3641C129.443 40.5905 128.934 40.7036 128.425 40.7036C127.972 40.7036 127.576 40.5905 127.293 40.4773ZM129.386 39.572C129.613 39.4023 129.839 39.2325 129.952 38.9496C130.065 38.6667 130.122 38.3838 130.122 38.1009C130.122 37.7614 130.009 37.4785 129.783 37.3088C129.556 37.0825 129.273 37.0259 128.877 37.0259C128.538 37.0259 128.255 37.0825 128.029 37.2522C127.802 37.422 127.576 37.5917 127.463 37.8746C127.35 38.1575 127.293 38.4404 127.293 38.7233C127.293 39.0628 127.406 39.3457 127.632 39.5154C127.859 39.7418 128.142 39.7983 128.538 39.7983C128.821 39.8549 129.104 39.7418 129.386 39.572Z" fill="white"/>
<path d="M132.555 36.2339H136.12L135.95 37.026H133.404L133.234 37.9313H134.479C134.931 37.9313 135.271 38.0445 135.497 38.2142C135.723 38.4405 135.837 38.7234 135.837 39.0629C135.837 39.4024 135.78 39.6287 135.61 39.855C135.441 40.0813 135.214 40.2511 134.875 40.3642C134.535 40.4774 134.196 40.534 133.743 40.534H131.65L132.555 36.2339ZM133.8 39.855C134.083 39.855 134.309 39.7984 134.479 39.6853C134.648 39.5721 134.705 39.4024 134.705 39.1761C134.705 39.0063 134.648 38.8932 134.535 38.78C134.422 38.7234 134.252 38.6668 134.026 38.6668H133.064L132.838 39.855H133.8Z" fill="white"/>
<path d="M138.156 37.026L137.987 37.9879H140.024L139.854 38.78H137.817L137.591 39.7985H139.967L139.854 40.6472H136.459L137.364 36.2339H140.703L140.533 37.026H138.156Z" fill="white"/>
<path d="M144.946 39.7984H145.568L145.229 41.5524H144.267L144.437 40.6471H141.325L141.155 41.5524H140.193L140.533 39.7984H140.646C140.929 39.7984 141.155 39.5721 141.325 39.176C141.551 38.7799 141.721 38.2141 141.891 37.5352L142.23 36.1772H145.625L144.946 39.7984ZM142.457 39.0063C142.343 39.3457 142.174 39.5721 142.004 39.7418H143.928L144.493 37.026H142.966L142.796 37.7049C142.683 38.2707 142.57 38.6668 142.457 39.0063Z" fill="white"/>
</svg>
