<svg width="80" height="129" viewBox="0 0 80 129" fill="none" xmlns="http://www.w3.org/2000/svg">
<path d="M0.419193 104.838C0.0433134 106.718 0.795072 110.195 3.99004 111.04C4.08401 111.04 4.17798 111.134 4.36592 111.134C8.50059 111.98 11.9775 109.349 13.6689 108.409C21.9383 103.429 25.6971 100.422 29.1739 99.2002C33.7785 97.5088 38.5709 98.1666 41.7659 98.8243C44.8669 99.764 49.3774 101.643 52.4785 105.402C54.8277 108.221 56.6131 112.732 61.3116 121.189C62.2513 122.881 63.9428 126.827 67.9835 128.143C68.0774 128.143 68.1714 128.237 68.3594 128.237C71.6483 129.083 73.9975 126.451 74.5614 124.666C75.5011 121.753 80.1056 97.8846 79.6357 91.9645C79.3538 88.2057 77.4744 83.6952 73.6217 80.7821C74.3734 74.3922 73.2458 69.7877 71.5543 64.0555C74.4674 61.2364 76.7227 57.6656 77.8503 53.4369C79.3538 47.9867 78.696 42.4424 76.4408 37.65C77.0046 17.5404 68.1714 0.25 68.1714 0.25C68.1714 0.25 52.0086 10.6807 42.4237 28.4409C38.1011 31.448 34.7182 35.9585 33.2146 41.4088C32.087 45.6374 32.181 49.96 33.3086 53.8128C28.986 57.9475 25.6971 61.3304 23.1599 67.1565C18.3674 67.7203 14.5147 70.7274 12.3534 73.8284C8.97044 78.8088 1.07698 101.737 0.419193 104.838ZM57.7408 77.6811C54.3578 77.4932 50.9749 77.1173 47.78 76.1776C44.491 75.3319 41.39 73.9223 38.383 72.4188C38.1011 69.4118 38.1011 66.1228 38.289 62.646C41.2021 65.9349 45.0548 68.3781 49.5654 69.5997C54.1699 70.8213 58.7744 70.6334 62.9091 69.2239C61.2176 72.4188 59.5262 75.2379 57.7408 77.6811ZM49.3774 25.246C51.4448 22.2389 53.6061 19.4198 55.7674 16.9766L70.5207 20.9234C71.1784 24.1183 71.6483 27.5952 71.9302 31.26C69.1111 28.4409 65.6342 26.2796 61.4996 25.152C57.3649 24.1183 53.2302 24.2123 49.3774 25.246ZM60.3719 29.2867C70.4267 32.0118 76.3468 42.3485 73.6217 52.3093C70.8965 62.3641 60.5599 68.2841 50.5991 65.559C40.5443 62.8339 34.6242 52.4972 37.3493 42.5364C39.9805 32.5756 50.3172 26.6555 60.3719 29.2867ZM68.7352 92.8103C70.2387 93.1862 71.0845 94.7836 70.7086 96.2872C70.3327 97.7907 68.7352 98.6364 67.2317 98.2605C65.7282 97.8847 64.8825 96.2872 65.2583 94.7836C65.7282 93.2801 67.2317 92.4344 68.7352 92.8103ZM64.1307 84.7289C65.6342 85.1048 66.48 86.7022 66.1041 88.2057C65.7282 89.7093 64.1307 90.555 62.6272 90.1791C61.1237 89.8032 60.2779 88.2058 60.6538 86.7022C61.0297 85.2927 62.6272 84.353 64.1307 84.7289ZM60.6538 97.4148C62.1573 97.7907 63.0031 99.3882 62.6272 100.892C62.2513 102.395 60.6538 103.241 59.1503 102.865C57.6468 102.489 56.8011 100.892 57.1769 99.3882C57.6468 97.8846 59.2443 97.0389 60.6538 97.4148ZM56.0493 89.4274C57.5528 89.8032 58.3986 91.4007 58.0227 92.9042C57.6468 94.4078 56.0493 95.2535 54.5458 94.8776C53.0423 94.5017 52.1965 92.9042 52.5724 91.4007C53.0423 89.8972 54.5458 88.9575 56.0493 89.4274ZM18.0855 80.7821C18.2735 80.1243 19.0252 79.6545 19.683 79.8424L24.0996 80.9701L25.2272 76.5535C25.4152 75.8957 26.1669 75.4259 26.8247 75.6138L29.3619 76.2716C30.0197 76.4595 30.4895 77.2113 30.3016 77.8691L29.1739 82.2857L33.5905 83.4133C34.2483 83.6012 34.7182 84.353 34.5302 85.0108L33.7785 87.6419C33.5905 88.2997 32.8388 88.7696 32.181 88.5816L27.7644 87.454L26.6368 91.7766C26.4488 92.4344 25.6971 92.9042 25.0393 92.7163L22.5021 92.0585C21.8443 91.8706 21.3745 91.1188 21.5624 90.461L22.69 86.0444L18.2735 84.9168C17.6157 84.7289 17.1458 83.9771 17.3338 83.3193L18.0855 80.7821Z" fill="#F5333F"/>
<path d="M45.1493 106.436C44.2096 110.101 39.793 112.826 37.2558 115.457C36.4101 111.886 33.9668 107.281 34.9065 103.711C35.0005 103.241 35.2824 102.771 35.5643 102.301C33.3091 103.241 31.5236 105.214 30.8658 107.657C29.1744 113.859 32.7452 121.471 33.9668 127.485C38.0075 122.88 44.9613 118.182 46.6528 111.98C47.3106 109.443 46.7467 106.906 45.3372 104.932C45.3372 105.402 45.2432 105.966 45.1493 106.436Z" fill="white"/>
<path d="M58.2115 37.4612C63.7558 38.9647 67.0447 44.6029 65.5412 50.1471C64.0377 55.6913 58.3995 58.9802 52.8553 57.4767C47.311 55.9732 44.0221 50.335 45.5256 44.7908C46.9352 39.2466 52.6673 35.9576 58.2115 37.4612Z" fill="white"/>
</svg>
